<svg width="52" height="53" viewBox="0 0 52 53" fill="none" xmlns="http://www.w3.org/2000/svg">
<path d="M29.9395 12.665C29.6671 11.7703 29.3781 10.9286 29.0732 10.149C27.6443 6.49442 25.9715 4.28743 24.3908 4.39797C22.8101 4.5085 21.463 6.92666 20.5545 10.7447C20.3608 11.5569 20.1919 12.4329 20.0467 13.3568L29.9395 12.665Z" fill="#030403"/>
<path d="M21.4723 38.038L31.9691 37.304C32.3599 34.084 32.4681 30.34 32.2295 26.3473L19.6895 27.2242C20.0089 31.2113 20.6371 34.9037 21.4723 38.038Z" fill="#030403"/>
<path d="M14.2906 11.3834C13.8234 12.1561 13.3982 12.9801 13.0167 13.8484L18.5738 13.4598C18.7349 12.3745 18.9275 11.3548 19.1528 10.414C19.6757 8.21135 20.3796 6.40447 21.2329 5.11964C18.4727 6.20614 16.0823 8.41746 14.293 11.3855L14.2906 11.3834Z" fill="#030403"/>
<path d="M10.9485 27.8354C11.32 31.8256 12.4223 35.4895 14.0447 38.5574L20.0038 38.1407C19.1801 34.9763 18.5611 31.2877 18.2457 27.3251L10.9485 27.8354Z" fill="#030403"/>
<path d="M12.4213 15.341C11.2416 18.6048 10.6599 22.3864 10.8473 26.3895L18.1424 25.8794C17.9032 21.9115 18.0028 18.1727 18.3781 14.9244L12.419 15.3411L12.4213 15.341Z" fill="#030403"/>
<path d="M30.3456 14.0876L19.8488 14.8216C19.458 18.0416 19.3498 21.7856 19.5884 25.7783L32.1284 24.9014C31.809 20.9143 31.1808 17.2218 30.3456 14.0876Z" fill="#030403"/>
<path d="M31.4192 12.5618L36.9763 12.1732C36.4777 11.3665 35.9421 10.612 35.3718 9.90953C33.1848 7.2218 30.5096 5.36244 27.6251 4.67066C28.6489 5.82423 29.5975 7.51556 30.4218 9.62395C30.7737 10.5267 31.1087 11.5095 31.419 12.5596L31.4192 12.5618Z" fill="#030403"/>
<path d="M42.3108 24.1894L47.5087 23.8259C47.099 19.8384 45.6238 16.1984 43.3908 13.1754L39.338 13.4588C40.8922 16.5834 41.9487 20.2369 42.3108 24.1894Z" fill="#030403"/>
<path d="M33.4357 37.2014L39.3948 36.7847C40.5745 33.5209 41.1561 29.7393 40.9687 25.7362L33.6737 26.2463C33.9128 30.2142 33.8133 33.953 33.438 37.2013L33.4357 37.2014Z" fill="#030403"/>
<path d="M36.4927 8.99836C37.2506 9.93136 37.9517 10.9563 38.5885 12.0602L42.2865 11.8017C41.6242 11.0425 40.9134 10.3318 40.1565 9.67178C37.9945 7.79231 35.4607 6.34042 32.6938 5.42832C34.067 6.38372 35.3426 7.58738 36.4927 8.99836Z" fill="#030403"/>
<path d="M37.7713 13.5683L31.8123 13.985C32.6361 17.1517 33.2549 20.838 33.5703 24.8006L40.8653 24.2905C40.4937 20.298 39.3915 16.6364 37.7691 13.5685L37.7713 13.5683Z" fill="#030403"/>
<path d="M37.5277 40.7399C37.9926 39.9673 38.42 39.1432 38.8017 38.2771L33.2446 38.6657C33.0835 39.751 32.8909 40.7708 32.6656 41.7116C32.1427 43.9142 31.4387 45.7211 30.5855 47.0059C33.3456 45.9194 35.7361 43.7081 37.5277 40.7399Z" fill="#030403"/>
<path d="M38.7646 41.4879C37.8244 43.0473 36.7266 44.4169 35.4996 45.5519C38.1127 44.2659 40.4173 42.4734 42.2991 40.3112C42.9567 39.5522 43.5639 38.7494 44.112 37.9078L40.414 38.1664C39.9371 39.3482 39.3854 40.4608 38.7647 41.4902L38.7646 41.4879Z" fill="#030403"/>
<path d="M21.8767 39.4607C22.1491 40.3554 22.4381 41.1971 22.7429 41.9745C24.1719 45.6313 25.8446 47.8361 27.4253 47.7255C29.006 47.615 30.3531 45.1969 31.2616 41.3789C31.4553 40.5666 31.6243 39.6928 31.7695 38.7689L21.8767 39.4607Z" fill="#030403"/>
<path d="M40.9615 36.6752L45.0142 36.3918C46.8046 33.0852 47.7591 29.2775 47.6098 25.2718L42.4119 25.6353C42.6011 29.5999 42.0659 33.3669 40.9615 36.6752Z" fill="#030403"/>
<path d="M9.50485 27.9364L4.30699 28.2998C4.71669 32.2874 6.19186 35.9274 8.42488 38.9503L12.4777 38.6669C10.9236 35.5446 9.86698 31.8889 9.50485 27.9364Z" fill="#030403"/>
<path d="M13.0517 10.6375C13.9918 9.07812 15.0896 7.7085 16.3166 6.57352C13.7035 7.85957 11.3988 9.65205 9.51713 11.8143C8.85947 12.5733 8.25225 13.3761 7.70432 14.2199L11.4023 13.9613C11.8792 12.7795 12.431 11.6669 13.0517 10.6375Z" fill="#030403"/>
<path d="M20.3992 39.564L14.8421 39.9526C15.3407 40.7593 15.8763 41.5138 16.4465 42.214C18.6336 44.904 21.3065 46.7635 24.1909 47.4531C23.1671 46.2995 22.2185 44.6082 21.3942 42.4998C21.0423 41.5971 20.7073 40.6142 20.397 39.5641L20.3992 39.564Z" fill="#030403"/>
<path d="M10.8542 15.4506L6.80143 15.734C5.00877 19.0407 4.05664 22.8482 4.20588 26.8539L9.40374 26.4905C9.21451 22.5259 9.74984 18.7588 10.8542 15.4506Z" fill="#030403"/>
<path d="M15.3236 43.1273C14.5657 42.1943 13.8645 41.1694 13.2277 40.0655L9.5297 40.324C10.192 41.0832 10.9028 41.7939 11.6595 42.4517C13.8216 44.3312 16.3555 45.7853 19.1222 46.6951C17.7492 45.742 16.4737 44.5383 15.3234 43.1251L15.3236 43.1273Z" fill="#030403"/>
<path d="M50.3437 24.354L48.8416 24.4591C49.2849 30.7976 47.1209 36.7001 43.2575 41.1444C39.3918 45.5866 33.8478 48.551 27.5095 48.9964C21.171 49.4397 15.2684 47.2757 10.8218 43.4125C6.37965 39.5468 3.41532 34.0028 2.97 27.6667C2.52677 21.3282 4.69068 15.4256 8.55388 10.9791C12.4195 6.53466 17.9636 3.57252 24.302 3.12704C30.6405 2.68381 36.543 4.84778 40.9896 8.71098C45.4318 12.5767 48.3962 18.1207 48.8416 24.4591L51.8436 24.2491C50.8419 9.92408 38.4193 -0.876767 24.092 0.125096C9.76698 1.1268 -1.03162 13.5492 -0.0320019 27.8766C0.969704 42.2017 13.3921 53.0003 27.7194 51.9984C42.0444 50.9967 52.843 38.5744 51.8436 24.2491L50.3415 24.3542L50.3437 24.354Z" fill="#030403"/>
</svg>
