<svg width="1343" height="2106" viewBox="0 0 1343 2106" fill="none" xmlns="http://www.w3.org/2000/svg">
<g clip-path="url(#clip0_501_822)">
<line opacity="0.5" y1="-0.5" x2="2575" y2="-0.5" transform="matrix(0 -1 0.99996 -0.00894739 2 2341)" stroke="white" stroke-opacity="0.3"/>
<line opacity="0.5" y1="-0.5" x2="2575" y2="-0.5" transform="matrix(0 -1 0.99996 -0.00894739 193.429 2341)" stroke="white" stroke-opacity="0.3"/>
<line opacity="0.5" y1="-0.5" x2="2575" y2="-0.5" transform="matrix(0 -1 0.99996 -0.00894739 384.857 2341)" stroke="white" stroke-opacity="0.3"/>
<line opacity="0.5" y1="-0.5" x2="2575" y2="-0.5" transform="matrix(0 -1 0.99996 -0.00894739 576.286 2341)" stroke="white" stroke-opacity="0.3"/>
<line opacity="0.5" y1="-0.5" x2="2575" y2="-0.5" transform="matrix(0 -1 0.99996 -0.00894739 767.714 2341)" stroke="white" stroke-opacity="0.3"/>
<line opacity="0.5" y1="-0.5" x2="2575" y2="-0.5" transform="matrix(0 -1 0.99996 -0.00894739 959.143 2341)" stroke="white" stroke-opacity="0.3"/>
<line opacity="0.5" y1="-0.5" x2="2575" y2="-0.5" transform="matrix(0 -1 0.99996 -0.00894739 1150.57 2341)" stroke="white" stroke-opacity="0.3"/>
<line opacity="0.5" y1="-0.5" x2="2575" y2="-0.5" transform="matrix(0 -1 0.99996 -0.00894739 1342 2341)" stroke="white" stroke-opacity="0.3"/>
<line opacity="0.5" x1="2" y1="1911.33" x2="1342" y2="1911.33" stroke="white" stroke-opacity="0.3"/>
<line opacity="0.5" x1="2" y1="1696.75" x2="1342" y2="1696.75" stroke="white" stroke-opacity="0.3"/>
<line opacity="0.5" x1="2" y1="1482.17" x2="1342" y2="1482.17" stroke="white" stroke-opacity="0.3"/>
<line opacity="0.5" x1="2" y1="1267.58" x2="1342" y2="1267.58" stroke="white" stroke-opacity="0.3"/>
<line opacity="0.5" x1="2" y1="1053" x2="1342" y2="1053" stroke="white" stroke-opacity="0.3"/>
<line opacity="0.5" x1="2" y1="838.417" x2="1342" y2="838.417" stroke="white" stroke-opacity="0.3"/>
<line opacity="0.5" x1="2" y1="623.833" x2="1342" y2="623.833" stroke="white" stroke-opacity="0.3"/>
<line opacity="0.5" x1="2" y1="409.25" x2="1342" y2="409.25" stroke="white" stroke-opacity="0.3"/>
<line opacity="0.5" x1="2" y1="194.667" x2="1342" y2="194.667" stroke="white" stroke-opacity="0.3"/>
</g>
<defs>
<clipPath id="clip0_501_822">
<rect width="1343" height="2106" fill="white"/>
</clipPath>
</defs>
</svg>
