<svg width="82" height="107" viewBox="0 0 82 107" fill="none" xmlns="http://www.w3.org/2000/svg">
<path d="M23.9002 29.276L23.9033 25.4293C23.9094 21.9258 23.9156 21.5856 23.9589 21.6042C23.9867 21.6166 24.0795 21.6475 24.1691 21.6722C24.265 21.7001 24.3299 21.7372 24.333 21.765C24.333 21.7959 24.3701 21.8083 24.4567 21.8083C24.5556 21.8083 24.5834 21.8206 24.5958 21.8701C24.6082 21.9196 24.636 21.932 24.7504 21.932C24.8524 21.932 24.8895 21.9443 24.8895 21.9784C24.8895 22.0155 24.9142 22.0216 25.0286 22C25.1616 21.9784 25.1678 21.9814 25.1678 22.0464C25.1678 22.1144 25.177 22.1175 25.3069 22.0928C25.4275 22.0742 25.446 22.0773 25.446 22.1237C25.446 22.1732 25.4646 22.1763 25.5851 22.1546C25.7181 22.133 25.7243 22.1361 25.7243 22.201C25.7243 22.2659 25.7304 22.269 25.8232 22.2412C25.8788 22.2226 25.9438 22.2103 25.9623 22.2103C25.984 22.2103 26.0025 22.2381 26.0025 22.2721C26.0025 22.3278 26.0149 22.3309 26.1416 22.3092C26.2622 22.2907 26.2808 22.2938 26.2808 22.3401C26.2808 22.3865 26.3024 22.3927 26.4199 22.3803C26.5436 22.368 26.559 22.3711 26.559 22.4267C26.559 22.4824 26.5714 22.4855 26.6981 22.4638C26.8187 22.4453 26.8373 22.4484 26.8373 22.4948C26.8373 22.5411 26.8589 22.5473 26.9764 22.5349C27.1001 22.5226 27.1155 22.5257 27.1155 22.5813C27.1155 22.637 27.1279 22.6401 27.2546 22.6184C27.3876 22.5968 27.3938 22.5999 27.3938 22.6648C27.3938 22.7298 27.3999 22.7329 27.4927 22.705C27.5483 22.6865 27.6133 22.6741 27.6318 22.6741C27.6535 22.6741 27.672 22.7019 27.672 22.7359C27.672 22.7916 27.6844 22.7947 27.8111 22.773C27.9317 22.7545 27.9503 22.7576 27.9503 22.804C27.9503 22.8504 27.9719 22.8565 28.0894 22.8442C28.2131 22.8318 28.2285 22.8349 28.2285 22.8906C28.2285 22.9462 28.244 22.9493 28.3676 22.9369C28.4913 22.9246 28.5068 22.9277 28.5068 22.9833C28.5068 23.039 28.516 23.0421 28.6212 23.0142C28.6861 22.9988 28.7479 22.9833 28.7603 22.9833C28.7757 22.9833 28.785 23.0112 28.785 23.0452C28.785 23.1008 28.8005 23.1039 28.9241 23.0915C29.0478 23.0792 29.0633 23.0823 29.0633 23.1379C29.0633 23.1936 29.0725 23.1967 29.1777 23.1689C29.2426 23.1534 29.3044 23.1379 29.3168 23.1379C29.3322 23.1379 29.3415 23.1658 29.3415 23.1998C29.3415 23.2338 29.3601 23.2616 29.3786 23.2616C29.4003 23.2616 29.4652 23.2493 29.5177 23.2307C29.6105 23.2029 29.6198 23.206 29.6198 23.2616C29.6198 23.3173 29.6352 23.3204 29.7589 23.308C29.8826 23.2956 29.898 23.2987 29.898 23.3544C29.898 23.3977 29.9135 23.4131 29.9506 23.4008C29.9815 23.3946 30.0433 23.3791 30.0897 23.3698C30.1608 23.3575 30.1763 23.3668 30.1763 23.4162C30.1763 23.4595 30.1917 23.475 30.2288 23.4657C30.2597 23.4595 30.3216 23.4441 30.368 23.4348C30.4391 23.4193 30.4545 23.4255 30.4545 23.4781C30.4545 23.5337 30.47 23.5368 30.5937 23.5245C30.7173 23.5121 30.7328 23.5152 30.7328 23.5708C30.7328 23.6265 30.7421 23.6296 30.8472 23.6018C30.9121 23.5863 30.9739 23.5708 30.9863 23.5708C31.0018 23.5708 31.011 23.5987 31.011 23.6327C31.011 23.6822 31.0265 23.6914 31.0945 23.6791C31.144 23.6698 31.2058 23.6543 31.2336 23.6481C31.2738 23.6358 31.2893 23.6512 31.2893 23.6945C31.2893 23.7502 31.3047 23.7533 31.4284 23.7409C31.5521 23.7285 31.5675 23.7316 31.5675 23.7873C31.5675 23.8306 31.583 23.846 31.6201 23.8337C31.651 23.8275 31.7128 23.812 31.7592 23.8028C31.8303 23.7904 31.8458 23.7997 31.8458 23.8491C31.8458 23.9048 31.8612 23.9079 31.9849 23.8955C32.1086 23.8832 32.124 23.8862 32.124 23.9419C32.124 23.9976 32.1333 24.0007 32.2384 23.9728C32.3033 23.9574 32.3652 23.9419 32.3776 23.9419C32.393 23.9419 32.4023 23.9697 32.4023 24.0038C32.4023 24.0594 32.4147 24.0625 32.5414 24.0409C32.662 24.0223 32.6805 24.0254 32.6805 24.0718C32.6805 24.1182 32.7022 24.1243 32.8197 24.112C32.9433 24.0996 32.9588 24.1027 32.9588 24.1584C32.9588 24.214 32.9712 24.2171 33.0979 24.1955C33.2185 24.1769 33.237 24.18 33.237 24.2264C33.237 24.2728 33.2587 24.279 33.3762 24.2666C33.4998 24.2542 33.5153 24.2573 33.5153 24.313C33.5153 24.3563 33.5307 24.3717 33.5678 24.3624C33.5988 24.3563 33.6606 24.3408 33.707 24.3315C33.7781 24.3161 33.7935 24.3222 33.7935 24.3748C33.7935 24.4305 33.8059 24.4336 33.9327 24.4119C34.0656 24.3903 34.0718 24.3934 34.0718 24.4583C34.0718 24.5263 34.078 24.5263 34.1862 24.4985C34.2511 24.483 34.3129 24.4676 34.3253 24.4676C34.3408 24.4676 34.35 24.4954 34.35 24.5294C34.35 24.582 34.3655 24.5882 34.449 24.5727C34.5046 24.5634 34.5696 24.548 34.5881 24.5418C34.6128 24.5356 34.6283 24.5542 34.6283 24.5913C34.6283 24.6469 34.6438 24.65 34.7674 24.6377C34.8911 24.6253 34.9065 24.6284 34.9065 24.684C34.9065 24.7366 34.922 24.7428 34.99 24.7273C35.0395 24.7181 35.1013 24.7026 35.1291 24.6964C35.1693 24.6871 35.1848 24.7026 35.1848 24.7459C35.1848 24.8015 35.2003 24.8046 35.3239 24.7923C35.4476 24.7799 35.463 24.783 35.463 24.8386C35.463 24.8943 35.4723 24.8974 35.5774 24.8696C35.6424 24.8541 35.7042 24.8386 35.7166 24.8386C35.732 24.8386 35.7413 24.8665 35.7413 24.9005C35.7413 24.9562 35.7537 24.9592 35.8804 24.9376C36.001 24.919 36.0195 24.9221 36.0195 24.9685C36.0195 25.0149 36.0412 25.0211 36.1587 25.0087C36.2823 24.9964 36.2978 24.9994 36.2978 25.0551C36.2978 25.1046 36.3133 25.1139 36.3813 25.1015C36.4307 25.0922 36.4926 25.0767 36.5204 25.0706C36.5606 25.0582 36.5761 25.0737 36.5761 25.1169C36.5761 25.1726 36.5915 25.1757 36.7152 25.1633C36.8388 25.151 36.8543 25.1541 36.8543 25.2097C36.8543 25.2654 36.8636 25.2685 36.9687 25.2406C37.0336 25.2252 37.0955 25.2097 37.1078 25.2097C37.1233 25.2097 37.1326 25.2375 37.1326 25.2716C37.1326 25.3272 37.148 25.3303 37.2717 25.3179C37.383 25.3056 37.4108 25.3118 37.4108 25.3489C37.4108 25.386 37.4386 25.3922 37.5499 25.3798C37.6736 25.3674 37.6891 25.3705 37.6891 25.4262C37.6891 25.4818 37.7014 25.4849 37.8282 25.4633C37.9488 25.4447 37.9673 25.4478 37.9673 25.4942C37.9673 25.5406 37.9889 25.5468 38.1064 25.5344C38.2301 25.522 38.2456 25.5251 38.2456 25.5808C38.2456 25.6148 38.2548 25.6426 38.2672 25.6426C38.2827 25.6426 38.3445 25.6272 38.4063 25.6117C38.5145 25.5839 38.5238 25.587 38.5238 25.6426C38.5238 25.6983 38.5393 25.7014 38.6629 25.689C38.7866 25.6766 38.8021 25.6797 38.8021 25.7354C38.8021 25.7849 38.8175 25.7941 38.8855 25.7818C38.935 25.7725 38.9968 25.757 39.0247 25.7509C39.0649 25.7385 39.0803 25.7539 39.0803 25.7972C39.0803 25.8529 39.0958 25.856 39.2194 25.8436C39.3431 25.8312 39.3586 25.8343 39.3586 25.89C39.3586 25.9333 39.374 25.9488 39.4111 25.9364C39.442 25.9302 39.5039 25.9147 39.5502 25.9055C39.6214 25.8931 39.6368 25.9024 39.6368 25.9518C39.6368 26.0075 39.6523 26.0106 39.7759 25.9982C39.8996 25.9859 39.9151 25.989 39.9151 26.0446C39.9151 26.0879 39.9305 26.1034 39.9676 26.0941C39.9985 26.0879 40.0604 26.0724 40.1067 26.0632C40.1779 26.0477 40.1933 26.0539 40.1933 26.1065C40.1933 26.1477 40.2139 26.1683 40.2551 26.1683C40.2892 26.1683 40.3819 26.1065 40.4623 26.0322C40.5458 25.9549 40.6169 25.8962 40.6262 25.8993C40.6354 25.9024 40.688 25.8714 40.7436 25.8282C40.7993 25.7849 40.8426 25.7323 40.8426 25.7107C40.8426 25.6921 40.8518 25.6674 40.8642 25.6612C40.8797 25.655 40.8766 25.7199 40.8611 25.8096C40.8457 25.8962 40.8117 25.9797 40.79 25.9982C40.7684 26.0137 40.7344 26.125 40.7158 26.2456C40.6911 26.4002 40.6911 26.6012 40.7158 26.9568C40.7374 27.2691 40.7498 28.6142 40.7498 30.5902C40.7467 33.4566 40.7436 33.7226 40.7003 33.6669C40.6725 33.6329 40.62 33.5432 40.5829 33.4659C40.521 33.333 40.5179 33.2711 40.4839 30.8221L40.4778 32.2352C40.4747 33.1536 40.4592 33.6515 40.4407 33.6515C40.4252 33.6515 40.0666 33.5587 39.643 33.4474C39.2225 33.3361 38.7464 33.2093 38.5856 33.1691C38.4249 33.1258 38.1961 33.067 38.0755 33.033C37.9549 33.0021 37.6705 32.9279 37.4417 32.866C37.2129 32.8073 36.6286 32.6527 36.1432 32.5228C35.6578 32.3929 35.1291 32.2538 34.9684 32.2105C34.8076 32.1672 34.5448 32.0992 34.3871 32.0559C34.2326 32.0157 33.9729 31.9476 33.8152 31.9074C33.6606 31.8642 33.3978 31.7961 33.237 31.7528C33.0763 31.7126 32.5198 31.5642 32.0004 31.4251C31.481 31.2859 30.9245 31.1375 30.7637 31.0973C30.6029 31.054 30.371 30.9952 30.2536 30.9612L30.2535 30.9612C30.1359 30.9303 29.8423 30.853 29.6043 30.7912C29.3665 30.7294 29.0731 30.6522 28.9554 30.6212L28.9551 30.6211C28.8376 30.5902 28.448 30.485 28.0894 30.3892C27.7308 30.2933 27.3072 30.182 27.1464 30.1387C26.9857 30.0954 26.726 30.0274 26.5745 29.9872C26.4199 29.947 26.1416 29.8728 25.9561 29.8233C25.7706 29.7769 25.2296 29.6316 23.9002 29.276Z" fill="white"/>
<path d="M23.8971 45.3246V41.3294L23.894 37.3374L24.0578 37.3807C24.1506 37.4054 24.3577 37.4611 24.5185 37.5044C24.6793 37.5476 24.9359 37.6157 25.0905 37.6559C25.242 37.6961 25.6593 37.8074 26.018 37.9032C26.3766 37.9991 26.7909 38.1104 26.9455 38.1506C27.097 38.1908 27.3288 38.2496 27.4556 38.2867C27.5824 38.3207 27.8482 38.3918 28.043 38.4444C28.2378 38.497 28.5253 38.5743 28.6768 38.6145C28.8283 38.6547 29.2209 38.7598 29.5425 38.8433C29.864 38.9299 30.2907 39.0412 30.4854 39.0938C30.6802 39.1494 30.9677 39.2236 31.1192 39.2638C31.2707 39.304 31.6634 39.4061 31.9849 39.4957C32.3064 39.5823 32.6991 39.6875 32.8506 39.7277C33.0021 39.7679 33.4194 39.8792 33.7781 39.975C34.1367 40.0709 34.5603 40.1822 34.721 40.2255L34.7778 40.2408C34.932 40.2824 35.1242 40.3341 35.2312 40.3616C35.3517 40.3925 35.7382 40.4976 36.0968 40.5935C36.4555 40.6893 36.8976 40.8099 37.0862 40.8563C37.2748 40.9058 37.6921 41.014 38.0137 41.1037C38.3352 41.1903 38.7279 41.2954 38.8794 41.3356C39.0308 41.3758 39.2627 41.4346 39.3895 41.4717C39.5162 41.5057 39.7821 41.5768 39.9769 41.6294C40.1717 41.685 40.3634 41.7345 40.4716 41.7531V45.742C40.4716 49.5269 40.4685 49.731 40.4159 49.7124C40.3881 49.7031 40.2335 49.6598 40.0758 49.6196C39.9212 49.5794 39.6615 49.5114 39.5039 49.4712C39.3493 49.4279 38.9288 49.3166 38.5702 49.2208C38.2115 49.1249 37.7694 49.0074 37.5808 48.9579C37.3923 48.9115 37.1016 48.8342 36.9316 48.7909C36.7616 48.7446 36.4895 48.6734 36.3287 48.6301C36.1679 48.5868 35.9392 48.5281 35.8186 48.4972C35.698 48.4632 35.3116 48.3611 34.9529 48.2653C34.5943 48.1694 34.013 48.0117 33.6544 47.9189C33.2958 47.8262 32.8784 47.7148 32.7269 47.6746C32.5754 47.6344 32.3435 47.5757 32.2168 47.5417C32.09 47.5077 31.852 47.4458 31.6912 47.4025C31.5304 47.3592 31.1069 47.2448 30.7482 47.149C30.3896 47.0531 29.9475 46.9356 29.7589 46.8861C29.5703 46.8397 29.2797 46.7624 29.1096 46.7161C28.9396 46.6728 28.6706 46.6016 28.513 46.5584C28.3584 46.5182 28.0987 46.4501 27.941 46.4099C27.7864 46.3666 27.3907 46.2646 27.0691 46.178C26.7445 46.0914 26.1911 45.943 25.8325 45.8471C25.4738 45.7544 25.0503 45.6431 24.8895 45.5998C24.7287 45.5565 24.5401 45.5101 24.4721 45.4915C24.4041 45.4761 24.2464 45.4297 23.8971 45.3246Z" fill="white"/>
<path d="M40.5489 42.1674C40.5736 42.0839 40.6231 41.9695 40.6571 41.9139C40.6911 41.8582 40.7251 41.8118 40.7344 41.8118C40.7436 41.8118 40.7498 43.6084 40.7498 49.7897L40.6663 49.7712C40.6169 49.7588 40.5736 49.7464 40.5643 49.7372C40.555 49.731 40.5396 48.0581 40.5241 46.0234C40.5025 42.7642 40.5056 42.3035 40.5489 42.1674Z" fill="white"/>
<path d="M40.8364 49.264C40.8302 49.4279 40.824 49.2888 40.824 48.9548C40.824 48.624 40.8302 48.491 40.8364 48.6611C40.8395 48.8311 40.8395 49.1032 40.8364 49.264Z" fill="white"/>
<path d="M23.9311 61.4937V57.4058L23.928 53.3179L24.0146 53.3489C24.064 53.3674 24.2062 53.4076 24.333 53.4385C24.4598 53.4695 24.8586 53.5746 25.2141 53.6704C25.5728 53.7663 26.1571 53.9209 26.5126 54.0137C26.8713 54.1095 27.2886 54.2209 27.4401 54.2611C27.5947 54.3013 27.8235 54.36 27.9503 54.394C28.077 54.428 28.3429 54.4992 28.5377 54.5517C28.7325 54.6043 29.0262 54.6847 29.1869 54.7249C29.3477 54.7682 29.6136 54.8362 29.7744 54.8795C29.9351 54.9228 30.2288 55.0001 30.4236 55.0496C30.5897 55.0944 30.803 55.1505 30.9351 55.1852L30.9956 55.2011C31.1161 55.232 31.7685 55.4052 32.4487 55.5876C33.1288 55.7701 33.8399 55.9587 34.0254 56.0051C34.214 56.0545 34.5046 56.1288 34.6747 56.1751C34.8447 56.2184 35.1106 56.2896 35.2621 56.3298C35.4167 56.3699 35.6455 56.4318 35.7722 56.4658C35.899 56.4998 36.1649 56.5709 36.3596 56.6235C36.5544 56.6761 36.8419 56.7534 36.9934 56.7936C37.148 56.8338 37.4665 56.9173 37.7045 56.9791C37.9426 57.041 38.2425 57.1214 38.3692 57.1554C38.496 57.1894 38.7 57.242 38.8175 57.2729C38.9241 57.3002 39.1152 57.3517 39.2692 57.3932L39.3276 57.4089C39.4884 57.4522 39.8069 57.5357 40.0325 57.5976C40.2551 57.6563 40.4468 57.7058 40.4561 57.7058C40.4654 57.7058 40.4716 59.5426 40.4716 61.7875C40.4716 64.0325 40.4623 65.8692 40.4499 65.8692C40.4345 65.8692 40.2181 65.8136 39.9614 65.7424C39.7079 65.6744 39.374 65.5847 39.2194 65.5445C39.0679 65.5074 38.8175 65.4394 38.6629 65.3992C38.5114 65.359 38.1126 65.2539 37.7818 65.1673C37.451 65.0776 36.8883 64.9292 36.5297 64.8333C36.1992 64.7442 35.8153 64.6445 35.6387 64.5985L35.6022 64.5891C35.4507 64.5489 35.1848 64.4777 35.0148 64.4344C34.8447 64.3881 34.5819 64.3169 34.4273 64.2767C34.2758 64.2365 34.044 64.1778 33.9172 64.1438C33.7904 64.1098 33.2061 63.9551 32.6187 63.7974C32.0313 63.6428 31.4562 63.4913 31.3357 63.4573L31.2632 63.4382C31.1404 63.4059 30.9678 63.3604 30.841 63.3274C30.6895 63.2872 30.2845 63.179 29.9444 63.0893C29.6043 62.9997 29.2024 62.8945 29.0478 62.8543C28.8963 62.8141 28.6088 62.7399 28.414 62.6842C28.2192 62.6317 27.9286 62.5544 27.774 62.5142C27.6164 62.4709 27.3505 62.4029 27.1866 62.3596C27.0197 62.3163 26.76 62.2452 26.6054 62.205C26.4539 62.1648 26.1756 62.0936 25.987 62.0442C25.8015 61.9947 25.2605 61.8524 23.9311 61.4937Z" fill="white"/>
<path d="M40.552 58.1542L40.6447 57.9686L40.7374 57.7831L40.7467 59.8085C40.7498 60.9217 40.7498 62.7585 40.7374 65.9465L40.552 65.6064V58.1542Z" fill="white"/>
<path d="M56.1771 21.3332C56.4585 21.2528 56.7676 21.1632 56.8666 21.1322C57.0026 21.092 57.0737 21.0859 57.1448 21.1075C57.2005 21.123 57.3272 21.1632 57.6117 21.2497L57.6302 32.6507L57.3767 32.7157C57.2345 32.7528 56.9531 32.8301 56.7491 32.8919C56.545 32.9507 56.2946 33.0249 56.1926 33.0527C56.1028 33.0772 55.9365 33.1232 55.7989 33.1613L55.7443 33.1764C55.599 33.2166 55.3022 33.3001 55.0796 33.3619C54.8601 33.4238 54.5942 33.498 54.4921 33.5258C54.3901 33.5506 54.3005 33.5815 54.2912 33.5908C54.2819 33.6031 54.1923 33.6279 54.0902 33.6495C53.9882 33.6681 53.8213 33.7114 53.7192 33.7423C53.6172 33.7732 53.3637 33.8474 53.1565 33.9062C52.9308 33.968 52.7763 34.0268 52.7763 34.0515C52.7763 34.0731 52.7299 34.0886 52.6526 34.0886C52.5846 34.0886 52.4362 34.1103 52.3218 34.1412C52.2043 34.169 52.1054 34.1999 52.0961 34.2123C52.0868 34.2247 52.0219 34.2432 51.8178 34.2741V30.378H51.3232C51.014 30.378 50.8285 30.3903 50.8285 30.4089C50.8285 30.4274 50.7976 30.4398 50.7605 30.4398C50.7203 30.4398 50.5966 30.4645 50.4791 30.4924C50.3648 30.5233 50.272 30.5573 50.272 30.5728C50.272 30.5851 50.2473 30.5944 50.2194 30.5944C50.1885 30.5944 50.0618 30.6191 49.9381 30.647C49.8144 30.6779 49.7155 30.7119 49.7155 30.7274C49.7155 30.7397 49.6846 30.749 49.6475 30.749C49.6073 30.749 49.4713 30.7799 49.3445 30.814C49.2177 30.848 48.992 30.9098 48.8436 30.9531C48.6922 30.9933 48.4417 31.0644 48.2871 31.1077C48.1295 31.151 47.944 31.2005 47.876 31.219C47.8079 31.2376 47.7461 31.2623 47.7368 31.2747C47.7276 31.2871 47.6441 31.3056 47.5513 31.3149C47.4586 31.3273 47.3782 31.3489 47.3751 31.3675C47.3689 31.3829 47.3349 31.3984 47.2978 31.3984C47.2576 31.3984 47.0412 31.451 46.8155 31.5128C46.5713 31.5839 46.4074 31.6458 46.4074 31.6705C46.4074 31.6952 46.3559 31.7076 46.2528 31.7076C46.1693 31.7076 46.0982 31.72 46.0982 31.7385C46.0982 31.7571 46.0179 31.7756 45.922 31.7818C45.8231 31.788 45.7396 31.8066 45.7365 31.8282C45.7303 31.8468 45.6963 31.8622 45.6592 31.8622C45.619 31.8622 45.483 31.8931 45.3562 31.9272C45.2295 31.9612 45.0131 32.0199 44.877 32.0539C44.741 32.091 44.6266 32.1312 44.6235 32.1467C44.6173 32.1591 44.5833 32.1714 44.5462 32.1714C44.506 32.1714 44.37 32.2024 44.2432 32.2364C44.1165 32.2704 43.8599 32.3415 43.6713 32.391C43.4858 32.4436 43.2477 32.5085 43.1457 32.5332C43.0437 32.5611 42.9571 32.5951 42.954 32.6105C42.9478 32.6229 42.92 32.6353 42.8922 32.6353C42.8613 32.6353 42.7067 32.6662 42.549 32.7033C42.2955 32.7682 42.2646 32.7806 42.2646 32.8455C42.2646 32.9105 42.2522 32.9136 42.0018 32.9136C41.8472 32.9136 41.739 32.9259 41.739 32.9445C41.739 32.96 41.705 32.9754 41.6617 32.9754C41.6184 32.9754 41.4824 33.0032 41.3618 33.0403C41.2382 33.0743 41.0837 33.1207 41.0218 33.1393L41.0217 33.1393C40.9568 33.1609 40.898 33.1702 40.8919 33.1609C40.8826 33.1517 40.8764 31.4695 40.8733 29.4194C40.8702 27.3692 40.8795 25.684 40.8949 25.6747C40.9073 25.6623 41.0186 25.6252 41.1361 25.5912C41.2567 25.5572 41.4855 25.4923 41.6462 25.4459C41.807 25.4026 42.0667 25.3284 42.2182 25.2851C42.3728 25.2449 42.5799 25.183 42.6819 25.1521C42.784 25.1212 43.056 25.0439 43.2848 24.982C43.5136 24.9202 43.7578 24.8522 43.8259 24.8274C43.8939 24.8058 44.0886 24.747 44.2587 24.7037C44.4287 24.6574 44.6575 24.5955 44.7688 24.5646C44.8801 24.5337 45.1707 24.4502 45.4181 24.3791C45.6654 24.3079 46.0611 24.1935 46.2992 24.1255C46.5373 24.0575 46.8217 23.9771 46.933 23.9462L46.9571 23.9395C47.0767 23.9062 47.3009 23.8439 47.474 23.7977C47.6626 23.7452 47.9038 23.6771 48.0151 23.6431C48.1264 23.6091 48.3552 23.5442 48.5252 23.4978C48.6952 23.4545 48.9178 23.3896 49.0199 23.3586C49.1219 23.3277 49.3352 23.2659 49.4929 23.2226C49.6475 23.1793 49.9072 23.1051 50.0649 23.0618C50.2194 23.0185 50.4606 22.9505 50.5966 22.9103C50.7327 22.8701 51.0326 22.7866 51.2613 22.7247C51.4901 22.6629 51.7344 22.5949 51.8024 22.5701C51.8704 22.5485 52.1146 22.4773 52.3434 22.4155C52.5722 22.3537 52.9278 22.2516 53.1318 22.1929C53.3359 22.131 53.5801 22.063 53.6729 22.0383C53.7656 22.0135 54.0098 21.9424 54.2139 21.8836C54.4179 21.8249 54.7395 21.7352 54.925 21.6827C55.1136 21.6332 55.3547 21.5651 55.466 21.5342C55.5773 21.5033 55.8958 21.4136 56.1771 21.3332Z" fill="white"/>
<path d="M57.4602 37.7931C57.5375 37.7714 57.5993 37.7436 57.5993 37.7312C57.5993 37.7158 57.6055 37.7065 57.6147 37.7065C57.624 37.7065 57.6302 39.2433 57.6302 44.5403L57.4231 44.6021C57.3056 44.6361 57.1479 44.6794 57.0644 44.7011C56.984 44.7227 56.9191 44.7506 56.9191 44.766C56.9191 44.7784 56.8882 44.7877 56.8511 44.7877C56.8109 44.7877 56.6811 44.8155 56.5636 44.8464C56.4461 44.8804 56.2235 44.9454 56.0689 44.9887C55.9143 45.035 55.6732 45.1031 55.5279 45.1433C55.3826 45.1835 55.2063 45.236 55.1321 45.2577C55.061 45.2793 55.0023 45.3072 55.0023 45.3226C55.0023 45.335 54.9466 45.3443 54.8786 45.3443C54.8106 45.3443 54.7549 45.3597 54.7549 45.3752C54.7549 45.3906 54.7302 45.4061 54.7024 45.4061C54.6715 45.4061 54.5169 45.437 54.3592 45.4741C54.1892 45.5174 54.0748 45.5607 54.0748 45.5855C54.0748 45.6071 54.0284 45.6226 53.9511 45.6226C53.8831 45.6226 53.7656 45.638 53.6883 45.6535C53.611 45.6689 53.5492 45.6999 53.5492 45.7153C53.5492 45.7308 53.5183 45.7463 53.4812 45.7463C53.441 45.7463 53.3142 45.7741 53.1936 45.805C53.0762 45.839 52.8659 45.8978 52.7299 45.9349C52.5939 45.972 52.4764 46.0122 52.4671 46.0215C52.4578 46.0338 52.362 46.0617 52.2507 46.0833C52.1394 46.1049 52.0466 46.1359 52.0435 46.1513C52.0374 46.1668 52.0033 46.1792 51.9662 46.1792C51.9261 46.1792 51.7715 46.2163 51.6169 46.2596C51.4623 46.3029 51.1995 46.374 51.0295 46.4204C50.8594 46.4636 50.7172 46.51 50.7141 46.5255C50.7079 46.5379 50.6708 46.5502 50.6275 46.5502C50.5781 46.5502 50.5503 46.5688 50.5503 46.5966C50.5503 46.6337 50.5101 46.643 50.3648 46.643C50.2627 46.643 50.1793 46.6554 50.1793 46.6739C50.1793 46.6894 50.1545 46.7048 50.1267 46.7048C50.0958 46.7048 49.969 46.7296 49.8454 46.7574C49.7155 46.7914 49.6228 46.8285 49.6228 46.8533C49.6228 46.878 49.5764 46.8904 49.4929 46.8904C49.4187 46.8904 49.2765 46.9151 49.1745 46.9491C49.0724 46.9831 48.8838 47.0388 48.7571 47.0728C48.6303 47.1068 48.4015 47.1718 48.247 47.2151C48.0924 47.2614 47.8821 47.3202 47.7739 47.348C47.6688 47.3789 47.5822 47.4191 47.5822 47.4408C47.5822 47.4655 47.5297 47.4779 47.2731 47.4779V48.4365H47.675V51.2813H47.4369C47.2793 51.2813 47.103 51.3061 46.933 51.3524C46.7877 51.3926 46.5249 51.4668 46.3456 51.5132C46.1663 51.5627 46.0148 51.6122 46.0055 51.6215C45.9962 51.6307 45.9066 51.6555 45.8045 51.6771C45.7025 51.6957 45.5294 51.739 45.4181 51.773C45.3068 51.807 45.0162 51.8936 44.7688 51.9647C44.5215 52.0327 44.2432 52.1131 44.1505 52.1379C44.0577 52.1626 43.9279 52.1935 43.866 52.2121C43.7949 52.2275 43.7486 52.2585 43.7486 52.2863C43.7486 52.3203 43.7115 52.3327 43.6033 52.3327C43.5198 52.3327 43.4085 52.3419 43.3528 52.3543C43.2972 52.3698 43.2539 52.3976 43.2539 52.4192C43.2539 52.4409 43.2075 52.4564 43.1302 52.4564C43.0622 52.4564 42.9045 52.4842 42.784 52.5213L42.7297 52.5362C42.6122 52.5685 42.4681 52.6082 42.3882 52.6295C42.2955 52.6573 42.1656 52.6883 42.1038 52.7068C42.0172 52.7285 41.9863 52.7501 41.9863 52.7965C41.9863 52.8522 41.9647 52.8583 41.739 52.8583C41.5627 52.8583 41.4916 52.8707 41.4916 52.8985C41.4916 52.9202 41.4267 52.9418 41.3154 52.9542C41.2165 52.9666 41.0774 52.9975 40.8733 53.0748V50.2918H41.3061V49.3332H41.167C41.0897 49.3332 41.0279 49.3178 41.0279 49.3023C41.0279 49.2868 40.997 49.2683 40.9599 49.2652C40.8949 49.2559 40.8888 49.2374 40.8733 48.8385H41.3371V47.8799H40.8424V45.2299C40.8424 43.7703 40.8548 42.5242 40.8888 42.3448H41.0835C41.1887 42.3448 41.3958 42.3139 41.5473 42.2768C41.6957 42.2397 41.8194 42.1995 41.8255 42.184C41.8286 42.1717 41.8626 42.1593 41.9028 42.1593C41.9399 42.1593 42.0698 42.1315 42.1873 42.1005C42.3078 42.0696 42.6046 41.983 42.852 41.915C43.0993 41.8439 43.3837 41.7604 43.4858 41.7295C43.5878 41.6985 43.7517 41.6522 43.8506 41.6305C43.9495 41.6058 44.0268 41.5718 44.0268 41.5501C44.0268 41.5254 44.0732 41.5099 44.1505 41.5099C44.2185 41.5099 44.336 41.4945 44.4133 41.479C44.4906 41.4635 44.5524 41.4326 44.5524 41.4172C44.5524 41.4017 44.5833 41.3862 44.6235 41.3862C44.6606 41.3862 44.8245 41.3491 44.9852 41.3058C45.146 41.2625 45.3933 41.1976 45.5356 41.1605C45.7582 41.1017 45.7891 41.0832 45.7891 41.0244C45.7891 40.9564 45.7983 40.9533 46.0519 40.9533C46.2064 40.9533 46.3147 40.941 46.3147 40.9224C46.3147 40.9069 46.3456 40.8915 46.3858 40.8915C46.4229 40.8915 46.5527 40.8636 46.6702 40.8327L46.7395 40.8132C46.8883 40.7712 47.1513 40.6971 47.3813 40.6317C47.6534 40.5544 47.8945 40.4895 47.9161 40.4895C47.9347 40.4895 47.9532 40.474 47.9532 40.4586C47.9532 40.4431 47.9842 40.4276 48.0244 40.4276C48.0615 40.4276 48.2191 40.3936 48.3706 40.3534C48.5252 40.3101 48.7664 40.2452 48.9117 40.2019C49.057 40.1617 49.3074 40.0875 49.4682 40.0411C49.6289 39.9947 49.8763 39.9267 50.0185 39.8927C50.2133 39.8401 50.272 39.8123 50.272 39.7721C50.272 39.7257 50.2998 39.7164 50.4513 39.7164C50.5472 39.7164 50.6739 39.7072 50.7296 39.6948C50.7852 39.6793 50.8285 39.6515 50.8285 39.6329C50.8285 39.6082 50.8718 39.5927 50.946 39.5927C51.0078 39.5927 51.1377 39.5711 51.2304 39.5433C51.3232 39.5185 51.5458 39.4567 51.7251 39.4072C51.9044 39.3577 52.0806 39.3114 52.1208 39.3021C52.1579 39.2928 52.1888 39.2619 52.1888 39.2371C52.1888 39.2 52.229 39.1908 52.3743 39.1908C52.4764 39.1908 52.5598 39.1784 52.5598 39.1598C52.5598 39.1444 52.5908 39.1289 52.631 39.1289C52.6681 39.1289 52.8041 39.098 52.9308 39.064C53.0576 39.03 53.2462 38.9774 53.3482 38.9527C53.4503 38.9248 53.5368 38.8908 53.543 38.8754C53.5461 38.863 53.5801 38.8506 53.6203 38.8506C53.6574 38.8506 53.7996 38.8197 53.9356 38.7826C54.0717 38.7455 54.1861 38.7022 54.1923 38.6898C54.1953 38.6775 54.2294 38.6651 54.2695 38.6651C54.3066 38.6651 54.4427 38.6342 54.5694 38.6001C54.6962 38.5661 54.9126 38.5074 55.0486 38.4734C55.1847 38.4363 55.296 38.3961 55.296 38.3806C55.296 38.3682 55.3331 38.3559 55.3733 38.3559C55.4166 38.3559 55.5773 38.3188 55.7288 38.2755C55.8834 38.2322 56.1338 38.1611 56.2853 38.1178C56.4399 38.0776 56.6223 38.025 56.6965 38.0064C56.7676 37.9848 56.8264 37.9601 56.8264 37.9477C56.8264 37.9322 56.882 37.923 56.95 37.923C57.0397 37.923 57.0737 37.9106 57.0737 37.8766C57.0737 37.8426 57.1077 37.8302 57.1974 37.8302C57.2654 37.8302 57.3829 37.8116 57.4602 37.7931Z" fill="white"/>
<path d="M47.4277 56.569C47.4277 56.5535 47.4802 56.535 47.5451 56.5288C47.607 56.5226 47.6626 56.5164 47.6688 56.5133C47.6719 56.5102 47.675 58.1089 47.675 63.6192H47.4524C47.3225 63.6192 47.1278 63.6471 46.9948 63.6842C46.8681 63.7182 46.6393 63.7831 46.4847 63.8233C46.3301 63.8666 46.123 63.9254 46.0209 63.9501C45.9189 63.9779 45.8324 64.012 45.8293 64.0274C45.8231 64.0398 45.7922 64.0522 45.7582 64.0522C45.7241 64.0522 45.6345 64.0676 45.5572 64.0831C45.4366 64.1109 45.4181 64.1264 45.4181 64.1913C45.4181 64.2686 45.415 64.2686 45.1553 64.2686C45.01 64.2686 44.8307 64.2841 44.7534 64.2995C44.6761 64.3181 44.6142 64.3459 44.6142 64.3614C44.6142 64.3799 44.5833 64.3923 44.5462 64.3923C44.506 64.3923 44.3824 64.417 44.2649 64.4449C44.1505 64.4758 44.0577 64.5098 44.0577 64.5253C44.0577 64.5376 44.0299 64.5469 43.9959 64.5469C43.9619 64.5469 43.8135 64.5778 43.6651 64.6149C43.5136 64.652 43.3899 64.6922 43.3868 64.7077C43.3807 64.7201 43.3466 64.7324 43.3095 64.7324C43.2694 64.7324 43.1333 64.7634 43.0066 64.7974C42.8798 64.8314 42.651 64.8963 42.4964 64.9365C42.3418 64.9798 42.1347 65.0386 42.0327 65.0633C41.9307 65.0911 41.841 65.1221 41.8317 65.1344C41.8224 65.1468 41.7513 65.1654 41.671 65.1777C41.5689 65.1901 41.5226 65.2117 41.5226 65.2427C41.5226 65.2798 41.4824 65.289 41.3371 65.289C41.1917 65.289 41.1516 65.2983 41.1516 65.3354C41.1516 65.3694 41.1145 65.3818 40.8733 65.3818V58.2697L41.2134 58.2635C41.4267 58.2573 41.5627 58.2419 41.5782 58.2202C41.5906 58.2017 41.6555 58.1769 41.7235 58.1677C41.7915 58.1584 41.9678 58.1182 42.1192 58.078C42.2769 58.0378 42.3882 57.9914 42.3882 57.9698C42.3882 57.945 42.4315 57.9296 42.4964 57.9296C42.5552 57.9296 42.6757 57.911 42.7592 57.8925C42.8458 57.8708 42.9138 57.843 42.9138 57.8306C42.9138 57.8152 42.9447 57.8059 42.9849 57.8059C43.022 57.8059 43.1581 57.775 43.2848 57.7409C43.4116 57.7069 43.6404 57.642 43.7949 57.6018L44.3143 57.4565C44.4473 57.4194 44.5524 57.3792 44.5524 57.3668C44.5524 57.3513 44.5864 57.3421 44.6297 57.3421C44.673 57.3421 44.7688 57.3235 44.8461 57.3049C44.9234 57.2833 44.9852 57.2555 44.9852 57.2431C44.9852 57.2276 45.0409 57.2184 45.1089 57.2184C45.1769 57.2184 45.2326 57.206 45.2326 57.1874C45.2326 57.172 45.2573 57.1565 45.2882 57.1565C45.316 57.1565 45.4428 57.1318 45.5665 57.104C45.6901 57.073 45.7891 57.039 45.7891 57.0266C45.7891 57.0112 45.82 57.0019 45.8602 57.0019C45.8973 57.0019 46.0333 56.971 46.1601 56.937C46.2868 56.903 46.5032 56.8442 46.6393 56.8102C46.7753 56.7731 46.8897 56.7329 46.8959 56.7174C46.899 56.7051 46.9299 56.6927 46.9639 56.6927C46.9979 56.6927 47.1154 56.671 47.2267 56.6463C47.338 56.6216 47.4277 56.5876 47.4277 56.569Z" fill="white"/>
<path d="M40.6567 16.6449C40.7061 16.6449 40.7494 16.6325 40.7494 16.6139C40.7494 16.5985 40.8113 16.583 40.8886 16.583C40.9658 16.583 41.0277 16.5985 41.0277 16.6139C41.0277 16.6325 41.0926 16.6541 41.173 16.6634C41.2565 16.6758 41.3276 16.6943 41.3368 16.7067C41.3461 16.7191 41.4358 16.75 41.5378 16.7778C41.6398 16.8026 41.8563 16.8644 42.017 16.9077C42.1778 16.951 42.4344 17.0252 42.589 17.0654C42.7435 17.1087 43.0125 17.1829 43.1918 17.2324L43.1919 17.2324C43.3712 17.2818 43.6216 17.3499 43.7484 17.3839C43.8751 17.4179 44.0112 17.4488 44.0483 17.4488C44.0884 17.4488 44.1224 17.4612 44.1255 17.4736C44.1317 17.489 44.2461 17.5292 44.3822 17.5663C44.5182 17.6003 44.7346 17.6591 44.8614 17.6931C44.9881 17.7271 45.1242 17.758 45.1613 17.758C45.2014 17.758 45.2355 17.7704 45.2385 17.7828C45.2447 17.7982 45.3653 17.8415 45.5106 17.8786C45.6559 17.9158 45.8909 17.9776 46.0362 18.0147C46.1815 18.0518 46.3021 18.092 46.3052 18.1044C46.3114 18.1198 46.3763 18.1291 46.4536 18.1291C46.5309 18.1291 46.5958 18.1384 46.5989 18.1539C46.6051 18.1662 46.7411 18.2157 46.9019 18.2621C47.0626 18.3085 47.242 18.3456 47.2945 18.3456C47.3502 18.3456 47.3965 18.361 47.3965 18.3765C47.3965 18.395 47.4893 18.4074 47.613 18.4074C47.7985 18.4074 47.8294 18.4136 47.8294 18.4631C47.8294 18.5033 47.9036 18.5373 48.1756 18.6146C48.3673 18.6703 48.5559 18.7166 48.5961 18.7166C48.6332 18.7166 48.6641 18.7321 48.6641 18.7476C48.6641 18.763 48.7229 18.7878 48.7971 18.797C48.8682 18.8094 49.0599 18.8589 49.2206 18.9084C49.3814 18.9578 49.57 19.0042 49.638 19.0166C49.706 19.0259 49.7679 19.0475 49.7771 19.063C49.7864 19.0753 49.8761 19.097 49.9781 19.1093C50.0801 19.1186 50.1698 19.1372 50.1791 19.1495C50.1883 19.1588 50.2656 19.1928 50.3491 19.2176C50.4357 19.2454 50.5933 19.2918 50.7046 19.3196C50.8159 19.3474 50.9643 19.3907 51.0385 19.4155C51.1096 19.4402 51.2179 19.4588 51.2766 19.4588C51.3353 19.4588 51.3848 19.4742 51.3848 19.4897C51.3848 19.5051 51.4157 19.5268 51.4559 19.533C51.493 19.5423 51.6476 19.5825 51.8022 19.6257C51.9568 19.6659 52.2041 19.7371 52.3587 19.7804C52.5133 19.8206 52.7606 19.8917 52.9152 19.935C53.0698 19.9752 53.3264 20.0494 53.4871 20.0927C53.6479 20.136 53.9045 20.2071 54.0591 20.2473C54.2137 20.2906 54.3683 20.3246 54.4054 20.3246C54.4425 20.3246 54.4765 20.337 54.4827 20.3493C54.4888 20.3648 54.6032 20.405 54.7393 20.4421C54.8753 20.4761 55.0917 20.5349 55.2185 20.5689C55.3452 20.6029 55.4782 20.6338 55.5153 20.6338C55.5493 20.6338 55.5833 20.6462 55.5926 20.6585C55.5988 20.674 55.7162 20.7142 55.8523 20.7513C55.9883 20.7853 56.1769 20.8379 56.2697 20.8626C56.3624 20.8905 56.4984 20.9121 56.5726 20.9121C56.6685 20.9121 56.7025 20.9245 56.7025 20.9585C56.7025 20.9894 56.7437 21.01 56.8262 21.0203C56.8942 21.0296 56.956 21.0482 56.9653 21.0667C56.9746 21.0853 56.9498 21.1038 56.9127 21.11C56.8725 21.1162 56.718 21.1595 56.5634 21.2059C56.4088 21.2522 56.1676 21.3234 56.0223 21.3605C55.877 21.4007 55.6359 21.4718 55.4813 21.5151C55.3267 21.5615 55.0639 21.6357 54.8939 21.6852C54.7238 21.7315 54.4239 21.815 54.2292 21.8707C54.0344 21.9264 53.7839 21.9944 53.6726 22.0253C53.5613 22.0562 53.3542 22.115 53.2089 22.1583C53.0636 22.1985 52.8132 22.2727 52.6524 22.3191C52.4916 22.3654 52.2412 22.4335 52.0959 22.4737C51.9506 22.5139 51.6321 22.6035 51.3848 22.6716C51.1375 22.7427 50.7912 22.8416 50.6119 22.8942C50.4326 22.9437 50.1976 23.0117 50.0863 23.0457C49.975 23.0797 49.8019 23.1292 49.6998 23.1571C49.5978 23.1849 49.3969 23.2374 49.2515 23.2776C49.1062 23.3178 48.8218 23.3982 48.6178 23.457C48.4137 23.5157 48.1695 23.5869 48.0767 23.6116C47.984 23.6394 47.7521 23.7044 47.5666 23.7569L47.4827 23.7807C47.3062 23.8308 47.0883 23.8925 46.9637 23.927C46.8184 23.9641 46.5 24.0538 46.2526 24.1249C46.0053 24.196 45.7208 24.2795 45.6188 24.3135C45.5168 24.3445 45.2447 24.4218 45.0159 24.4836C44.7872 24.5455 44.5646 24.6073 44.5213 24.6228C44.478 24.6382 44.209 24.7155 43.9184 24.7928C43.6278 24.8701 43.3372 24.9536 43.2691 24.9784C43.2011 25 43.1022 25.0278 43.0527 25.0371C43.0033 25.0495 42.8487 25.0928 42.7126 25.133C42.5766 25.1732 42.2644 25.2659 42.017 25.3371C41.7697 25.4051 41.4358 25.4979 41.275 25.5411C41.1142 25.5844 40.9473 25.6246 40.904 25.6339C40.8607 25.6432 40.7494 25.6277 40.6567 25.603C40.5639 25.5752 40.4093 25.5319 40.3166 25.5071C40.2238 25.4824 39.8528 25.3834 39.4973 25.2876C39.1387 25.1917 38.5914 25.0433 38.2761 24.9567C37.9607 24.8701 37.5774 24.7681 37.4259 24.731C37.2744 24.6908 36.959 24.6073 36.7302 24.5455C36.5015 24.4805 36.2449 24.4125 36.1583 24.3908C36.0748 24.3692 35.7131 24.2702 35.3544 24.1744C34.9958 24.0785 34.5784 23.9641 34.4269 23.9239C34.2755 23.8806 33.9879 23.8064 33.7932 23.7538C33.5984 23.7013 33.3418 23.6363 33.2212 23.6054C33.1006 23.5714 32.7142 23.4663 32.3555 23.3704C31.9969 23.2746 31.6073 23.1694 31.4899 23.1385C31.3724 23.1076 31.1127 23.0365 30.9179 22.9839C30.7231 22.9282 30.4356 22.8509 30.2841 22.8138C30.1326 22.7736 29.8451 22.6994 29.6503 22.6437C29.4555 22.5912 29.168 22.5139 29.0165 22.4737C28.865 22.4335 28.4724 22.3314 28.1508 22.2418C27.8293 22.1552 27.4645 22.0562 27.347 22.0253C27.2295 21.9944 26.9698 21.9233 26.775 21.8707C26.5803 21.815 26.3329 21.7501 26.2247 21.7223C26.0732 21.679 26.033 21.6573 26.0299 21.6079C26.0269 21.5584 26.0238 21.5553 26.0145 21.6017C26.0083 21.6295 25.9836 21.6542 25.965 21.6542C25.9434 21.6573 25.9094 21.6388 25.8877 21.6171C25.8661 21.5955 25.8475 21.546 25.8414 21.5089C25.8352 21.4749 25.8228 21.4316 25.8073 21.4161C25.795 21.4038 25.7857 21.3605 25.7857 21.3234C25.7857 21.2832 25.7702 21.2461 25.7548 21.2368C25.7362 21.2275 25.7239 21.2894 25.7239 21.3914C25.7239 21.4842 25.7084 21.5615 25.693 21.5615C25.6775 21.5615 25.662 21.5398 25.662 21.5151C25.662 21.4903 25.6466 21.4749 25.6311 21.4842C25.6157 21.4934 25.6002 21.4749 25.6033 21.4471C25.6033 21.4161 25.5971 21.3543 25.5878 21.3079C25.5693 21.2244 25.5786 21.2182 25.7393 21.1749C25.8321 21.1502 25.9094 21.1162 25.9094 21.0976C25.9094 21.0791 25.9588 21.0667 26.0176 21.0667C26.0763 21.0667 26.1258 21.0543 26.1258 21.0358C26.1258 21.0172 26.1629 21.0049 26.2124 21.0049C26.2587 21.0049 26.3731 20.9801 26.4659 20.9523C26.5586 20.9214 26.6421 20.8905 26.6514 20.8781C26.6606 20.8657 26.7163 20.8503 26.775 20.841C26.8338 20.8317 26.9945 20.7946 27.1306 20.7544C27.2666 20.7142 27.381 20.6709 27.3872 20.6585C27.3903 20.6462 27.4274 20.6338 27.4707 20.6338C27.514 20.6338 27.548 20.6214 27.548 20.6029C27.548 20.5843 27.5851 20.572 27.6345 20.572C27.6809 20.572 27.7706 20.5565 27.8355 20.541C27.8973 20.5225 27.9499 20.4977 27.9499 20.4792C27.9499 20.4606 27.9808 20.4483 28.021 20.4483C28.0581 20.4483 28.1354 20.439 28.191 20.4266C28.2467 20.4112 28.29 20.3833 28.29 20.3648C28.29 20.34 28.3332 20.3246 28.4074 20.3246C28.4693 20.3246 28.6331 20.2937 28.7692 20.2566C28.9052 20.2225 29.0227 20.1823 29.032 20.1731C29.0412 20.1607 29.1587 20.1267 29.2917 20.0927C29.4277 20.0587 29.5545 20.0154 29.5699 19.9968C29.5885 19.9783 29.675 19.9535 29.7585 19.9442C29.8451 19.9319 29.9162 19.9071 29.9224 19.8917C29.9255 19.8731 29.9595 19.8608 29.9997 19.8608C30.0368 19.8608 30.1233 19.8422 30.1913 19.8236C30.2594 19.802 30.3212 19.7773 30.3305 19.7649C30.3397 19.7556 30.3954 19.7371 30.4541 19.7278C30.5129 19.7185 30.6736 19.6814 30.8097 19.6412C30.9457 19.601 31.0601 19.5577 31.0663 19.5453C31.0694 19.533 31.1065 19.5206 31.1498 19.5206C31.193 19.5206 31.2271 19.5051 31.2271 19.4897C31.2271 19.4742 31.2642 19.4588 31.3136 19.4588C31.36 19.4588 31.5084 19.4248 31.6444 19.3815C31.7805 19.3382 31.9103 19.3042 31.932 19.3042C31.9505 19.3042 31.9691 19.2825 31.9691 19.2578C31.9691 19.2238 32.0031 19.2114 32.0865 19.2114C32.1484 19.2114 32.3122 19.1805 32.4483 19.1434C32.5843 19.1063 32.7018 19.0661 32.7111 19.0568C32.7203 19.0475 32.8347 19.0135 32.9677 18.9857C33.0975 18.9578 33.2243 18.9145 33.2459 18.8929C33.2645 18.8682 33.3541 18.8403 33.4376 18.831C33.5242 18.8187 33.5953 18.7939 33.6015 18.7785C33.6046 18.7599 33.6386 18.7476 33.6788 18.7476C33.7159 18.7476 33.8024 18.729 33.8704 18.7104C33.9385 18.6888 34.0003 18.6641 34.0096 18.6517C34.0188 18.6424 34.0745 18.6239 34.1332 18.6146C34.192 18.6053 34.3527 18.5682 34.4888 18.528C34.6248 18.4878 34.7423 18.4476 34.7516 18.4383C34.7608 18.426 34.8165 18.4074 34.8752 18.395C34.934 18.3858 35.1226 18.3332 35.2926 18.2806C35.4627 18.2312 35.6976 18.1569 35.8182 18.1229C35.9388 18.0858 36.0408 18.0456 36.0501 18.0363C36.0594 18.024 36.1366 18.0054 36.2201 17.9931C36.3067 17.9807 36.3809 17.9621 36.3902 17.9498C36.3994 17.9374 36.5138 17.9003 36.6468 17.8725C36.7766 17.8446 36.8848 17.8044 36.8848 17.789C36.8848 17.7735 36.9281 17.758 36.9776 17.758C37.027 17.758 37.0703 17.7426 37.0703 17.7271C37.0703 17.7117 37.1198 17.6962 37.1785 17.6962C37.2373 17.6962 37.2867 17.6807 37.2867 17.6653C37.2867 17.6498 37.3177 17.6344 37.3548 17.6344C37.395 17.6344 37.5434 17.5973 37.6887 17.554C37.834 17.5107 38.0566 17.4457 38.1833 17.4086C38.3101 17.3746 38.4214 17.3344 38.4307 17.3251C38.4399 17.3159 38.5853 17.2726 38.7522 17.2324C38.9222 17.1891 39.0768 17.1365 39.0985 17.1149C39.1201 17.0963 39.1727 17.0778 39.216 17.0778C39.2592 17.0778 39.4045 17.0437 39.5344 17.0035C39.6673 16.9603 39.9085 16.886 40.0693 16.8366C40.23 16.7871 40.4093 16.7376 40.4619 16.7252C40.5176 16.716 40.5639 16.6943 40.5639 16.6758C40.5639 16.6572 40.6072 16.6449 40.6567 16.6449Z" fill="white"/>
<path d="M57.2752 21.0166C57.3927 20.9795 57.6091 20.9177 57.7544 20.8744C57.8997 20.8342 58.0419 20.7971 58.0728 20.794C58.1223 20.7909 58.1254 21.097 58.1099 33.1133L57.8626 33.1783C57.7408 33.2115 57.5048 33.2795 57.3103 33.3355L57.2443 33.3545C57.0402 33.4133 56.7898 33.4875 56.6878 33.5153C56.5983 33.5398 56.4326 33.5856 56.2952 33.6236L56.2395 33.639C56.0942 33.6792 55.7974 33.7627 55.5748 33.8246C55.3553 33.8864 55.0832 33.9637 54.9719 33.9946C54.8606 34.0255 54.638 34.0874 54.4772 34.1338C54.3165 34.1771 54.0722 34.2482 53.9362 34.2853C53.8001 34.3255 53.5281 34.4028 53.3333 34.4585C53.1385 34.5141 52.8881 34.5821 52.7768 34.6131C52.6655 34.644 52.4151 34.712 52.2203 34.7677C52.0255 34.8233 51.7473 34.8976 51.3392 35.0089L51.3299 32.9402C51.3268 31.8022 51.3175 30.8715 51.3083 30.8715C51.299 30.8715 51.1722 30.9055 51.0207 30.9457C50.8723 30.9859 50.591 31.0632 50.3962 31.1189C50.2014 31.1745 49.9448 31.2456 49.8243 31.2797C49.7037 31.3137 49.4873 31.3724 49.3358 31.4157C49.1874 31.4559 48.9369 31.527 48.7793 31.5703C48.6247 31.6136 48.3495 31.6878 48.1702 31.7373C47.9909 31.7868 47.7219 31.861 47.5673 31.9043C47.4127 31.9476 47.1654 32.0187 47.0108 32.062C46.8562 32.1022 46.6151 32.1733 46.4698 32.2135C46.3245 32.2537 46.074 32.3248 45.9133 32.3712C45.7525 32.4145 45.465 32.4949 45.2795 32.5475C45.094 32.5969 44.8436 32.6681 44.723 32.7021C44.6024 32.733 44.3613 32.801 44.1819 32.8505C44.0026 32.8969 43.6285 33.002 43.3472 33.0793C43.0658 33.1597 42.7659 33.2432 42.6825 33.268C42.5959 33.2896 42.3733 33.3545 42.1878 33.4071C42.0023 33.4597 41.7581 33.5308 41.6468 33.5617L41.6465 33.5618C41.5352 33.5927 41.3127 33.6545 41.1521 33.6978C40.9913 33.7442 40.8584 33.7751 40.8553 33.772C40.8553 33.7658 40.8584 33.6297 40.88 33.1752L41.0068 33.1412C41.0779 33.1195 41.2387 33.0762 41.3592 33.0391C41.4829 33.002 41.6189 32.9742 41.6622 32.9742C41.7055 32.9742 41.7395 32.9587 41.7395 32.9433C41.7395 32.9247 41.8477 32.9124 42.0023 32.9124C42.2527 32.9124 42.2651 32.9093 42.2651 32.8443C42.2651 32.7794 42.296 32.767 42.5495 32.7021C42.7072 32.665 42.8618 32.6341 42.8896 32.6341C42.9205 32.6341 42.9484 32.6217 42.9514 32.6093C42.9576 32.5939 43.0442 32.5598 43.1462 32.532C43.2483 32.5073 43.4863 32.4423 43.6718 32.3898C43.8573 32.3403 44.117 32.2692 44.2438 32.2352C44.3705 32.2011 44.5066 32.1702 44.5437 32.1702C44.5839 32.1702 44.6179 32.1579 44.621 32.1455C44.6271 32.13 44.7415 32.0898 44.8776 32.0527C45.0136 32.0187 45.23 31.9599 45.3568 31.9259C45.4835 31.8919 45.6196 31.861 45.6567 31.861C45.6969 31.861 45.7309 31.8455 45.734 31.827C45.7401 31.8053 45.8236 31.7868 45.9195 31.7806C46.0184 31.7744 46.0988 31.7559 46.0988 31.7373C46.0988 31.7218 46.1668 31.7064 46.2534 31.7064C46.3564 31.7064 46.4079 31.694 46.4079 31.6693C46.4079 31.6445 46.5718 31.5827 46.816 31.5116C47.0417 31.4497 47.2582 31.3972 47.2953 31.3972C47.3354 31.3972 47.3695 31.3817 47.3725 31.3662C47.3787 31.3477 47.4591 31.326 47.5519 31.3137C47.6446 31.3044 47.7281 31.2858 47.7374 31.2735C47.7466 31.2611 47.8085 31.2364 47.8765 31.2178C47.9445 31.1993 48.13 31.1498 48.2877 31.1065C48.4423 31.0632 48.6927 30.9921 48.8411 30.9519C48.9926 30.9086 49.2183 30.8468 49.345 30.8127C49.4718 30.7787 49.6078 30.7478 49.6449 30.7478C49.6851 30.7478 49.716 30.7385 49.716 30.7262C49.716 30.7107 49.815 30.6767 49.9386 30.6458C50.0623 30.6179 50.1891 30.5932 50.22 30.5932C50.2478 30.5932 50.2725 30.5839 50.2725 30.5715C50.2725 30.5561 50.3653 30.5221 50.4797 30.4911C50.5972 30.4633 50.7208 30.4386 50.7579 30.4386C50.7981 30.4386 50.829 30.4262 50.829 30.4077C50.829 30.3891 51.0145 30.3767 51.8184 30.3767V34.2729L51.9482 34.2513C52.0224 34.242 52.0874 34.2234 52.0966 34.2111C52.1059 34.1987 52.2048 34.1678 52.3192 34.14C52.4367 34.109 52.5851 34.0874 52.6531 34.0874C52.7304 34.0874 52.7768 34.0719 52.7768 34.0503C52.7768 34.0255 52.9314 33.9668 53.1571 33.905C53.3642 33.8462 53.6177 33.772 53.7198 33.7411C53.8218 33.7101 53.9887 33.6669 54.0908 33.6483C54.1928 33.6267 54.2825 33.6019 54.2917 33.5895C54.301 33.5803 54.3907 33.5493 54.4927 33.5246C54.5947 33.4968 54.8606 33.4226 55.0801 33.3607C55.2996 33.2989 55.5995 33.2154 55.7448 33.1752L55.8009 33.1597C55.9382 33.1217 56.1037 33.0759 56.1931 33.0515C56.2951 33.0237 56.5456 32.9495 56.7496 32.8907C56.9537 32.8289 57.235 32.7516 57.6307 32.6495V26.9537C57.6307 22.4236 57.6215 21.2516 57.5936 21.2423C57.572 21.2331 57.4421 21.1929 57.0588 21.0785L57.2752 21.0166Z" fill="white"/>
<path d="M57.7544 37.0992C57.8997 37.0559 58.0327 37.0157 58.0481 37.0095C58.0636 37.0033 58.0883 36.9972 58.1007 36.9972C58.1161 36.9941 58.1254 38.7968 58.1254 45.0029L57.8688 45.0771C57.7297 45.1204 57.4545 45.1977 57.2597 45.2503C57.065 45.3059 56.8485 45.3678 56.7805 45.3925C56.7125 45.4142 56.5734 45.4575 56.4714 45.4822C56.3693 45.51 56.1684 45.5657 56.0231 45.6059C55.8778 45.6461 55.6366 45.7172 55.482 45.7605C55.3274 45.8038 55.0585 45.8811 54.8791 45.9306C54.6998 45.98 54.437 46.0543 54.2917 46.0975C54.1464 46.1377 53.9053 46.2058 53.7507 46.2491C53.5961 46.2924 53.2004 46.4068 52.8696 46.5026C52.5387 46.6016 52.1708 46.7067 52.0503 46.7407C51.9297 46.7747 51.6885 46.8397 51.5092 46.8892C51.3299 46.9386 51.0671 47.0128 50.9218 47.053C50.7765 47.0963 50.5261 47.1675 50.3653 47.2138C50.2045 47.2602 49.9541 47.3313 49.8088 47.3746C49.6635 47.4148 49.4285 47.4829 49.2832 47.5231C49.1379 47.5633 48.8967 47.6344 48.7422 47.6777C48.5876 47.7241 48.3186 47.8014 48.1393 47.8477C47.96 47.8972 47.7837 47.9436 47.7436 47.9529C47.6817 47.9714 47.6755 47.99 47.6755 48.4353H47.2736V47.4767H47.4282C47.5313 47.4767 47.5828 47.4643 47.5828 47.4396C47.5828 47.4179 47.6694 47.3777 47.7745 47.3468C47.8827 47.319 48.0929 47.2602 48.2475 47.2138C48.4021 47.1705 48.6309 47.1056 48.7576 47.0716C48.8844 47.0376 49.073 46.9819 49.175 46.9479C49.277 46.9139 49.4192 46.8892 49.4903 46.8892C49.5769 46.8892 49.6233 46.8768 49.6233 46.852C49.6233 46.8273 49.716 46.7902 49.8459 46.7562C49.9696 46.7284 50.0963 46.7036 50.1241 46.7036C50.1551 46.7036 50.1798 46.6913 50.1798 46.6727C50.1798 46.6541 50.2633 46.6418 50.3653 46.6418C50.5106 46.6418 50.5508 46.6325 50.5508 46.5954C50.5508 46.5676 50.5786 46.549 50.6281 46.549C50.6714 46.549 50.7085 46.5366 50.7116 46.5243C50.7177 46.5088 50.86 46.4624 51.03 46.4191C51.2 46.3728 51.4628 46.3016 51.6174 46.2583C51.772 46.2151 51.9266 46.1779 51.9637 46.1779C52.0039 46.1779 52.0379 46.1656 52.041 46.1501C52.0472 46.1347 52.1399 46.1037 52.2512 46.0821C52.3625 46.0604 52.4584 46.0326 52.4676 46.0202C52.4769 46.011 52.5944 45.9708 52.7304 45.9337C52.8665 45.8966 53.0736 45.8378 53.1942 45.8038C53.3148 45.7729 53.4415 45.745 53.4786 45.745C53.5188 45.745 53.5497 45.7327 53.5497 45.7141C53.5497 45.6987 53.6116 45.6708 53.6888 45.6523C53.7661 45.6368 53.8836 45.6213 53.9516 45.6213C54.0289 45.6213 54.0753 45.6059 54.0753 45.5842C54.0753 45.5595 54.1897 45.5162 54.3597 45.4729C54.5174 45.4358 54.672 45.4049 54.6998 45.4049C54.7307 45.4049 54.7555 45.3925 54.7555 45.374C54.7555 45.3585 54.8111 45.343 54.8791 45.343C54.9472 45.343 55.0028 45.3338 55.0028 45.3214C55.0028 45.3059 55.0616 45.2781 55.1327 45.2565C55.2069 45.2348 55.3831 45.1823 55.5284 45.1421C55.6737 45.1019 55.9149 45.0338 56.0694 44.9874C56.224 44.9442 56.4466 44.8792 56.5641 44.8452C56.6816 44.8143 56.8114 44.7864 56.8485 44.7864C56.8887 44.7864 56.9197 44.7772 56.9197 44.7648C56.9197 44.7493 56.9846 44.7215 57.065 44.6999C57.1484 44.6782 57.3061 44.6349 57.6307 44.5391V41.116C57.6307 39.2297 57.6184 37.7053 57.606 37.7207C57.5936 37.7393 57.5287 37.7702 57.4607 37.7919C57.3927 37.8104 57.2783 37.829 57.2041 37.829C57.1082 37.829 57.0742 37.8413 57.0742 37.8754C57.0742 37.9094 57.0402 37.9217 56.9506 37.9217C56.8826 37.9217 56.8269 37.931 56.8269 37.9465C56.8269 37.9588 56.7682 37.9836 56.6971 38.0052C56.6229 38.0238 56.4404 38.0763 56.2859 38.1165C56.1313 38.1598 55.8839 38.231 55.7294 38.2743C55.5748 38.3175 55.4202 38.3546 55.38 38.3546C55.3429 38.3546 55.3089 38.367 55.3027 38.3794C55.2996 38.3948 55.1852 38.435 55.0492 38.4722C54.9132 38.5062 54.6967 38.5649 54.57 38.5989C54.4432 38.6329 54.3072 38.6639 54.267 38.6639C54.2299 38.6639 54.1959 38.6762 54.1897 38.6886C54.1866 38.701 54.0722 38.7443 53.9362 38.7814C53.8001 38.8185 53.6579 38.8494 53.6177 38.8494C53.5806 38.8494 53.5466 38.8618 53.5404 38.8741C53.5374 38.8896 53.4508 38.9236 53.3488 38.9514C53.2467 38.9762 53.0581 39.0287 52.9314 39.0628C52.8046 39.0968 52.6686 39.1277 52.6284 39.1277C52.5913 39.1277 52.5604 39.1432 52.5604 39.1586C52.5604 39.1772 52.4769 39.1895 52.3749 39.1895C52.2296 39.1895 52.1894 39.1988 52.1894 39.2359C52.1894 39.2607 52.1585 39.2916 52.1183 39.3009C52.0812 39.3101 51.905 39.3565 51.7256 39.406C51.5463 39.4555 51.3237 39.5173 51.231 39.5421C51.1382 39.5699 51.0084 39.5915 50.9434 39.5915C50.8723 39.5915 50.829 39.607 50.829 39.6317C50.829 39.6503 50.7858 39.6781 50.7301 39.6936C50.6745 39.7059 50.5477 39.7152 50.4488 39.7152C50.3004 39.7152 50.2725 39.7245 50.2725 39.7709C50.2725 39.8111 50.2138 39.8389 50.019 39.8915C49.8768 39.9255 49.6295 39.9935 49.4687 40.0399C49.3079 40.0863 49.0575 40.1605 48.9122 40.2007C48.7669 40.244 48.5257 40.3089 48.3712 40.3522C48.2166 40.3924 48.062 40.4264 48.0218 40.4264C47.9847 40.4264 47.9538 40.4419 47.9538 40.4574C47.9538 40.4759 47.9352 40.4883 47.9136 40.4883C47.895 40.4883 47.6539 40.5532 47.3818 40.6305C47.1509 40.6961 46.8865 40.7707 46.7381 40.8125L46.6707 40.8315C46.5502 40.8624 46.4234 40.8903 46.3832 40.8903C46.3461 40.8903 46.3152 40.9057 46.3152 40.9212C46.3152 40.9397 46.207 40.9521 46.0524 40.9521C45.7989 40.9521 45.7896 40.9552 45.7896 41.0232C45.7896 41.082 45.7587 41.1005 45.5361 41.1593C45.3939 41.1964 45.1465 41.2613 44.9858 41.3046C44.825 41.3479 44.6611 41.385 44.621 41.385C44.5839 41.385 44.5529 41.4005 44.5529 41.4159C44.5529 41.4345 44.4911 41.4623 44.4138 41.4778C44.3365 41.4963 44.219 41.5087 44.151 41.5087C44.0737 41.5087 44.0274 41.5242 44.0274 41.5489C44.0274 41.5705 43.9501 41.6046 43.8511 41.6293C43.7522 41.6509 43.5883 41.6973 43.4863 41.7283C43.3843 41.7592 43.0998 41.8427 42.8525 41.9138C42.6052 41.9818 42.3084 42.0684 42.1878 42.0993C42.0672 42.1302 41.9405 42.1581 41.9003 42.1581C41.8632 42.1581 41.8292 42.1704 41.823 42.1828C41.8199 42.1983 41.6962 42.2385 41.5447 42.2756C41.3963 42.3127 41.1861 42.3436 41.0748 42.3436C40.9048 42.3436 40.8738 42.3343 40.8738 42.291C40.8738 42.2601 40.8646 42.1519 40.8336 41.8643L40.9542 41.8365C41.0222 41.8241 41.3871 41.7221 41.7704 41.6107C42.1538 41.5025 42.5897 41.3757 42.7443 41.3355C42.8989 41.2922 43.14 41.2242 43.2854 41.184C43.4307 41.1469 43.7151 41.0634 43.9191 41.0047L43.9851 40.9857C44.1796 40.9296 44.4156 40.8617 44.5375 40.8284C44.6735 40.7913 44.9023 40.7295 45.0476 40.6893C45.1899 40.6469 45.4182 40.5837 45.5641 40.5434L45.5732 40.5408C45.7185 40.5006 45.9597 40.4295 46.1142 40.3862C46.2688 40.3429 46.5594 40.2595 46.7635 40.2007C46.9675 40.1419 47.3231 40.043 47.5519 39.9781C47.7807 39.9162 48.0589 39.8389 48.1702 39.808C48.2758 39.7787 48.4676 39.7215 48.6111 39.6787L48.634 39.6719C48.7793 39.6317 48.9802 39.573 49.0822 39.5451C49.172 39.5207 49.3382 39.4747 49.4758 39.4366L49.5305 39.4215C49.6758 39.3813 49.917 39.3132 50.0716 39.2699C50.2262 39.2267 50.4735 39.1555 50.6281 39.1122C50.7827 39.0659 51.0516 38.9886 51.231 38.9422C51.4103 38.8927 51.6731 38.8185 51.8184 38.7783C51.9637 38.735 52.2141 38.6639 52.3749 38.6206C52.5357 38.5742 52.7799 38.5031 52.9159 38.466C53.052 38.4258 53.2962 38.3546 53.457 38.3114C53.6177 38.265 53.8713 38.1908 54.0228 38.1506C54.1712 38.1104 54.4123 38.0423 54.5607 38.0021C54.7122 37.9588 54.9874 37.8815 55.1729 37.829C55.3584 37.7733 55.6366 37.696 55.7912 37.6558C55.9458 37.6125 56.1869 37.5445 56.3322 37.5043C56.4775 37.4641 56.796 37.3744 57.0433 37.3033C57.2907 37.2353 57.6091 37.1425 57.7544 37.0992Z" fill="white"/>
<path d="M40.8677 48.4909C40.8522 48.2992 40.8429 48.0827 40.8429 48.0116V47.8787H41.3376V48.8372H40.8893L40.8677 48.4909Z" fill="white"/>
<path d="M40.8738 50.2937L40.8677 49.7711L40.8646 49.2485L40.9419 49.264C40.982 49.2733 41.0191 49.2918 41.0222 49.3073C41.0253 49.3227 41.0903 49.3351 41.3067 49.3351V50.2937H40.8738Z" fill="white"/>
<path d="M46.343 51.5151C46.5223 51.4687 46.7789 51.3976 46.915 51.3574C47.0757 51.311 47.252 51.2863 47.6663 51.2832L47.657 51.7563L47.4096 51.8243C47.2736 51.8614 46.9768 51.9449 46.7449 52.0099C46.5162 52.0717 46.2379 52.149 46.1266 52.1799C46.0184 52.2109 45.7587 52.2851 45.5546 52.3438C45.3506 52.4026 45.1002 52.4737 44.9981 52.5046L44.9979 52.5047C44.8959 52.5325 44.692 52.5881 44.5437 52.6314C44.3953 52.6716 44.151 52.7396 44.0026 52.7829C43.8542 52.8231 43.5791 52.9004 43.3905 52.953C43.205 53.0056 42.9267 53.0859 42.7721 53.1292C42.6206 53.1725 42.3764 53.2406 42.2311 53.2808C42.0889 53.321 41.8446 53.389 41.69 53.4323C41.5386 53.4787 41.2912 53.5467 40.8707 53.6642L40.8862 53.0612L41.0099 53.021C41.0779 52.9963 41.2139 52.9684 41.3129 52.9592C41.4242 52.9437 41.4891 52.9221 41.4891 52.8973C41.4891 52.8695 41.5602 52.8602 41.7364 52.8602C41.9652 52.8602 41.9838 52.854 41.9838 52.7984C41.9838 52.752 42.0147 52.7273 42.1012 52.7087C42.1631 52.6901 42.2929 52.6561 42.3857 52.6314C42.4815 52.6067 42.6577 52.5572 42.7814 52.5232C42.9051 52.4861 43.0597 52.4582 43.1277 52.4582C43.2081 52.4582 43.2513 52.4428 43.2513 52.418C43.2513 52.3995 43.2977 52.3686 43.3534 52.3562C43.409 52.3438 43.5203 52.3345 43.6007 52.3345C43.7089 52.3345 43.746 52.3222 43.746 52.2882C43.746 52.2603 43.7924 52.2294 43.8635 52.2139C43.9253 52.1954 44.0552 52.1645 44.1479 52.1397C44.2438 52.115 44.522 52.0346 44.7663 51.9635C45.0136 51.8955 45.3073 51.8089 45.4155 51.7749C45.5268 51.7408 45.7 51.6975 45.802 51.679C45.904 51.6573 45.9968 51.6326 46.0029 51.6233C46.0122 51.6141 46.1668 51.5646 46.343 51.5151Z" fill="white"/>
<path d="M46.714 56.1813C46.8779 56.1349 47.1469 56.0576 47.3169 56.0112C47.4869 55.9648 47.6384 55.9246 47.6508 55.9246C47.6632 55.9215 47.6724 56.0576 47.657 56.5245L47.5426 56.5307C47.4777 56.5369 47.4251 56.5523 47.4251 56.5709C47.4251 56.5863 47.3354 56.6234 47.2241 56.6482C47.1159 56.6729 46.9954 56.6946 46.9614 56.6946C46.9273 56.6946 46.8964 56.7069 46.8933 56.7193C46.8872 56.7348 46.7728 56.775 46.6367 56.809C46.5007 56.8461 46.2874 56.9048 46.1575 56.9389C46.0308 56.9729 45.8947 57.0038 45.8576 57.0038C45.8174 57.0038 45.7865 57.0131 45.7865 57.0254C45.7865 57.0409 45.6876 57.0749 45.5639 57.1058C45.4402 57.1337 45.3135 57.1584 45.2857 57.1584C45.2547 57.1584 45.23 57.1708 45.23 57.1893C45.23 57.2048 45.1744 57.2202 45.1063 57.2202C45.0383 57.2202 44.9827 57.2295 44.9827 57.2419C44.9827 57.2573 44.9208 57.2852 44.8436 57.3037C44.7694 57.3254 44.6704 57.3439 44.6271 57.3439C44.5869 57.3439 44.5498 57.3532 44.5529 57.3656C44.5529 57.381 44.4447 57.4212 44.3118 57.4583L43.7924 57.6037C43.6409 57.6439 43.4121 57.7088 43.2823 57.7428C43.1555 57.7768 43.0195 57.8078 42.9824 57.8078C42.9422 57.8078 42.9113 57.817 42.9113 57.8294C42.9143 57.8449 42.8432 57.8727 42.7567 57.8913C42.6732 57.9129 42.5557 57.9314 42.4939 57.9314C42.429 57.9314 42.3857 57.9469 42.3857 57.9686C42.3857 57.9933 42.2744 58.0366 42.1167 58.0799C41.9683 58.1201 41.789 58.1603 41.721 58.1695C41.6529 58.1788 41.588 58.2005 41.5757 58.2221C41.5633 58.2438 41.4242 58.2592 40.8707 58.2716V57.8232L41.2974 57.7026C41.5293 57.6377 41.8044 57.5573 41.9065 57.5264C42.0085 57.4954 42.2806 57.4212 42.5093 57.3594C42.7412 57.2975 42.9638 57.2357 43.004 57.2202C43.0473 57.2048 43.1864 57.1646 43.3132 57.1306C43.443 57.0966 43.6935 57.0285 43.8697 56.979C44.049 56.9265 44.3551 56.843 44.5498 56.7873C44.7477 56.7317 44.9981 56.6636 45.1063 56.6327C45.2176 56.6018 45.4402 56.54 45.601 56.4936C45.7649 56.4472 46.0153 56.3792 46.1575 56.339C46.3028 56.2988 46.5533 56.2276 46.714 56.1813Z" fill="white"/>
<path d="M46.4976 63.8221C46.6615 63.7757 46.8841 63.7139 46.9923 63.683C47.1036 63.652 47.3014 63.6242 47.6724 63.6211L47.6755 64.1004L47.4808 64.153C47.3725 64.1808 47.1623 64.2396 47.0077 64.2798C46.8562 64.3231 46.6058 64.3942 46.4512 64.4375C46.2997 64.4839 46.0493 64.5519 45.8947 64.5952C45.7432 64.6354 45.499 64.7034 45.3537 64.7467L44.7972 64.9044C44.6364 64.9477 44.3242 65.0343 44.1016 65.0961C43.882 65.1549 43.6038 65.2322 43.4832 65.2631C43.3657 65.2971 43.1493 65.3589 43.004 65.3991C42.8618 65.4393 42.6114 65.5074 42.4475 65.5538C42.2867 65.6001 42.0363 65.6713 41.891 65.7084C41.7488 65.7486 41.4829 65.8228 41.3036 65.8723C41.1274 65.9248 40.9542 65.9743 40.9264 65.9836C40.8769 65.999 40.8707 65.9743 40.8707 65.3837H41.0099C41.115 65.3837 41.149 65.3713 41.149 65.3373C41.149 65.3002 41.1923 65.2909 41.3345 65.2909C41.4798 65.2909 41.52 65.2816 41.52 65.2445C41.52 65.2136 41.5664 65.192 41.6684 65.1765C41.7488 65.1672 41.823 65.1487 41.8292 65.1363C41.8384 65.1239 41.9281 65.093 42.0301 65.0652C42.1322 65.0374 42.3424 64.9817 42.4939 64.9384C42.6485 64.8951 42.8772 64.8333 43.004 64.7993C43.1339 64.7621 43.2668 64.7343 43.307 64.7343C43.3441 64.7343 43.3781 64.722 43.3843 64.7096C43.3874 64.6941 43.5141 64.6508 43.6625 64.6168C43.8109 64.5797 43.9593 64.5488 43.9933 64.5488C44.0274 64.5488 44.0552 64.5395 44.0552 64.524C44.0552 64.5117 44.151 64.4777 44.2654 64.4467C44.3798 64.4189 44.5035 64.3942 44.5437 64.3942C44.5808 64.3942 44.6117 64.3787 44.6117 64.3633C44.6117 64.3447 44.6766 64.3169 44.7508 64.3014C44.8281 64.2829 45.0105 64.2705 45.1527 64.2705C45.4124 64.2705 45.4155 64.2705 45.4155 64.1932C45.4155 64.1252 45.4372 64.1097 45.5546 64.085C45.6319 64.0664 45.7216 64.054 45.7556 64.054C45.7896 64.054 45.8205 64.0417 45.8267 64.0293C45.8298 64.0138 45.9164 63.9798 46.0184 63.952C46.1204 63.9242 46.3368 63.8654 46.4976 63.8221Z" fill="white"/>
<path d="M23.9004 21.5912L23.9035 21.3407C23.9066 21.0995 23.9097 21.0933 23.9716 21.115C24.0087 21.1273 24.1571 21.1675 24.3024 21.2077C24.4477 21.2448 24.8558 21.3562 25.2144 21.452C25.573 21.5479 25.975 21.6561 26.111 21.6932C26.247 21.7272 26.3614 21.7674 26.3676 21.7829C26.3707 21.7953 26.3831 21.8014 26.3985 21.7922C26.4109 21.786 26.5809 21.8231 26.7757 21.8757C26.9705 21.9251 27.2147 21.9901 27.3167 22.0179C27.4188 22.0426 27.5084 22.0736 27.5177 22.0828C27.527 22.0921 27.5672 22.1045 27.6105 22.1107C27.6537 22.1138 27.9042 22.1756 28.167 22.2467C28.4298 22.3178 28.6524 22.3828 28.6616 22.3921C28.6709 22.4013 28.6895 22.4106 28.708 22.4106C28.7266 22.4106 28.8533 22.4384 28.9955 22.4725C29.1347 22.5065 29.249 22.5436 29.249 22.5559C29.249 22.5714 29.2583 22.5745 29.2738 22.5683C29.2861 22.559 29.4098 22.5838 29.552 22.6209C29.6912 22.658 29.8056 22.6982 29.8056 22.7106C29.8056 22.726 29.8179 22.7291 29.8365 22.7198C29.855 22.7106 30.0096 22.7415 30.1858 22.7879C30.359 22.8342 30.5043 22.8837 30.5105 22.8961C30.5135 22.9085 30.5259 22.9146 30.5414 22.9085C30.5537 22.8992 30.7083 22.9332 30.8876 22.9796C31.067 23.026 31.4411 23.1249 31.7224 23.1991C32.0037 23.2733 32.2387 23.3414 32.248 23.3506C32.2573 23.3599 32.2974 23.3723 32.3407 23.3785C32.384 23.3816 32.5912 23.4341 32.8045 23.4929C33.0178 23.5516 33.2373 23.6104 33.293 23.6228C33.3486 23.6382 33.3919 23.6537 33.3919 23.663C33.3919 23.6722 33.4166 23.6784 33.4475 23.6815C33.4754 23.6815 33.6331 23.7155 33.7938 23.7557C33.9546 23.7959 34.0937 23.8361 34.103 23.8454C34.1123 23.8547 34.1308 23.864 34.1494 23.864C34.1679 23.864 34.2885 23.8887 34.4214 23.9196C34.5513 23.9474 34.6595 23.9846 34.6595 24.0031C34.6595 24.0217 34.6688 24.0278 34.6842 24.0186C34.6966 24.0124 34.8666 24.0495 35.0614 24.099C35.2562 24.1515 35.5035 24.2134 35.6117 24.2381C35.7168 24.2628 35.8034 24.2938 35.8034 24.3123C35.8034 24.3309 35.8127 24.3371 35.8281 24.3309C35.8405 24.3216 36.1064 24.3834 36.4217 24.4669C36.7371 24.5473 37.3152 24.7019 37.7048 24.8071C38.0943 24.9122 38.4994 25.0204 38.6014 25.0452C38.7034 25.073 38.7931 25.1039 38.8023 25.1132C38.8116 25.1225 38.8302 25.1318 38.8487 25.1318C38.8673 25.1318 38.994 25.1596 39.1362 25.1936C39.2754 25.2276 39.3898 25.2647 39.3898 25.2771C39.3898 25.2926 39.4083 25.2987 39.4299 25.2956C39.4485 25.2895 39.5753 25.3142 39.7082 25.3482C39.8381 25.3822 39.9463 25.4193 39.9463 25.4317C39.9463 25.4472 39.9617 25.4503 39.9772 25.441C39.9926 25.4317 40.1905 25.4781 40.4131 25.5399C40.6357 25.6049 40.8274 25.676 40.8398 25.6976C40.849 25.7224 40.815 25.7749 40.7501 25.8244C40.6914 25.8739 40.6357 25.9079 40.6264 25.9048C40.6172 25.8986 40.546 25.9543 40.4657 26.0316C40.3822 26.1058 40.2894 26.1677 40.2554 26.1677C40.2142 26.1677 40.1936 26.147 40.1936 26.1058C40.1936 26.0625 40.1781 26.0471 40.141 26.0563C40.1101 26.0625 40.0483 26.078 40.0019 26.0873C39.9308 26.1027 39.9153 26.0965 39.9153 26.044C39.9153 25.9883 39.8999 25.9852 39.7762 25.9976C39.6526 26.0099 39.6371 26.0069 39.6371 25.9512C39.6371 25.9017 39.6216 25.8924 39.5536 25.9048C39.5042 25.9141 39.4423 25.9296 39.4145 25.9357C39.3743 25.9481 39.3588 25.9326 39.3588 25.8894C39.3588 25.8337 39.3434 25.8306 39.2197 25.843C39.096 25.8553 39.0806 25.8522 39.0806 25.7966C39.0806 25.7533 39.0651 25.7378 39.028 25.7502C38.9971 25.7564 38.9353 25.7718 38.8889 25.7811C38.8178 25.7935 38.8023 25.7842 38.8023 25.7347C38.8023 25.6791 38.7869 25.676 38.6632 25.6884C38.5395 25.7007 38.5241 25.6976 38.5241 25.642C38.5241 25.5863 38.5148 25.5832 38.4097 25.6111C38.3448 25.6265 38.2829 25.642 38.2706 25.642C38.2551 25.642 38.2458 25.6141 38.2458 25.5801C38.2458 25.5245 38.2304 25.5214 38.1067 25.5337C37.9892 25.5461 37.9676 25.5399 37.9676 25.4936C37.9676 25.4472 37.949 25.4441 37.8285 25.4626C37.7017 25.4843 37.6893 25.4812 37.6893 25.4255C37.6893 25.3699 37.6739 25.3668 37.5502 25.3791C37.4389 25.3915 37.4111 25.3853 37.4111 25.3482C37.4111 25.3111 37.3833 25.3049 37.272 25.3173C37.1483 25.3297 37.1328 25.3266 37.1328 25.2709C37.1328 25.2369 37.1236 25.2091 37.1112 25.2091C37.0957 25.2091 37.0339 25.2245 36.9721 25.24C36.8639 25.2678 36.8546 25.2647 36.8546 25.2091C36.8546 25.1534 36.8391 25.1503 36.7155 25.1627C36.5918 25.1751 36.5763 25.172 36.5763 25.1163C36.5763 25.073 36.5609 25.0575 36.5238 25.0699C36.4929 25.0761 36.431 25.0916 36.3846 25.1008C36.3135 25.1132 36.2981 25.1039 36.2981 25.0545C36.2981 24.9988 36.2826 24.9957 36.159 25.0081C36.0415 25.0204 36.0198 25.0143 36.0198 24.9679C36.0198 24.9215 36.0013 24.9184 35.8807 24.937C35.7539 24.9586 35.7416 24.9555 35.7416 24.8998C35.7416 24.8658 35.7323 24.838 35.7199 24.838C35.7045 24.838 35.6426 24.8535 35.5808 24.8689C35.4726 24.8968 35.4633 24.8937 35.4633 24.838C35.4633 24.7823 35.4479 24.7792 35.3242 24.7916C35.2005 24.804 35.1851 24.8009 35.1851 24.7452C35.1851 24.7019 35.1696 24.6865 35.1325 24.6958C35.1016 24.7019 35.0398 24.7174 34.9934 24.7267C34.9223 24.7421 34.9068 24.736 34.9068 24.6834C34.9068 24.6277 34.8914 24.6246 34.7677 24.637C34.644 24.6494 34.6286 24.6463 34.6286 24.5906C34.6286 24.5535 34.6131 24.535 34.5915 24.5411C34.5698 24.5473 34.5049 24.5628 34.4523 24.5721C34.3658 24.5875 34.3503 24.5813 34.3503 24.5288C34.3503 24.4948 34.341 24.4669 34.3287 24.4669C34.3132 24.4669 34.2514 24.4824 34.1896 24.4979C34.0783 24.5257 34.0721 24.5257 34.0721 24.4577C34.0721 24.3927 34.0659 24.3896 33.9329 24.4113C33.8062 24.4329 33.7938 24.4298 33.7938 24.3742C33.7938 24.3309 33.7784 24.3154 33.7413 24.3247C33.7103 24.3309 33.6485 24.3463 33.6021 24.3556C33.531 24.3711 33.5156 24.3649 33.5156 24.3123C33.5156 24.2567 33.5001 24.2536 33.3764 24.2659C33.259 24.2783 33.2373 24.2721 33.2373 24.2257C33.2373 24.1794 33.2188 24.1763 33.0982 24.1948C32.9714 24.2165 32.9591 24.2134 32.9591 24.1577C32.9591 24.1021 32.9436 24.099 32.8199 24.1113C32.7025 24.1237 32.6808 24.1175 32.6808 24.0711C32.6808 24.0247 32.6623 24.0217 32.5417 24.0402C32.4149 24.0619 32.4026 24.0588 32.4026 24.0031C32.4026 23.9691 32.3933 23.9413 32.3809 23.9413C32.3655 23.9413 32.3036 23.9567 32.2418 23.9722L32.2418 23.9722C32.1336 24 32.1243 23.9969 32.1243 23.9413C32.1243 23.8856 32.1089 23.8825 31.9852 23.8949C31.8615 23.9072 31.8461 23.9042 31.8461 23.8485C31.8461 23.799 31.8306 23.7897 31.7626 23.8021C31.7131 23.8114 31.6513 23.8268 31.6235 23.833C31.5833 23.8454 31.5678 23.8299 31.5678 23.7866C31.5678 23.731 31.5524 23.7279 31.4287 23.7403C31.305 23.7526 31.2896 23.7495 31.2896 23.6939C31.2896 23.6506 31.2741 23.6351 31.237 23.6475C31.2061 23.6537 31.1442 23.6691 31.0979 23.6784C31.0268 23.6908 31.0113 23.6815 31.0113 23.632C31.0113 23.598 31.002 23.5702 30.9897 23.5702C30.9742 23.5702 30.9124 23.5857 30.8505 23.6011L30.8505 23.6011C30.7423 23.6289 30.7331 23.6259 30.7331 23.5702C30.7331 23.5145 30.7176 23.5114 30.5939 23.5238C30.4703 23.5362 30.4548 23.5331 30.4548 23.4774C30.4548 23.4341 30.4393 23.4187 30.4022 23.428C30.3713 23.4341 30.3095 23.4496 30.2631 23.4589C30.192 23.4743 30.1766 23.4682 30.1766 23.4156C30.1766 23.3661 30.1611 23.3568 30.0931 23.3692C30.0436 23.3785 29.9818 23.3939 29.954 23.4001C29.9138 23.4125 29.8983 23.397 29.8983 23.3537C29.8983 23.2981 29.8828 23.295 29.7592 23.3074C29.6355 23.3197 29.6201 23.3166 29.6201 23.261C29.6201 23.2053 29.6108 23.2022 29.5211 23.2301C29.4655 23.2486 29.4005 23.261 29.382 23.261C29.3604 23.261 29.3418 23.2331 29.3418 23.1991C29.3418 23.1651 29.3325 23.1373 29.3202 23.1373C29.3047 23.1373 29.2429 23.1527 29.181 23.1682C29.0728 23.196 29.0635 23.1929 29.0635 23.1373C29.0635 23.0816 29.0481 23.0785 28.9244 23.0909C28.8008 23.1033 28.7853 23.1002 28.7853 23.0445C28.7853 23.0105 28.776 22.9827 28.7637 22.9827C28.7482 22.9827 28.6864 22.9981 28.6245 23.0136L28.6245 23.0136C28.5163 23.0414 28.507 23.0383 28.507 22.9827C28.507 22.927 28.4916 22.9239 28.3679 22.9363C28.2443 22.9487 28.2288 22.9456 28.2288 22.8899C28.2288 22.8342 28.2133 22.8312 28.0897 22.8435C27.9722 22.8559 27.9505 22.8497 27.9505 22.8033C27.9505 22.7569 27.932 22.7538 27.8114 22.7724C27.6847 22.794 27.6723 22.791 27.6723 22.7353C27.6723 22.7013 27.6537 22.6735 27.6352 22.6735C27.6136 22.6735 27.5486 22.6858 27.4961 22.7044C27.4002 22.7322 27.394 22.7291 27.394 22.6642C27.394 22.5992 27.3879 22.5961 27.2549 22.6178C27.1282 22.6394 27.1158 22.6363 27.1158 22.5807C27.1158 22.525 27.1003 22.5219 26.9767 22.5343C26.8592 22.5467 26.8375 22.5405 26.8375 22.4941C26.8375 22.4477 26.819 22.4446 26.6984 22.4632C26.5717 22.4848 26.5593 22.4817 26.5593 22.4261C26.5593 22.3704 26.5438 22.3673 26.4202 22.3797C26.3027 22.3921 26.281 22.3859 26.281 22.3395C26.281 22.2931 26.2625 22.29 26.1419 22.3086C26.0152 22.3302 26.0028 22.3271 26.0028 22.2715C26.0028 22.2375 25.9842 22.2096 25.9657 22.2096C25.944 22.2096 25.8791 22.222 25.8266 22.2405C25.7307 22.2684 25.7245 22.2653 25.7245 22.2003C25.7245 22.1354 25.7184 22.1323 25.5854 22.154C25.4648 22.1756 25.4463 22.1725 25.4463 22.123C25.4463 22.0767 25.4277 22.0736 25.3072 22.0921C25.1773 22.1169 25.168 22.1138 25.168 22.0457C25.168 21.9808 25.1618 21.9777 25.0289 21.9993C24.9145 22.021 24.8898 22.0148 24.8898 21.9777C24.8898 21.9437 24.8527 21.9313 24.7507 21.9313C24.6363 21.9313 24.6084 21.919 24.5961 21.8695C24.5837 21.82 24.5559 21.8076 24.4569 21.8076C24.3673 21.8076 24.3333 21.7953 24.3333 21.7612C24.3333 21.7303 24.2622 21.6932 23.9004 21.5912Z" fill="white"/>
<path d="M40.4718 33.6663L40.478 32.2439L40.4842 30.8214L40.5028 32.0738C40.5182 33.1963 40.5244 33.3385 40.5739 33.4498C40.6048 33.5178 40.6604 33.6137 40.6975 33.6663C40.7625 33.7529 40.7625 33.7559 40.7037 33.7312C40.6697 33.7188 40.6048 33.7003 40.4718 33.6663Z" fill="white"/>
<path d="M40.5182 49.7458C40.478 49.7334 40.4718 49.2572 40.4688 45.7445L40.4657 41.7586L40.7037 41.8204L40.5182 42.1977L40.5275 45.7568C40.5337 47.7111 40.543 49.4149 40.5522 49.5355C40.5646 49.7272 40.5584 49.7581 40.5182 49.7458Z" fill="white"/>
<path d="M40.4873 65.8809L40.4749 61.7992L40.4595 57.7175L40.7346 57.7793L40.5491 58.1566V65.6088L40.7346 65.9521L40.4873 65.8809Z" fill="white"/>
<path d="M40.1621 16.1983C40.3755 16.1365 40.5981 16.0653 40.6568 16.0437C40.7155 16.0189 40.799 16.0004 40.8423 16.0004C40.8856 15.9973 40.9691 16.0128 41.0278 16.0313C41.0865 16.0499 41.2535 16.0963 41.3988 16.1365C41.5441 16.1736 41.7945 16.2447 41.9553 16.2911C42.1161 16.3344 42.3727 16.4086 42.5273 16.4488C42.6819 16.4921 42.9292 16.5632 43.0838 16.6034C43.2384 16.6467 43.5073 16.7209 43.6866 16.7704L43.6867 16.7704C43.866 16.8198 44.135 16.894 44.2895 16.9373C44.4441 16.9775 44.6914 17.0487 44.846 17.0919C45.0006 17.1321 45.2201 17.1971 45.3407 17.228C45.4613 17.262 45.7179 17.3331 45.9127 17.3888C46.1074 17.4414 46.3579 17.5125 46.4692 17.5434C46.5805 17.5743 46.8371 17.6424 47.0411 17.698C47.2452 17.7506 47.4461 17.8062 47.4894 17.8217C47.5327 17.8372 47.7553 17.899 47.9841 17.964C48.2129 18.0258 48.5684 18.1247 48.7725 18.1835C48.9713 18.2438 49.2084 18.307 49.3061 18.3331L49.3135 18.335C49.4063 18.3567 49.6567 18.4247 49.87 18.4865L49.9143 18.4994C50.1254 18.5606 50.4138 18.6443 50.5811 18.6875C50.7604 18.737 51.0387 18.8112 51.1994 18.8576C51.3602 18.9009 51.6106 18.972 51.7559 19.0122C51.9012 19.0524 52.1424 19.1204 52.297 19.1637C52.4516 19.2039 52.6989 19.275 52.8535 19.3183C53.0081 19.3585 53.2616 19.4297 53.4193 19.473C53.5738 19.5162 53.8335 19.5905 53.9881 19.6337C54.1458 19.677 54.421 19.7512 54.6003 19.8007C54.7796 19.8502 55.0486 19.9244 55.2032 19.9677C55.3577 20.0079 55.5803 20.0728 55.6978 20.1038C55.8153 20.1378 56.075 20.2089 56.2698 20.2646C56.4646 20.3171 56.715 20.3882 56.8263 20.4192C56.9376 20.4501 57.188 20.5181 57.3828 20.5738C57.5776 20.6263 57.8218 20.6944 57.9238 20.7222C58.0846 20.7655 58.1001 20.7748 58.032 20.7933C57.9888 20.8057 57.7383 20.8799 57.4755 20.9541C57.2127 21.0314 56.9809 21.0809 56.9654 21.0685C56.95 21.0531 56.8819 21.0345 56.817 21.0252C56.7428 21.0129 56.7026 20.9912 56.7026 20.9603C56.7026 20.9263 56.6686 20.9139 56.5697 20.9139C56.4986 20.9139 56.3625 20.8923 56.2698 20.8644C56.177 20.8397 55.9884 20.7871 55.8524 20.7531C55.7164 20.716 55.602 20.6758 55.5958 20.6604C55.5927 20.648 55.5587 20.6356 55.5185 20.6356C55.4814 20.6356 55.3454 20.6047 55.2186 20.5707C55.0919 20.5367 54.8754 20.4779 54.7394 20.4439C54.6034 20.4068 54.489 20.3666 54.4828 20.3511C54.4797 20.3388 54.4457 20.3264 54.4055 20.3264C54.3684 20.3264 54.2138 20.2924 54.0592 20.2491C53.9046 20.2089 53.6573 20.1409 53.5027 20.0976C53.3481 20.0574 53.0915 19.9832 52.9308 19.9399C52.77 19.8966 52.5165 19.8255 52.3681 19.7822C52.2166 19.742 51.9662 19.6709 51.8085 19.6276C51.6539 19.5843 51.4931 19.5441 51.4529 19.5348C51.4158 19.5286 51.3849 19.507 51.3849 19.4915C51.3849 19.476 51.3355 19.4606 51.2767 19.4606C51.218 19.4606 51.1098 19.442 51.0387 19.4173C50.9645 19.3926 50.8161 19.3493 50.7048 19.3214C50.5935 19.2936 50.4358 19.2472 50.3492 19.2194C50.2657 19.1947 50.1884 19.1606 50.1792 19.1514C50.1699 19.139 50.0802 19.1204 49.9782 19.1112C49.8762 19.0988 49.7865 19.0771 49.7773 19.0648C49.768 19.0493 49.7061 19.0277 49.6381 19.0184C49.5701 19.006 49.3815 18.9596 49.2208 18.9102C49.06 18.8607 48.8683 18.8112 48.7972 18.7988C48.723 18.7896 48.6643 18.7648 48.6643 18.7494C48.6643 18.7339 48.6333 18.7185 48.5931 18.7185C48.556 18.7185 48.3675 18.6721 48.1758 18.6164C47.9037 18.5391 47.8295 18.5051 47.8295 18.4618C47.8295 18.4154 47.7986 18.4092 47.6131 18.4092C47.4894 18.4092 47.3967 18.3969 47.3967 18.3783C47.3967 18.3628 47.3503 18.3474 47.2946 18.3474C47.2421 18.3474 47.0628 18.3103 46.902 18.2639C46.7412 18.2175 46.6052 18.168 46.599 18.1557C46.5959 18.1402 46.531 18.1309 46.4537 18.1309C46.3764 18.1309 46.3115 18.1217 46.3053 18.1062C46.3022 18.0938 46.1816 18.0536 46.0363 18.0165C45.891 17.9794 45.656 17.9176 45.5107 17.8805C45.3654 17.8434 45.2449 17.8001 45.2387 17.7846C45.2356 17.7722 45.2016 17.7599 45.1614 17.7599C45.1243 17.7599 44.9882 17.7289 44.8615 17.6949C44.7347 17.6609 44.5183 17.6022 44.3823 17.5681C44.2462 17.531 44.1319 17.4908 44.1257 17.4754C44.1226 17.463 44.0886 17.4506 44.0484 17.4506C44.0113 17.4506 43.8752 17.4197 43.7485 17.3857C43.6217 17.3517 43.3713 17.2837 43.192 17.2342C43.0127 17.1847 42.7344 17.1074 42.5736 17.0641C42.4129 17.0208 42.1563 16.9466 42.0017 16.9064C41.8471 16.8631 41.64 16.8044 41.5379 16.7796C41.4359 16.7518 41.3462 16.7209 41.337 16.7085C41.3277 16.6961 41.2566 16.6776 41.1731 16.6652C41.0927 16.6559 41.0278 16.6312 41.0278 16.6157C41.0278 16.5972 40.966 16.5848 40.8887 16.5848C40.8114 16.5848 40.7496 16.5972 40.7496 16.6157C40.7496 16.6312 40.7063 16.6467 40.6568 16.6467C40.6073 16.6467 40.5641 16.659 40.5641 16.6776C40.5641 16.6931 40.5177 16.7178 40.462 16.7271C40.4095 16.7394 40.2302 16.7889 40.0694 16.8384L40.0693 16.8384C39.9086 16.8879 39.6675 16.9621 39.5345 17.0054C39.4047 17.0456 39.2594 17.0796 39.2161 17.0796C39.1728 17.0796 39.1202 17.0981 39.0986 17.1167C39.077 17.1383 38.9224 17.1909 38.7523 17.2342C38.5854 17.2744 38.4401 17.3177 38.4308 17.327C38.4215 17.3362 38.3102 17.3764 38.1835 17.4104C38.0567 17.4476 37.8341 17.5125 37.6888 17.5558C37.5435 17.5991 37.3951 17.6362 37.3549 17.6362C37.3178 17.6362 37.2869 17.6516 37.2869 17.6671C37.2869 17.6826 37.2374 17.698 37.1787 17.698C37.1199 17.698 37.0705 17.7135 37.0705 17.7289C37.0705 17.7444 37.0272 17.7599 36.9777 17.7599C36.9282 17.7599 36.885 17.7753 36.885 17.7908C36.885 17.8062 36.7767 17.8464 36.6438 17.8743C36.514 17.9021 36.3996 17.9392 36.3903 17.9516C36.381 17.964 36.3037 17.9825 36.2202 17.9949C36.1337 18.0072 36.0595 18.0258 36.0502 18.0382C36.0409 18.0474 35.9389 18.0876 35.8183 18.1247C35.6978 18.1588 35.4628 18.233 35.2927 18.2824C35.1227 18.335 34.9341 18.3876 34.8754 18.3969C34.8166 18.4092 34.761 18.4278 34.7517 18.4402C34.7424 18.4494 34.6249 18.4896 34.4889 18.5298C34.3529 18.57 34.1921 18.6071 34.1334 18.6164C34.0746 18.6257 34.019 18.6442 34.0097 18.6535C34.0004 18.6659 33.9386 18.6906 33.8706 18.7123C33.8026 18.7308 33.716 18.7494 33.6758 18.7494C33.6387 18.7494 33.6047 18.7617 33.5985 18.7803C33.5954 18.7958 33.5212 18.8205 33.4377 18.8329C33.3512 18.8421 33.2646 18.87 33.243 18.8947C33.2244 18.9164 33.0976 18.9596 32.9647 18.9875C32.8349 19.0153 32.7205 19.0493 32.7112 19.0586C32.7019 19.0679 32.5844 19.1081 32.4484 19.1452C32.3124 19.1823 32.1485 19.2132 32.0836 19.2132C32.0032 19.2132 31.9692 19.2256 31.9692 19.2596C31.9692 19.2843 31.9506 19.306 31.929 19.306C31.9104 19.306 31.7806 19.34 31.6446 19.3833C31.5085 19.4266 31.3601 19.4606 31.3107 19.4606C31.2643 19.4606 31.2272 19.476 31.2272 19.4915C31.2272 19.507 31.1932 19.5224 31.1499 19.5224C31.1066 19.5224 31.0695 19.5348 31.0633 19.5472C31.0602 19.5595 30.9458 19.6028 30.8098 19.643C30.6738 19.6832 30.513 19.7203 30.4543 19.7296C30.3955 19.7389 30.3399 19.7574 30.3306 19.7667C30.3213 19.7791 30.2595 19.8038 30.1915 19.8255C30.1235 19.844 30.0369 19.8626 29.9967 19.8626C29.9596 19.8626 29.9256 19.8749 29.9194 19.8935C29.9163 19.909 29.8421 19.9337 29.7586 19.9461C29.6721 19.9553 29.5886 19.9801 29.57 19.9986C29.5546 20.0172 29.4278 20.0605 29.2918 20.0945C29.1588 20.1285 29.0414 20.1625 29.0321 20.1749C29.0228 20.1842 28.9053 20.2244 28.7693 20.2584C28.6333 20.2955 28.4694 20.3264 28.4045 20.3264C28.3334 20.3264 28.2901 20.3419 28.2901 20.3635C28.2901 20.3852 28.2468 20.413 28.1912 20.4284C28.1355 20.4408 28.0582 20.4501 28.018 20.4501C27.9809 20.4501 27.95 20.4625 27.95 20.481C27.95 20.4996 27.8974 20.5243 27.8325 20.5429C27.7707 20.5583 27.681 20.5738 27.6316 20.5738C27.5852 20.5738 27.5481 20.5861 27.5481 20.6047C27.5481 20.6233 27.5141 20.6356 27.4708 20.6356C27.4275 20.6356 27.3904 20.648 27.3842 20.6604C27.3811 20.6727 27.2667 20.716 27.1307 20.7562C26.9947 20.7964 26.8339 20.8335 26.7752 20.8428C26.7164 20.8521 26.6608 20.8675 26.6515 20.8799C26.6422 20.8923 26.5587 20.9232 26.466 20.9541C26.3732 20.982 26.2589 21.0067 26.2094 21.0067C26.163 21.0067 26.1259 21.0191 26.1259 21.0376C26.1259 21.0562 26.0764 21.0685 26.0177 21.0685C25.959 21.0685 25.9095 21.0809 25.9095 21.0995C25.9095 21.118 25.8322 21.152 25.7395 21.1768C25.5787 21.2201 25.5694 21.2262 25.588 21.3066C25.5972 21.3561 25.6034 21.418 25.6034 21.4458C25.6003 21.4767 25.6158 21.4953 25.6312 21.486C25.6467 21.4767 25.6622 21.4922 25.6622 21.5169C25.6622 21.5416 25.6529 21.5633 25.6405 21.5633C25.6251 21.5633 25.3808 21.4984 25.0902 21.421C24.7996 21.3437 24.4286 21.2417 24.2616 21.1984C24.0978 21.152 23.971 21.1056 23.9834 21.0964C23.9988 21.0871 24.107 21.05 24.2245 21.0129C24.3451 20.9789 24.5801 20.9077 24.7501 20.8552C24.9202 20.8057 25.1984 20.7191 25.3684 20.6696C25.5384 20.6171 25.8444 20.5244 26.0485 20.4625L26.0486 20.4625C26.2527 20.4006 26.5247 20.3171 26.6515 20.28C26.7783 20.2429 27.007 20.1718 27.1616 20.1254C27.3162 20.079 27.5388 20.0141 27.6563 19.9801C27.7738 19.9492 27.9005 19.909 27.9345 19.8935C27.9686 19.878 28.1077 19.8347 28.2437 19.8007C28.3797 19.7636 28.5467 19.7141 28.6147 19.6925C28.6827 19.6678 28.8775 19.6059 29.0475 19.5564C29.2176 19.5039 29.5236 19.4111 29.7277 19.3493L29.7277 19.3493C29.9318 19.2874 30.21 19.2039 30.3461 19.1668C30.4821 19.1266 30.6552 19.0741 30.7325 19.0493C30.8098 19.0246 30.9613 18.9751 31.0726 18.9411C31.1839 18.9071 31.4745 18.8205 31.7219 18.7494C31.9692 18.6783 32.2258 18.6009 32.2938 18.5793C32.3618 18.5546 32.5566 18.4958 32.7266 18.4432C32.8967 18.3938 33.1626 18.3134 33.3141 18.267C33.4656 18.2237 33.7036 18.1526 33.8397 18.1093C33.9757 18.0691 34.1705 18.0072 34.2725 17.9763C34.3745 17.9454 34.5971 17.8774 34.7672 17.8279C34.9372 17.7753 35.2031 17.698 35.3546 17.6516C35.5061 17.6053 35.7719 17.5279 35.942 17.4754C36.112 17.4259 36.3563 17.3517 36.483 17.3115C36.6098 17.2713 36.8417 17.2033 36.9932 17.1569L37.0227 17.1479C37.1734 17.1017 37.3845 17.037 37.5033 17.0023C37.63 16.9621 37.8805 16.8848 38.0598 16.8322C38.2391 16.7796 38.4679 16.7116 38.5699 16.6807C38.6719 16.6467 38.8822 16.5848 39.0337 16.5384C39.1852 16.4951 39.417 16.424 39.5438 16.3838C39.6706 16.3467 39.9488 16.2632 40.1621 16.1983Z" fill="white"/>
<path d="M25.7085 21.588L25.7209 21.4056C25.7302 21.3035 25.7487 21.2293 25.7642 21.2417C25.7796 21.251 25.7889 21.2881 25.7889 21.3252C25.7858 21.3623 25.7951 21.4056 25.8075 21.418C25.8229 21.4334 25.8353 21.4767 25.8415 21.5107C25.8477 21.5478 25.8662 21.5973 25.8879 21.6189C25.9188 21.6499 25.9033 21.653 25.7085 21.588Z" fill="white"/>
<path d="M40.7932 26.0016C40.821 25.9831 40.8396 25.9398 40.8426 25.9027V25.8996C40.8426 25.8625 40.8488 25.8315 40.855 25.8315C40.8612 25.8315 40.8674 27.5663 40.8705 29.6875C40.8767 31.8119 40.8705 33.5992 40.8612 33.661C40.8488 33.7476 40.8303 33.7754 40.7963 33.7631C40.7561 33.7507 40.7499 33.3704 40.7499 30.5997C40.7499 28.6331 40.7375 27.2694 40.7159 26.9602C40.6912 26.6046 40.6912 26.4036 40.7159 26.249C40.7344 26.1253 40.7684 26.0202 40.7932 26.0016Z" fill="white"/>
<path d="M40.7901 49.8116C40.7592 49.8024 40.7499 48.9768 40.7499 45.8258C40.7499 42.313 40.7561 41.8523 40.7963 41.8523C40.8303 41.8523 40.8426 41.8894 40.8457 41.9853C40.8457 42.0564 40.8426 43.5221 40.8365 45.2383C40.8303 46.9544 40.8272 48.6892 40.8272 49.0912C40.8272 49.6632 40.8179 49.8209 40.7901 49.8116Z" fill="white"/>
<path d="M40.7963 65.987C40.7561 65.9746 40.7499 65.4892 40.7499 61.8898C40.7499 57.8298 40.7499 57.8081 40.8117 57.8081C40.8736 57.8081 40.8736 57.8298 40.8736 61.9053C40.8736 64.1595 40.8674 66.0025 40.8581 66.0025C40.8488 66.0025 40.821 65.9963 40.7963 65.987Z" fill="white"/>
<path d="M23.8908 27.0688C23.8877 28.114 23.8846 27.2667 23.8846 25.1826C23.8846 23.0984 23.8877 22.2419 23.8908 23.2808C23.897 24.3198 23.897 26.0236 23.8908 27.0688Z" fill="white"/>
<path d="M23.8939 45.3561C23.8785 45.35 23.8723 43.5379 23.8754 41.3332C23.8816 39.1253 23.8877 37.9658 23.8908 38.7574C23.897 39.549 23.9032 41.3579 23.9063 42.7834C23.9125 44.2058 23.9063 45.3623 23.8939 45.3561Z" fill="white"/>
<path d="M47.6814 49.9009C47.6783 48.8805 47.6814 48.027 47.6907 48.0085C47.6969 47.9868 47.7092 47.9683 47.7123 47.9683C47.7185 47.9683 47.7154 48.8217 47.6907 51.7562L47.6814 49.9009Z" fill="white"/>
<path d="M40.8642 52.7303C40.8612 53.2498 40.8581 52.8107 40.8581 51.7562C40.8581 50.7018 40.8612 50.2781 40.8642 50.8131C40.8704 51.3481 40.8704 52.2108 40.8642 52.7303Z" fill="white"/>
<path d="M47.6845 62.6408C47.6783 61.8245 47.6721 59.9691 47.669 58.5189C47.6628 57.0717 47.669 55.8843 47.6814 55.8843C47.6969 55.8843 47.703 57.7397 47.6999 60.0062C47.6938 62.2697 47.6876 63.4572 47.6845 62.6408Z" fill="white"/>
<path d="M40.8641 49.7177C40.8579 49.8042 40.8548 49.7393 40.8548 49.5785C40.8548 49.4177 40.8579 49.3466 40.8641 49.4239C40.8703 49.5012 40.8703 49.6311 40.8641 49.7177Z" fill="white"/>
<path d="M23.9216 59.4599C23.9185 60.5978 23.9154 59.6825 23.9154 57.419C23.9154 55.1555 23.9185 54.2247 23.9216 55.3472C23.9278 56.4697 23.9278 58.3219 23.9216 59.4599Z" fill="white"/>
<path d="M40.8643 48.7163C40.8581 48.7936 40.852 48.7442 40.852 48.6081C40.852 48.4721 40.8581 48.4102 40.8643 48.469C40.8705 48.5277 40.8705 48.639 40.8643 48.7163Z" fill="white"/>
<path d="M40.8643 49.2111C40.8581 49.2699 40.852 49.2142 40.852 49.0874C40.852 48.9606 40.8581 48.9112 40.8643 48.9792C40.8705 49.0472 40.8705 49.1523 40.8643 49.2111Z" fill="white"/>
<path d="M25.1675 25.9579C25.1675 25.7971 25.1799 25.6116 25.1923 25.5466C25.2108 25.4446 25.2232 25.4291 25.2757 25.4477C25.3097 25.457 25.4365 25.4941 25.554 25.525C25.6746 25.5559 26.2218 25.7043 26.7752 25.8497C27.3286 25.995 27.9129 26.1496 28.0737 26.1929C28.2345 26.2362 28.4942 26.3042 28.6457 26.3444C28.7972 26.3846 29.3475 26.53 29.8669 26.6691C30.3863 26.8083 30.9366 26.9536 31.0881 26.9907C31.2396 27.0309 31.5333 27.1082 31.7373 27.1639C31.9414 27.2164 32.2042 27.2875 32.3248 27.3185C32.4453 27.3494 32.6803 27.4112 32.8503 27.4576C33.0204 27.5009 33.2306 27.5566 33.3141 27.5813C33.4007 27.603 33.6573 27.671 33.8861 27.7328C34.1148 27.7916 34.5941 27.9184 34.9527 28.0173C35.3113 28.1132 35.6947 28.2152 36.0193 28.2925V28.4409C36.0193 28.5801 36.0255 28.5863 36.2048 28.6172V29.1429L35.8586 29.047C35.6669 28.9975 35.3484 28.9141 35.1537 28.8646C34.9589 28.8151 34.6713 28.7409 34.5199 28.7007C34.3684 28.6605 33.9634 28.5523 33.6233 28.4626C33.2832 28.376 32.9091 28.2771 32.7885 28.2461C32.6679 28.2152 32.433 28.1534 32.2629 28.107C32.0929 28.0606 31.793 27.9833 31.5982 27.9307C31.4034 27.8813 31.0819 27.7978 30.8871 27.7483C30.6924 27.6957 30.4048 27.6215 30.2533 27.5813C30.1018 27.5411 29.8421 27.4731 29.6814 27.4329C29.5206 27.3927 29.1156 27.2845 28.7848 27.1979C28.454 27.1082 28.049 27.0031 27.8882 26.9598C27.7274 26.9165 27.4616 26.8515 27.3008 26.8113C27.14 26.7711 26.7628 26.6722 26.466 26.5949C26.1692 26.5145 25.8013 26.4155 25.6467 26.3753C25.4952 26.3321 25.3221 26.2888 25.1675 26.2517V25.9579Z" fill="white"/>
<path d="M38.1217 29.6995V29.282C38.1217 29.0532 38.1309 28.8646 38.1464 28.8646C38.158 28.8646 38.2597 28.8919 38.3771 28.9234L38.3999 28.9295C38.5267 28.9635 38.6658 29.0037 38.706 29.013C38.7462 29.0254 38.7864 29.0501 38.7956 29.0656C38.8049 29.0841 38.8111 29.2635 38.808 29.4676C38.8049 29.6716 38.7987 29.8417 38.7956 29.8448C38.7895 29.8479 38.6751 29.8232 38.539 29.7892C38.403 29.7551 38.2546 29.7211 38.1217 29.6995Z" fill="white"/>
<path d="M24.982 42.4085L24.9789 41.9941L24.9728 41.5798L25.217 41.6354C25.353 41.6663 26.0456 41.8457 26.7597 42.0343C27.4739 42.226 28.1912 42.4147 28.352 42.4579C28.5127 42.5012 28.7724 42.5693 28.9239 42.6095C29.0785 42.6497 29.3073 42.7115 29.434 42.7455C29.5608 42.7764 30.2502 42.962 30.9644 43.1506C31.6786 43.3392 32.3619 43.5217 32.4793 43.5526C32.5999 43.5835 32.8349 43.6454 33.0049 43.6917C33.175 43.735 33.5027 43.8216 33.7315 43.8835C33.9603 43.9422 34.2478 44.0164 34.3653 44.0473C34.4858 44.0783 34.7425 44.1463 34.9372 44.202C35.132 44.2545 35.4257 44.3318 35.5865 44.3751C35.7473 44.4184 35.9111 44.4586 35.9513 44.4679C36.0162 44.4803 36.0193 44.4895 36.0193 44.8822C36.0193 45.1296 36.007 45.2842 35.9884 45.2842C35.9729 45.2842 35.9204 45.2688 35.874 45.2502C35.8245 45.2348 35.5432 45.1575 35.2464 45.0801C34.9496 45.0028 34.5168 44.8915 34.288 44.8297C34.0592 44.7709 33.7377 44.6874 33.5769 44.6472C33.4161 44.6039 33.1533 44.5359 32.9987 44.4926C32.8411 44.4524 32.5814 44.3844 32.4268 44.3442C32.2691 44.304 32.0001 44.2329 31.8301 44.1865C31.6601 44.1432 31.3973 44.0752 31.2427 44.035C31.0912 43.9948 30.6738 43.8866 30.3152 43.7907C29.9596 43.6979 29.3939 43.5495 29.063 43.4629L27.8573 43.1475C27.5265 43.0578 27.1307 42.9558 26.9762 42.9187C26.8247 42.8785 26.531 42.8012 26.3269 42.7486C26.1229 42.696 25.823 42.6157 25.6622 42.5755C25.5014 42.5322 25.2819 42.4796 24.982 42.4085Z" fill="white"/>
<path d="M37.9918 45.8377C37.9454 45.813 37.9393 45.7604 37.9393 45.4079C37.9393 45.1884 37.9485 45.0059 37.9609 45.0059C37.9733 45.0059 38.1309 45.0461 38.6349 45.1822L38.6411 45.5873C38.6472 45.813 38.638 45.9954 38.6256 45.9954C38.6146 45.9954 38.5055 45.9709 38.3747 45.9415L38.3257 45.9305C38.1711 45.8934 38.0227 45.8532 37.9918 45.8377Z" fill="white"/>
<path d="M24.8676 58.2715C24.8645 58.2715 24.8615 58.0829 24.8615 57.8541C24.8615 57.6253 24.8645 57.4366 24.8707 57.4366C24.8769 57.4366 24.9573 57.4583 25.05 57.4861C25.1397 57.5108 25.3438 57.5665 25.5014 57.6098C25.6591 57.65 25.925 57.7211 26.0888 57.7644C26.2558 57.8077 26.5495 57.885 26.7474 57.9345C26.9422 57.987 27.1988 58.052 27.3193 58.0829C27.4368 58.1169 27.9871 58.2623 28.5405 58.4107C29.0909 58.5591 29.6474 58.7075 29.7772 58.7385C29.904 58.7725 30.1328 58.8343 30.2873 58.8745C30.4388 58.9147 30.6954 58.9827 30.8593 59.026C31.0201 59.0662 31.2829 59.1373 31.4467 59.1806C31.6075 59.2239 32.0311 59.3353 32.3897 59.4311C32.7452 59.527 33.1657 59.6383 33.3234 59.6816C33.4811 59.7218 33.7469 59.7929 33.9108 59.8362C34.0777 59.8795 34.3653 59.9537 34.5539 60.0032C34.7394 60.0526 35.0238 60.1269 35.1877 60.1701C35.3484 60.2134 35.5741 60.2722 35.8987 60.3588V61.1473L35.8122 61.1287C35.7707 61.1204 35.6746 61.0948 35.5884 61.0717L35.5587 61.0638L35.523 61.0546C35.4165 61.027 35.2308 60.979 35.0794 60.9432L35.0694 60.9406C34.9023 60.8981 34.726 60.8532 34.6775 60.8381C34.625 60.8195 33.9912 60.6525 33.2708 60.4639C32.5474 60.2753 31.7683 60.0743 31.5395 60.0124L31.4747 59.996C31.2514 59.9395 30.9746 59.8694 30.8284 59.83C30.6645 59.7867 30.3739 59.7094 30.1791 59.6599C29.9813 59.6074 29.7247 59.5393 29.6072 59.5084C29.4866 59.4775 29.2238 59.4064 29.0198 59.3538C28.8157 59.3012 28.5158 59.2239 28.355 59.1806C28.1912 59.1373 27.9562 59.0786 27.8295 59.0446C27.6996 59.0137 26.9854 58.825 26.2372 58.6302C25.4891 58.4323 24.8738 58.2715 24.8676 58.2715Z" fill="white"/>
<path d="M37.8125 61.6884L37.8094 61.2833L37.8063 60.8752L38.1278 60.9494C38.3041 60.9927 38.4648 61.0329 38.4865 61.0391C38.5143 61.0514 38.5267 61.1658 38.5267 61.472C38.5267 61.7008 38.5236 61.8894 38.5174 61.8894C38.5143 61.8894 38.4185 61.8647 38.3103 61.8307C38.199 61.7997 38.0413 61.7534 37.8125 61.6884Z" fill="white"/>
<path d="M38.8328 29.8816C38.8142 29.8816 38.805 29.7239 38.8111 29.4518H38.8081C38.8142 29.2168 38.8297 29.0282 38.8452 29.0374C38.8575 29.0436 38.8699 29.2384 38.8668 29.4673C38.8637 29.7208 38.8513 29.8816 38.8328 29.8816Z" fill="white"/>
<path d="M38.6566 46.023C38.6442 46.023 38.6349 45.8282 38.6349 45.5931C38.6349 45.355 38.6473 45.1695 38.6627 45.1788C38.6751 45.185 38.6875 45.3798 38.6844 45.6086C38.6813 45.8374 38.672 46.023 38.6566 46.023Z" fill="white"/>
<path d="M38.5422 61.9015L38.5267 61.4624C38.5174 61.2212 38.5205 61.0326 38.536 61.0449C38.5484 61.0573 38.5545 61.2552 38.5422 61.9015Z" fill="white"/>
<path d="M37.927 45.6039C37.9209 45.7245 37.9178 45.6317 37.9178 45.4029C37.9178 45.1741 37.9209 45.0751 37.927 45.1864C37.9332 45.2978 37.9332 45.4833 37.927 45.6039Z" fill="white"/>
<path d="M37.8034 61.4669C37.7972 61.5844 37.7941 61.4948 37.7941 61.2659C37.7941 61.0371 37.7972 60.9382 37.8034 61.0495C37.8096 61.1608 37.8096 61.3494 37.8034 61.4669Z" fill="white"/>
<path d="M36.0904 28.5984C36.0286 28.5861 36.0193 28.5644 36.0193 28.4438C36.0193 28.3418 36.0317 28.3047 36.0657 28.3047C36.0904 28.3047 36.1337 28.3109 36.1584 28.3201C36.1893 28.3294 36.2048 28.3789 36.2048 28.4748C36.2048 28.5521 36.1955 28.6139 36.1831 28.6139C36.1677 28.6139 36.1275 28.6077 36.0904 28.5984Z" fill="white"/>
<path d="M12.2535 90.4284V93.7404C12.1935 94.0044 12.1155 94.2384 12.0195 94.4424C11.9235 94.6464 11.7915 94.8564 11.6235 95.0724C11.4555 95.2884 11.2335 95.5284 10.9575 95.7924C10.6935 96.0444 10.3575 96.3444 9.94951 96.6924C9.55351 97.0284 9.07351 97.4304 8.50951 97.8984C7.95751 98.3664 7.30351 98.9184 6.54751 99.5544V102.002H3.55951V89.4024H12.2355V90.4284H12.2535ZM6.54751 95.5584C6.95551 95.3184 7.29751 95.0844 7.57351 94.8564C7.86151 94.6164 8.09551 94.3884 8.27551 94.1724C8.46751 93.9444 8.61151 93.7224 8.70751 93.5064C8.81551 93.2904 8.89951 93.0804 8.95951 92.8764V92.2644H6.54751V95.5404V95.5584ZM17.0155 98.3124L15.8635 99.4824V102.002H12.8755V89.4024H21.5515V90.4284H21.5695V93.7404L20.3815 94.9104L19.1935 96.1164L22.2895 102.128H18.9955L17.0155 98.3124ZM15.8635 95.3244L18.2755 92.8764V92.2644H15.8635V95.3244ZM28.6876 92.3724H26.0416V98.9424H28.6876V92.3724ZM23.0536 89.3844H31.6756V101.912H23.0536V89.3844ZM41.2047 93.4884L38.8467 95.3244L41.2047 97.1964V101.984H38.2167V97.9344L36.8487 96.8724L35.4807 97.9344V101.984H32.4927V97.1964L34.8507 95.3244L32.4927 93.4884V89.4024H35.4807V92.6424L36.8487 93.7404L38.2167 92.6424V89.4024H41.2047V93.4884ZM50.6244 93.4884L47.5464 97.1424V102.002H44.5584V96.9444L41.9124 93.4884V89.4024H44.9004V92.6424L46.2684 94.5684L47.6364 92.6424V89.4024H50.6244V93.4884ZM55.4895 92.9484L56.6775 89.4024H58.3335L57.6135 92.9484H55.4895ZM68.9829 93.7224L63.5289 99.1584H65.9049V97.7364H68.9829V102.002H59.5149V99.1584L65.9049 92.5524V92.3004H62.3589V93.7224H59.5149V89.4564H68.9829V93.7224ZM77.3113 102.002H74.2333V100.346H69.4993V97.5024L71.3893 89.4564H77.3113V97.5024H78.2653V100.346H77.3113V102.002ZM72.5773 97.5024H74.2333V92.3004H73.6393L72.5773 97.5024Z" fill="white"/>
</svg>
