<svg width="149" height="33" viewBox="0 0 149 33" fill="none" xmlns="http://www.w3.org/2000/svg">
<path d="M0.0163321 8.9979L0.0183108 6.53607C0.022268 4.29391 0.0262253 4.07623 0.053926 4.0881C0.0717336 4.09602 0.131092 4.11581 0.188473 4.13164C0.24981 4.14945 0.291361 4.1732 0.29334 4.19101C0.29334 4.2108 0.317083 4.21871 0.372485 4.21871C0.435801 4.21871 0.453608 4.22663 0.461523 4.25829C0.469437 4.28996 0.487245 4.29787 0.560454 4.29787C0.625749 4.29787 0.649492 4.30579 0.649492 4.32756C0.649492 4.3513 0.665321 4.35526 0.73853 4.34141C0.823611 4.32756 0.827569 4.32954 0.827569 4.37109C0.827569 4.41463 0.833504 4.41661 0.916607 4.40078C0.993773 4.3889 1.00564 4.39088 1.00564 4.42057C1.00564 4.45223 1.01752 4.45421 1.09468 4.44036C1.17976 4.4265 1.18372 4.42848 1.18372 4.47004C1.18372 4.5116 1.18768 4.51358 1.24704 4.49577C1.28265 4.48389 1.3242 4.47598 1.33608 4.47598C1.34993 4.47598 1.3618 4.49379 1.3618 4.51556C1.3618 4.55118 1.36971 4.55316 1.45084 4.53931C1.528 4.52743 1.53987 4.52941 1.53987 4.55909C1.53987 4.58878 1.55372 4.59274 1.62891 4.58482C1.70806 4.57691 1.71795 4.57888 1.71795 4.61451C1.71795 4.65013 1.72586 4.65211 1.80699 4.63825C1.88415 4.62638 1.89603 4.62836 1.89603 4.65804C1.89603 4.68773 1.90988 4.69169 1.98506 4.68377C2.06421 4.67585 2.0741 4.67783 2.0741 4.71345C2.0741 4.74907 2.08202 4.75105 2.16314 4.7372C2.24822 4.72335 2.25218 4.72533 2.25218 4.76689C2.25218 4.80844 2.25614 4.81042 2.31549 4.79261C2.35111 4.78074 2.39266 4.77282 2.40453 4.77282C2.41838 4.77282 2.43025 4.79063 2.43025 4.8124C2.43025 4.84802 2.43817 4.85 2.51929 4.83615C2.59646 4.82428 2.60833 4.82625 2.60833 4.85594C2.60833 4.88562 2.62218 4.88958 2.69737 4.88166C2.77651 4.87375 2.78641 4.87573 2.78641 4.91135C2.78641 4.94697 2.7963 4.94895 2.87545 4.94103C2.95459 4.93312 2.96448 4.9351 2.96448 4.97072C2.96448 5.00634 2.97042 5.00832 3.03769 4.99051C3.07924 4.98061 3.11882 4.97072 3.12673 4.97072C3.13662 4.97072 3.14256 4.98853 3.14256 5.0103C3.14256 5.04592 3.15245 5.0479 3.2316 5.03998C3.31074 5.03207 3.32064 5.03404 3.32064 5.06967C3.32064 5.10529 3.32657 5.10727 3.39385 5.08946C3.4354 5.07956 3.47497 5.06967 3.48288 5.06967C3.49278 5.06967 3.49871 5.08748 3.49871 5.10925C3.49871 5.13101 3.51058 5.14882 3.52246 5.14882C3.53631 5.14882 3.57786 5.14091 3.61149 5.12903C3.67085 5.11122 3.67679 5.1132 3.67679 5.14882C3.67679 5.18445 3.68668 5.18642 3.76583 5.17851C3.84497 5.17059 3.85487 5.17257 3.85487 5.20819C3.85487 5.2359 3.86476 5.24579 3.8885 5.23788C3.90829 5.23392 3.94786 5.22402 3.97754 5.21809C4.02305 5.21017 4.03294 5.21611 4.03294 5.24777C4.03294 5.27548 4.04283 5.28537 4.06658 5.27944C4.08636 5.27548 4.12594 5.26558 4.15562 5.25965C4.20112 5.24975 4.21102 5.25371 4.21102 5.28735C4.21102 5.32297 4.22091 5.32495 4.30006 5.31704C4.3792 5.30912 4.38909 5.3111 4.38909 5.34672C4.38909 5.38234 4.39503 5.38432 4.4623 5.36651C4.50385 5.35661 4.54343 5.34672 4.55134 5.34672C4.56123 5.34672 4.56717 5.36453 4.56717 5.3863C4.56717 5.41796 4.57706 5.4239 4.62059 5.41598C4.65225 5.41005 4.69182 5.40015 4.70963 5.39619C4.73535 5.38828 4.74525 5.39817 4.74525 5.42588C4.74525 5.4615 4.75514 5.46348 4.83428 5.45556C4.91343 5.44765 4.92332 5.44963 4.92332 5.48525C4.92332 5.51295 4.93322 5.52285 4.95696 5.51493C4.97675 5.51097 5.01632 5.50108 5.046 5.49514C5.09151 5.48723 5.1014 5.49316 5.1014 5.52483C5.1014 5.56045 5.11129 5.56243 5.19044 5.55451C5.26958 5.54659 5.27948 5.54857 5.27948 5.58419C5.27948 5.61982 5.28541 5.6218 5.35268 5.60398C5.39424 5.59409 5.43381 5.58419 5.44172 5.58419C5.45162 5.58419 5.45755 5.60201 5.45755 5.62377C5.45755 5.6594 5.46547 5.66137 5.54659 5.64752C5.62376 5.63565 5.63563 5.63763 5.63563 5.66731C5.63563 5.697 5.64948 5.70095 5.72467 5.69304C5.80381 5.68512 5.8137 5.6871 5.8137 5.72272C5.8137 5.75834 5.82162 5.76032 5.90274 5.74647C5.97991 5.7346 5.99178 5.73657 5.99178 5.76626C5.99178 5.79594 6.00563 5.7999 6.08082 5.79199C6.15996 5.78407 6.16986 5.78605 6.16986 5.82167C6.16986 5.84938 6.17975 5.85927 6.20349 5.85333C6.22328 5.84938 6.26285 5.83948 6.29253 5.83354C6.33804 5.82365 6.34793 5.82761 6.34793 5.86125C6.34793 5.89687 6.35585 5.89885 6.43697 5.885C6.52205 5.87114 6.52601 5.87312 6.52601 5.91468C6.52601 5.95822 6.52997 5.95822 6.59922 5.94041C6.64077 5.93051 6.68034 5.92062 6.68826 5.92062C6.69815 5.92062 6.70409 5.93843 6.70409 5.9602C6.70409 5.99384 6.71398 5.9978 6.7674 5.9879C6.80302 5.98197 6.84457 5.97207 6.85644 5.96811C6.87227 5.96415 6.88216 5.97603 6.88216 5.99978C6.88216 6.0354 6.89206 6.03738 6.9712 6.02946C7.05035 6.02154 7.06024 6.02352 7.06024 6.05914C7.06024 6.09279 7.07013 6.09675 7.11366 6.08685C7.14532 6.08091 7.18489 6.07102 7.2027 6.06706C7.22842 6.06112 7.23832 6.07102 7.23832 6.09872C7.23832 6.13435 7.24821 6.13632 7.32735 6.12841C7.4065 6.12049 7.41639 6.12247 7.41639 6.15809C7.41639 6.19371 7.42233 6.19569 7.4896 6.17788C7.53115 6.16799 7.57072 6.15809 7.57864 6.15809C7.58853 6.15809 7.59447 6.1759 7.59447 6.19767C7.59447 6.23329 7.60238 6.23527 7.68351 6.22142C7.76067 6.20955 7.77254 6.21152 7.77254 6.24121C7.77254 6.27089 7.78639 6.27485 7.86158 6.26694C7.94073 6.25902 7.95062 6.261 7.95062 6.29662C7.95062 6.32828 7.96051 6.33422 8.00404 6.3263C8.0357 6.32037 8.07527 6.31047 8.09308 6.30651C8.1188 6.2986 8.1287 6.30849 8.1287 6.3362C8.1287 6.37182 8.13859 6.3738 8.21773 6.36588C8.29688 6.35797 8.30677 6.35995 8.30677 6.39557C8.30677 6.43119 8.31271 6.43317 8.37998 6.41536C8.42153 6.40546 8.46111 6.39557 8.46902 6.39557C8.47891 6.39557 8.48485 6.41338 8.48485 6.43515C8.48485 6.47077 8.49474 6.47275 8.57389 6.46483C8.64512 6.45692 8.66292 6.46087 8.66292 6.48462C8.66292 6.50837 8.68073 6.51233 8.75196 6.50441C8.83111 6.49649 8.841 6.49847 8.841 6.53409C8.841 6.56972 8.84892 6.5717 8.93004 6.55784C9.00721 6.54597 9.01908 6.54795 9.01908 6.57763C9.01908 6.60732 9.03293 6.61127 9.10812 6.60336C9.18726 6.59544 9.19715 6.59742 9.19715 6.63304C9.19715 6.65481 9.20309 6.67262 9.211 6.67262C9.2209 6.67262 9.26046 6.66273 9.30003 6.65284L9.30004 6.65283C9.36929 6.63502 9.37523 6.637 9.37523 6.67262C9.37523 6.70824 9.38512 6.71022 9.46427 6.70231C9.54341 6.69439 9.55331 6.69637 9.55331 6.73199C9.55331 6.76365 9.5632 6.76959 9.60673 6.76167C9.63839 6.75574 9.67796 6.74584 9.69577 6.74189C9.72149 6.73397 9.73138 6.74386 9.73138 6.77157C9.73138 6.80719 9.74128 6.80917 9.82042 6.80125C9.89957 6.79334 9.90946 6.79532 9.90946 6.83094C9.90946 6.85864 9.91935 6.86854 9.9431 6.86062C9.96288 6.85666 10.0025 6.84677 10.0321 6.84083C10.0776 6.83292 10.0875 6.83885 10.0875 6.87052C10.0875 6.90614 10.0974 6.90812 10.1766 6.9002C10.2557 6.89229 10.2656 6.89426 10.2656 6.92989C10.2656 6.95759 10.2755 6.96749 10.2992 6.96155C10.319 6.95759 10.3586 6.9477 10.3883 6.94176C10.4338 6.93187 10.4437 6.93582 10.4437 6.96947C10.4437 6.99585 10.4569 7.00904 10.4833 7.00904C10.505 7.00904 10.5644 6.96947 10.6158 6.92197C10.6693 6.8725 10.7148 6.8349 10.7207 6.83688C10.7266 6.83885 10.7603 6.81906 10.7959 6.79136C10.8315 6.76365 10.8592 6.73001 10.8592 6.71616C10.8592 6.70428 10.8651 6.68845 10.873 6.6845C10.8829 6.68054 10.881 6.7221 10.8711 6.77949C10.8612 6.8349 10.8394 6.88833 10.8256 6.9002C10.8117 6.9101 10.7899 6.98134 10.7781 7.05852C10.7622 7.15747 10.7622 7.2861 10.7781 7.51368C10.7919 7.71355 10.7998 8.5744 10.7998 9.83895C10.7979 11.6734 10.7959 11.8436 10.7682 11.808C10.7504 11.7862 10.7167 11.7289 10.693 11.6794C10.6534 11.5943 10.6514 11.5547 10.6297 9.98738L10.6257 10.8918C10.6237 11.4795 10.6138 11.7981 10.602 11.7981C10.5921 11.7981 10.3626 11.7388 10.0915 11.6675C9.8224 11.5963 9.51769 11.5151 9.4148 11.4894C9.31191 11.4617 9.1655 11.4241 9.08833 11.4023C9.01116 11.3825 8.82913 11.335 8.68271 11.2955C8.53629 11.2579 8.16233 11.1589 7.85169 11.0758C7.54104 10.9927 7.2027 10.9036 7.09981 10.8759C6.99692 10.8482 6.82874 10.8047 6.72783 10.777C6.6289 10.7513 6.46269 10.7077 6.36178 10.682C6.26285 10.6543 6.09467 10.6107 5.99178 10.583C5.88889 10.5573 5.53274 10.4623 5.20033 10.3733C4.86792 10.2842 4.51177 10.1892 4.40888 10.1635C4.30599 10.1358 4.1576 10.0982 4.08241 10.0764L4.08189 10.0763C4.00637 10.0564 3.8189 10.0071 3.6669 9.96759C3.51454 9.92801 3.32657 9.87853 3.25138 9.85874C3.1762 9.83895 2.92689 9.77167 2.69737 9.71032C2.46785 9.64897 2.19678 9.57773 2.09389 9.55003C1.991 9.52232 1.8248 9.47878 1.72784 9.45306C1.62895 9.42734 1.45097 9.37987 1.33226 9.34821L1.33212 9.34817C1.2134 9.31849 0.867141 9.22548 0.0163321 8.9979Z" fill="#B3FF52"/>
<path d="M0.0143535 19.2687V16.7119L0.0123749 14.157L0.117242 14.1847C0.176601 14.2006 0.309169 14.2362 0.412057 14.2639C0.514946 14.2916 0.679172 14.3351 0.778103 14.3609C0.875056 14.3866 1.14217 14.4578 1.37169 14.5192C1.60121 14.5805 1.86635 14.6518 1.96528 14.6775C2.06223 14.7032 2.21063 14.7408 2.29175 14.7646C2.37287 14.7863 2.54304 14.8319 2.66769 14.8655C2.79234 14.8991 2.97636 14.9486 3.07331 14.9743C3.17026 15.0001 3.42155 15.0674 3.62732 15.1208C3.8331 15.1762 4.10615 15.2474 4.2308 15.2811C4.35546 15.3167 4.53947 15.3642 4.63642 15.3899C4.73338 15.4157 4.98466 15.481 5.19044 15.5384C5.39621 15.5938 5.6475 15.661 5.74445 15.6868C5.84141 15.7125 6.10852 15.7837 6.33804 15.8451C6.56756 15.9064 6.83863 15.9777 6.94152 16.0054L6.97813 16.0152C7.0768 16.0418 7.1996 16.0749 7.26799 16.0925C7.34516 16.1123 7.59249 16.1795 7.82201 16.2409C8.05153 16.3022 8.33447 16.3794 8.45517 16.4091C8.57587 16.4408 8.84298 16.51 9.04876 16.5674C9.25453 16.6228 9.50582 16.6901 9.60277 16.7158C9.69973 16.7416 9.84812 16.7792 9.92924 16.8029C10.0104 16.8247 10.1805 16.8702 10.3052 16.9038C10.4298 16.9395 10.5525 16.9711 10.6218 16.983V19.5358C10.6218 21.9581 10.6198 22.0887 10.5861 22.0768C10.5683 22.0709 10.4694 22.0432 10.3685 22.0175C10.2696 21.9917 10.1034 21.9482 10.0025 21.9225C9.90352 21.8948 9.63443 21.8235 9.40491 21.7622C9.17539 21.7008 8.89245 21.6256 8.77175 21.594C8.65105 21.5643 8.46506 21.5148 8.35624 21.4871C8.24741 21.4574 8.07329 21.4119 7.97041 21.3842C7.86752 21.3565 7.7211 21.3189 7.64393 21.2991C7.56677 21.2773 7.31944 21.212 7.08992 21.1507C6.8604 21.0893 6.48842 20.9884 6.2589 20.929C6.02937 20.8697 5.76226 20.7984 5.66531 20.7727C5.56836 20.747 5.41996 20.7094 5.33883 20.6876C5.25771 20.6658 5.10536 20.6263 5.00247 20.5985C4.89958 20.5708 4.62851 20.4976 4.39899 20.4363C4.16947 20.3749 3.88652 20.2997 3.76583 20.2681C3.64513 20.2384 3.45914 20.1889 3.35032 20.1592C3.24149 20.1315 3.06935 20.086 2.96844 20.0583C2.86951 20.0326 2.70331 19.989 2.6024 19.9633C2.50346 19.9356 2.2502 19.8703 2.04442 19.8149C1.83667 19.7595 1.48249 19.6645 1.25297 19.6031C1.02345 19.5438 0.752381 19.4725 0.649492 19.4448C0.546604 19.4171 0.425908 19.3874 0.382378 19.3756C0.338848 19.3657 0.237938 19.336 0.0143535 19.2687Z" fill="#B3FF52"/>
<path d="M10.6712 17.2482C10.6871 17.1947 10.7187 17.1215 10.7405 17.0859C10.7622 17.0503 10.784 17.0206 10.7899 17.0206C10.7959 17.0206 10.7998 18.1704 10.7998 22.1263L10.7464 22.1144C10.7148 22.1065 10.6871 22.0986 10.6811 22.0927C10.6752 22.0887 10.6653 21.0181 10.6554 19.7159C10.6416 17.6301 10.6435 17.3352 10.6712 17.2482Z" fill="#B3FF52"/>
<path d="M10.8552 21.7899C10.8513 21.8948 10.8473 21.8057 10.8473 21.592C10.8473 21.3802 10.8513 21.2951 10.8552 21.404C10.8572 21.5128 10.8572 21.687 10.8552 21.7899Z" fill="#B3FF52"/>
<path d="M0.0361184 29.6167V27.0005L0.0341398 24.3843L0.0895413 24.4041C0.121199 24.416 0.212216 24.4417 0.29334 24.4615C0.374463 24.4813 0.629706 24.5485 0.857248 24.6099C1.08677 24.6712 1.46073 24.7702 1.68827 24.8296C1.91779 24.8909 2.18491 24.9622 2.28186 24.9879C2.38079 25.0136 2.52721 25.0512 2.60833 25.073C2.68946 25.0947 2.85962 25.1403 2.98427 25.1739C3.10892 25.2075 3.29689 25.259 3.39978 25.2847C3.50267 25.3124 3.67283 25.356 3.77572 25.3837C3.87861 25.4114 4.06658 25.4608 4.19123 25.4925C4.31589 25.5262 4.48209 25.5697 4.55728 25.5895C4.63444 25.6093 5.05193 25.7201 5.48723 25.8368C5.92253 25.9536 6.37761 26.0743 6.49633 26.104C6.61703 26.1357 6.80302 26.1832 6.91184 26.2129C7.02067 26.2406 7.19083 26.2861 7.28778 26.3118C7.38671 26.3375 7.53313 26.3771 7.61425 26.3989C7.69538 26.4206 7.86554 26.4662 7.99019 26.4998C8.11485 26.5334 8.29886 26.5829 8.39581 26.6086C8.49474 26.6344 8.69854 26.6878 8.85089 26.7274C9.00325 26.767 9.19518 26.8184 9.2763 26.8402C9.35742 26.8619 9.48801 26.8956 9.5632 26.9154C9.6314 26.9329 9.7537 26.9658 9.85222 26.9924L9.88967 27.0025C9.99256 27.0302 10.1964 27.0836 10.3408 27.1232C10.4833 27.1608 10.6059 27.1924 10.6119 27.1924C10.6178 27.1924 10.6218 28.3679 10.6218 29.8047C10.6218 31.2414 10.6158 32.4169 10.6079 32.4169C10.598 32.4169 10.4595 32.3813 10.2953 32.3357L10.2696 32.3288C10.1111 32.2863 9.91421 32.2335 9.82042 32.2091C9.72347 32.1853 9.5632 32.1418 9.46427 32.1161C9.36732 32.0904 9.11207 32.0231 8.90036 31.9677C8.68865 31.9103 8.32854 31.8153 8.09902 31.7539C7.88739 31.6969 7.64152 31.633 7.52858 31.6036L7.50543 31.5976C7.40848 31.5719 7.23832 31.5264 7.12949 31.4986C7.02067 31.469 6.85248 31.4234 6.75355 31.3977C6.6566 31.372 6.5082 31.3344 6.42708 31.3126C6.34595 31.2909 5.97199 31.1919 5.59606 31.091C5.22012 30.992 4.85209 30.8951 4.77493 30.8733L4.72925 30.8613C4.65063 30.8406 4.53975 30.8113 4.45835 30.7902C4.36139 30.7645 4.10219 30.6952 3.88454 30.6378C3.6669 30.5804 3.40967 30.5131 3.31074 30.4874C3.21379 30.4617 3.02978 30.4142 2.90513 30.3786C2.78047 30.3449 2.59448 30.2954 2.49555 30.2697C2.39464 30.242 2.22448 30.1985 2.11961 30.1708C2.01277 30.1431 1.84656 30.0975 1.74763 30.0718C1.65068 30.0461 1.4726 30.0006 1.3519 29.9689C1.23319 29.9373 0.886927 29.8462 0.0361184 29.6167Z" fill="#B3FF52"/>
<path d="M10.6732 27.4794L10.7326 27.3606L10.7919 27.2419L10.7979 28.5381C10.7998 29.2506 10.7998 30.4261 10.7919 32.4664L10.6732 32.2487V27.4794Z" fill="#B3FF52"/>
<path d="M20.6732 3.91198C20.8532 3.86052 21.0511 3.80313 21.1144 3.78334C21.2015 3.75762 21.247 3.75366 21.2925 3.76751C21.3281 3.77741 21.4092 3.80313 21.5913 3.85855L21.6031 11.155L21.4409 11.1965C21.3499 11.2203 21.1698 11.2697 21.0392 11.3093C20.9086 11.3469 20.7484 11.3944 20.6831 11.4122C20.6257 11.4279 20.5196 11.4572 20.4316 11.4816L20.3962 11.4914C20.3032 11.5171 20.1132 11.5705 19.9708 11.6101C19.8303 11.6497 19.6601 11.6972 19.5948 11.715C19.5295 11.7308 19.4721 11.7506 19.4662 11.7566C19.4603 11.7645 19.4029 11.7803 19.3376 11.7942C19.2723 11.806 19.1655 11.8337 19.1002 11.8535C19.0349 11.8733 18.8726 11.9208 18.7401 11.9584C18.5956 11.998 18.4967 12.0356 18.4967 12.0514C18.4967 12.0653 18.467 12.0752 18.4175 12.0752C18.374 12.0752 18.279 12.089 18.2058 12.1088C18.1306 12.1266 18.0673 12.1464 18.0614 12.1543C18.0555 12.1623 18.0139 12.1741 17.8833 12.1939V9.70043H17.5667C17.3689 9.70043 17.2502 9.70834 17.2502 9.72022C17.2502 9.73209 17.2304 9.74001 17.2066 9.74001C17.1809 9.74001 17.1018 9.75584 17.0266 9.77365C16.9534 9.79344 16.894 9.81521 16.894 9.8251C16.894 9.83302 16.8782 9.83895 16.8604 9.83895C16.8406 9.83895 16.7595 9.85479 16.6803 9.8726C16.6012 9.89239 16.5378 9.91416 16.5378 9.92405C16.5378 9.93197 16.5181 9.9379 16.4943 9.9379C16.4686 9.9379 16.3815 9.95769 16.3004 9.97946C16.2193 10.0012 16.0748 10.0408 15.9799 10.0685C15.8829 10.0942 15.7227 10.1398 15.6237 10.1675C15.5228 10.1952 15.4041 10.2268 15.3606 10.2387C15.317 10.2506 15.2775 10.2664 15.2715 10.2743C15.2656 10.2822 15.2122 10.2941 15.1528 10.3001C15.0934 10.308 15.042 10.3218 15.04 10.3337C15.0361 10.3436 15.0143 10.3535 14.9906 10.3535C14.9648 10.3535 14.8263 10.3871 14.6819 10.4267C14.5256 10.4722 14.4207 10.5118 14.4207 10.5276C14.4207 10.5435 14.3877 10.5514 14.3218 10.5514C14.2684 10.5514 14.2229 10.5593 14.2229 10.5712C14.2229 10.583 14.1714 10.5949 14.1101 10.5989C14.0468 10.6028 13.9933 10.6147 13.9914 10.6286C13.9874 10.6404 13.9656 10.6503 13.9419 10.6503C13.9162 10.6503 13.8291 10.6701 13.748 10.6919C13.6669 10.7137 13.5284 10.7513 13.4413 10.773C13.3542 10.7968 13.281 10.8225 13.2791 10.8324C13.2751 10.8403 13.2533 10.8482 13.2296 10.8482C13.2039 10.8482 13.1168 10.868 13.0357 10.8898C12.9546 10.9116 12.7903 10.9571 12.6696 10.9887C12.5509 11.0224 12.3986 11.0639 12.3333 11.0798C12.268 11.0976 12.2126 11.1193 12.2106 11.1292C12.2066 11.1372 12.1888 11.1451 12.171 11.1451C12.1512 11.1451 12.0523 11.1649 11.9514 11.1886C11.7891 11.2302 11.7694 11.2381 11.7694 11.2796C11.7694 11.3212 11.7614 11.3232 11.6012 11.3232C11.5022 11.3232 11.433 11.3311 11.433 11.343C11.433 11.3529 11.4112 11.3628 11.3835 11.3628C11.3558 11.3628 11.2688 11.3806 11.1916 11.4043C11.1125 11.4261 11.0135 11.4558 10.974 11.4676L10.974 11.4676C10.9324 11.4815 10.8948 11.4874 10.8908 11.4815C10.8849 11.4756 10.881 10.399 10.879 9.08695C10.877 7.7749 10.8829 6.69637 10.8928 6.69043C10.9007 6.68252 10.972 6.65877 11.0472 6.637C11.1243 6.61523 11.2707 6.57367 11.3736 6.54399C11.4765 6.51629 11.6426 6.46882 11.7396 6.44111L11.7397 6.44108C11.8386 6.41536 11.9712 6.37578 12.0365 6.35599C12.1018 6.3362 12.2759 6.28673 12.4223 6.24715C12.5687 6.20757 12.725 6.16403 12.7686 6.1482C12.8121 6.13435 12.9367 6.09675 13.0456 6.06904C13.1544 6.03936 13.3008 5.99978 13.372 5.97999C13.4433 5.9602 13.6293 5.90677 13.7876 5.86125C13.9458 5.81573 14.1991 5.74251 14.3515 5.69898C14.5038 5.65544 14.6859 5.60399 14.7571 5.5842L14.7725 5.57993C14.849 5.55865 14.9926 5.51876 15.1033 5.48921C15.224 5.45556 15.3784 5.41203 15.4496 5.39026C15.5208 5.36849 15.6673 5.32693 15.7761 5.29725C15.8849 5.26954 16.0274 5.22798 16.0927 5.20819C16.1579 5.1884 16.2945 5.14883 16.3954 5.12112C16.4943 5.09341 16.6605 5.04592 16.7614 5.01821C16.8604 4.99051 17.0147 4.94697 17.1018 4.92125C17.1888 4.89552 17.3807 4.84209 17.5272 4.80251C17.6736 4.76293 17.8299 4.71939 17.8734 4.70356C17.9169 4.68971 18.0733 4.64419 18.2197 4.60461C18.3661 4.56503 18.5936 4.49973 18.7242 4.46213C18.8548 4.42255 19.0111 4.37901 19.0705 4.36318C19.1298 4.34735 19.2862 4.30183 19.4167 4.26423C19.5473 4.22663 19.7531 4.16924 19.8718 4.1356C19.9925 4.10394 20.1469 4.0604 20.2181 4.04061C20.2893 4.02082 20.4931 3.96343 20.6732 3.91198Z" fill="#B3FF52"/>
<path d="M21.4943 14.446C21.5438 14.4321 21.5833 14.4143 21.5833 14.4064C21.5833 14.3965 21.5873 14.3906 21.5932 14.3906C21.5992 14.3906 21.6031 15.3741 21.6031 18.7641L21.4706 18.8036C21.3954 18.8254 21.2945 18.8531 21.241 18.867C21.1896 18.8808 21.148 18.8986 21.148 18.9085C21.148 18.9164 21.1283 18.9224 21.1045 18.9224C21.0788 18.9224 20.9957 18.9402 20.9205 18.96C20.8453 18.9817 20.7029 19.0233 20.6039 19.051C20.505 19.0807 20.3507 19.1242 20.2577 19.15C20.1647 19.1757 20.0519 19.2093 20.0044 19.2232C19.9589 19.237 19.9213 19.2548 19.9213 19.2647C19.9213 19.2726 19.8857 19.2786 19.8421 19.2786C19.7986 19.2786 19.763 19.2885 19.763 19.2984C19.763 19.3083 19.7472 19.3182 19.7294 19.3182C19.7096 19.3182 19.6107 19.338 19.5097 19.3617C19.4009 19.3894 19.3277 19.4171 19.3277 19.4329C19.3277 19.4468 19.298 19.4567 19.2486 19.4567C19.205 19.4567 19.1298 19.4666 19.0804 19.4765C19.0309 19.4864 18.9913 19.5062 18.9913 19.5161C18.9913 19.526 18.9716 19.5358 18.9478 19.5358C18.9221 19.5358 18.841 19.5537 18.7638 19.5734C18.6886 19.5952 18.5541 19.6328 18.467 19.6566C18.3799 19.6803 18.3048 19.706 18.2988 19.712C18.2929 19.7199 18.2315 19.7377 18.1603 19.7516C18.0891 19.7654 18.0297 19.7852 18.0278 19.7951C18.0238 19.805 18.002 19.8129 17.9783 19.8129C17.9526 19.8129 17.8536 19.8366 17.7547 19.8644C17.6558 19.8921 17.4876 19.9376 17.3788 19.9673C17.2699 19.995 17.1789 20.0247 17.1769 20.0345C17.173 20.0425 17.1492 20.0504 17.1215 20.0504C17.0899 20.0504 17.0721 20.0623 17.0721 20.0801C17.0721 20.1038 17.0464 20.1097 16.9534 20.1097C16.8881 20.1097 16.8346 20.1177 16.8346 20.1295C16.8346 20.1394 16.8188 20.1493 16.801 20.1493C16.7812 20.1493 16.7001 20.1652 16.6209 20.183C16.5378 20.2047 16.4785 20.2285 16.4785 20.2443C16.4785 20.2601 16.4488 20.2681 16.3954 20.2681C16.3479 20.2681 16.2569 20.2839 16.1916 20.3057C16.1263 20.3274 16.0056 20.3631 15.9245 20.3848C15.8433 20.4066 15.6969 20.4481 15.598 20.4759C15.4991 20.5055 15.3645 20.5431 15.2953 20.5609C15.228 20.5807 15.1726 20.6065 15.1726 20.6203C15.1726 20.6361 15.139 20.6441 14.9747 20.6441V21.2575H15.232V23.0782H15.0796C14.9787 23.0782 14.8659 23.094 14.7571 23.1237C14.6641 23.1494 14.4959 23.1969 14.3811 23.2266C14.2664 23.2583 14.1694 23.2899 14.1635 23.2959C14.1576 23.3018 14.1002 23.3176 14.0349 23.3315C13.9696 23.3434 13.8588 23.3711 13.7876 23.3928C13.7163 23.4146 13.5303 23.47 13.372 23.5155C13.2138 23.5591 13.0357 23.6105 12.9763 23.6264C12.917 23.6422 12.8339 23.662 12.7943 23.6738C12.7488 23.6837 12.7191 23.7035 12.7191 23.7213C12.7191 23.7431 12.6954 23.751 12.6261 23.751C12.5727 23.751 12.5015 23.757 12.4658 23.7649C12.4302 23.7748 12.4025 23.7926 12.4025 23.8064C12.4025 23.8203 12.3728 23.8302 12.3234 23.8302C12.2798 23.8302 12.1789 23.848 12.1018 23.8717L12.0673 23.8812C11.992 23.9019 11.8997 23.9274 11.8485 23.941C11.7891 23.9588 11.706 23.9786 11.6665 23.9905C11.6111 24.0043 11.5913 24.0182 11.5913 24.0479C11.5913 24.0835 11.5774 24.0875 11.433 24.0875C11.3202 24.0875 11.2747 24.0954 11.2747 24.1132C11.2747 24.127 11.2332 24.1409 11.1619 24.1488C11.0986 24.1567 11.0096 24.1765 10.879 24.226V22.4449H11.156V21.8314H11.0669C11.0175 21.8314 10.9779 21.8215 10.9779 21.8116C10.9779 21.8018 10.9581 21.7899 10.9344 21.7879C10.8928 21.782 10.8889 21.7701 10.879 21.5148H11.1758V20.9013H10.8592V19.2054C10.8592 18.2713 10.8671 17.4738 10.8889 17.359H11.0135C11.0808 17.359 11.2134 17.3392 11.3103 17.3155C11.4053 17.2917 11.4844 17.266 11.4884 17.2561C11.4904 17.2482 11.5121 17.2403 11.5379 17.2403C11.5616 17.2403 11.6447 17.2224 11.7199 17.2027C11.7971 17.1829 11.987 17.1275 12.1453 17.0839C12.3036 17.0384 12.4856 16.985 12.5509 16.9652C12.6162 16.9454 12.7211 16.9157 12.7844 16.9019C12.8477 16.886 12.8972 16.8643 12.8972 16.8504C12.8972 16.8346 12.9269 16.8247 12.9763 16.8247C13.0199 16.8247 13.095 16.8148 13.1445 16.8049C13.194 16.795 13.2335 16.7752 13.2335 16.7653C13.2335 16.7554 13.2533 16.7455 13.2791 16.7455C13.3028 16.7455 13.4077 16.7218 13.5105 16.6941C13.6134 16.6664 13.7717 16.6248 13.8627 16.6011C14.0052 16.5635 14.025 16.5516 14.025 16.514C14.025 16.4704 14.0309 16.4685 14.1932 16.4685C14.2921 16.4685 14.3614 16.4605 14.3614 16.4487C14.3614 16.4388 14.3811 16.4289 14.4069 16.4289C14.4306 16.4289 14.5137 16.4111 14.5889 16.3913C14.6661 16.3695 14.8699 16.3121 15.044 16.2627C15.2181 16.2132 15.3724 16.1716 15.3863 16.1716C15.3982 16.1716 15.41 16.1617 15.41 16.1518C15.41 16.1419 15.4298 16.132 15.4555 16.132C15.4793 16.132 15.5802 16.1103 15.6771 16.0845C15.7761 16.0568 15.9304 16.0153 16.0234 15.9876C16.1164 15.9619 16.2767 15.9144 16.3796 15.8847C16.4824 15.855 16.6407 15.8114 16.7318 15.7897C16.8564 15.756 16.894 15.7382 16.894 15.7125C16.894 15.6828 16.9118 15.6769 17.0088 15.6769C17.0701 15.6769 17.1512 15.6709 17.1868 15.663C17.2225 15.6531 17.2502 15.6353 17.2502 15.6234C17.2502 15.6076 17.2779 15.5977 17.3253 15.5977C17.3649 15.5977 17.448 15.5839 17.5074 15.5661C17.5667 15.5502 17.7092 15.5106 17.824 15.479C17.9387 15.4473 18.0515 15.4176 18.0772 15.4117C18.101 15.4058 18.1207 15.386 18.1207 15.3701C18.1207 15.3464 18.1465 15.3405 18.2395 15.3405C18.3048 15.3405 18.3582 15.3325 18.3582 15.3207C18.3582 15.3108 18.378 15.3009 18.4037 15.3009C18.4274 15.3009 18.5145 15.2811 18.5956 15.2593C18.6767 15.2376 18.7974 15.2039 18.8627 15.1881C18.928 15.1703 18.9834 15.1485 18.9874 15.1386C18.9894 15.1307 19.0111 15.1228 19.0368 15.1228C19.0606 15.1228 19.1516 15.103 19.2387 15.0792C19.3257 15.0555 19.3989 15.0278 19.4029 15.0199C19.4049 15.012 19.4266 15.004 19.4524 15.004C19.4761 15.004 19.5632 14.9842 19.6443 14.9625C19.7254 14.9407 19.8639 14.9031 19.951 14.8813C20.038 14.8576 20.1093 14.8319 20.1093 14.822C20.1093 14.8141 20.133 14.8061 20.1587 14.8061C20.1864 14.8061 20.2893 14.7824 20.3863 14.7547C20.4852 14.727 20.6455 14.6815 20.7424 14.6538C20.8414 14.628 20.9581 14.5944 21.0056 14.5825C21.0511 14.5687 21.0887 14.5528 21.0887 14.5449C21.0887 14.535 21.1243 14.5291 21.1678 14.5291C21.2252 14.5291 21.247 14.5212 21.247 14.4994C21.247 14.4776 21.2687 14.4697 21.3261 14.4697C21.3696 14.4697 21.4448 14.4578 21.4943 14.446Z" fill="#B3FF52"/>
<path d="M15.0737 26.4622C15.0737 26.4523 15.1073 26.4404 15.1489 26.4365C15.1884 26.4325 15.224 26.4286 15.228 26.4266C15.23 26.4246 15.232 27.4477 15.232 30.9742H15.0895C15.0064 30.9742 14.8817 30.992 14.7967 31.0158C14.7155 31.0375 14.5691 31.0791 14.4702 31.1048C14.3713 31.1325 14.2387 31.1701 14.1734 31.186C14.1081 31.2038 14.0527 31.2255 14.0507 31.2354C14.0468 31.2434 14.027 31.2513 14.0052 31.2513C13.9834 31.2513 13.9261 31.2612 13.8766 31.2711C13.7994 31.2889 13.7876 31.2988 13.7876 31.3403C13.7876 31.3898 13.7856 31.3898 13.6194 31.3898C13.5264 31.3898 13.4116 31.3997 13.3622 31.4096C13.3127 31.4215 13.2731 31.4393 13.2731 31.4492C13.2731 31.461 13.2533 31.469 13.2296 31.469C13.2039 31.469 13.1247 31.4848 13.0495 31.5026C12.9763 31.5224 12.917 31.5442 12.917 31.5541C12.917 31.562 12.8992 31.5679 12.8774 31.5679C12.8556 31.5679 12.7607 31.5877 12.6657 31.6114C12.5687 31.6352 12.4896 31.6609 12.4876 31.6708C12.4836 31.6787 12.4619 31.6866 12.4381 31.6866C12.4124 31.6866 12.3254 31.7064 12.2442 31.7282C12.1631 31.75 12.0167 31.7915 11.9178 31.8173C11.8188 31.845 11.6863 31.8826 11.621 31.8984C11.5557 31.9162 11.4983 31.936 11.4924 31.9439C11.4864 31.9518 11.4409 31.9637 11.3895 31.9716C11.3242 31.9795 11.2945 31.9934 11.2945 32.0132C11.2945 32.0369 11.2688 32.0429 11.1758 32.0429C11.0828 32.0429 11.0571 32.0488 11.0571 32.0725C11.0571 32.0943 11.0333 32.1022 10.879 32.1022V27.5506L11.0966 27.5467C11.2332 27.5427 11.3202 27.5328 11.3301 27.519C11.338 27.5071 11.3796 27.4913 11.4231 27.4853C11.4666 27.4794 11.5794 27.4537 11.6764 27.4279C11.7773 27.4022 11.8485 27.3725 11.8485 27.3587C11.8485 27.3428 11.8762 27.3329 11.9178 27.3329C11.9554 27.3329 12.0325 27.3211 12.0859 27.3092C12.1413 27.2953 12.1849 27.2775 12.1849 27.2696C12.1849 27.2597 12.2047 27.2538 12.2304 27.2538C12.2541 27.2538 12.3412 27.234 12.4223 27.2122C12.5034 27.1905 12.6498 27.1489 12.7488 27.1232L13.0812 27.0302C13.1663 27.0064 13.2335 26.9807 13.2335 26.9728C13.2335 26.9629 13.2553 26.9569 13.283 26.9569C13.3107 26.9569 13.372 26.9451 13.4215 26.9332C13.471 26.9193 13.5105 26.9015 13.5105 26.8936C13.5105 26.8837 13.5462 26.8778 13.5897 26.8778C13.6332 26.8778 13.6688 26.8699 13.6688 26.858C13.6688 26.8481 13.6847 26.8382 13.7045 26.8382C13.7223 26.8382 13.8034 26.8224 13.8825 26.8046C13.9617 26.7848 14.025 26.763 14.025 26.7551C14.025 26.7452 14.0448 26.7393 14.0705 26.7393C14.0942 26.7393 14.1813 26.7195 14.2624 26.6977C14.3436 26.6759 14.4821 26.6383 14.5691 26.6166C14.6562 26.5928 14.7294 26.5671 14.7333 26.5572C14.7353 26.5493 14.7551 26.5414 14.7769 26.5414C14.7986 26.5414 14.8738 26.5275 14.9451 26.5117C15.0163 26.4958 15.0737 26.4741 15.0737 26.4622Z" fill="#B3FF52"/>
<path d="M10.7405 0.913854C10.7721 0.913854 10.7998 0.905939 10.7998 0.894065C10.7998 0.88417 10.8394 0.874275 10.8889 0.874275C10.9383 0.874275 10.9779 0.88417 10.9779 0.894065C10.9779 0.905939 11.0195 0.919791 11.0709 0.925728C11.1243 0.933644 11.1698 0.945518 11.1758 0.953434C11.1817 0.961349 11.2391 0.981139 11.3044 0.99895C11.3697 1.01478 11.5082 1.05436 11.6111 1.08207C11.714 1.10977 11.8782 1.15727 11.9771 1.18299C12.076 1.2107 12.2482 1.25819 12.3629 1.28986C12.4777 1.32152 12.638 1.36506 12.7191 1.38683C12.8002 1.40859 12.8873 1.42838 12.911 1.42838C12.9367 1.42838 12.9585 1.4363 12.9605 1.44421C12.9644 1.45411 13.0377 1.47984 13.1247 1.50358C13.2118 1.52535 13.3503 1.56295 13.4314 1.58472C13.5125 1.60649 13.5996 1.62628 13.6233 1.62628C13.6491 1.62628 13.6708 1.63419 13.6728 1.64211C13.6768 1.65201 13.7539 1.67971 13.8469 1.70346C13.9399 1.72721 14.0903 1.76679 14.1833 1.79053C14.2763 1.81428 14.3534 1.84001 14.3554 1.84792C14.3594 1.85782 14.4009 1.86375 14.4504 1.86375C14.4999 1.86375 14.5414 1.86969 14.5434 1.87959C14.5473 1.8875 14.6344 1.91916 14.7373 1.94885C14.8402 1.97853 14.9549 2.00228 14.9886 2.00228C15.0242 2.00228 15.0539 2.01218 15.0539 2.02207C15.0539 2.03394 15.1132 2.04186 15.1924 2.04186C15.3111 2.04186 15.3309 2.04582 15.3309 2.07748C15.3309 2.10321 15.3784 2.12498 15.5525 2.17445C15.6752 2.21007 15.7959 2.23976 15.8216 2.23976C15.8453 2.23976 15.8651 2.24965 15.8651 2.25955C15.8651 2.26944 15.9027 2.28527 15.9502 2.29121C15.9957 2.29912 16.1184 2.33079 16.2213 2.36245C16.3242 2.39411 16.4449 2.4238 16.4884 2.43171C16.5319 2.43765 16.5715 2.4515 16.5774 2.4614C16.5834 2.46932 16.6407 2.48317 16.706 2.49108C16.7713 2.49702 16.8287 2.50889 16.8346 2.51681C16.8406 2.52275 16.89 2.54452 16.9435 2.56035C16.9989 2.57816 17.0998 2.60784 17.171 2.62565C17.2422 2.64346 17.3372 2.67117 17.3847 2.687C17.4302 2.70283 17.4995 2.71471 17.5371 2.71471C17.5746 2.71471 17.6063 2.7246 17.6063 2.7345C17.6063 2.74439 17.6261 2.75824 17.6518 2.7622C17.6756 2.76814 17.7745 2.79386 17.8734 2.82157C17.9723 2.8473 18.1306 2.89281 18.2296 2.92052C18.3285 2.94624 18.4868 2.99176 18.5857 3.01947C18.6847 3.04519 18.8489 3.09269 18.9518 3.12039C19.0547 3.1481 19.2189 3.19361 19.3178 3.21934C19.4167 3.24705 19.5157 3.26881 19.5394 3.26881C19.5632 3.26881 19.5849 3.27673 19.5889 3.28465C19.5928 3.29454 19.6661 3.32027 19.7531 3.34401C19.8402 3.36578 19.9787 3.40338 20.0598 3.42515C20.1409 3.44692 20.226 3.46671 20.2497 3.46671C20.2715 3.46671 20.2933 3.47463 20.2992 3.48254C20.3032 3.49244 20.3784 3.51816 20.4654 3.54191C20.5525 3.56368 20.6732 3.59732 20.7325 3.61315C20.7919 3.63096 20.879 3.64482 20.9264 3.64482C20.9878 3.64482 21.0095 3.65273 21.0095 3.6745C21.0095 3.69429 21.0359 3.70748 21.0887 3.71408C21.1322 3.72002 21.1718 3.73189 21.1777 3.74376C21.1837 3.75564 21.1678 3.76751 21.1441 3.77147C21.1184 3.77543 21.0194 3.80313 20.9205 3.83282C20.8216 3.8625 20.6672 3.90802 20.5742 3.93176C20.4812 3.95749 20.3269 4.00301 20.228 4.03071C20.1291 4.0604 19.9609 4.10789 19.852 4.13956C19.7432 4.16924 19.5513 4.22267 19.4266 4.25829C19.302 4.29391 19.1417 4.33745 19.0705 4.35724C18.9993 4.37703 18.8667 4.41463 18.7737 4.44234C18.6807 4.46806 18.5204 4.51556 18.4175 4.54524C18.3147 4.57493 18.1544 4.61846 18.0614 4.64419C17.9684 4.66992 17.7646 4.72731 17.6063 4.77084C17.448 4.81636 17.2264 4.87969 17.1116 4.91333C16.9969 4.94499 16.8465 4.98853 16.7753 5.0103C16.7041 5.03207 16.5932 5.06373 16.528 5.08154C16.4627 5.09935 16.334 5.13299 16.2411 5.15872C16.1481 5.18444 15.966 5.2359 15.8354 5.2735C15.7048 5.3111 15.5485 5.35661 15.4892 5.37245C15.4298 5.39026 15.2814 5.43181 15.1627 5.46546L15.1092 5.48063C14.9962 5.51267 14.8567 5.55223 14.7769 5.5743C14.6839 5.59805 14.4801 5.65544 14.3218 5.70095C14.1635 5.74647 13.9815 5.7999 13.9162 5.82167C13.8509 5.84146 13.6768 5.89093 13.5303 5.93051C13.3839 5.97009 13.2415 6.00967 13.2138 6.01957C13.1861 6.02946 13.0139 6.07893 12.8279 6.12841C12.6419 6.17788 12.4559 6.23131 12.4124 6.24715C12.3689 6.261 12.3056 6.27881 12.2739 6.28475C12.2423 6.29266 12.1433 6.32037 12.0563 6.34609C11.9692 6.37182 11.7694 6.43119 11.6111 6.4767C11.4528 6.52024 11.2391 6.57961 11.1362 6.60732C11.0333 6.63502 10.9265 6.66075 10.8988 6.66668C10.8711 6.67262 10.7998 6.66273 10.7405 6.64689C10.6811 6.62908 10.5822 6.60138 10.5228 6.58555C10.4635 6.56972 10.226 6.50639 9.99849 6.44504C9.76897 6.38369 9.41875 6.2887 9.21693 6.23329C9.01511 6.17788 8.76976 6.11258 8.67281 6.08883C8.57586 6.0631 8.37404 6.00967 8.22762 5.97009C8.0812 5.92853 7.91698 5.885 7.86157 5.87114C7.80815 5.85729 7.57665 5.79396 7.34713 5.73262C7.11761 5.67127 6.8505 5.59805 6.75354 5.57232C6.65659 5.54462 6.47258 5.49712 6.34793 5.46348C6.22327 5.42984 6.05905 5.38828 5.98188 5.36849C5.90471 5.34672 5.65739 5.27944 5.42787 5.21809C5.19834 5.15674 4.94904 5.08946 4.87385 5.06967C4.79866 5.04988 4.63246 5.00436 4.5078 4.97072C4.38315 4.9351 4.19914 4.88562 4.10219 4.86187C4.00523 4.83615 3.82122 4.78865 3.69657 4.75303C3.57191 4.71939 3.3879 4.66992 3.29095 4.64419C3.194 4.61846 2.94271 4.55316 2.73694 4.49577C2.53116 4.44036 2.29768 4.37703 2.22249 4.35724C2.1473 4.33745 1.9811 4.29193 1.85645 4.25829C1.73179 4.22267 1.5735 4.18111 1.50425 4.1633C1.4073 4.1356 1.38158 4.12174 1.3796 4.09008C1.37762 4.05842 1.37564 4.05644 1.36971 4.08612C1.36575 4.10393 1.34992 4.11977 1.33805 4.11977C1.3242 4.12174 1.30243 4.10987 1.28858 4.09602C1.27473 4.08217 1.26286 4.0505 1.2589 4.02675C1.25494 4.00499 1.24703 3.97728 1.23714 3.96739C1.22922 3.95947 1.22329 3.93176 1.22329 3.90802C1.22329 3.88229 1.21339 3.85854 1.2035 3.85261C1.19163 3.84667 1.18371 3.88625 1.18371 3.95155C1.18371 4.01092 1.17382 4.0604 1.16393 4.0604C1.15403 4.0604 1.14414 4.04654 1.14414 4.03071C1.14414 4.01488 1.13425 4.00499 1.12436 4.01092C1.11446 4.01686 1.10457 4.00499 1.10655 3.98718C1.10655 3.96739 1.10259 3.92781 1.09665 3.89812C1.08478 3.84469 1.09072 3.84073 1.19361 3.81303C1.25297 3.7972 1.30243 3.77543 1.30243 3.76355C1.30243 3.75168 1.33409 3.74376 1.37168 3.74376C1.40928 3.74376 1.44094 3.73585 1.44094 3.72397C1.44094 3.7121 1.46468 3.70418 1.49634 3.70418C1.52602 3.70418 1.59923 3.68835 1.65858 3.67054C1.71794 3.65075 1.77137 3.63096 1.7773 3.62305C1.78324 3.61513 1.81885 3.60524 1.85645 3.5993C1.89404 3.59336 1.99693 3.56962 2.08399 3.54389C2.17105 3.51816 2.24426 3.49046 2.24821 3.48254C2.25019 3.47463 2.27394 3.46671 2.30164 3.46671C2.32934 3.46671 2.3511 3.45879 2.3511 3.44692C2.3511 3.43505 2.37485 3.42713 2.4065 3.42713C2.43618 3.42713 2.49356 3.41724 2.53512 3.40734C2.57469 3.39547 2.60832 3.37964 2.60832 3.36776C2.60832 3.35589 2.62811 3.34797 2.65383 3.34797C2.67758 3.34797 2.72704 3.34204 2.76266 3.33412C2.79827 3.32422 2.82597 3.30641 2.82597 3.29454C2.82597 3.27871 2.85367 3.26881 2.90116 3.26881C2.94073 3.26881 3.0456 3.24902 3.13266 3.22528C3.21972 3.20351 3.29491 3.17778 3.30084 3.17184C3.30678 3.16393 3.38197 3.14216 3.46705 3.12039C3.55411 3.09862 3.63523 3.07092 3.64512 3.05904C3.657 3.04717 3.7124 3.03134 3.76582 3.0254C3.82122 3.01749 3.86673 3.00165 3.87069 2.99176C3.87267 2.97989 3.89443 2.97197 3.92015 2.97197C3.9439 2.97197 3.9993 2.9601 4.04283 2.94822C4.08636 2.93437 4.12593 2.91854 4.13187 2.91062C4.1378 2.90469 4.17342 2.89281 4.21101 2.88688C4.2486 2.88094 4.35149 2.85719 4.43855 2.83146C4.52561 2.80574 4.59882 2.77803 4.60278 2.77012C4.60476 2.7622 4.6285 2.75428 4.6562 2.75428C4.6839 2.75428 4.70567 2.74439 4.70567 2.7345C4.70567 2.7246 4.72941 2.71471 4.76107 2.71471C4.79075 2.71471 4.88572 2.69294 4.97278 2.66523C5.05984 2.63753 5.14294 2.61576 5.15679 2.61576C5.16867 2.61576 5.18054 2.60191 5.18054 2.58607C5.18054 2.56431 5.2023 2.55639 5.25572 2.55639C5.2953 2.55639 5.40016 2.5366 5.48722 2.51285C5.57428 2.4891 5.64947 2.46338 5.65541 2.45744C5.66134 2.4515 5.73455 2.42974 5.81963 2.41193C5.90274 2.39411 5.98386 2.36641 5.99771 2.35256C6.00958 2.33672 6.06696 2.31891 6.12038 2.31298C6.17579 2.30506 6.22129 2.28923 6.22525 2.27934C6.22723 2.26746 6.24899 2.25955 6.27472 2.25955C6.29846 2.25955 6.35386 2.24767 6.39739 2.2358C6.44092 2.22195 6.48049 2.20611 6.48643 2.1982C6.49237 2.19226 6.52798 2.18039 6.56557 2.17445C6.60317 2.16851 6.70606 2.14477 6.79312 2.11904C6.88018 2.09331 6.95536 2.06759 6.9613 2.06165C6.96724 2.05373 7.00285 2.04186 7.04044 2.03394C7.07804 2.02801 7.19873 1.99437 7.30756 1.96072C7.41638 1.92906 7.56676 1.88156 7.64393 1.8598C7.72109 1.83605 7.78639 1.81032 7.79232 1.80439C7.79826 1.79647 7.84772 1.7846 7.90115 1.77668C7.95655 1.76876 8.00404 1.75689 8.00997 1.74897C8.01591 1.74106 8.08912 1.71731 8.1742 1.6995C8.2573 1.68169 8.32655 1.65596 8.32655 1.64607C8.32655 1.63617 8.35425 1.62628 8.38591 1.62628C8.41757 1.62628 8.44527 1.61638 8.44527 1.60649C8.44527 1.59659 8.47693 1.5867 8.51452 1.5867C8.55211 1.5867 8.58377 1.57681 8.58377 1.56691C8.58377 1.55702 8.60356 1.54712 8.6273 1.54712C8.65302 1.54712 8.748 1.52337 8.84099 1.49567C8.93399 1.46796 9.07645 1.4264 9.15757 1.40266C9.2387 1.38089 9.30993 1.35516 9.31586 1.34923C9.3218 1.34329 9.41479 1.31558 9.52164 1.28986C9.63047 1.26215 9.7294 1.22851 9.74325 1.21466C9.7571 1.20278 9.79073 1.19091 9.81843 1.19091C9.84614 1.19091 9.93913 1.16914 10.0222 1.14341C10.1073 1.11571 10.2616 1.06821 10.3645 1.03655C10.4674 1.00489 10.5822 0.973223 10.6158 0.965307C10.6514 0.95937 10.6811 0.945518 10.6811 0.933644C10.6811 0.92177 10.7088 0.913854 10.7405 0.913854Z" fill="#B3FF52"/>
<path d="M21.3756 3.71013C21.4508 3.68638 21.5893 3.6468 21.6823 3.61909C21.7753 3.59337 21.8663 3.56962 21.8861 3.56764C21.9177 3.56566 21.9197 3.76158 21.9098 11.4518L21.7515 11.4934C21.6736 11.5146 21.5228 11.5581 21.3983 11.5939L21.3558 11.6062C21.2252 11.6438 21.0649 11.6913 20.9996 11.7091C20.9423 11.7247 20.8362 11.7541 20.7482 11.7784L20.7127 11.7882C20.6197 11.814 20.4298 11.8674 20.2873 11.907C20.1469 11.9465 19.9727 11.996 19.9015 12.0158C19.8303 12.0356 19.6878 12.0752 19.5849 12.1049C19.482 12.1326 19.3257 12.1781 19.2387 12.2018C19.1516 12.2276 18.9775 12.277 18.8528 12.3127C18.7282 12.3483 18.5679 12.3918 18.4967 12.4116C18.4254 12.4314 18.2652 12.4749 18.1405 12.5106C18.0159 12.5462 17.8378 12.5937 17.5766 12.6649L17.5707 11.341C17.5687 10.6127 17.5628 10.0171 17.5568 10.0171C17.5509 10.0171 17.4698 10.0388 17.3728 10.0646C17.2778 10.0903 17.0978 10.1398 16.9731 10.1754C16.8485 10.211 16.6843 10.2565 16.6071 10.2783C16.5299 10.3001 16.3914 10.3377 16.2945 10.3654C16.1995 10.3911 16.0392 10.4366 15.9383 10.4643C15.8394 10.492 15.6633 10.5395 15.5485 10.5712C15.4338 10.6028 15.2616 10.6503 15.1627 10.678C15.0638 10.7057 14.9055 10.7513 14.8065 10.779C14.7076 10.8047 14.5533 10.8502 14.4603 10.8759C14.3673 10.9017 14.207 10.9472 14.1041 10.9769C14.0012 11.0046 13.8172 11.056 13.6985 11.0897C13.5798 11.1213 13.4195 11.1668 13.3424 11.1886C13.2652 11.2084 13.1109 11.2519 12.9961 11.2836C12.8813 11.3133 12.6419 11.3806 12.4619 11.43C12.2818 11.4815 12.0899 11.5349 12.0365 11.5508C11.9811 11.5646 11.8386 11.6062 11.7199 11.6398C11.6012 11.6735 11.4449 11.719 11.3736 11.7388C11.3024 11.7585 11.1599 11.7981 11.057 11.8258C10.9542 11.8555 10.8691 11.8753 10.8671 11.8733C10.8671 11.8694 10.8691 11.7823 10.8829 11.4914L10.9641 11.4696C11.0096 11.4558 11.1124 11.4281 11.1896 11.4043C11.2688 11.3806 11.3558 11.3628 11.3835 11.3628C11.4112 11.3628 11.433 11.3529 11.433 11.343C11.433 11.3311 11.5022 11.3232 11.6012 11.3232C11.7614 11.3232 11.7694 11.3212 11.7694 11.2796C11.7694 11.2381 11.7891 11.2302 11.9514 11.1886C12.0523 11.1649 12.1512 11.1451 12.169 11.1451C12.1888 11.1451 12.2066 11.1372 12.2086 11.1292C12.2126 11.1193 12.268 11.0976 12.3333 11.0798C12.3986 11.0639 12.5509 11.0224 12.6696 10.9887C12.7883 10.9571 12.9545 10.9116 13.0357 10.8898C13.1168 10.868 13.2039 10.8482 13.2276 10.8482C13.2533 10.8482 13.2751 10.8403 13.2771 10.8324C13.281 10.8225 13.3542 10.7968 13.4413 10.773C13.5283 10.7513 13.6669 10.7137 13.748 10.6919C13.8291 10.6701 13.9162 10.6503 13.9399 10.6503C13.9656 10.6503 13.9874 10.6404 13.9894 10.6286C13.9933 10.6147 14.0467 10.6028 14.1081 10.5989C14.1714 10.5949 14.2228 10.583 14.2228 10.5712C14.2228 10.5613 14.2664 10.5514 14.3218 10.5514C14.3877 10.5514 14.4207 10.5435 14.4207 10.5276C14.4207 10.5118 14.5256 10.4722 14.6819 10.4267C14.8263 10.3871 14.9648 10.3535 14.9886 10.3535C15.0143 10.3535 15.0361 10.3436 15.038 10.3337C15.042 10.3218 15.0934 10.308 15.1528 10.3001C15.2122 10.2941 15.2656 10.2822 15.2715 10.2743C15.2775 10.2664 15.317 10.2506 15.3606 10.2387C15.4041 10.2268 15.5228 10.1952 15.6237 10.1675C15.7226 10.1398 15.8829 10.0942 15.9779 10.0685C16.0748 10.0408 16.2193 10.0012 16.3004 9.97946C16.3815 9.9577 16.4686 9.93791 16.4923 9.93791C16.5181 9.93791 16.5378 9.93197 16.5378 9.92405C16.5378 9.91416 16.6012 9.89239 16.6803 9.8726C16.7594 9.85479 16.8406 9.83896 16.8604 9.83896C16.8782 9.83896 16.894 9.83302 16.894 9.82511C16.894 9.81521 16.9534 9.79344 17.0266 9.77365C17.1017 9.75584 17.1809 9.74001 17.2046 9.74001C17.2304 9.74001 17.2501 9.73209 17.2501 9.72022C17.2501 9.70835 17.3689 9.70043 17.8833 9.70043V12.1939L17.9664 12.1801C18.0139 12.1741 18.0554 12.1623 18.0614 12.1543C18.0673 12.1464 18.1306 12.1266 18.2038 12.1088C18.279 12.089 18.374 12.0752 18.4175 12.0752C18.467 12.0752 18.4967 12.0653 18.4967 12.0514C18.4967 12.0356 18.5956 11.998 18.74 11.9584C18.8726 11.9208 19.0349 11.8733 19.1002 11.8535C19.1655 11.8337 19.2723 11.806 19.3376 11.7942C19.4029 11.7803 19.4603 11.7645 19.4662 11.7566C19.4721 11.7506 19.5295 11.7308 19.5948 11.715C19.6601 11.6972 19.8303 11.6497 19.9708 11.6101C20.1112 11.5705 20.3032 11.5171 20.3962 11.4914L20.4311 11.4817C20.5192 11.4574 20.6256 11.4279 20.6831 11.4122C20.7484 11.3944 20.9086 11.3469 21.0392 11.3093C21.1698 11.2697 21.3499 11.2203 21.6031 11.155V7.50972C21.6031 4.61055 21.5972 3.86053 21.5794 3.85459C21.5655 3.84865 21.4824 3.82293 21.2371 3.74971L21.3756 3.71013Z" fill="#B3FF52"/>
<path d="M21.6823 14.0027C21.7753 13.975 21.8603 13.9493 21.8702 13.9453C21.8801 13.9413 21.896 13.9374 21.9039 13.9374C21.9138 13.9354 21.9197 15.0891 21.9197 19.0609L21.7555 19.1084C21.6664 19.1361 21.4903 19.1856 21.3657 19.2192C21.241 19.2548 21.1025 19.2944 21.059 19.3102C21.0155 19.3241 20.9264 19.3518 20.8611 19.3676C20.8035 19.3834 20.6967 19.4129 20.6084 19.4373L20.5742 19.4468C20.4812 19.4725 20.3269 19.518 20.228 19.5457C20.129 19.5735 19.9569 19.6229 19.8421 19.6546C19.7274 19.6863 19.5592 19.7337 19.4662 19.7615C19.3732 19.7872 19.2189 19.8307 19.1199 19.8584C19.021 19.8861 18.7677 19.9593 18.556 20.0207C18.3443 20.084 18.1089 20.1513 18.0317 20.1731C17.9545 20.1948 17.8002 20.2364 17.6854 20.2681C17.5707 20.2997 17.4025 20.3472 17.3095 20.3729C17.2165 20.4007 17.0562 20.4462 16.9533 20.4759C16.8505 20.5055 16.6902 20.5511 16.5972 20.5788C16.5042 20.6045 16.3538 20.648 16.2608 20.6737C16.1678 20.6995 16.0135 20.745 15.9146 20.7727C15.8156 20.8024 15.6435 20.8519 15.5287 20.8815C15.414 20.9132 15.3012 20.9429 15.2755 20.9488C15.2359 20.9607 15.2319 20.9726 15.2319 21.2575H14.9747V20.6441H15.0737C15.1396 20.6441 15.1726 20.6362 15.1726 20.6203C15.1726 20.6065 15.228 20.5807 15.2953 20.5609C15.3645 20.5431 15.4991 20.5055 15.598 20.4759C15.6969 20.4481 15.8433 20.4066 15.9245 20.3848C16.0056 20.3631 16.1263 20.3274 16.1916 20.3057C16.2569 20.2839 16.3479 20.2681 16.3934 20.2681C16.4488 20.2681 16.4785 20.2601 16.4785 20.2443C16.4785 20.2285 16.5378 20.2047 16.6209 20.183C16.7001 20.1652 16.7812 20.1493 16.799 20.1493C16.8188 20.1493 16.8346 20.1414 16.8346 20.1295C16.8346 20.1177 16.8881 20.1097 16.9533 20.1097C17.0463 20.1097 17.0721 20.1038 17.0721 20.0801C17.0721 20.0623 17.0899 20.0504 17.1215 20.0504C17.1492 20.0504 17.173 20.0425 17.175 20.0345C17.1789 20.0247 17.2699 19.995 17.3788 19.9673C17.4876 19.9376 17.6558 19.8921 17.7547 19.8644C17.8536 19.8367 17.9526 19.8129 17.9763 19.8129C18.002 19.8129 18.0238 19.805 18.0258 19.7951C18.0297 19.7852 18.0891 19.7654 18.1603 19.7516C18.2315 19.7377 18.2929 19.7199 18.2988 19.712C18.3048 19.706 18.3799 19.6803 18.467 19.6566C18.5541 19.6328 18.6866 19.5952 18.7638 19.5735C18.841 19.5537 18.9221 19.5358 18.9458 19.5358C18.9715 19.5358 18.9913 19.5279 18.9913 19.5161C18.9913 19.5062 19.0309 19.4884 19.0804 19.4765C19.1298 19.4666 19.205 19.4567 19.2486 19.4567C19.298 19.4567 19.3277 19.4468 19.3277 19.4329C19.3277 19.4171 19.4009 19.3894 19.5097 19.3617C19.6106 19.338 19.7096 19.3182 19.7274 19.3182C19.7472 19.3182 19.763 19.3102 19.763 19.2984C19.763 19.2885 19.7986 19.2786 19.8421 19.2786C19.8857 19.2786 19.9213 19.2726 19.9213 19.2647C19.9213 19.2548 19.9589 19.237 20.0044 19.2232C20.0519 19.2093 20.1647 19.1757 20.2577 19.15C20.3506 19.1242 20.505 19.0807 20.6039 19.051C20.7028 19.0233 20.8453 18.9817 20.9205 18.96C20.9957 18.9402 21.0788 18.9224 21.1025 18.9224C21.1282 18.9224 21.148 18.9164 21.148 18.9085C21.148 18.8986 21.1896 18.8808 21.241 18.867C21.2945 18.8531 21.3954 18.8254 21.6031 18.7641V16.5733C21.6031 15.3662 21.5952 14.3906 21.5873 14.4005C21.5794 14.4123 21.5378 14.4321 21.4943 14.446C21.4508 14.4578 21.3776 14.4697 21.3301 14.4697C21.2687 14.4697 21.247 14.4776 21.247 14.4994C21.247 14.5212 21.2252 14.5291 21.1678 14.5291C21.1243 14.5291 21.0887 14.535 21.0887 14.5449C21.0887 14.5528 21.0511 14.5687 21.0056 14.5825C20.9581 14.5944 20.8413 14.628 20.7424 14.6538C20.6435 14.6815 20.4852 14.727 20.3863 14.7547C20.2873 14.7824 20.1884 14.8061 20.1627 14.8061C20.1389 14.8061 20.1172 14.8141 20.1132 14.822C20.1112 14.8319 20.038 14.8576 19.951 14.8813C19.8639 14.9031 19.7254 14.9407 19.6443 14.9625C19.5632 14.9842 19.4761 15.004 19.4504 15.004C19.4266 15.004 19.4049 15.012 19.4009 15.0199C19.3989 15.0278 19.3257 15.0555 19.2387 15.0792C19.1516 15.103 19.0606 15.1228 19.0349 15.1228C19.0111 15.1228 18.9894 15.1307 18.9854 15.1386C18.9834 15.1485 18.928 15.1703 18.8627 15.1881C18.7974 15.2039 18.6767 15.2376 18.5956 15.2593C18.5145 15.2811 18.4274 15.3009 18.4017 15.3009C18.378 15.3009 18.3582 15.3108 18.3582 15.3207C18.3582 15.3325 18.3048 15.3405 18.2395 15.3405C18.1465 15.3405 18.1207 15.3464 18.1207 15.3701C18.1207 15.386 18.101 15.4058 18.0752 15.4117C18.0515 15.4176 17.9387 15.4473 17.8239 15.479C17.7092 15.5107 17.5667 15.5502 17.5074 15.5661C17.448 15.5839 17.3649 15.5977 17.3234 15.5977C17.2778 15.5977 17.2501 15.6076 17.2501 15.6235C17.2501 15.6353 17.2224 15.6531 17.1868 15.663C17.1512 15.6709 17.0701 15.6769 17.0068 15.6769C16.9118 15.6769 16.894 15.6828 16.894 15.7125C16.894 15.7382 16.8564 15.756 16.7317 15.7897C16.6407 15.8115 16.4824 15.855 16.3795 15.8847C16.2767 15.9144 16.1164 15.9619 16.0234 15.9876C15.9304 16.0153 15.7761 16.0568 15.6771 16.0845C15.5782 16.1103 15.4793 16.132 15.4536 16.132C15.4298 16.132 15.41 16.1419 15.41 16.1518C15.41 16.1637 15.3982 16.1716 15.3843 16.1716C15.3724 16.1716 15.2181 16.2132 15.044 16.2627C14.8699 16.3121 14.6661 16.3695 14.5889 16.3913C14.5117 16.4111 14.4306 16.4289 14.4049 16.4289C14.3811 16.4289 14.3614 16.4388 14.3614 16.4487C14.3614 16.4606 14.2921 16.4685 14.1932 16.4685C14.0309 16.4685 14.025 16.4704 14.025 16.514C14.025 16.5516 14.0052 16.5635 13.8627 16.6011C13.7717 16.6248 13.6134 16.6664 13.5105 16.6941C13.4077 16.7218 13.3028 16.7455 13.2771 16.7455C13.2533 16.7455 13.2335 16.7554 13.2335 16.7653C13.2335 16.7772 13.194 16.795 13.1445 16.8049C13.095 16.8168 13.0198 16.8247 12.9763 16.8247C12.9268 16.8247 12.8972 16.8346 12.8972 16.8504C12.8972 16.8643 12.8477 16.886 12.7844 16.9019C12.7211 16.9157 12.6162 16.9454 12.5509 16.9652C12.4856 16.985 12.3036 17.0384 12.1453 17.0839C11.987 17.1275 11.7971 17.1829 11.7199 17.2027C11.6427 17.2224 11.5616 17.2403 11.5359 17.2403C11.5121 17.2403 11.4904 17.2482 11.4864 17.2561C11.4844 17.266 11.4053 17.2917 11.3083 17.3155C11.2134 17.3392 11.0788 17.359 11.0076 17.359C10.8988 17.359 10.879 17.3531 10.879 17.3254C10.879 17.3056 10.873 17.2363 10.8532 17.0523L10.9304 17.0344C10.9739 17.0265 11.2074 16.9612 11.4528 16.89C11.6981 16.8207 11.9771 16.7396 12.076 16.7139C12.175 16.6862 12.3293 16.6426 12.4223 16.6169C12.5153 16.5931 12.6973 16.5397 12.8279 16.5021L12.8703 16.4899C12.9947 16.4541 13.1457 16.4106 13.2236 16.3893C13.3107 16.3656 13.4571 16.326 13.5501 16.3003C13.6411 16.2731 13.7872 16.2327 13.8805 16.2069L13.8865 16.2053C13.9795 16.1795 14.1338 16.134 14.2327 16.1063C14.3317 16.0786 14.5177 16.0252 14.6483 15.9876C14.7788 15.95 15.0064 15.8867 15.1528 15.8451C15.2992 15.8055 15.4772 15.7561 15.5484 15.7363L15.5485 15.7363C15.6162 15.7175 15.7391 15.6808 15.8309 15.6535L15.8453 15.6492C15.9383 15.6235 16.0669 15.5859 16.1322 15.568C16.1897 15.5524 16.2961 15.5229 16.3841 15.4986L16.4191 15.4889C16.5121 15.4632 16.6664 15.4196 16.7654 15.3919C16.8643 15.3642 17.0226 15.3187 17.1215 15.291C17.2205 15.2613 17.3926 15.2118 17.5074 15.1821C17.6221 15.1505 17.7903 15.103 17.8833 15.0773C17.9763 15.0496 18.1366 15.004 18.2395 14.9763C18.3423 14.9466 18.4987 14.9011 18.5857 14.8774C18.6728 14.8517 18.8291 14.8061 18.932 14.7784C19.0349 14.7488 19.1971 14.7013 19.2941 14.6755C19.389 14.6498 19.5434 14.6063 19.6383 14.5805C19.7353 14.5528 19.9114 14.5034 20.0301 14.4697C20.1488 14.4341 20.3269 14.3846 20.4258 14.3589C20.5248 14.3312 20.6791 14.2877 20.7721 14.2619C20.8651 14.2362 21.0689 14.1788 21.2272 14.1333C21.3855 14.0898 21.5893 14.0304 21.6823 14.0027Z" fill="#B3FF52"/>
<path d="M10.875 21.2932C10.8651 21.1705 10.8592 21.0319 10.8592 20.9864V20.9013H11.1758V21.5148H10.8889L10.875 21.2932Z" fill="#B3FF52"/>
<path d="M10.879 22.4469L10.875 22.1125L10.873 21.778L10.9225 21.7879C10.9482 21.7938 10.972 21.8057 10.9739 21.8156C10.9759 21.8255 11.0175 21.8334 11.156 21.8334V22.4469H10.879Z" fill="#B3FF52"/>
<path d="M14.3792 23.2286C14.4939 23.1989 14.6581 23.1534 14.7452 23.1277C14.8481 23.098 14.9609 23.0821 15.226 23.0802L15.2201 23.3829L15.0618 23.4265C14.9747 23.4502 14.7848 23.5037 14.6364 23.5452C14.49 23.5848 14.3119 23.6343 14.2407 23.6541C14.1714 23.6739 14.0052 23.7213 13.8746 23.7589C13.744 23.7965 13.5838 23.8421 13.5185 23.8619L13.5183 23.8619C13.4529 23.8797 13.3225 23.9153 13.2276 23.943C13.1326 23.9687 12.9763 24.0123 12.8813 24.04C12.7864 24.0657 12.6103 24.1152 12.4896 24.1488C12.3709 24.1824 12.1928 24.2339 12.0938 24.2616C11.9969 24.2893 11.8406 24.3328 11.7476 24.3586C11.6566 24.3843 11.5003 24.4278 11.4013 24.4555C11.3044 24.4852 11.1461 24.5288 10.877 24.604L10.8869 24.2181L10.966 24.1923C11.0096 24.1765 11.0966 24.1587 11.1599 24.1528C11.2312 24.1429 11.2727 24.129 11.2727 24.1132C11.2727 24.0954 11.3182 24.0894 11.431 24.0894C11.5774 24.0894 11.5893 24.0855 11.5893 24.0499C11.5893 24.0202 11.6091 24.0043 11.6645 23.9925C11.7041 23.9806 11.7872 23.9588 11.8465 23.943C11.9079 23.9272 12.0206 23.8955 12.0998 23.8737C12.1789 23.85 12.2779 23.8322 12.3214 23.8322C12.3728 23.8322 12.4005 23.8223 12.4005 23.8064C12.4005 23.7946 12.4302 23.7748 12.4658 23.7669C12.5014 23.7589 12.5727 23.753 12.6241 23.753C12.6934 23.753 12.7171 23.7451 12.7171 23.7233C12.7171 23.7055 12.7468 23.6857 12.7923 23.6758C12.8319 23.664 12.915 23.6442 12.9743 23.6283C13.0357 23.6125 13.2137 23.5611 13.3701 23.5155C13.5283 23.472 13.7163 23.4166 13.7856 23.3948C13.8568 23.373 13.9676 23.3453 14.0329 23.3335C14.0982 23.3196 14.1576 23.3038 14.1615 23.2978C14.1674 23.2919 14.2664 23.2602 14.3792 23.2286Z" fill="#B3FF52"/>
<path d="M14.6166 26.2148C14.7215 26.1851 14.8936 26.1357 15.0024 26.106C15.1112 26.0763 15.2082 26.0506 15.2161 26.0506C15.224 26.0486 15.23 26.1357 15.2201 26.4345L15.1469 26.4385C15.1053 26.4424 15.0717 26.4523 15.0717 26.4642C15.0717 26.4741 15.0143 26.4978 14.9431 26.5137C14.8738 26.5295 14.7966 26.5433 14.7749 26.5433C14.7531 26.5433 14.7333 26.5513 14.7314 26.5592C14.7274 26.5691 14.6542 26.5948 14.5671 26.6166C14.4801 26.6403 14.3435 26.6779 14.2604 26.6997C14.1793 26.7214 14.0923 26.7412 14.0685 26.7412C14.0428 26.7412 14.023 26.7472 14.023 26.7551C14.023 26.765 13.9597 26.7868 13.8805 26.8065C13.8014 26.8244 13.7203 26.8402 13.7025 26.8402C13.6827 26.8402 13.6669 26.8481 13.6669 26.86C13.6669 26.8699 13.6312 26.8798 13.5877 26.8798C13.5442 26.8798 13.5086 26.8857 13.5086 26.8936C13.5086 26.9035 13.469 26.9213 13.4195 26.9332C13.372 26.947 13.3087 26.9589 13.281 26.9589C13.2553 26.9589 13.2316 26.9649 13.2335 26.9728C13.2335 26.9827 13.1643 27.0084 13.0792 27.0321L12.7468 27.1252C12.6498 27.1509 12.5034 27.1924 12.4203 27.2142C12.3392 27.236 12.2521 27.2558 12.2284 27.2558C12.2027 27.2558 12.1829 27.2617 12.1829 27.2696C12.1849 27.2795 12.1394 27.2973 12.084 27.3092C12.0305 27.323 11.9553 27.3349 11.9158 27.3349C11.8742 27.3349 11.8465 27.3448 11.8465 27.3587C11.8465 27.3745 11.7753 27.4022 11.6744 27.4299C11.5794 27.4556 11.4646 27.4814 11.4211 27.4873C11.3776 27.4932 11.336 27.5071 11.3281 27.5209C11.3202 27.5348 11.2312 27.5447 10.877 27.5526V27.2657L11.15 27.1885C11.2984 27.1469 11.4745 27.0955 11.5398 27.0757C11.6051 27.0559 11.7792 27.0084 11.9257 26.9688C12.0741 26.9292 12.2165 26.8897 12.2422 26.8798C12.2699 26.8699 12.359 26.8441 12.4401 26.8224C12.5232 26.8006 12.6835 26.7571 12.7963 26.7254C12.911 26.6918 13.1069 26.6383 13.2316 26.6027C13.3582 26.5671 13.5185 26.5236 13.5877 26.5038L13.5881 26.5037C13.6594 26.4838 13.8016 26.4443 13.9043 26.4147C14.0092 26.385 14.1694 26.3415 14.2604 26.3158C14.3534 26.29 14.5137 26.2445 14.6166 26.2148Z" fill="#B3FF52"/>
<path d="M14.4781 31.1048C14.583 31.0752 14.7254 31.0356 14.7947 31.0158C14.8659 30.996 14.9925 30.9782 15.23 30.9762L15.2319 31.2829L15.1073 31.3166C15.038 31.3344 14.9035 31.372 14.8046 31.3977C14.7076 31.4254 14.5473 31.4709 14.4484 31.4986C14.3515 31.5283 14.1912 31.5719 14.0923 31.5996C13.9953 31.6253 13.839 31.6688 13.746 31.6965L13.3898 31.7975C13.287 31.8252 13.0871 31.8806 12.9447 31.9202C12.8042 31.9578 12.6261 32.0072 12.5489 32.027C12.4737 32.0488 12.3352 32.0884 12.2422 32.1141C12.1512 32.1398 11.991 32.1834 11.8861 32.2131C11.7832 32.2427 11.6229 32.2883 11.5299 32.312C11.4389 32.3377 11.2688 32.3852 11.154 32.4169C11.0412 32.4505 10.9304 32.4822 10.9126 32.4881C10.8809 32.498 10.877 32.4822 10.877 32.1042H10.966C11.0333 32.1042 11.0551 32.0963 11.0551 32.0745C11.0551 32.0508 11.0828 32.0448 11.1738 32.0448C11.2668 32.0448 11.2925 32.0389 11.2925 32.0152C11.2925 31.9954 11.3222 31.9815 11.3875 31.9716C11.4389 31.9657 11.4864 31.9538 11.4904 31.9459C11.4963 31.938 11.5537 31.9182 11.619 31.9004C11.6843 31.8826 11.8188 31.8469 11.9158 31.8192C12.0147 31.7915 12.1611 31.752 12.2422 31.7302C12.3253 31.7064 12.4104 31.6886 12.4361 31.6886C12.4599 31.6886 12.4817 31.6807 12.4856 31.6728C12.4876 31.6629 12.5687 31.6352 12.6637 31.6134C12.7587 31.5897 12.8536 31.5699 12.8754 31.5699C12.8972 31.5699 12.915 31.564 12.915 31.5541C12.915 31.5461 12.9763 31.5244 13.0495 31.5046C13.1227 31.4868 13.2019 31.4709 13.2276 31.4709C13.2513 31.4709 13.2711 31.4611 13.2711 31.4512C13.2711 31.4393 13.3127 31.4215 13.3602 31.4116C13.4096 31.3997 13.5264 31.3918 13.6174 31.3918C13.7836 31.3918 13.7856 31.3918 13.7856 31.3423C13.7856 31.2988 13.7994 31.2889 13.8746 31.273C13.9241 31.2612 13.9815 31.2533 14.0032 31.2533C14.025 31.2533 14.0448 31.2453 14.0487 31.2374C14.0507 31.2275 14.1061 31.2058 14.1714 31.188C14.2367 31.1701 14.3752 31.1325 14.4781 31.1048Z" fill="#B3FF52"/>
<path d="M0.0163269 4.08019L0.0183055 3.91989C0.0202842 3.76553 0.0222628 3.76157 0.0618353 3.77543C0.0855788 3.78334 0.180553 3.80907 0.273548 3.8348C0.366544 3.85854 0.627722 3.92979 0.857243 3.99113C1.08676 4.05248 1.34398 4.12174 1.43104 4.14549C1.5181 4.16726 1.59131 4.19299 1.59527 4.20288C1.59725 4.2108 1.60516 4.21475 1.61506 4.20882C1.62297 4.20486 1.73179 4.22861 1.85645 4.26225C1.9811 4.29391 2.13741 4.33547 2.20271 4.35328C2.268 4.36911 2.32538 4.3889 2.33132 4.39484C2.33725 4.40078 2.36298 4.40869 2.39068 4.41265C2.41838 4.41463 2.57865 4.45421 2.74683 4.49972C2.91501 4.54524 3.05747 4.5868 3.06341 4.59274C3.06935 4.59867 3.08122 4.60461 3.09309 4.60461C3.10496 4.60461 3.18608 4.62242 3.2771 4.64419C3.36614 4.66596 3.43935 4.6897 3.43935 4.69762C3.43935 4.70752 3.44528 4.70949 3.45518 4.70554C3.46309 4.6996 3.54224 4.71543 3.63325 4.73918C3.72229 4.76293 3.7955 4.78865 3.7955 4.79657C3.7955 4.80646 3.80342 4.80844 3.81529 4.80251C3.82716 4.79657 3.92609 4.81636 4.03887 4.84604C4.14967 4.87573 4.24267 4.90739 4.24663 4.91531C4.24861 4.92322 4.25652 4.92718 4.26641 4.92322C4.27433 4.91728 4.37326 4.93905 4.48802 4.96874C4.60278 4.99842 4.84219 5.06175 5.02225 5.10924C5.2023 5.15674 5.35268 5.20028 5.35861 5.20621C5.36455 5.21215 5.39027 5.22007 5.41797 5.22402C5.44567 5.226 5.57824 5.25964 5.71477 5.29724C5.85129 5.33485 5.99177 5.37245 6.02739 5.38036C6.063 5.39026 6.09071 5.40015 6.09071 5.40609C6.09071 5.41202 6.10653 5.41598 6.12632 5.41796C6.14413 5.41796 6.24504 5.43973 6.34793 5.46546C6.45082 5.49118 6.53985 5.51691 6.54579 5.52285C6.55173 5.52878 6.5636 5.53472 6.57547 5.53472C6.58734 5.53472 6.66451 5.55055 6.74959 5.57034C6.83269 5.58815 6.90194 5.6119 6.90194 5.62377C6.90194 5.63565 6.90788 5.6396 6.91777 5.63367C6.92569 5.62971 7.03451 5.65346 7.15916 5.68512C7.28382 5.71876 7.44211 5.75834 7.51136 5.77417C7.57863 5.79001 7.63403 5.80979 7.63403 5.82167C7.63403 5.83354 7.63997 5.8375 7.64986 5.83354C7.65778 5.82761 7.82794 5.86718 8.02976 5.92062C8.23158 5.97207 8.60158 6.07102 8.85089 6.1383C9.10019 6.20559 9.3594 6.27485 9.42469 6.29068C9.48998 6.30849 9.54736 6.32828 9.5533 6.33422C9.55924 6.34016 9.57111 6.34609 9.58298 6.34609C9.59485 6.34609 9.67597 6.3639 9.76699 6.38567C9.85603 6.40744 9.92924 6.43119 9.92924 6.4391C9.92924 6.449 9.94111 6.45296 9.95496 6.45098C9.96683 6.44702 10.048 6.46285 10.133 6.48462C10.2161 6.50639 10.2854 6.53014 10.2854 6.53805C10.2854 6.54795 10.2953 6.54993 10.3052 6.54399C10.3151 6.53805 10.4417 6.56774 10.5842 6.60731C10.7266 6.64887 10.8493 6.69439 10.8572 6.70824C10.8632 6.72407 10.8414 6.75772 10.7998 6.78938C10.7622 6.82104 10.7266 6.84281 10.7207 6.84083C10.7148 6.83687 10.6692 6.87249 10.6178 6.92197C10.5644 6.96946 10.505 7.00904 10.4833 7.00904C10.4569 7.00904 10.4437 6.99585 10.4437 6.96946C10.4437 6.94176 10.4338 6.93186 10.41 6.9378C10.3903 6.94176 10.3507 6.95165 10.321 6.95759C10.2755 6.96748 10.2656 6.96353 10.2656 6.92988C10.2656 6.89426 10.2557 6.89228 10.1766 6.9002C10.0974 6.90812 10.0875 6.90614 10.0875 6.87052C10.0875 6.83885 10.0776 6.83292 10.0341 6.84083C10.0024 6.84677 9.96288 6.85666 9.94507 6.86062C9.91935 6.86854 9.90945 6.85864 9.90945 6.83094C9.90945 6.79532 9.89956 6.79334 9.82041 6.80125C9.74127 6.80917 9.73138 6.80719 9.73138 6.77157C9.73138 6.74386 9.72148 6.73397 9.69774 6.74188C9.67795 6.74584 9.63838 6.75574 9.6087 6.76167C9.56319 6.76959 9.5533 6.76365 9.5533 6.73199C9.5533 6.69637 9.54341 6.69439 9.46426 6.7023C9.38512 6.71022 9.37522 6.70824 9.37522 6.67262C9.37522 6.637 9.36929 6.63502 9.30201 6.65283C9.26046 6.66273 9.22089 6.67262 9.21298 6.67262C9.20308 6.67262 9.19715 6.65481 9.19715 6.63304C9.19715 6.59742 9.18725 6.59544 9.10811 6.60336C9.03292 6.61127 9.01907 6.60731 9.01907 6.57763C9.01907 6.54795 9.0072 6.54597 8.93003 6.55784C8.84891 6.57169 8.84099 6.56971 8.84099 6.53409C8.84099 6.49847 8.8311 6.49649 8.75196 6.50441C8.68073 6.51232 8.66292 6.50837 8.66292 6.48462C8.66292 6.46087 8.64511 6.45691 8.57388 6.46483C8.49474 6.47275 8.48484 6.47077 8.48484 6.43515C8.48484 6.41338 8.47891 6.39557 8.47099 6.39557C8.4611 6.39557 8.42153 6.40546 8.38195 6.41536C8.3127 6.43317 8.30677 6.43119 8.30677 6.39557C8.30677 6.35995 8.29687 6.35797 8.21773 6.36588C8.13858 6.3738 8.12869 6.37182 8.12869 6.3362C8.12869 6.30849 8.1188 6.2986 8.09505 6.30651C8.07527 6.31047 8.03569 6.32037 8.00602 6.3263C7.96051 6.33422 7.95061 6.32828 7.95061 6.29662C7.95061 6.261 7.94072 6.25902 7.86158 6.26693C7.78639 6.27485 7.77254 6.27089 7.77254 6.24121C7.77254 6.21152 7.76067 6.20954 7.6835 6.22142C7.60238 6.23527 7.59446 6.23329 7.59446 6.19767C7.59446 6.1759 7.58853 6.15809 7.58061 6.15809C7.57072 6.15809 7.53115 6.16799 7.49158 6.17788L7.49157 6.17788C7.42232 6.19569 7.41639 6.19371 7.41639 6.15809C7.41639 6.12247 7.40649 6.12049 7.32735 6.12841C7.2482 6.13632 7.23831 6.13434 7.23831 6.09872C7.23831 6.07102 7.22842 6.06112 7.20467 6.06706C7.18489 6.07102 7.14531 6.08091 7.11563 6.08685C7.07013 6.09674 7.06023 6.09279 7.06023 6.05914C7.06023 6.02352 7.05034 6.02154 6.97119 6.02946C6.89205 6.03737 6.88216 6.0354 6.88216 5.99977C6.88216 5.97603 6.87226 5.96415 6.85841 5.96811C6.84456 5.97207 6.80301 5.98196 6.76937 5.9879C6.71397 5.9978 6.70408 5.99384 6.70408 5.9602C6.70408 5.93843 6.69814 5.92062 6.69023 5.92062C6.68034 5.92062 6.64076 5.93051 6.60119 5.94041C6.52996 5.95822 6.526 5.95822 6.526 5.91468C6.526 5.87312 6.52205 5.87114 6.43697 5.885C6.35584 5.89885 6.34793 5.89687 6.34793 5.86125C6.34793 5.83354 6.33803 5.82365 6.31429 5.82958C6.2945 5.83354 6.25493 5.84344 6.22525 5.84937C6.17974 5.85927 6.16985 5.85531 6.16985 5.82167C6.16985 5.78605 6.15996 5.78407 6.08081 5.79198C6.00563 5.7999 5.99178 5.79594 5.99178 5.76626C5.99178 5.73657 5.9799 5.73459 5.90274 5.74647C5.82161 5.76032 5.8137 5.75834 5.8137 5.72272C5.8137 5.6871 5.80381 5.68512 5.72466 5.69304C5.64947 5.70095 5.63562 5.69699 5.63562 5.66731C5.63562 5.63763 5.62375 5.63565 5.54658 5.64752C5.46546 5.66137 5.45755 5.65939 5.45755 5.62377C5.45755 5.602 5.45161 5.58419 5.4437 5.58419C5.4338 5.58419 5.39423 5.59409 5.35466 5.60398C5.28541 5.62179 5.27947 5.61981 5.27947 5.58419C5.27947 5.54857 5.26958 5.54659 5.19043 5.55451C5.11129 5.56243 5.10139 5.56045 5.10139 5.52482C5.10139 5.49316 5.0915 5.48722 5.04797 5.49514C5.01631 5.50108 4.97674 5.51097 4.95893 5.51493C4.93321 5.52285 4.92332 5.51295 4.92332 5.48525C4.92332 5.44962 4.91342 5.44765 4.83428 5.45556C4.75513 5.46348 4.74524 5.4615 4.74524 5.42588C4.74524 5.39817 4.73535 5.38828 4.7116 5.39619C4.69182 5.40015 4.65225 5.41005 4.62257 5.41598C4.57706 5.4239 4.56716 5.41796 4.56716 5.3863C4.56716 5.36453 4.56123 5.34672 4.55331 5.34672C4.54342 5.34672 4.50385 5.35661 4.46428 5.36651C4.39502 5.38432 4.38909 5.38234 4.38909 5.34672C4.38909 5.3111 4.3792 5.30912 4.30005 5.31703C4.22091 5.32495 4.21101 5.32297 4.21101 5.28735C4.21101 5.25964 4.20112 5.24975 4.17738 5.25569C4.15759 5.25964 4.11802 5.26954 4.08834 5.27548C4.04283 5.28537 4.03294 5.28141 4.03294 5.24777C4.03294 5.21611 4.02304 5.21017 3.97951 5.21809C3.94786 5.22402 3.90828 5.23392 3.89048 5.23788C3.86475 5.24579 3.85486 5.2359 3.85486 5.20819C3.85486 5.17257 3.84497 5.17059 3.76582 5.17851C3.68668 5.18642 3.67678 5.18444 3.67678 5.14882C3.67678 5.1132 3.67085 5.11122 3.61347 5.12903C3.57785 5.14091 3.5363 5.14882 3.52443 5.14882C3.51058 5.14882 3.49871 5.13101 3.49871 5.10924C3.49871 5.08748 3.49277 5.06966 3.48486 5.06966C3.47496 5.06966 3.43539 5.07956 3.39582 5.08945C3.32657 5.10726 3.32063 5.10529 3.32063 5.06966C3.32063 5.03404 3.31074 5.03206 3.23159 5.03998C3.15245 5.0479 3.14255 5.04592 3.14255 5.0103C3.14255 4.98853 3.13662 4.97072 3.1287 4.97072C3.11881 4.97072 3.07924 4.98061 3.03967 4.99051C2.97041 5.00832 2.96448 5.00634 2.96448 4.97072C2.96448 4.9351 2.95459 4.93312 2.87544 4.94103C2.7963 4.94895 2.7864 4.94697 2.7864 4.91135C2.7864 4.87573 2.77651 4.87375 2.69736 4.88166C2.62218 4.88958 2.60833 4.88562 2.60833 4.85594C2.60833 4.82625 2.59645 4.82427 2.51929 4.83615C2.43816 4.85 2.43025 4.84802 2.43025 4.8124C2.43025 4.79063 2.41838 4.77282 2.40651 4.77282C2.39266 4.77282 2.3511 4.78074 2.31747 4.79261C2.25613 4.81042 2.25217 4.80844 2.25217 4.76688C2.25217 4.72533 2.24822 4.72335 2.16314 4.7372C2.08201 4.75105 2.0741 4.74907 2.0741 4.71345C2.0741 4.67783 2.0642 4.67585 1.98506 4.68377C1.90987 4.69168 1.89602 4.68773 1.89602 4.65804C1.89602 4.62836 1.88415 4.62638 1.80698 4.63825C1.72586 4.6521 1.71794 4.65013 1.71794 4.6145C1.71794 4.57888 1.70805 4.5769 1.62891 4.58482C1.55372 4.59274 1.53987 4.58878 1.53987 4.55909C1.53987 4.52941 1.528 4.52743 1.45083 4.5393C1.36971 4.55316 1.36179 4.55118 1.36179 4.51556C1.36179 4.49379 1.34992 4.47598 1.33805 4.47598C1.3242 4.47598 1.28265 4.48389 1.24901 4.49577C1.18767 4.51358 1.18372 4.5116 1.18372 4.47004C1.18372 4.42848 1.17976 4.4265 1.09468 4.44036C1.01751 4.45421 1.00564 4.45223 1.00564 4.42057C1.00564 4.39088 0.993768 4.3889 0.916601 4.40078C0.833499 4.41661 0.827563 4.41463 0.827563 4.37109C0.827563 4.32953 0.823606 4.32756 0.738525 4.34141C0.665316 4.35526 0.649487 4.3513 0.649487 4.32756C0.649487 4.30579 0.625743 4.29787 0.560449 4.29787C0.48724 4.29787 0.469432 4.28996 0.461518 4.25829C0.453603 4.22663 0.435795 4.21871 0.372479 4.21871C0.315099 4.21871 0.293334 4.2108 0.293334 4.18903C0.293334 4.16924 0.247826 4.14549 0.0163269 4.08019Z" fill="#B3FF52"/>
<path d="M10.6218 11.808L10.6257 10.8977L10.6297 9.98737L10.6415 10.7889C10.6514 11.5072 10.6554 11.5982 10.6871 11.6695C10.7068 11.713 10.7425 11.7744 10.7662 11.808C10.8077 11.8634 10.8077 11.8654 10.7702 11.8496C10.7484 11.8417 10.7068 11.8298 10.6218 11.808Z" fill="#B3FF52"/>
<path d="M10.6514 22.0986C10.6257 22.0907 10.6218 21.7859 10.6198 19.5378L10.6178 16.9869L10.7702 17.0265L10.6514 17.268L10.6574 19.5457C10.6613 20.7964 10.6673 21.8868 10.6732 21.964C10.6811 22.0867 10.6772 22.1065 10.6514 22.0986Z" fill="#B3FF52"/>
<path d="M10.6317 32.4248L10.6237 29.8126L10.6138 27.2003L10.7899 27.2399L10.6712 27.4814V32.2506L10.7899 32.4703L10.6317 32.4248Z" fill="#B3FF52"/>
<path d="M10.4239 0.626907C10.5604 0.587328 10.7029 0.541812 10.7405 0.527959C10.7781 0.512127 10.8315 0.500253 10.8592 0.500253C10.8869 0.498274 10.9403 0.508169 10.9779 0.520043C11.0155 0.531917 11.1223 0.561601 11.2153 0.587328C11.3083 0.611075 11.4686 0.656591 11.5715 0.686275C11.6744 0.713981 11.8386 0.761476 11.9375 0.787202C12.0365 0.814908 12.1948 0.860424 12.2937 0.88615C12.3926 0.913856 12.5648 0.961351 12.6795 0.993014C12.7943 1.02468 12.9664 1.07217 13.0654 1.09988C13.1643 1.1256 13.3226 1.17112 13.4215 1.19883C13.5204 1.22455 13.6609 1.26611 13.7381 1.2859C13.8153 1.30767 13.9795 1.35318 14.1041 1.38881C14.2288 1.42245 14.3891 1.46796 14.4603 1.48775C14.5315 1.50754 14.6957 1.55108 14.8263 1.5867C14.9569 1.62034 15.0855 1.65596 15.1132 1.66586C15.1409 1.67575 15.2834 1.71533 15.4298 1.75689C15.5762 1.79647 15.8038 1.8598 15.9344 1.8974C16.0616 1.93597 16.2134 1.97643 16.2759 1.99311L16.2806 1.99437C16.34 2.00822 16.5003 2.05176 16.6368 2.09134L16.665 2.09953C16.8002 2.13873 16.9848 2.19227 17.0919 2.21997C17.2066 2.25163 17.3847 2.29913 17.4876 2.32881C17.5905 2.35652 17.7507 2.40203 17.8437 2.42776C17.9367 2.45348 18.0911 2.49702 18.19 2.52473C18.2889 2.55045 18.4472 2.59597 18.5462 2.62367C18.6451 2.6494 18.8073 2.69492 18.9082 2.72262C19.0072 2.75033 19.1734 2.79782 19.2723 2.82553C19.3732 2.85323 19.5493 2.90073 19.6641 2.93239C19.7788 2.96406 19.951 3.01155 20.0499 3.03926C20.1488 3.06498 20.2913 3.10654 20.3665 3.12633C20.4417 3.1481 20.6079 3.19361 20.7325 3.22924C20.8572 3.26288 21.0175 3.30839 21.0887 3.32818C21.1599 3.34797 21.3202 3.39151 21.4448 3.42713C21.5695 3.46077 21.7258 3.50431 21.7911 3.52212C21.894 3.54983 21.9039 3.55576 21.8603 3.56764C21.8326 3.57555 21.6724 3.62305 21.5042 3.67054C21.336 3.72002 21.1876 3.75168 21.1777 3.74377C21.1678 3.73387 21.1243 3.722 21.0827 3.71606C21.0353 3.70814 21.0095 3.69429 21.0095 3.6745C21.0095 3.65273 20.9878 3.64482 20.9245 3.64482C20.8789 3.64482 20.7919 3.63096 20.7325 3.61315C20.6732 3.59732 20.5525 3.56368 20.4654 3.54191C20.3784 3.51816 20.3051 3.49244 20.3012 3.48254C20.2992 3.47463 20.2774 3.46671 20.2517 3.46671C20.228 3.46671 20.1409 3.44692 20.0598 3.42515C19.9787 3.40338 19.8402 3.36578 19.7531 3.34402C19.6661 3.32027 19.5928 3.29454 19.5889 3.28465C19.5869 3.27673 19.5651 3.26882 19.5394 3.26882C19.5157 3.26882 19.4167 3.24705 19.3178 3.21934C19.2189 3.19361 19.0606 3.15008 18.9617 3.12237C18.8627 3.09665 18.6985 3.04915 18.5956 3.02145C18.4927 2.99374 18.3305 2.94822 18.2355 2.92052C18.1386 2.89479 17.9783 2.84928 17.8774 2.82157C17.7784 2.79387 17.6756 2.76814 17.6498 2.7622C17.6261 2.75824 17.6063 2.74439 17.6063 2.7345C17.6063 2.7246 17.5746 2.71471 17.5371 2.71471C17.4995 2.71471 17.4302 2.70283 17.3847 2.687C17.3372 2.67117 17.2422 2.64346 17.171 2.62565C17.0998 2.60784 16.9989 2.57816 16.9435 2.56035C16.89 2.54452 16.8406 2.52275 16.8346 2.51681C16.8287 2.5089 16.7713 2.49702 16.706 2.49108C16.6407 2.48317 16.5834 2.46932 16.5774 2.4614C16.5715 2.45151 16.5319 2.43765 16.4884 2.43172C16.4448 2.4238 16.3242 2.39412 16.2213 2.36245C16.1184 2.33079 15.9957 2.29913 15.9502 2.29121C15.9027 2.28527 15.8651 2.26944 15.8651 2.25955C15.8651 2.24965 15.8453 2.23976 15.8196 2.23976C15.7959 2.23976 15.6752 2.21007 15.5525 2.17445C15.3784 2.12498 15.3309 2.10321 15.3309 2.0755C15.3309 2.04582 15.3111 2.04186 15.1924 2.04186C15.1132 2.04186 15.0539 2.03395 15.0539 2.02207C15.0539 2.01218 15.0242 2.00228 14.9886 2.00228C14.9549 2.00228 14.8402 1.97853 14.7373 1.94885C14.6344 1.91917 14.5473 1.8875 14.5434 1.87959C14.5414 1.86969 14.4999 1.86376 14.4504 1.86376C14.4009 1.86376 14.3594 1.85782 14.3554 1.84792C14.3534 1.84001 14.2763 1.81428 14.1833 1.79053C14.0903 1.76679 13.9399 1.72721 13.8469 1.70346C13.7539 1.67971 13.6768 1.65201 13.6728 1.64211C13.6708 1.6342 13.6491 1.62628 13.6233 1.62628C13.5996 1.62628 13.5125 1.60649 13.4314 1.58472C13.3503 1.56295 13.2118 1.52535 13.1247 1.50358C13.0377 1.47984 12.9644 1.45411 12.9605 1.44422C12.9585 1.4363 12.9367 1.42838 12.911 1.42838C12.8873 1.42838 12.8002 1.40859 12.7191 1.38683C12.638 1.36506 12.4777 1.32152 12.3629 1.28986C12.2482 1.25819 12.0701 1.20872 11.9672 1.18101C11.8643 1.15331 11.7001 1.10581 11.6012 1.08009C11.5022 1.05238 11.3697 1.01478 11.3044 0.998951C11.2391 0.98114 11.1817 0.961351 11.1758 0.953435C11.1698 0.945519 11.1243 0.933645 11.0709 0.925729C11.0195 0.919792 10.9779 0.903961 10.9779 0.894066C10.9779 0.882192 10.9383 0.874276 10.8889 0.874276C10.8394 0.874276 10.7998 0.882192 10.7998 0.894066C10.7998 0.903961 10.7721 0.913856 10.7405 0.913856C10.7088 0.913856 10.6811 0.921771 10.6811 0.933645C10.6811 0.94354 10.6514 0.959372 10.6158 0.965308C10.5822 0.973224 10.4674 1.00489 10.3645 1.03655C10.2616 1.06821 10.1073 1.11571 10.0222 1.14341C9.93913 1.16914 9.84613 1.19091 9.81843 1.19091C9.79073 1.19091 9.7571 1.20278 9.74325 1.21466C9.7294 1.22851 9.63046 1.26215 9.52164 1.28986C9.41479 1.31558 9.3218 1.34329 9.31586 1.34923C9.30993 1.35516 9.2387 1.38089 9.15757 1.40266C9.07645 1.42641 8.93399 1.46796 8.84099 1.49567C8.748 1.52337 8.65302 1.54712 8.6273 1.54712C8.60356 1.54712 8.58377 1.55702 8.58377 1.56691C8.58377 1.57681 8.55211 1.5867 8.51452 1.5867C8.47693 1.5867 8.44527 1.5966 8.44527 1.60649C8.44527 1.61639 8.41757 1.62628 8.38591 1.62628C8.35425 1.62628 8.32655 1.63618 8.32655 1.64607C8.32655 1.65596 8.2573 1.68169 8.17222 1.6995C8.08912 1.71731 8.01591 1.74106 8.00997 1.74898C8.00403 1.75689 7.95457 1.76877 7.90115 1.77668C7.84574 1.7846 7.79826 1.79647 7.79232 1.80439C7.78639 1.81032 7.72109 1.83605 7.64392 1.8598C7.56676 1.88157 7.41638 1.92906 7.30756 1.96072C7.19873 1.99437 7.07804 2.02801 7.04044 2.03395C7.00285 2.04186 6.96723 2.05374 6.9613 2.06165C6.95536 2.06759 6.88018 2.09331 6.79312 2.11904C6.70606 2.14477 6.60317 2.16851 6.56557 2.17445C6.52798 2.18039 6.49236 2.19226 6.48643 2.1982C6.48049 2.20611 6.44092 2.22195 6.39739 2.2358C6.35386 2.24767 6.29846 2.25955 6.27274 2.25955C6.24899 2.25955 6.22723 2.26746 6.22327 2.27934C6.22129 2.28923 6.17381 2.30506 6.12038 2.31298C6.06498 2.31892 6.00958 2.33673 5.99573 2.35256C5.98386 2.36641 5.90273 2.39412 5.81765 2.41193C5.73455 2.42974 5.66134 2.45151 5.65541 2.45744C5.64947 2.46338 5.57428 2.48911 5.48722 2.51285C5.40016 2.5366 5.2953 2.55639 5.25375 2.55639C5.2023 2.55639 5.18054 2.56431 5.18054 2.58607C5.18054 2.60191 5.16866 2.61576 5.15481 2.61576C5.14294 2.61576 5.05984 2.63753 4.97278 2.66523C4.88572 2.69294 4.79075 2.71471 4.75909 2.71471C4.72941 2.71471 4.70567 2.7246 4.70567 2.7345C4.70567 2.74439 4.6839 2.75429 4.6562 2.75429C4.6285 2.75429 4.60476 2.7622 4.6008 2.77012C4.59882 2.77803 4.52561 2.80574 4.43855 2.83147C4.35149 2.85719 4.2486 2.88094 4.21101 2.88688C4.17342 2.89281 4.1378 2.90469 4.13187 2.91062C4.12593 2.91854 4.08636 2.93437 4.04283 2.94822C3.9993 2.9601 3.9439 2.97197 3.91817 2.97197C3.89443 2.97197 3.87266 2.97989 3.86871 2.99176C3.86673 3.00166 3.81924 3.01749 3.76582 3.0254C3.71042 3.03134 3.65699 3.04717 3.64512 3.05905C3.63523 3.07092 3.55411 3.09862 3.46705 3.12039C3.38197 3.14216 3.30678 3.16393 3.30084 3.17185C3.29491 3.17778 3.21972 3.20351 3.13266 3.22528C3.0456 3.24903 2.94073 3.26882 2.89918 3.26882C2.85367 3.26882 2.82597 3.27871 2.82597 3.29256C2.82597 3.30642 2.79827 3.32423 2.76266 3.33412C2.72704 3.34204 2.67758 3.34797 2.65185 3.34797C2.62811 3.34797 2.60832 3.35589 2.60832 3.36776C2.60832 3.37964 2.57469 3.39547 2.53314 3.40734C2.49356 3.41724 2.43618 3.42713 2.40453 3.42713C2.37485 3.42713 2.3511 3.43505 2.3511 3.44692C2.3511 3.4588 2.32934 3.46671 2.30164 3.46671C2.27394 3.46671 2.25019 3.47463 2.24624 3.48254C2.24426 3.49046 2.17105 3.51816 2.08399 3.54389C1.99693 3.56962 1.89404 3.59336 1.85645 3.5993C1.81885 3.60524 1.78324 3.61513 1.7773 3.62305C1.77137 3.63096 1.71794 3.65075 1.65858 3.67054C1.59922 3.68835 1.52602 3.70419 1.49436 3.70419C1.46468 3.70419 1.44093 3.7121 1.44093 3.72398C1.44093 3.73585 1.40928 3.74377 1.37168 3.74377C1.33409 3.74377 1.30243 3.75168 1.30243 3.76355C1.30243 3.77543 1.25297 3.7972 1.19361 3.81303C1.09072 3.84073 1.08478 3.84469 1.09665 3.89614C1.10259 3.92781 1.10655 3.96739 1.10655 3.9852C1.10457 4.00499 1.11446 4.01686 1.12435 4.01092C1.13425 4.00499 1.14414 4.01488 1.14414 4.03071C1.14414 4.04655 1.1382 4.0604 1.13029 4.0604C1.1204 4.0604 0.964086 4.01884 0.778095 3.96937C0.592104 3.91989 0.354669 3.85459 0.247824 3.82688C0.142956 3.7972 0.0618329 3.76751 0.0697474 3.76158C0.0796405 3.75564 0.148892 3.73189 0.22408 3.70814C0.301247 3.68638 0.451622 3.64086 0.560446 3.60722C0.669271 3.57555 0.847347 3.52014 0.956172 3.48848C1.06498 3.45484 1.26081 3.39549 1.3914 3.35591L1.39147 3.35589C1.52206 3.31631 1.69618 3.26288 1.7773 3.23913C1.85842 3.21538 2.00484 3.16987 2.10377 3.14018C2.20271 3.1105 2.34517 3.06894 2.42035 3.04717C2.49554 3.02738 2.57667 3.00166 2.59843 2.99176C2.6202 2.98187 2.70923 2.95416 2.79629 2.93239C2.88335 2.90864 2.9902 2.87698 3.03373 2.86313C3.07726 2.8473 3.20191 2.80772 3.31074 2.77605C3.41953 2.74242 3.61535 2.68307 3.74594 2.64349L3.74603 2.64346C3.87662 2.60389 4.0547 2.55045 4.14176 2.52671C4.22882 2.50098 4.33962 2.46734 4.38909 2.45151C4.43855 2.43567 4.5355 2.40401 4.60673 2.38224C4.67797 2.36047 4.86396 2.30506 5.02225 2.25955C5.18054 2.21403 5.34476 2.16456 5.38829 2.1507C5.43182 2.13487 5.55648 2.09727 5.6653 2.06363C5.77412 2.03197 5.94429 1.98051 6.04124 1.95083C6.13819 1.92312 6.29054 1.87761 6.3776 1.8499C6.46466 1.82418 6.58932 1.7846 6.65461 1.76481C6.71991 1.74502 6.86237 1.70148 6.97119 1.66982C7.08002 1.63618 7.25018 1.5867 7.34713 1.55702C7.44408 1.52733 7.61425 1.47786 7.72307 1.44422C7.83189 1.41255 7.98821 1.36506 8.06933 1.33933C8.15045 1.31361 8.29885 1.27007 8.3958 1.24038L8.41463 1.23462C8.51111 1.20507 8.64624 1.16369 8.72228 1.14144C8.8034 1.11571 8.96367 1.06624 9.07843 1.03259C9.19319 0.998951 9.33961 0.955414 9.4049 0.935624C9.4702 0.913856 9.60474 0.874276 9.70169 0.844592C9.79865 0.816887 9.94704 0.771371 10.0282 0.745644C10.1093 0.721897 10.2874 0.668465 10.4239 0.626907Z" fill="#B3FF52"/>
<path d="M1.17382 4.07623L1.18173 3.95947C1.18767 3.89417 1.19954 3.84667 1.20944 3.85459C1.21933 3.86052 1.22526 3.88427 1.22526 3.90802C1.22329 3.93177 1.22922 3.95947 1.23714 3.96739C1.24703 3.97728 1.25494 4.00499 1.2589 4.02676C1.26286 4.0505 1.27473 4.08217 1.28858 4.09602C1.30837 4.11581 1.29847 4.11779 1.17382 4.07623Z" fill="#B3FF52"/>
<path d="M10.8275 6.9002C10.8453 6.88833 10.8572 6.86062 10.8592 6.83687V6.8349C10.8592 6.81115 10.8631 6.79136 10.8671 6.79136C10.8711 6.79136 10.875 7.90155 10.877 9.25912C10.881 10.6187 10.877 11.7625 10.8711 11.8021C10.8631 11.8575 10.8513 11.8753 10.8295 11.8674C10.8038 11.8595 10.7998 11.6161 10.7998 9.84291C10.7998 8.58429 10.7919 7.71157 10.7781 7.51368C10.7622 7.2861 10.7622 7.15747 10.7781 7.05852C10.7899 6.97936 10.8117 6.91208 10.8275 6.9002Z" fill="#B3FF52"/>
<path d="M10.8256 22.1382C10.8058 22.1322 10.7998 21.6039 10.7998 19.5873C10.7998 17.3392 10.8038 17.0443 10.8295 17.0443C10.8513 17.0443 10.8592 17.0681 10.8612 17.1294C10.8612 17.175 10.8592 18.113 10.8552 19.2113C10.8513 20.3096 10.8493 21.4198 10.8493 21.6771C10.8493 22.0432 10.8434 22.1441 10.8256 22.1382Z" fill="#B3FF52"/>
<path d="M10.8295 32.4901C10.8038 32.4822 10.7998 32.1715 10.7998 29.868C10.7998 27.2696 10.7998 27.2558 10.8394 27.2558C10.879 27.2558 10.879 27.2696 10.879 29.8779C10.879 31.3205 10.875 32.5 10.8691 32.5C10.8631 32.5 10.8453 32.496 10.8295 32.4901Z" fill="#B3FF52"/>
<path d="M0.0103878 7.58295C0.00840916 8.25183 0.00643053 7.7096 0.00643053 6.37578C0.00643053 5.04196 0.00840916 4.49379 0.0103878 5.15872C0.014345 5.82365 0.014345 6.91406 0.0103878 7.58295Z" fill="#B3FF52"/>
<path d="M0.0123664 19.2865C0.00247328 19.2825 -0.00148397 18.1229 0.000494656 16.7119C0.00445191 15.2989 0.00840916 14.5568 0.0103878 15.0634C0.014345 15.57 0.0183023 16.7277 0.0202809 17.64C0.0242382 18.5503 0.0202809 19.2905 0.0123664 19.2865Z" fill="#B3FF52"/>
<path d="M15.2359 22.1975C15.2339 21.5445 15.2359 20.9983 15.2418 20.9864C15.2458 20.9726 15.2537 20.9607 15.2557 20.9607C15.2596 20.9607 15.2577 21.5069 15.2418 23.3849L15.2359 22.1975Z" fill="#B3FF52"/>
<path d="M10.873 24.0083C10.8711 24.3408 10.8691 24.0597 10.8691 23.3849C10.8691 22.7101 10.8711 22.439 10.873 22.7813C10.877 23.1237 10.877 23.6758 10.873 24.0083Z" fill="#B3FF52"/>
<path d="M15.2379 30.3509C15.2339 29.8284 15.23 28.641 15.228 27.7129C15.224 26.7868 15.228 26.0268 15.2359 26.0268C15.2458 26.0268 15.2497 27.2142 15.2478 28.6648C15.2438 30.1134 15.2399 30.8733 15.2379 30.3509Z" fill="#B3FF52"/>
<path d="M10.873 22.0788C10.8691 22.1342 10.8671 22.0927 10.8671 21.9898C10.8671 21.8868 10.8691 21.8413 10.873 21.8908C10.877 21.9403 10.877 22.0234 10.873 22.0788Z" fill="#B3FF52"/>
<path d="M0.0301719 28.3125C0.0281932 29.0408 0.0262146 28.455 0.0262146 27.0064C0.0262146 25.5578 0.0281932 24.9621 0.0301719 25.6805C0.0341291 26.3989 0.0341291 27.5843 0.0301719 28.3125Z" fill="#B3FF52"/>
<path d="M10.873 21.4356C10.8691 21.4851 10.8651 21.4535 10.8651 21.3664C10.8651 21.2793 10.8691 21.2397 10.873 21.2773C10.877 21.3149 10.877 21.3862 10.873 21.4356Z" fill="#B3FF52"/>
<path d="M10.873 21.7523C10.8691 21.7899 10.8651 21.7543 10.8651 21.6731C10.8651 21.592 10.8691 21.5603 10.873 21.6039C10.877 21.6474 10.877 21.7147 10.873 21.7523Z" fill="#B3FF52"/>
<path d="M0.82756 6.87051C0.82756 6.76761 0.835474 6.64887 0.843389 6.60731C0.85526 6.54201 0.863175 6.53211 0.896811 6.54399C0.918576 6.54992 0.9997 6.57367 1.07489 6.59346C1.15205 6.61325 1.50227 6.70824 1.85644 6.80125C2.21062 6.89426 2.58458 6.99321 2.68747 7.02092C2.79036 7.04862 2.95656 7.09216 3.05351 7.11788C3.15047 7.14361 3.50266 7.23662 3.83507 7.32568C4.16748 7.41473 4.51967 7.50774 4.61663 7.53149C4.71358 7.55721 4.90155 7.60669 5.03214 7.64231C5.16273 7.67595 5.33091 7.72147 5.40808 7.74126C5.48524 7.76105 5.63562 7.80062 5.74444 7.83031C5.85327 7.85801 5.98781 7.89364 6.04124 7.90947C6.09664 7.92332 6.26086 7.96686 6.40728 8.00644C6.5537 8.04404 6.86039 8.12517 7.08991 8.1885C7.31943 8.24985 7.56478 8.31515 7.77253 8.36463V8.45962C7.77253 8.54867 7.77649 8.55263 7.89125 8.57242V8.90884L7.66965 8.84749C7.54697 8.81583 7.34317 8.7624 7.21852 8.73074C7.09387 8.69907 6.90985 8.65158 6.8129 8.62585C6.71595 8.60012 6.45675 8.53086 6.2391 8.47347C6.02145 8.41806 5.78204 8.35473 5.70487 8.33494C5.6277 8.31515 5.47733 8.27557 5.3685 8.24589C5.25968 8.21621 5.06775 8.16673 4.9431 8.13309C4.81845 8.10143 4.61267 8.04799 4.48802 8.01633C4.36336 7.98269 4.17935 7.93519 4.0824 7.90947C3.98545 7.88374 3.81924 7.8402 3.71635 7.81448C3.61346 7.78875 3.35426 7.71949 3.14255 7.66408C2.93084 7.60669 2.67164 7.5394 2.56875 7.5117C2.46586 7.48399 2.2957 7.44243 2.19281 7.41671C2.08992 7.39098 1.84853 7.32765 1.65858 7.27818C1.46863 7.22673 1.23318 7.1634 1.13425 7.13767C1.03729 7.10997 0.926491 7.08226 0.82756 7.05852V6.87051Z" fill="#B3FF52"/>
<path d="M9.118 9.26505V8.99789C9.118 8.85145 9.12393 8.73074 9.13383 8.73074C9.14126 8.73074 9.20633 8.7482 9.28144 8.76836L9.29607 8.77229C9.3772 8.79406 9.46624 8.81979 9.49196 8.82573C9.51768 8.83364 9.5434 8.84947 9.54934 8.85937C9.55528 8.87124 9.55923 8.98602 9.55725 9.11663C9.55527 9.24724 9.55132 9.35609 9.54934 9.35806C9.54538 9.36004 9.47217 9.34421 9.38511 9.32244C9.29805 9.30067 9.20308 9.27891 9.118 9.26505Z" fill="#B3FF52"/>
<path d="M0.708842 17.3986L0.706863 17.1334L0.702906 16.8682L0.859218 16.9038C0.946277 16.9236 1.38949 17.0384 1.84655 17.1591C2.30361 17.2818 2.76266 17.4025 2.86554 17.4302C2.96843 17.4579 3.13464 17.5015 3.23159 17.5272C3.33052 17.5529 3.47694 17.5925 3.55806 17.6143C3.63919 17.6341 4.08042 17.7528 4.53748 17.8735C4.99454 17.9942 5.43182 18.111 5.50701 18.1308C5.58417 18.1506 5.73455 18.1902 5.84337 18.2198C5.9522 18.2475 6.16193 18.303 6.30835 18.3425C6.45477 18.3801 6.63878 18.4276 6.71397 18.4474C6.79114 18.4672 6.95536 18.5107 7.08002 18.5464C7.20467 18.58 7.39264 18.6295 7.49553 18.6572C7.59841 18.6849 7.70328 18.7106 7.729 18.7166C7.77056 18.7245 7.77253 18.7304 7.77253 18.9817C7.77253 19.1401 7.76462 19.239 7.75275 19.239C7.74285 19.239 7.70922 19.2291 7.67954 19.2172C7.64788 19.2073 7.46783 19.1579 7.27788 19.1084C7.08793 19.0589 6.81092 18.9877 6.6645 18.9481C6.51809 18.9105 6.31231 18.8571 6.20942 18.8313C6.10653 18.8036 5.93835 18.7601 5.83942 18.7324C5.73851 18.7067 5.5723 18.6631 5.47337 18.6374C5.37246 18.6117 5.20032 18.5662 5.0915 18.5365C4.98267 18.5088 4.81449 18.4652 4.71556 18.4395C4.61861 18.4138 4.35149 18.3445 4.12197 18.2832C3.89443 18.2238 3.53234 18.1288 3.32063 18.0734L2.54896 17.8715C2.33725 17.8142 2.08399 17.7488 1.98506 17.7251C1.8881 17.6994 1.70013 17.6499 1.56954 17.6163C1.43895 17.5826 1.24703 17.5312 1.14414 17.5054C1.04125 17.4777 0.900769 17.4441 0.708842 17.3986Z" fill="#B3FF52"/>
<path d="M9.0349 19.5932C9.00522 19.5774 9.00126 19.5438 9.00126 19.3182C9.00126 19.1777 9.0072 19.0609 9.01511 19.0609C9.02303 19.0609 9.12393 19.0866 9.44645 19.1737L9.45041 19.4329C9.45437 19.5774 9.44843 19.6942 9.44052 19.6942C9.4326 19.6942 9.34554 19.6744 9.24859 19.6526C9.14966 19.6289 9.05468 19.6031 9.0349 19.5932Z" fill="#B3FF52"/>
<path d="M0.635633 27.5506C0.633654 27.5506 0.631676 27.4299 0.631676 27.2835C0.631676 27.137 0.633654 27.0163 0.637612 27.0163C0.641569 27.0163 0.693013 27.0302 0.752372 27.048C0.809752 27.0638 0.940341 27.0994 1.04125 27.1271C1.14216 27.1529 1.31232 27.1984 1.41719 27.2261C1.52404 27.2538 1.71201 27.3033 1.83864 27.3349C1.96329 27.3686 2.12752 27.4101 2.20468 27.4299C2.27987 27.4517 2.63207 27.5447 2.98624 27.6397C3.33843 27.7347 3.69459 27.8297 3.77769 27.8494C3.85881 27.8712 4.00523 27.9108 4.10416 27.9365L4.47021 28.0335C4.5731 28.0592 4.74128 28.1047 4.84615 28.1324C4.94904 28.1601 5.22011 28.2314 5.44963 28.2927C5.67717 28.3541 5.94626 28.4253 6.04717 28.453C6.14808 28.4788 6.31824 28.5243 6.42311 28.552C6.52996 28.5797 6.71397 28.6272 6.83467 28.6588C6.95338 28.6905 7.13542 28.738 7.24028 28.7657C7.34317 28.7934 7.48761 28.831 7.69537 28.8864V29.3911L7.63997 29.3792C7.61334 29.3739 7.5517 29.3574 7.49644 29.3426L7.47772 29.3376C7.41638 29.3218 7.27986 29.2862 7.17103 29.2604L7.16467 29.2588C7.0577 29.2316 6.94485 29.2029 6.91381 29.1932C6.88017 29.1813 6.47456 29.0744 6.01354 28.9537C5.55054 28.833 5.05192 28.7044 4.90551 28.6648L4.86441 28.6544C4.72141 28.6182 4.5441 28.5732 4.45042 28.548C4.34556 28.5203 4.15956 28.4708 4.03491 28.4392C3.90828 28.4055 3.74405 28.362 3.66887 28.3422C3.5917 28.3224 3.42352 28.2769 3.29293 28.2433C3.16234 28.2096 2.97041 28.1601 2.86752 28.1324C2.76266 28.1047 2.61228 28.0671 2.53116 28.0454C2.44805 28.0256 1.99099 27.9049 1.51216 27.7802C1.03334 27.6535 0.63959 27.5506 0.635633 27.5506Z" fill="#B3FF52"/>
<path d="M8.92014 29.7374L8.91816 29.4781L8.91618 29.2169L9.12196 29.2644C9.23474 29.2921 9.33763 29.3178 9.35148 29.3218C9.36928 29.3297 9.3772 29.4029 9.3772 29.5988C9.3772 29.7453 9.37522 29.866 9.37126 29.866C9.36928 29.866 9.30795 29.8502 9.2387 29.8284C9.16746 29.8086 9.06656 29.7789 8.92014 29.7374Z" fill="#B3FF52"/>
<path d="M9.57308 9.3838C9.56121 9.3838 9.55527 9.28287 9.55923 9.10872H9.55725C9.56121 8.95832 9.5711 8.8376 9.58099 8.84354C9.58891 8.8475 9.59682 8.97217 9.59484 9.11862C9.59286 9.28089 9.58495 9.3838 9.57308 9.3838Z" fill="#B3FF52"/>
<path d="M9.4603 19.714C9.45238 19.714 9.44645 19.5893 9.44645 19.4389C9.44645 19.2865 9.45436 19.1678 9.46425 19.1737C9.47217 19.1777 9.48008 19.3023 9.4781 19.4488C9.47613 19.5952 9.47019 19.714 9.4603 19.714Z" fill="#B3FF52"/>
<path d="M9.38709 29.8759L9.37719 29.5949C9.37126 29.4405 9.37324 29.3198 9.38313 29.3277C9.39104 29.3356 9.395 29.4623 9.38709 29.8759Z" fill="#B3FF52"/>
<path d="M8.99334 19.4468C8.98938 19.524 8.9874 19.4646 8.9874 19.3182C8.9874 19.1717 8.98938 19.1084 8.99334 19.1796C8.99729 19.2509 8.99729 19.3696 8.99334 19.4468Z" fill="#B3FF52"/>
<path d="M8.91419 29.5988C8.91024 29.674 8.90826 29.6167 8.90826 29.4702C8.90826 29.3238 8.91024 29.2604 8.91419 29.3317C8.91815 29.4029 8.91815 29.5236 8.91419 29.5988Z" fill="#B3FF52"/>
<path d="M7.81803 8.56253C7.77846 8.55461 7.77252 8.54076 7.77252 8.46358C7.77252 8.39827 7.78044 8.37453 7.8022 8.37453C7.81803 8.37453 7.84573 8.37848 7.86156 8.38442C7.88135 8.39036 7.89124 8.42202 7.89124 8.48337C7.89124 8.53284 7.8853 8.57242 7.87739 8.57242C7.8675 8.57242 7.84177 8.56846 7.81803 8.56253Z" fill="#B3FF52"/>
<path d="M51.7502 3.12147V11.4379C51.5996 12.1008 51.4037 12.6883 51.1626 13.2006C50.9216 13.7128 50.5901 14.2401 50.1683 14.7825C49.7465 15.3249 49.189 15.9275 48.496 16.5904C47.8331 17.2232 46.9894 17.9765 45.9649 18.8503C44.9706 19.694 43.7653 20.7034 42.3491 21.8785C40.963 23.0537 39.3208 24.4397 37.4225 26.0367V32.1836H29.9197V0.545197H51.705V3.12147H51.7502ZM37.4225 16.0028C38.447 15.4002 39.3058 14.8126 39.9988 14.2401C40.722 13.6375 41.3095 13.065 41.7615 12.5226C42.2436 11.9501 42.6052 11.3927 42.8463 10.8503C43.1174 10.3079 43.3284 9.7806 43.479 9.26836V7.73164H37.4225V16.0028Z" fill="#B3FF52"/>
<path d="M63.7075 22.9181L60.8148 25.8559V32.1836H53.312V0.545197H75.0973V3.12147H75.1425V11.4379L72.1595 14.3757L69.1764 17.404L76.9504 32.5H68.6792L63.7075 22.9181ZM60.8148 15.4153L66.8713 9.26836V7.73164H60.8148V15.4153Z" fill="#B3FF52"/>
<path d="M93.0161 8.00283H86.372V24.5H93.0161V8.00283ZM78.8692 0.5H100.519V31.9576H78.8692V0.5Z" fill="#B3FF52"/>
<path d="M124.446 10.8051L118.525 15.4153L124.446 20.1158V32.1384H116.943V21.9689L113.508 19.3023L110.073 21.9689V32.1384H102.57V20.1158L108.491 15.4153L102.57 10.8051V0.545197H110.073V8.68079L113.508 11.4379L116.943 8.68079V0.545197H124.446V10.8051Z" fill="#B3FF52"/>
<path d="M148.099 10.8051L140.37 19.9802V32.1836H132.867V19.4831L126.223 10.8051V0.545197H133.726V8.68079L137.161 13.517L140.596 8.68079V0.545197H148.099V10.8051Z" fill="#B3FF52"/>
</svg>
