<svg width="215" height="215" viewBox="0 0 215 215" fill="none" xmlns="http://www.w3.org/2000/svg">
<path d="M127.896 21.2711L126.813 29.1166L109.731 26.7573L113.159 1.93694L130.241 4.29622L128.916 13.8892L122.996 13.0715L123.508 9.36274L118.266 8.63871L116.468 21.6551L121.711 22.3792L121.982 20.4178L127.896 21.2711Z" fill="white"/>
<path d="M142.127 27.0692L139.063 28.2528L136.988 32.8456L131.542 30.3847L141.919 7.42054L157.732 14.5661L156.887 16.436L156.92 16.4508L154.192 22.4871L151.063 23.6411L147.905 24.8606L148.596 38.3676L142.592 35.6547L142.127 27.0692ZM142.488 20.6746L148.9 18.1995L149.404 17.0841L145.008 15.0976L142.488 20.6746Z" fill="white"/>
<path d="M178.947 37.7092L172.907 32.4752C173.393 34.5161 173.806 36.1285 174.146 37.3122C174.504 38.5116 174.789 39.4099 175.002 40.0072C175.256 40.7037 175.476 41.1643 175.662 41.3892L172.338 45.2252L163.741 37.775L161.454 40.4139L170.051 47.8641L166.161 52.3531L153.021 40.9655L159.339 33.6745C159.779 33.1666 160.315 32.8051 160.946 32.5898C161.611 32.3722 162.293 32.2809 162.994 32.3159C163.712 32.3667 164.403 32.5214 165.068 32.7801C165.767 33.0364 166.371 33.3846 166.878 33.8247L168.674 35.3808L165.643 26.1802L169.439 21.8001L182.688 33.282L178.947 37.7092Z" fill="white"/>
<path d="M196.017 50.4706L181.786 74.9568L178.559 69.9271L183.1 62.1376L176.674 58.9891L173.038 61.3221L169.811 56.2924L191.02 42.6837L196.017 50.4706ZM186.2 56.7695L189.824 50.5518L182.613 55.1787C183.193 55.4619 183.801 55.7421 184.435 56.0196C185.103 56.3042 185.697 56.5643 186.219 56.7998L186.2 56.7695Z" fill="white"/>
<path d="M205.854 89.479L204.058 83.0657L185.269 88.327L183.658 82.5724L202.447 77.311L200.603 70.7244L206.08 69.1907L211.332 87.9453L205.854 89.479Z" fill="white"/>
<path d="M206.723 117.631L206.872 109.641C205.616 111.322 204.643 112.672 203.952 113.691C203.26 114.735 202.754 115.529 202.431 116.076C202.059 116.717 201.847 117.181 201.793 117.468L196.718 117.374L196.929 106L193.438 105.935L193.227 117.309L187.288 117.199L187.611 99.8137L197.257 99.9928C197.929 100.005 198.55 100.185 199.119 100.531C199.712 100.902 200.22 101.368 200.642 101.928C201.063 102.512 201.387 103.142 201.615 103.818C201.866 104.519 201.985 105.205 201.973 105.877L201.928 108.253L207.05 100.031L212.845 100.138L212.52 117.667L206.723 117.631Z" fill="white"/>
<path d="M182.182 154.675L175.125 151.08L182.951 135.714L205.278 147.087L197.451 162.452L188.822 158.057L191.534 152.732L194.871 154.431L197.272 149.716L185.564 143.752L183.162 148.467L184.926 149.366L182.182 154.675Z" fill="white"/>
<path d="M178.825 176.387L182.418 172.502L172.772 163.58L169.178 167.465L178.825 176.387ZM190.863 172.173L179.154 184.832L160.76 167.818L172.469 155.159L190.863 172.173Z" fill="white"/>
<path d="M151.336 181.714L158.031 186.242L151.488 174.392L156.72 171.504L168.918 193.596L163.718 196.467L163.651 196.421L163.62 196.439L163.603 196.407L153.096 189.296L153.518 201.976L153.535 202.007L153.504 202.024L153.507 202.105L148.307 204.976L136.109 182.884L141.34 179.995L147.883 191.845L147.618 183.767L151.336 181.714Z" fill="white"/>
<path d="M117.948 210.3L116.744 203.787C116.766 203.245 116.835 202.757 116.949 202.321C117.064 201.885 117.247 201.424 117.499 200.938C117.751 200.452 118.101 199.899 118.548 199.28C118.975 198.688 119.527 197.976 120.203 197.144C120.86 196.339 121.658 195.374 122.597 194.249C123.512 193.128 124.598 191.804 125.854 190.279L124.964 185.464L130.841 184.379L135.419 209.159L118.356 212.312L117.983 210.294L117.948 210.3ZM127.306 198.138C126.591 198.758 126.003 199.342 125.543 199.891C125.064 200.468 124.686 201.001 124.411 201.491C124.116 202.01 123.914 202.499 123.803 202.958C123.669 203.422 123.58 203.866 123.537 204.289L123.759 205.493L128.503 204.616L127.312 198.173L127.306 198.138Z" fill="white"/>
<path d="M89.6057 205.482L97.5619 206.238C95.9813 204.859 94.7092 203.786 93.7454 203.019C92.7577 202.25 92.0039 201.684 91.4839 201.321C90.8728 200.902 90.4262 200.654 90.1441 200.579L90.6243 195.526L101.949 196.602L102.28 193.126L90.9547 192.05L91.5167 186.136L108.827 187.781L107.914 197.386C107.85 198.055 107.624 198.66 107.235 199.202C106.82 199.765 106.317 200.236 105.727 200.614C105.112 200.989 104.459 201.265 103.768 201.44C103.05 201.637 102.356 201.704 101.687 201.64L99.3221 201.415L107.131 207.148L106.582 212.918L89.129 211.259L89.6057 205.482Z" fill="white"/>
<path d="M61.2679 195.965L67.4352 198.479L74.7999 180.41L80.3339 182.666L72.9692 200.734L79.3033 203.316L77.1564 208.583L59.121 201.232L61.2679 195.965Z" fill="white"/>
<path d="M38.5465 179.425L44.7668 184.443C44.2091 182.421 43.7396 180.824 43.3583 179.653C42.9583 178.467 42.6414 177.579 42.4077 176.99C42.1294 176.303 41.8932 175.85 41.6992 175.632L44.8863 171.681L53.7404 178.824L55.933 176.106L47.0788 168.963L50.8084 164.34L64.3418 175.258L58.284 182.767C57.8621 183.29 57.3396 183.67 56.7164 183.907C56.0595 184.148 55.3806 184.264 54.6797 184.253C53.9602 184.228 53.2635 184.098 52.5898 183.862C51.8823 183.631 51.2671 183.304 50.7441 182.882L48.8948 181.39L52.248 190.479L48.6088 194.99L34.9634 183.982L38.5465 179.425Z" fill="white"/>
<path d="M24.3213 137.405L31.4798 134.017L38.8576 149.603L16.2107 160.323L8.83292 144.737L17.5858 140.594L20.1426 145.995L16.7586 147.597L19.0228 152.38L30.8994 146.758L28.6352 141.975L26.8456 142.822L24.3213 137.405Z" fill="white"/>
<path d="M9.20255 121.415L10.0691 126.635L23.0317 124.484L22.1652 119.263L9.20255 121.415ZM5.15222 133.509L2.3287 116.498L27.0465 112.395L29.8701 129.407L5.15222 133.509Z" fill="white"/>
<path d="M4.24481 85.3028L29.2541 88.3975L28.5202 94.3283L14.8723 92.6394L27.5597 101.21L27.6312 101.219L26.8973 107.15L1.88806 104.055L2.62194 98.1246L16.0198 99.7824L3.46636 91.3006L4.24481 85.3028Z" fill="white"/>
<path d="M12.0618 63.036C12.3888 62.2884 12.8395 61.6473 13.4139 61.1127C13.9883 60.5781 14.6341 60.1795 15.3514 59.9169C16.0564 59.6228 16.8012 59.4771 17.5859 59.4798C18.3706 59.4824 19.1368 59.6473 19.8844 59.9743L34.8256 66.5096C35.5292 66.8174 36.0233 67.3347 36.3078 68.0617C36.5924 68.7886 36.5808 69.5039 36.273 70.2076L34.5129 74.2315L37.0526 75.3423L36.0283 77.6841L33.4886 76.5732L31.5843 80.927C31.2765 81.6306 30.7592 82.1247 30.0322 82.4092C29.3053 82.6937 28.59 82.6821 27.8863 82.3744L7.46995 73.4442L11.9855 63.1206L12.0618 63.036ZM18.4605 65.8348C18.1966 65.7194 17.9334 65.7222 17.671 65.8431C17.3961 65.9325 17.201 66.1091 17.0856 66.373L15.3832 70.2649L27.422 75.5307L28.0423 74.1124L26.9209 73.6219L27.9452 71.2801L29.0666 71.7707L29.5427 70.6822L18.4605 65.8348Z" fill="white"/>
<path d="M51.1441 49.9235L51.0754 50.0068L51.2974 50.1902L40.2452 63.5671L40.0231 63.3837L39.9773 63.4392L20.5503 47.3882L24.3567 42.7813L39.593 55.3698L43.1471 51.0681L27.9108 38.4796L31.7172 33.8726L51.1441 49.9235Z" fill="white"/>
<path d="M58.3473 20.4955L51.7527 25.0105C53.8503 25.0578 55.5146 25.0672 56.7458 25.0387C57.9968 24.9966 58.9381 24.9484 59.5698 24.894C60.3079 24.825 60.8093 24.7289 61.0741 24.6058L63.9417 28.7942L54.5549 35.2208L56.5276 38.1022L65.9144 31.6756L69.2701 36.5769L54.9225 46.3999L49.4721 38.439C49.0925 37.8845 48.8786 37.2747 48.8304 36.6096C48.7885 35.9111 48.8733 35.2277 49.0847 34.5594C49.3159 33.8776 49.641 33.2478 50.0599 32.6702C50.4851 32.0591 50.9749 31.5638 51.5294 31.1842L53.4899 29.8419L43.8215 30.4405L40.5472 25.658L55.0135 15.7537L58.3473 20.4955Z" fill="white"/>
<path d="M79.4449 24.5363L77.9643 27.4675L79.5014 32.2674L73.81 34.0899L66.1248 10.0904L82.6501 4.79852L83.2759 6.75276L83.3102 6.74179L85.3303 13.0502L83.7812 16.0034L82.254 19.0251L91.818 28.5879L85.5438 30.597L79.4449 24.5363ZM75.4281 19.5476L78.5292 13.4137L78.1559 12.248L73.5617 13.7192L75.4281 19.5476Z" fill="white"/>
</svg>
