<svg width="1512" height="900" viewBox="0 0 1512 900" fill="none" xmlns="http://www.w3.org/2000/svg">
<mask id="path-1-outside-1_801_941" maskUnits="userSpaceOnUse" x="-53.6462" y="523.648" width="74.8027" height="95.1614" fill="black">
<rect fill="white" x="-53.6462" y="523.648" width="74.8027" height="95.1614"/>
<path d="M6.12985 532.342L9.87133 553.908C9.77887 555.695 9.53532 557.306 9.14067 558.743C8.74602 560.18 8.12374 561.697 7.27382 563.293C6.4239 564.889 5.24947 566.703 3.75054 568.733C2.31619 570.673 0.467233 573.006 -1.79632 575.733C-3.9953 578.368 -6.66668 581.528 -9.81047 585.212C-12.8761 588.883 -16.511 593.216 -20.7153 598.212L-17.9498 614.152L-37.4061 617.527L-51.64 535.482L4.85359 525.681L6.01264 532.362L6.12985 532.342ZM-25.2294 572.192C-22.8439 570.168 -20.8813 568.258 -19.3417 566.462C-17.7375 564.573 -16.4714 562.825 -15.5433 561.215C-14.5507 559.513 -13.8638 557.905 -13.4827 556.39C-13.0235 554.862 -12.7138 553.399 -12.5535 552.003L-13.2449 548.018L-28.9506 550.743L-25.2498 572.074L-25.2294 572.192Z"/>
</mask>
<path d="M6.12985 532.342L7.11513 532.171L6.94419 531.186L5.95891 531.357L6.12985 532.342ZM9.87133 553.908L10.87 553.96L10.8758 553.847L10.8566 553.737L9.87133 553.908ZM3.75054 568.733L4.5545 569.328L4.55511 569.327L3.75054 568.733ZM-1.79632 575.733L-1.02853 576.373L-1.02687 576.371L-1.79632 575.733ZM-9.81047 585.212L-10.5712 584.563L-10.578 584.571L-9.81047 585.212ZM-20.7152 598.212L-21.4803 597.568L-21.7801 597.924L-21.7005 598.382L-20.7152 598.212ZM-17.9498 614.152L-17.7789 615.137L-16.7936 614.966L-16.9645 613.981L-17.9498 614.152ZM-37.4061 617.527L-38.3914 617.698L-38.2205 618.683L-37.2352 618.512L-37.4061 617.527ZM-51.64 535.482L-51.8109 534.497L-52.7962 534.668L-52.6253 535.653L-51.64 535.482ZM4.85359 525.681L5.83887 525.51L5.66794 524.525L4.68265 524.696L4.85359 525.681ZM6.01264 532.362L5.02736 532.533L5.19829 533.518L6.18357 533.347L6.01264 532.362ZM-25.2294 572.192L-26.2147 572.363L-25.9158 574.085L-24.5825 572.954L-25.2294 572.192ZM-19.3417 566.462L-18.5824 567.112L-18.5796 567.109L-19.3417 566.462ZM-15.5433 561.215L-16.4071 560.711L-16.4097 560.715L-15.5433 561.215ZM-13.4827 556.39L-14.4404 556.102L-14.447 556.124L-14.4525 556.146L-13.4827 556.39ZM-12.5535 552.003L-11.56 552.117L-11.5436 551.974L-11.5682 551.832L-12.5535 552.003ZM-13.2449 548.018L-12.2596 547.847L-12.4305 546.862L-13.4158 547.033L-13.2449 548.018ZM-28.9506 550.743L-29.1215 549.758L-30.1068 549.929L-29.9359 550.914L-28.9506 550.743ZM5.14457 532.513L8.88605 554.079L10.8566 553.737L7.11513 532.171L5.14457 532.513ZM8.87266 553.856C8.78322 555.585 8.54855 557.123 8.17638 558.478L10.105 559.008C10.5221 557.49 10.7745 555.805 10.87 553.96L8.87266 553.856ZM8.17638 558.478C7.80491 559.831 7.21346 561.278 6.39114 562.823L8.1565 563.763C9.03402 562.115 9.68713 560.529 10.105 559.008L8.17638 558.478ZM6.39114 562.823C5.57118 564.363 4.4263 566.134 2.94596 568.14L4.55511 569.327C6.07265 567.271 7.27662 565.415 8.1565 563.763L6.39114 562.823ZM2.94658 568.139C1.52714 570.058 -0.309165 572.375 -2.56577 575.094L-1.02687 576.371C1.24364 573.636 3.10524 571.287 4.5545 569.328L2.94658 568.139ZM-2.56412 575.092C-4.76002 577.723 -7.4289 580.88 -10.5712 584.563L-9.04975 585.861C-5.90447 582.175 -3.23058 579.012 -1.02853 576.373L-2.56412 575.092ZM-10.578 584.571C-13.6426 588.241 -17.2767 592.573 -21.4803 597.568L-19.9502 598.855C-15.7454 593.859 -12.1096 589.525 -9.04292 585.853L-10.578 584.571ZM-21.7005 598.382L-18.9351 614.323L-16.9645 613.981L-19.73 598.041L-21.7005 598.382ZM-18.1207 613.166L-37.577 616.542L-37.2352 618.512L-17.7789 615.137L-18.1207 613.166ZM-36.4208 617.356L-50.6547 535.312L-52.6253 535.653L-38.3914 617.698L-36.4208 617.356ZM-51.4691 536.468L5.02453 526.667L4.68265 524.696L-51.8109 534.497L-51.4691 536.468ZM3.86831 525.852L5.02736 532.533L6.99792 532.191L5.83887 525.51L3.86831 525.852ZM6.18357 533.347L6.30078 533.327L5.95891 531.357L5.8417 531.377L6.18357 533.347ZM-24.5825 572.954C-22.1686 570.907 -20.1654 568.959 -18.5824 567.112L-20.101 565.811C-21.5972 567.557 -23.5191 569.429 -25.8763 571.429L-24.5825 572.954ZM-18.5796 567.109C-16.9483 565.189 -15.6433 563.39 -14.677 561.714L-16.4097 560.715C-17.2995 562.259 -18.5267 563.958 -20.1038 565.814L-18.5796 567.109ZM-14.6796 561.719C-13.6513 559.956 -12.922 558.26 -12.5129 556.634L-14.4525 556.146C-14.8056 557.55 -15.4501 559.07 -16.4071 560.711L-14.6796 561.719ZM-12.525 556.678C-12.051 555.1 -11.7279 553.579 -11.56 552.117L-13.547 551.889C-13.6996 553.219 -13.996 554.623 -14.4404 556.102L-12.525 556.678ZM-11.5682 551.832L-12.2596 547.847L-14.2302 548.189L-13.5388 552.174L-11.5682 551.832ZM-13.4158 547.033L-29.1215 549.758L-28.7796 551.728L-13.0739 549.003L-13.4158 547.033ZM-29.9359 550.914L-26.235 572.245L-24.2645 571.904L-27.9653 550.572L-29.9359 550.914ZM-26.235 572.245L-26.2147 572.363L-24.2441 572.021L-24.2645 571.904L-26.235 572.245Z" fill="#B3FF52" mask="url(#path-1-outside-1_801_941)"/>
<mask id="path-3-outside-2_801_941" maskUnits="userSpaceOnUse" x="2.8843" y="511.954" width="78.0231" height="97.5683" fill="black">
<rect fill="white" x="2.8843" y="511.954" width="78.0231" height="97.5683"/>
<path d="M65.8586 532.813L39.9746 538.05C46.2956 540.898 51.3475 543.072 55.1302 544.572C58.9907 546.056 61.9171 547.123 63.9094 547.771C66.244 548.513 67.8934 548.867 68.8576 548.833L72.1842 565.273L35.3404 572.729L37.6289 584.038L74.4727 576.583L78.3656 595.821L22.0505 607.216L15.7276 575.969C15.2872 573.793 15.4224 571.662 16.1331 569.576C16.9058 567.397 18.0445 565.427 19.5492 563.666C21.1316 561.889 22.9323 560.392 24.9515 559.174C27.0326 557.863 29.1614 556.987 31.3378 556.547L39.0331 554.99L8.84395 544.35L5.0455 525.578L61.827 514.088L65.8586 532.813Z"/>
</mask>
<path d="M65.8586 532.813L66.0569 533.793L67.0493 533.592L66.8362 532.602L65.8586 532.813ZM39.9746 538.05L39.7763 537.07L36.7318 537.686L39.5639 538.962L39.9746 538.05ZM55.1302 544.572L54.7616 545.501L54.7714 545.505L55.1302 544.572ZM63.9094 547.771L63.5997 548.722L63.6068 548.725L63.9094 547.771ZM68.8576 548.833L69.8378 548.635L69.6698 547.805L68.8231 547.834L68.8576 548.833ZM72.1842 565.273L72.3826 566.253L73.3627 566.055L73.1644 565.075L72.1842 565.273ZM35.3404 572.729L35.1421 571.748L34.1619 571.947L34.3603 572.927L35.3404 572.729ZM37.6289 584.038L36.6488 584.237L36.8471 585.217L37.8272 585.018L37.6289 584.038ZM74.4727 576.583L75.4529 576.385L75.2545 575.404L74.2744 575.603L74.4727 576.583ZM78.3656 595.821L78.5639 596.801L79.544 596.603L79.3457 595.623L78.3656 595.821ZM22.0505 607.216L21.0703 607.415L21.2687 608.395L22.2488 608.196L22.0505 607.216ZM16.1331 569.576L15.1905 569.242L15.1865 569.253L16.1331 569.576ZM19.5492 563.666L18.8024 563.001L18.7956 563.008L18.7889 563.016L19.5492 563.666ZM24.9515 559.174L25.4679 560.031L25.4763 560.026L25.4845 560.02L24.9515 559.174ZM39.0331 554.99L39.2314 555.97L42.7832 555.251L39.3655 554.047L39.0331 554.99ZM8.84395 544.35L7.86382 544.548L7.97636 545.104L8.51154 545.293L8.84395 544.35ZM5.0455 525.578L4.84717 524.598L3.86703 524.796L4.06536 525.776L5.0455 525.578ZM61.827 514.088L62.8046 513.878L62.5967 512.912L61.6286 513.108L61.827 514.088ZM65.6603 531.833L39.7763 537.07L40.173 539.031L66.0569 533.793L65.6603 531.833ZM39.5639 538.962C45.8906 541.812 50.9583 543.993 54.7616 545.501L55.4989 543.642C51.7367 542.15 46.7006 539.984 40.3854 537.139L39.5639 538.962ZM54.7714 545.505C58.6357 546.991 61.5818 548.065 63.5998 548.722L64.219 546.821C62.2524 546.18 59.3458 545.121 55.4891 543.638L54.7714 545.505ZM63.6068 548.725C65.9328 549.463 67.7345 549.873 68.8921 549.833L68.8231 547.834C68.0524 547.861 66.5552 547.562 64.212 546.818L63.6068 548.725ZM67.8775 549.032L71.2041 565.472L73.1644 565.075L69.8378 548.635L67.8775 549.032ZM71.9859 564.293L35.1421 571.748L35.5387 573.709L72.3826 566.253L71.9859 564.293ZM34.3603 572.927L36.6488 584.237L38.6091 583.84L36.3205 572.53L34.3603 572.927ZM37.8272 585.018L74.6711 577.563L74.2744 575.603L37.4306 583.058L37.8272 585.018ZM73.4926 576.781L77.3854 596.019L79.3457 595.623L75.4529 576.385L73.4926 576.781ZM78.1672 594.841L21.8522 606.236L22.2488 608.196L78.5639 596.801L78.1672 594.841ZM23.0306 607.018L16.7077 575.771L14.7475 576.167L21.0703 607.415L23.0306 607.018ZM16.7077 575.771C16.3022 573.766 16.4265 571.815 17.0796 569.898L15.1865 569.253C14.4182 571.508 14.2722 573.819 14.7475 576.167L16.7077 575.771ZM17.0756 569.91C17.8073 567.847 18.8842 565.983 20.3094 564.315L18.7889 563.016C17.2049 564.87 16.0043 566.947 15.1906 569.242L17.0756 569.91ZM20.2959 564.331C21.8122 562.629 23.5355 561.196 25.4679 560.031L24.435 558.318C22.3292 559.588 20.451 561.15 18.8024 563.001L20.2959 564.331ZM25.4845 560.02C27.4742 558.767 29.4906 557.941 31.5362 557.527L31.1395 555.567C28.8322 556.034 26.5911 556.959 24.4184 558.328L25.4845 560.02ZM31.5362 557.527L39.2314 555.97L38.8347 554.01L31.1395 555.567L31.5362 557.527ZM39.3655 554.047L9.17636 543.407L8.51154 545.293L38.7007 555.933L39.3655 554.047ZM9.82409 544.151L6.02563 525.38L4.06536 525.776L7.86382 544.548L9.82409 544.151ZM5.24383 526.558L62.0253 515.068L61.6286 513.108L4.84717 524.598L5.24383 526.558ZM60.8494 514.299L64.881 533.023L66.8362 532.602L62.8046 513.878L60.8494 514.299Z" fill="#B3FF52" mask="url(#path-3-outside-2_801_941)"/>
<mask id="path-5-outside-3_801_941" maskUnits="userSpaceOnUse" x="63.5201" y="496.596" width="85.7775" height="99.2119" fill="black">
<rect fill="white" x="63.5201" y="496.596" width="85.7775" height="99.2119"/>
<path d="M132.595 517.007L111.165 522.012L125.829 584.797L106.599 589.288L91.9354 526.503L69.9259 531.644L65.6511 513.341L128.32 498.704L132.595 517.007Z"/>
</mask>
<path d="M132.595 517.007L132.823 517.98L133.796 517.753L133.569 516.779L132.595 517.007ZM111.165 522.012L110.937 521.038L109.964 521.265L110.191 522.239L111.165 522.012ZM125.829 584.797L126.056 585.771L127.03 585.543L126.803 584.57L125.829 584.797ZM106.599 589.288L105.626 589.516L105.853 590.489L106.827 590.262L106.599 589.288ZM91.9354 526.503L92.9092 526.276L92.6818 525.302L91.708 525.529L91.9354 526.503ZM69.9259 531.644L68.9521 531.871L69.1795 532.845L70.1533 532.617L69.9259 531.644ZM65.6511 513.341L65.4237 512.367L64.4499 512.594L64.6773 513.568L65.6511 513.341ZM128.32 498.704L129.294 498.476L129.067 497.503L128.093 497.73L128.32 498.704ZM132.368 516.033L110.937 521.038L111.392 522.986L132.823 517.98L132.368 516.033ZM110.191 522.239L124.855 585.024L126.803 584.57L112.139 521.784L110.191 522.239ZM125.601 583.823L106.372 588.314L106.827 590.262L126.056 585.771L125.601 583.823ZM107.573 589.061L92.9092 526.276L90.9616 526.73L105.626 589.516L107.573 589.061ZM91.708 525.529L69.6984 530.67L70.1533 532.617L92.1629 527.477L91.708 525.529ZM70.8996 531.416L66.6249 513.113L64.6773 513.568L68.9521 531.871L70.8996 531.416ZM65.8786 514.315L128.548 499.678L128.093 497.73L65.4237 512.367L65.8786 514.315ZM127.347 498.931L131.621 517.234L133.569 516.779L129.294 498.476L127.347 498.931Z" fill="#B3FF52" mask="url(#path-5-outside-3_801_941)"/>
<mask id="path-7-outside-4_801_941" maskUnits="userSpaceOnUse" x="129.591" y="480.756" width="82.1056" height="99.9174" fill="black">
<rect fill="white" x="129.591" y="480.756" width="82.1056" height="99.9174"/>
<path d="M192.954 501.452L167.416 508.175C173.891 510.653 179.06 512.532 182.923 513.811C186.862 515.07 189.846 515.966 191.872 516.498C194.245 517.104 195.913 517.362 196.873 517.273L201.143 533.493L164.791 543.063L167.729 554.222L204.081 544.652L209.078 563.633L153.514 578.26L145.398 547.43C144.833 545.283 144.845 543.148 145.434 541.024C146.08 538.804 147.103 536.772 148.503 534.927C149.98 533.062 151.692 531.463 153.637 530.131C155.639 528.702 157.714 527.705 159.861 527.139L167.454 525.141L136.701 516.261L131.825 497.74L187.849 482.992L192.954 501.452Z"/>
</mask>
<path d="M192.954 501.452L193.209 502.419L194.188 502.161L193.918 501.186L192.954 501.452ZM167.416 508.175L167.161 507.208L164.157 507.999L167.059 509.109L167.416 508.175ZM182.923 513.811L182.608 514.76L182.618 514.763L182.923 513.811ZM191.872 516.498L191.618 517.466L191.625 517.467L191.872 516.498ZM196.873 517.273L197.84 517.018L197.625 516.199L196.781 516.277L196.873 517.273ZM201.143 533.493L201.398 534.46L202.365 534.206L202.11 533.239L201.143 533.493ZM164.791 543.063L164.537 542.096L163.57 542.351L163.824 543.318L164.791 543.063ZM167.729 554.222L166.762 554.476L167.016 555.443L167.983 555.189L167.729 554.222ZM204.081 544.652L205.048 544.397L204.793 543.43L203.826 543.685L204.081 544.652ZM209.078 563.633L209.332 564.6L210.299 564.346L210.045 563.379L209.078 563.633ZM153.514 578.26L152.547 578.515L152.802 579.482L153.769 579.228L153.514 578.26ZM145.434 541.024L144.474 540.745L144.47 540.757L145.434 541.024ZM148.503 534.927L147.719 534.306L147.713 534.314L147.707 534.322L148.503 534.927ZM153.637 530.131L154.202 530.956L154.21 530.951L154.218 530.945L153.637 530.131ZM167.454 525.141L167.708 526.108L171.213 525.185L167.731 524.18L167.454 525.141ZM136.701 516.261L135.734 516.516L135.878 517.064L136.423 517.222L136.701 516.261ZM131.825 497.74L131.57 496.773L130.603 497.028L130.858 497.995L131.825 497.74ZM187.849 482.992L188.812 482.725L188.549 481.773L187.594 482.025L187.849 482.992ZM192.7 500.485L167.161 507.208L167.671 509.142L193.209 502.419L192.7 500.485ZM167.059 509.109C173.539 511.589 178.724 513.474 182.608 514.76L183.237 512.862C179.395 511.589 174.242 509.717 167.773 507.241L167.059 509.109ZM182.618 514.763C186.562 516.024 189.565 516.926 191.618 517.466L192.126 515.531C190.126 515.005 187.163 514.116 183.227 512.858L182.618 514.763ZM191.625 517.467C193.99 518.07 195.812 518.375 196.965 518.269L196.781 516.277C196.013 516.348 194.501 516.137 192.119 515.529L191.625 517.467ZM195.906 517.528L200.176 533.748L202.11 533.239L197.84 517.018L195.906 517.528ZM200.889 532.526L164.537 542.096L165.046 544.03L201.398 534.46L200.889 532.526ZM163.824 543.318L166.762 554.476L168.696 553.967L165.758 542.809L163.824 543.318ZM167.983 555.189L204.335 545.619L203.826 543.685L167.474 553.255L167.983 555.189ZM203.114 544.907L208.111 563.888L210.045 563.379L205.048 544.397L203.114 544.907ZM208.823 562.666L153.26 577.293L153.769 579.228L209.332 564.6L208.823 562.666ZM154.481 578.006L146.365 547.176L144.431 547.685L152.547 578.515L154.481 578.006ZM146.365 547.176C145.845 545.198 145.856 543.243 146.398 541.292L144.47 540.757C143.834 543.052 143.821 545.368 144.431 547.685L146.365 547.176ZM146.394 541.304C147.006 539.201 147.973 537.279 149.3 535.532L147.707 534.322C146.232 536.264 145.154 538.407 144.474 540.745L146.394 541.304ZM149.287 535.548C150.703 533.761 152.34 532.231 154.202 530.956L153.072 529.306C151.043 530.695 149.258 532.363 147.719 534.306L149.287 535.548ZM154.218 530.945C156.132 529.579 158.098 528.638 160.116 528.107L159.607 526.172C157.33 526.772 155.146 527.825 153.056 529.317L154.218 530.945ZM160.116 528.107L167.708 526.108L167.199 524.174L159.607 526.172L160.116 528.107ZM167.731 524.18L136.978 515.3L136.423 517.222L167.176 526.101L167.731 524.18ZM137.668 516.007L132.792 497.485L130.858 497.995L135.734 516.516L137.668 516.007ZM132.08 498.707L188.103 483.959L187.594 482.025L131.57 496.773L132.08 498.707ZM186.885 483.258L191.991 501.719L193.918 501.186L188.812 482.725L186.885 483.258Z" fill="#B3FF52" mask="url(#path-7-outside-4_801_941)"/>
<mask id="path-9-outside-5_801_941" maskUnits="userSpaceOnUse" x="224.053" y="446.442" width="73.0131" height="71.6802" fill="black">
<rect fill="white" x="224.053" y="446.442" width="73.0131" height="71.6802"/>
<path d="M258.298 454.848L262.655 477.395L282.644 464.614L287.417 474.602L266.991 482.667L285.996 496.54L277.831 504.862L262.108 487.879L259.391 510.46L247.636 508.185L255.494 486.157L234.259 490.739L232.674 479.783L256.167 479.364L247.142 458.235L258.298 454.848Z"/>
</mask>
<path d="M258.298 454.848L259.279 454.659L259.069 453.569L258.007 453.892L258.298 454.848ZM262.655 477.395L261.674 477.584L261.953 479.031L263.194 478.237L262.655 477.395ZM282.644 464.614L283.547 464.182L283.059 463.162L282.106 463.771L282.644 464.614ZM287.417 474.602L287.784 475.532L288.782 475.138L288.319 474.171L287.417 474.602ZM266.991 482.667L266.624 481.737L264.934 482.404L266.401 483.475L266.991 482.667ZM285.996 496.54L286.71 497.241L287.52 496.415L286.586 495.733L285.996 496.54ZM277.831 504.862L277.097 505.541L277.81 506.311L278.545 505.562L277.831 504.862ZM262.108 487.879L262.842 487.2L261.374 485.614L261.116 487.759L262.108 487.879ZM259.391 510.46L259.201 511.441L260.255 511.645L260.383 510.579L259.391 510.46ZM247.636 508.185L246.694 507.849L246.303 508.946L247.446 509.167L247.636 508.185ZM255.494 486.157L256.436 486.493L257.04 484.801L255.283 485.18L255.494 486.157ZM234.259 490.739L233.27 490.882L233.423 491.942L234.47 491.716L234.259 490.739ZM232.674 479.783L232.656 478.783L231.522 478.803L231.684 479.926L232.674 479.783ZM256.167 479.364L256.185 480.364L257.67 480.338L257.087 478.971L256.167 479.364ZM247.142 458.235L246.852 457.278L245.785 457.602L246.223 458.628L247.142 458.235ZM257.316 455.038L261.674 477.584L263.637 477.205L259.279 454.659L257.316 455.038ZM263.194 478.237L283.183 465.456L282.106 463.771L262.117 476.552L263.194 478.237ZM281.742 465.045L286.515 475.033L288.319 474.171L283.547 464.182L281.742 465.045ZM287.05 473.672L266.624 481.737L267.358 483.597L287.784 475.532L287.05 473.672ZM266.401 483.475L285.406 497.348L286.586 495.733L267.581 481.86L266.401 483.475ZM285.282 495.84L277.117 504.161L278.545 505.562L286.71 497.241L285.282 495.84ZM278.565 504.183L262.842 487.2L261.375 488.558L277.097 505.541L278.565 504.183ZM261.116 487.759L258.398 510.34L260.383 510.579L263.101 487.998L261.116 487.759ZM259.581 509.478L247.826 507.203L247.446 509.167L259.201 511.441L259.581 509.478ZM248.578 508.521L256.436 486.493L254.552 485.821L246.694 507.849L248.578 508.521ZM255.283 485.18L234.048 489.761L234.47 491.716L255.705 487.135L255.283 485.18ZM235.249 490.595L233.664 479.639L231.684 479.926L233.27 490.882L235.249 490.595ZM232.692 480.783L256.185 480.364L256.149 478.364L232.656 478.783L232.692 480.783ZM257.087 478.971L248.062 457.842L246.223 458.628L255.248 479.757L257.087 478.971ZM247.433 459.192L258.588 455.805L258.007 453.892L246.852 457.278L247.433 459.192Z" fill="#B3FF52" mask="url(#path-9-outside-5_801_941)"/>
<mask id="path-11-outside-6_801_941" maskUnits="userSpaceOnUse" x="311.923" y="424.561" width="84.3227" height="100.658" fill="black">
<rect fill="white" x="311.923" y="424.561" width="84.3227" height="100.658"/>
<path d="M386.351 480.343L394.709 505.143L340.712 523.341L314.272 444.882L368.268 426.685L378.488 457.009L359.775 463.315L355.824 451.591L339.253 457.176L353.119 498.321L369.69 492.737L367.601 486.537L386.351 480.343Z"/>
</mask>
<path d="M386.351 480.343L387.299 480.024L386.982 479.082L386.038 479.394L386.351 480.343ZM394.709 505.143L395.029 506.091L395.976 505.772L395.657 504.824L394.709 505.143ZM340.712 523.341L339.765 523.66L340.084 524.608L341.032 524.288L340.712 523.341ZM314.272 444.882L313.952 443.934L313.005 444.253L313.324 445.201L314.272 444.882ZM368.268 426.685L369.216 426.365L368.897 425.418L367.949 425.737L368.268 426.685ZM378.488 457.009L378.807 457.956L379.755 457.637L379.435 456.689L378.488 457.009ZM359.775 463.315L358.827 463.634L359.146 464.582L360.094 464.262L359.775 463.315ZM355.824 451.591L356.771 451.272L356.452 450.324L355.504 450.643L355.824 451.591ZM339.253 457.176L338.933 456.228L337.986 456.547L338.305 457.495L339.253 457.176ZM353.119 498.321L352.171 498.641L352.491 499.588L353.438 499.269L353.119 498.321ZM369.69 492.737L370.009 493.685L370.957 493.365L370.638 492.418L369.69 492.737ZM367.601 486.537L367.287 485.587L366.332 485.903L366.653 486.856L367.601 486.537ZM385.404 480.663L393.762 505.463L395.657 504.824L387.299 480.024L385.404 480.663ZM394.39 504.196L340.393 522.393L341.032 524.288L395.029 506.091L394.39 504.196ZM341.66 523.021L315.219 444.562L313.324 445.201L339.765 523.66L341.66 523.021ZM314.591 445.829L368.588 427.632L367.949 425.737L313.952 443.934L314.591 445.829ZM367.321 427.004L377.54 457.328L379.435 456.689L369.216 426.365L367.321 427.004ZM378.168 456.061L359.455 462.367L360.094 464.262L378.807 457.956L378.168 456.061ZM360.722 462.995L356.771 451.272L354.876 451.91L358.827 463.634L360.722 462.995ZM355.504 450.643L338.933 456.228L339.572 458.123L356.143 452.539L355.504 450.643ZM338.305 457.495L352.171 498.641L354.067 498.002L340.2 456.856L338.305 457.495ZM353.438 499.269L370.009 493.685L369.371 491.789L352.8 497.374L353.438 499.269ZM370.638 492.418L368.548 486.217L366.653 486.856L368.742 493.056L370.638 492.418ZM367.914 487.486L386.665 481.293L386.038 479.394L367.287 485.587L367.914 487.486Z" fill="#B3FF52" mask="url(#path-11-outside-6_801_941)"/>
<mask id="path-13-outside-7_801_941" maskUnits="userSpaceOnUse" x="366.625" y="405.262" width="85.27" height="101.097" fill="black">
<rect fill="white" x="366.625" y="405.262" width="85.27" height="101.097"/>
<path d="M410.49 432.415L394.006 438.254L408.503 479.182L424.986 473.343L410.49 432.415ZM368.799 426.233L422.51 407.209L450.153 485.252L396.442 504.276L368.799 426.233Z"/>
</mask>
<path d="M410.49 432.415L411.432 432.082L411.098 431.139L410.156 431.473L410.49 432.415ZM394.006 438.254L393.672 437.311L392.73 437.645L393.064 438.588L394.006 438.254ZM408.503 479.182L407.56 479.516L407.894 480.458L408.837 480.124L408.503 479.182ZM424.986 473.343L425.32 474.286L426.263 473.952L425.929 473.01L424.986 473.343ZM368.799 426.233L368.466 425.29L367.523 425.624L367.857 426.567L368.799 426.233ZM422.51 407.209L423.453 406.875L423.119 405.932L422.177 406.266L422.51 407.209ZM450.153 485.252L450.487 486.195L451.43 485.861L451.096 484.918L450.153 485.252ZM396.442 504.276L395.5 504.61L395.833 505.553L396.776 505.219L396.442 504.276ZM410.156 431.473L393.672 437.311L394.34 439.196L410.823 433.358L410.156 431.473ZM393.064 438.588L407.56 479.516L409.445 478.848L394.949 437.92L393.064 438.588ZM408.837 480.124L425.32 474.286L424.652 472.401L408.169 478.239L408.837 480.124ZM425.929 473.01L411.432 432.082L409.547 432.749L424.043 473.677L425.929 473.01ZM369.133 427.175L422.844 408.151L422.177 406.266L368.466 425.29L369.133 427.175ZM421.568 407.543L449.21 485.586L451.096 484.918L423.453 406.875L421.568 407.543ZM449.819 484.31L396.108 503.334L396.776 505.219L450.487 486.195L449.819 484.31ZM397.385 503.942L369.742 425.899L367.857 426.567L395.5 504.61L397.385 503.942Z" fill="#B3FF52" mask="url(#path-13-outside-7_801_941)"/>
<mask id="path-15-outside-8_801_941" maskUnits="userSpaceOnUse" x="426.076" y="381.24" width="92.077" height="104.49" fill="black">
<rect fill="white" x="426.076" y="381.24" width="92.077" height="104.49"/>
<path d="M486.922 383.602L515.802 461.704L497.281 468.553L481.52 425.932L475.623 476.181L475.706 476.404L457.184 483.252L428.304 405.151L446.826 398.302L462.297 440.142L468.136 390.422L486.922 383.602Z"/>
</mask>
<path d="M486.922 383.602L487.86 383.256L487.515 382.323L486.581 382.662L486.922 383.602ZM515.802 461.704L516.149 462.642L517.087 462.295L516.74 461.357L515.802 461.704ZM497.281 468.553L496.343 468.9L496.69 469.837L497.628 469.491L497.281 468.553ZM481.52 425.932L482.458 425.585L480.527 425.815L481.52 425.932ZM475.623 476.181L474.63 476.064L474.602 476.302L474.685 476.527L475.623 476.181ZM475.706 476.404L476.053 477.342L476.99 476.995L476.644 476.057L475.706 476.404ZM457.184 483.252L456.247 483.599L456.593 484.537L457.531 484.19L457.184 483.252ZM428.304 405.151L427.958 404.213L427.02 404.56L427.366 405.498L428.304 405.151ZM446.826 398.302L447.764 397.955L447.417 397.017L446.479 397.364L446.826 398.302ZM462.297 440.142L461.359 440.489L463.29 440.259L462.297 440.142ZM468.136 390.422L467.795 389.482L467.215 389.693L467.143 390.305L468.136 390.422ZM485.984 383.949L514.864 462.051L516.74 461.357L487.86 383.256L485.984 383.949ZM515.455 460.766L496.934 467.615L497.628 469.491L516.149 462.642L515.455 460.766ZM498.219 468.206L482.458 425.585L480.583 426.278L496.343 468.9L498.219 468.206ZM480.527 425.815L474.63 476.064L476.616 476.297L482.514 426.048L480.527 425.815ZM474.685 476.527L474.768 476.751L476.644 476.057L476.561 475.834L474.685 476.527ZM475.359 475.466L456.838 482.315L457.531 484.19L476.053 477.342L475.359 475.466ZM458.122 482.906L429.242 404.804L427.366 405.498L456.247 483.599L458.122 482.906ZM428.651 406.089L447.172 399.24L446.479 397.364L427.958 404.213L428.651 406.089ZM445.888 398.649L461.359 440.489L463.235 439.795L447.764 397.955L445.888 398.649ZM463.29 440.259L469.129 390.539L467.143 390.305L461.304 440.026L463.29 440.259ZM468.477 391.362L487.263 384.542L486.581 382.662L467.795 389.482L468.477 391.362Z" fill="#B3FF52" mask="url(#path-15-outside-8_801_941)"/>
<mask id="path-17-outside-9_801_941" maskUnits="userSpaceOnUse" x="490.092" y="359.114" width="89.8622" height="110.127" fill="black">
<rect fill="white" x="490.092" y="359.114" width="89.8622" height="110.127"/>
<path d="M527.394 368.236C529.915 367.277 532.47 366.857 535.06 366.974C537.65 367.092 540.085 367.693 542.364 368.777C544.69 369.759 546.757 371.178 548.567 373.035C550.376 374.892 551.761 377.081 552.72 379.601L571.883 429.966C572.786 432.338 572.709 434.7 571.653 437.054C570.597 439.407 568.883 441.035 566.511 441.938L552.947 447.099L556.204 455.66L548.311 458.664L545.053 450.103L530.377 455.687C528.005 456.589 525.643 456.512 523.289 455.456C520.936 454.4 519.308 452.686 518.405 450.314L492.219 381.493L527.019 368.252L527.394 368.236ZM535.602 389.805C535.263 388.916 534.648 388.302 533.755 387.963C532.908 387.521 532.04 387.47 531.15 387.808L518.031 392.8L533.472 433.381L538.253 431.562L536.815 427.782L544.709 424.778L546.147 428.558L549.816 427.162L535.602 389.805Z"/>
</mask>
<path d="M527.394 368.236L527.436 369.235L527.598 369.229L527.75 369.171L527.394 368.236ZM542.364 368.777L541.935 369.68L541.955 369.689L541.975 369.698L542.364 368.777ZM548.567 373.035L547.851 373.733L548.567 373.035ZM571.653 437.054L572.565 437.463L571.653 437.054ZM552.947 447.099L552.591 446.164L551.657 446.52L552.012 447.455L552.947 447.099ZM556.204 455.66L556.56 456.595L557.495 456.239L557.139 455.304L556.204 455.66ZM548.311 458.664L547.376 459.019L547.732 459.954L548.666 459.598L548.311 458.664ZM545.053 450.103L545.988 449.747L545.632 448.812L544.698 449.168L545.053 450.103ZM523.289 455.456L522.88 456.369L523.289 455.456ZM492.219 381.493L491.863 380.559L490.929 380.914L491.284 381.849L492.219 381.493ZM527.019 368.252L526.977 367.253L526.815 367.26L526.663 367.317L527.019 368.252ZM533.755 387.963L533.293 388.849L533.345 388.877L533.4 388.897L533.755 387.963ZM518.031 392.8L517.675 391.865L516.741 392.221L517.096 393.156L518.031 392.8ZM533.472 433.381L532.538 433.737L532.893 434.671L533.828 434.316L533.472 433.381ZM538.253 431.562L538.609 432.497L539.543 432.141L539.188 431.206L538.253 431.562ZM536.815 427.782L536.459 426.847L535.524 427.203L535.88 428.137L536.815 427.782ZM544.709 424.778L545.643 424.423L545.288 423.488L544.353 423.844L544.709 424.778ZM546.147 428.558L545.212 428.914L545.568 429.849L546.502 429.493L546.147 428.558ZM549.816 427.162L550.171 428.097L551.106 427.741L550.75 426.807L549.816 427.162ZM527.75 369.171C530.148 368.259 532.567 367.862 535.015 367.973L535.105 365.975C532.373 365.851 529.682 366.296 527.039 367.302L527.75 369.171ZM535.015 367.973C537.475 368.085 539.779 368.654 541.935 369.68L542.794 367.874C540.391 366.731 537.825 366.099 535.105 365.975L535.015 367.973ZM541.975 369.698C544.174 370.627 546.131 371.969 547.851 373.733L549.283 372.337C547.383 370.388 545.205 368.891 542.753 367.856L541.975 369.698ZM547.851 373.733C549.561 375.488 550.873 377.559 551.785 379.957L553.654 379.245C552.649 376.603 551.192 374.296 549.283 372.337L547.851 373.733ZM551.785 379.957L570.949 430.322L572.818 429.61L553.654 379.245L551.785 379.957ZM570.949 430.322C571.755 432.441 571.69 434.529 570.741 436.645L572.565 437.463C573.728 434.872 573.817 432.235 572.818 429.61L570.949 430.322ZM570.741 436.645C569.791 438.76 568.275 440.197 566.155 441.003L566.867 442.872C569.491 441.874 571.403 440.054 572.565 437.463L570.741 436.645ZM566.155 441.003L552.591 446.164L553.303 448.034L566.867 442.872L566.155 441.003ZM552.012 447.455L555.27 456.016L557.139 455.304L553.882 446.743L552.012 447.455ZM555.849 454.725L547.955 457.729L548.666 459.598L556.56 456.595L555.849 454.725ZM549.245 458.308L545.988 449.747L544.119 450.458L547.376 459.019L549.245 458.308ZM544.698 449.168L530.022 454.752L530.733 456.621L545.409 451.037L544.698 449.168ZM530.022 454.752C527.902 455.559 525.815 455.494 523.699 454.544L522.88 456.369C525.471 457.531 528.109 457.62 530.733 456.621L530.022 454.752ZM523.699 454.544C521.583 453.594 520.147 452.078 519.34 449.959L517.471 450.67C518.469 453.294 520.289 455.206 522.88 456.369L523.699 454.544ZM519.34 449.959L493.154 381.138L491.284 381.849L517.471 450.67L519.34 449.959ZM492.575 382.428L527.374 369.187L526.663 367.317L491.863 380.559L492.575 382.428ZM527.06 369.251L527.436 369.235L527.353 367.237L526.977 367.253L527.06 369.251ZM536.536 389.45C536.096 388.292 535.269 387.468 534.11 387.028L533.4 388.897C534.026 389.136 534.43 389.54 534.667 390.161L536.536 389.45ZM534.217 387.076C533.118 386.503 531.952 386.433 530.795 386.873L531.506 388.743C532.128 388.506 532.698 388.539 533.293 388.849L534.217 387.076ZM530.795 386.873L517.675 391.865L518.387 393.735L531.506 388.743L530.795 386.873ZM517.096 393.156L532.538 433.737L534.407 433.025L518.966 392.444L517.096 393.156ZM533.828 434.316L538.609 432.497L537.897 430.627L533.117 432.446L533.828 434.316ZM539.188 431.206L537.749 427.426L535.88 428.137L537.318 431.918L539.188 431.206ZM537.17 428.716L545.064 425.713L544.353 423.844L536.459 426.847L537.17 428.716ZM543.774 425.134L545.212 428.914L547.081 428.203L545.643 424.423L543.774 425.134ZM546.502 429.493L550.171 428.097L549.46 426.228L545.791 427.624L546.502 429.493ZM550.75 426.807L536.536 389.45L534.667 390.161L548.881 427.518L550.75 426.807Z" fill="#B3FF52" mask="url(#path-17-outside-9_801_941)"/>
<mask id="path-19-outside-10_801_941" maskUnits="userSpaceOnUse" x="548.148" y="336.384" width="88.2252" height="103.125" fill="black">
<rect fill="white" x="548.148" y="336.384" width="88.2252" height="103.125"/>
<path d="M634.3 416.21L633.967 416.338L634.31 417.226L580.815 437.863L580.472 436.975L580.25 437.061L550.279 359.371L568.703 352.264L592.209 413.195L609.411 406.558L585.906 345.627L604.329 338.52L634.3 416.21Z"/>
</mask>
<path d="M634.3 416.21L634.66 417.143L635.593 416.783L635.233 415.85L634.3 416.21ZM633.967 416.338L633.607 415.405L632.674 415.765L633.034 416.698L633.967 416.338ZM634.31 417.226L634.669 418.159L635.602 417.799L635.243 416.866L634.31 417.226ZM580.815 437.863L579.882 438.223L580.242 439.156L581.175 438.796L580.815 437.863ZM580.472 436.975L581.405 436.615L581.045 435.682L580.112 436.042L580.472 436.975ZM580.25 437.061L579.317 437.421L579.677 438.354L580.61 437.994L580.25 437.061ZM550.279 359.371L549.919 358.438L548.986 358.798L549.346 359.731L550.279 359.371ZM568.703 352.264L569.636 351.904L569.276 350.971L568.343 351.331L568.703 352.264ZM592.209 413.195L591.276 413.555L591.636 414.488L592.569 414.128L592.209 413.195ZM609.411 406.558L609.771 407.491L610.704 407.131L610.344 406.198L609.411 406.558ZM585.906 345.627L585.546 344.694L584.613 345.054L584.973 345.987L585.906 345.627ZM604.329 338.52L605.262 338.16L604.902 337.227L603.969 337.587L604.329 338.52ZM633.94 415.277L633.607 415.405L634.327 417.271L634.66 417.143L633.94 415.277ZM633.034 416.698L633.377 417.586L635.243 416.866L634.9 415.978L633.034 416.698ZM633.95 416.293L580.455 436.93L581.175 438.796L634.669 418.159L633.95 416.293ZM581.748 437.503L581.405 436.615L579.539 437.335L579.882 438.223L581.748 437.503ZM580.112 436.042L579.89 436.128L580.61 437.994L580.832 437.908L580.112 436.042ZM581.183 436.701L551.212 359.011L549.346 359.731L579.317 437.421L581.183 436.701ZM550.639 360.304L569.063 353.197L568.343 351.331L549.919 358.438L550.639 360.304ZM567.77 352.624L591.276 413.555L593.142 412.835L569.636 351.904L567.77 352.624ZM592.569 414.128L609.771 407.491L609.051 405.625L591.849 412.262L592.569 414.128ZM610.344 406.198L586.839 345.267L584.973 345.987L608.478 406.918L610.344 406.198ZM586.266 346.56L604.689 339.453L603.969 337.587L585.546 344.694L586.266 346.56ZM603.396 338.88L633.367 416.57L635.233 415.85L605.262 338.16L603.396 338.88Z" fill="#B3FF52" mask="url(#path-19-outside-10_801_941)"/>
<mask id="path-21-outside-11_801_941" maskUnits="userSpaceOnUse" x="606.426" y="313.479" width="89.1566" height="103.484" fill="black">
<rect fill="white" x="606.426" y="313.479" width="89.1566" height="103.484"/>
<path d="M669.945 333.673L645.306 343.177C652.015 344.924 657.36 346.22 661.34 347.064C665.395 347.88 668.459 348.441 670.532 348.746C672.958 349.086 674.643 349.158 675.588 348.963L681.625 364.613L646.553 378.141L650.706 388.907L685.777 375.378L692.841 393.691L639.235 414.369L627.761 384.625C626.962 382.553 626.738 380.43 627.089 378.254C627.485 375.977 628.277 373.843 629.465 371.855C630.727 369.838 632.252 368.06 634.038 366.521C635.87 364.88 637.821 363.659 639.893 362.86L647.218 360.034L615.672 354.608L608.78 336.739L662.83 315.89L669.945 333.673Z"/>
</mask>
<path d="M669.945 333.673L670.305 334.606L671.249 334.241L670.873 333.301L669.945 333.673ZM645.306 343.177L644.946 342.244L642.048 343.362L645.054 344.145L645.306 343.177ZM661.34 347.064L661.133 348.043L661.143 348.045L661.34 347.064ZM670.532 348.746L670.386 349.736L670.393 349.737L670.532 348.746ZM675.588 348.963L676.521 348.604L676.216 347.813L675.386 347.984L675.588 348.963ZM681.625 364.613L681.984 365.546L682.917 365.186L682.558 364.253L681.625 364.613ZM646.553 378.141L646.193 377.208L645.26 377.568L645.62 378.501L646.553 378.141ZM650.706 388.907L649.773 389.267L650.133 390.2L651.066 389.84L650.706 388.907ZM685.777 375.378L686.71 375.018L686.35 374.085L685.417 374.445L685.777 375.378ZM692.841 393.691L693.201 394.624L694.134 394.264L693.774 393.331L692.841 393.691ZM639.235 414.369L638.302 414.729L638.662 415.662L639.595 415.302L639.235 414.369ZM627.089 378.254L626.104 378.083L626.102 378.095L627.089 378.254ZM629.465 371.855L628.618 371.325L628.612 371.333L628.607 371.342L629.465 371.855ZM634.038 366.521L634.691 367.279L634.698 367.272L634.705 367.266L634.038 366.521ZM647.218 360.034L647.578 360.967L650.959 359.663L647.388 359.049L647.218 360.034ZM615.672 354.608L614.739 354.968L614.944 355.497L615.503 355.594L615.672 354.608ZM608.78 336.739L608.42 335.806L607.487 336.166L607.847 337.099L608.78 336.739ZM662.83 315.89L663.758 315.518L663.391 314.601L662.47 314.957L662.83 315.89ZM669.585 332.74L644.946 342.244L645.666 344.11L670.305 334.606L669.585 332.74ZM645.054 344.145C651.769 345.893 657.13 347.194 661.133 348.043L661.548 346.086C657.589 345.246 652.261 343.955 645.558 342.209L645.054 344.145ZM661.143 348.045C665.202 348.861 668.286 349.426 670.386 349.736L670.677 347.757C668.631 347.456 665.588 346.899 661.538 346.084L661.143 348.045ZM670.393 349.737C672.81 350.075 674.655 350.176 675.79 349.943L675.386 347.984C674.631 348.139 673.105 348.097 670.67 347.756L670.393 349.737ZM674.655 349.323L680.692 364.972L682.558 364.253L676.521 348.604L674.655 349.323ZM681.265 363.68L646.193 377.208L646.913 379.074L681.984 365.546L681.265 363.68ZM645.62 378.501L649.773 389.267L651.639 388.547L647.486 377.781L645.62 378.501ZM651.066 389.84L686.137 376.311L685.417 374.445L650.346 387.974L651.066 389.84ZM684.844 375.738L691.908 394.051L693.774 393.331L686.71 375.018L684.844 375.738ZM692.482 392.758L638.875 413.436L639.595 415.302L693.201 394.624L692.482 392.758ZM640.168 414.009L628.694 384.265L626.828 384.985L638.302 414.729L640.168 414.009ZM628.694 384.265C627.958 382.357 627.754 380.413 628.076 378.414L626.102 378.095C625.722 380.447 625.966 382.749 626.828 384.985L628.694 384.265ZM628.074 378.426C628.449 376.269 629.198 374.251 630.324 372.368L628.607 371.342C627.356 373.435 626.521 375.684 626.104 378.083L628.074 378.426ZM630.313 372.386C631.522 370.453 632.981 368.752 634.691 367.279L633.385 365.764C631.522 367.369 629.932 369.224 628.618 371.325L630.313 372.386ZM634.705 367.266C636.457 365.697 638.306 364.544 640.253 363.793L639.533 361.927C637.337 362.774 635.283 364.063 633.371 365.777L634.705 367.266ZM640.253 363.793L647.578 360.967L646.858 359.101L639.533 361.927L640.253 363.793ZM647.388 359.049L615.842 353.623L615.503 355.594L647.049 361.02L647.388 359.049ZM616.605 354.248L609.713 336.379L607.847 337.099L614.739 354.968L616.605 354.248ZM609.139 337.672L663.19 316.823L662.47 314.957L608.42 335.806L609.139 337.672ZM661.901 316.261L669.016 334.044L670.873 333.301L663.758 315.518L661.901 316.261Z" fill="#B3FF52" mask="url(#path-21-outside-11_801_941)"/>
<mask id="path-23-outside-12_801_941" maskUnits="userSpaceOnUse" x="664.778" y="289.836" width="92.5888" height="104.765" fill="black">
<rect fill="white" x="664.778" y="289.836" width="92.5888" height="104.765"/>
<path d="M713.388 359.646L709.016 369.577L714.929 385.146L696.469 392.157L666.904 314.312L720.506 293.955L722.914 300.294L723.025 300.251L730.796 320.714L726.202 330.73L721.692 340.968L754.926 370.847L734.575 378.576L713.388 359.646ZM699.26 343.888L708.418 323.105L706.982 319.324L692.08 324.983L699.26 343.888Z"/>
</mask>
<path d="M713.388 359.646L714.055 358.9L713.028 357.983L712.473 359.243L713.388 359.646ZM709.016 369.577L708.101 369.174L707.936 369.549L708.081 369.932L709.016 369.577ZM714.929 385.146L715.284 386.081L716.219 385.726L715.864 384.791L714.929 385.146ZM696.469 392.157L695.534 392.512L695.889 393.447L696.824 393.092L696.469 392.157ZM666.904 314.312L666.549 313.377L665.614 313.732L665.969 314.667L666.904 314.312ZM720.506 293.955L721.441 293.6L721.086 292.665L720.151 293.02L720.506 293.955ZM722.914 300.294L721.979 300.649L722.334 301.584L723.269 301.228L722.914 300.294ZM723.025 300.251L723.96 299.896L723.605 298.962L722.67 299.317L723.025 300.251ZM730.796 320.714L731.705 321.131L731.88 320.75L731.731 320.359L730.796 320.714ZM726.202 330.73L725.293 330.313L725.29 330.32L725.286 330.326L726.202 330.73ZM721.692 340.968L720.777 340.565L720.485 341.227L721.023 341.712L721.692 340.968ZM754.926 370.847L755.281 371.782L756.814 371.199L755.594 370.103L754.926 370.847ZM734.575 378.576L733.909 379.322L734.362 379.726L734.93 379.511L734.575 378.576ZM699.26 343.888L698.325 344.243L699.191 346.524L700.175 344.292L699.26 343.888ZM708.418 323.105L709.333 323.508L709.498 323.133L709.353 322.75L708.418 323.105ZM706.982 319.324L707.917 318.969L707.562 318.034L706.627 318.389L706.982 319.324ZM692.08 324.983L691.725 324.048L690.79 324.403L691.145 325.338L692.08 324.983ZM712.473 359.243L708.101 369.174L709.931 369.98L714.303 360.049L712.473 359.243ZM708.081 369.932L713.994 385.501L715.864 384.791L709.951 369.222L708.081 369.932ZM714.574 384.211L696.114 391.222L696.824 393.092L715.284 386.081L714.574 384.211ZM697.404 391.802L667.839 313.957L665.969 314.667L695.534 392.512L697.404 391.802ZM667.259 315.247L720.861 294.89L720.151 293.02L666.549 313.377L667.259 315.247ZM719.571 294.31L721.979 300.649L723.848 299.939L721.441 293.6L719.571 294.31ZM723.269 301.228L723.38 301.186L722.67 299.317L722.559 299.359L723.269 301.228ZM722.09 300.606L729.861 321.069L731.731 320.359L723.96 299.896L722.09 300.606ZM729.887 320.297L725.293 330.313L727.111 331.146L731.705 321.131L729.887 320.297ZM725.286 330.326L720.777 340.565L722.607 341.371L727.117 331.133L725.286 330.326ZM721.023 341.712L754.257 371.59L755.594 370.103L722.36 340.224L721.023 341.712ZM754.571 369.912L734.22 377.641L734.93 379.511L755.281 371.782L754.571 369.912ZM735.241 377.83L714.055 358.9L712.722 360.391L733.909 379.322L735.241 377.83ZM700.175 344.292L709.333 323.508L707.503 322.701L698.345 343.485L700.175 344.292ZM709.353 322.75L707.917 318.969L706.047 319.679L707.483 323.46L709.353 322.75ZM706.627 318.389L691.725 324.048L692.435 325.918L707.337 320.258L706.627 318.389ZM691.145 325.338L698.325 344.243L700.195 343.533L693.015 324.628L691.145 325.338Z" fill="#B3FF52" mask="url(#path-23-outside-12_801_941)"/>
<mask id="path-25-outside-13_801_941" maskUnits="userSpaceOnUse" x="765.764" y="247.994" width="74.7129" height="73.5005" fill="black">
<rect fill="white" x="765.764" y="247.994" width="74.7129" height="73.5005"/>
<path d="M799.553 257.45L804.981 279.763L824.338 266.044L829.581 275.793L809.563 284.823L829.208 297.774L821.448 306.476L804.934 290.261L803.296 312.946L791.446 311.234L798.246 288.857L777.253 294.445L775.147 283.577L798.594 282.039L788.572 261.364L799.553 257.45Z"/>
</mask>
<path d="M799.553 257.45L800.525 257.214L800.263 256.136L799.218 256.508L799.553 257.45ZM804.981 279.763L804.009 279.999L804.357 281.43L805.559 280.579L804.981 279.763ZM824.338 266.044L825.219 265.57L824.683 264.573L823.76 265.228L824.338 266.044ZM829.581 275.793L829.993 276.705L830.97 276.264L830.462 275.32L829.581 275.793ZM809.563 284.823L809.152 283.911L807.496 284.658L809.012 285.658L809.563 284.823ZM829.208 297.774L829.954 298.44L830.724 297.576L829.758 296.939L829.208 297.774ZM821.448 306.476L820.748 307.189L821.496 307.924L822.195 307.141L821.448 306.476ZM804.934 290.261L805.635 289.548L804.093 288.034L803.937 290.189L804.934 290.261ZM803.296 312.946L803.153 313.936L804.216 314.089L804.293 313.018L803.296 312.946ZM791.446 311.234L790.489 310.943L790.151 312.057L791.303 312.224L791.446 311.234ZM798.246 288.857L799.202 289.148L799.725 287.428L797.988 287.891L798.246 288.857ZM777.253 294.445L776.271 294.635L776.475 295.687L777.51 295.412L777.253 294.445ZM775.147 283.577L775.082 282.579L773.95 282.654L774.166 283.767L775.147 283.577ZM798.594 282.039L798.659 283.037L800.142 282.94L799.494 281.603L798.594 282.039ZM788.572 261.364L788.237 260.422L787.186 260.797L787.672 261.8L788.572 261.364ZM798.582 257.686L804.009 279.999L805.953 279.527L800.525 257.214L798.582 257.686ZM805.559 280.579L824.916 266.859L823.76 265.228L804.403 278.947L805.559 280.579ZM823.457 266.517L828.701 276.267L830.462 275.32L825.219 265.57L823.457 266.517ZM829.17 274.882L809.152 283.911L809.974 285.734L829.993 276.705L829.17 274.882ZM809.012 285.658L828.657 298.609L829.758 296.939L810.113 283.988L809.012 285.658ZM828.461 297.109L820.702 305.81L822.195 307.141L829.954 298.44L828.461 297.109ZM822.149 305.762L805.635 289.548L804.234 290.975L820.748 307.189L822.149 305.762ZM803.937 290.189L802.298 312.874L804.293 313.018L805.932 290.333L803.937 290.189ZM803.439 311.956L791.589 310.244L791.303 312.224L803.153 313.936L803.439 311.956ZM792.403 311.525L799.202 289.148L797.289 288.566L790.489 310.943L792.403 311.525ZM797.988 287.891L776.996 293.479L777.51 295.412L798.503 289.823L797.988 287.891ZM778.235 294.255L776.129 283.387L774.166 283.767L776.271 294.635L778.235 294.255ZM775.213 284.575L798.659 283.037L798.528 281.042L775.082 282.579L775.213 284.575ZM799.494 281.603L789.472 260.928L787.672 261.8L797.694 282.476L799.494 281.603ZM788.908 262.306L799.889 258.392L799.218 256.508L788.237 260.422L788.908 262.306Z" fill="#B3FF52" mask="url(#path-25-outside-13_801_941)"/>
<mask id="path-27-outside-14_801_941" maskUnits="userSpaceOnUse" x="862.999" y="223.205" width="83.1295" height="100.084" fill="black">
<rect fill="white" x="862.999" y="223.205" width="83.1295" height="100.084"/>
<path d="M936.722 279.31L944.609 304.263L890.278 321.437L865.325 242.492L919.656 225.319L929.3 255.831L910.471 261.782L906.743 249.986L890.069 255.256L903.155 296.657L919.829 291.386L917.857 285.148L936.722 279.31Z"/>
</mask>
<path d="M936.722 279.31L937.675 279.008L937.376 278.061L936.426 278.354L936.722 279.31ZM944.609 304.263L944.911 305.217L945.864 304.916L945.563 303.962L944.609 304.263ZM890.278 321.437L889.325 321.738L889.626 322.692L890.579 322.39L890.278 321.437ZM865.325 242.492L865.023 241.539L864.07 241.84L864.371 242.794L865.325 242.492ZM919.656 225.319L920.609 225.018L920.308 224.064L919.355 224.365L919.656 225.319ZM929.3 255.831L929.602 256.784L930.555 256.483L930.254 255.529L929.3 255.831ZM910.471 261.782L909.518 262.083L909.819 263.037L910.773 262.736L910.471 261.782ZM906.743 249.986L907.696 249.684L907.395 248.731L906.441 249.032L906.743 249.986ZM890.069 255.256L889.768 254.303L888.814 254.604L889.116 255.557L890.069 255.256ZM903.155 296.657L902.202 296.958L902.503 297.911L903.457 297.61L903.155 296.657ZM919.829 291.386L920.13 292.34L921.084 292.038L920.782 291.085L919.829 291.386ZM917.857 285.148L917.561 284.193L916.6 284.49L916.904 285.449L917.857 285.148ZM935.768 279.611L943.656 304.565L945.563 303.962L937.675 279.008L935.768 279.611ZM944.308 303.31L889.977 320.483L890.579 322.39L944.911 305.217L944.308 303.31ZM891.232 321.135L866.278 242.191L864.371 242.794L889.325 321.738L891.232 321.135ZM865.626 243.446L919.957 226.272L919.355 224.365L865.023 241.539L865.626 243.446ZM918.702 225.62L928.347 256.132L930.254 255.529L920.609 225.018L918.702 225.62ZM928.999 254.877L910.17 260.829L910.773 262.736L929.602 256.784L928.999 254.877ZM911.425 261.481L907.696 249.684L905.789 250.287L909.518 262.083L911.425 261.481ZM906.441 249.032L889.768 254.303L890.371 256.21L907.044 250.939L906.441 249.032ZM889.116 255.557L902.202 296.958L904.109 296.355L891.023 254.955L889.116 255.557ZM903.457 297.61L920.13 292.34L919.528 290.433L902.854 295.703L903.457 297.61ZM920.782 291.085L918.811 284.846L916.904 285.449L918.875 291.688L920.782 291.085ZM918.153 286.103L937.017 280.265L936.426 278.354L917.561 284.193L918.153 286.103Z" fill="#B3FF52" mask="url(#path-27-outside-14_801_941)"/>
<mask id="path-29-outside-15_801_941" maskUnits="userSpaceOnUse" x="925.25" y="203.78" width="87.0496" height="101.595" fill="black">
<rect fill="white" x="925.25" y="203.78" width="87.0496" height="101.595"/>
<path d="M969.526 272.142L964.284 281.643L968.784 297.678L949.771 303.013L927.275 222.839L982.48 207.349L984.312 213.877L984.427 213.845L990.34 234.919L984.869 244.485L979.463 254.28L1009.9 287.007L988.937 292.888L969.526 272.142ZM956.861 255.186L967.837 235.303L966.745 231.409L951.397 235.715L956.861 255.186Z"/>
</mask>
<path d="M969.526 272.142L970.256 271.459L969.315 270.453L968.65 271.659L969.526 272.142ZM964.284 281.643L963.409 281.16L963.211 281.519L963.322 281.913L964.284 281.643ZM968.784 297.678L969.054 298.641L970.017 298.371L969.746 297.408L968.784 297.678ZM949.771 303.013L948.808 303.283L949.078 304.246L950.041 303.976L949.771 303.013ZM927.275 222.839L927.005 221.876L926.042 222.146L926.312 223.109L927.275 222.839ZM982.48 207.349L983.443 207.079L983.173 206.116L982.21 206.386L982.48 207.349ZM984.312 213.877L983.349 214.147L983.619 215.11L984.582 214.84L984.312 213.877ZM984.427 213.845L985.389 213.575L985.119 212.612L984.156 212.882L984.427 213.845ZM990.34 234.919L991.208 235.416L991.416 235.052L991.303 234.649L990.34 234.919ZM984.869 244.485L984.001 243.989L983.998 243.995L983.994 244.002L984.869 244.485ZM979.463 254.28L978.588 253.797L978.238 254.431L978.731 254.961L979.463 254.28ZM1009.9 287.007L1010.17 287.97L1011.75 287.527L1010.63 286.326L1009.9 287.007ZM988.937 292.888L988.207 293.571L988.622 294.015L989.208 293.851L988.937 292.888ZM956.861 255.186L955.898 255.456L956.557 257.805L957.736 255.669L956.861 255.186ZM967.837 235.303L968.713 235.786L968.911 235.427L968.8 235.033L967.837 235.303ZM966.745 231.409L967.708 231.139L967.437 230.176L966.475 230.446L966.745 231.409ZM951.397 235.715L951.127 234.752L950.164 235.022L950.434 235.985L951.397 235.715ZM968.65 271.659L963.409 281.16L965.16 282.126L970.401 272.625L968.65 271.659ZM963.322 281.913L967.821 297.948L969.746 297.408L965.247 281.373L963.322 281.913ZM968.513 296.715L949.501 302.05L950.041 303.976L969.054 298.641L968.513 296.715ZM950.734 302.743L928.238 222.569L926.312 223.109L948.808 303.283L950.734 302.743ZM927.545 223.802L982.75 208.312L982.21 206.386L927.005 221.876L927.545 223.802ZM981.517 207.619L983.349 214.147L985.275 213.607L983.443 207.079L981.517 207.619ZM984.582 214.84L984.697 214.808L984.156 212.882L984.042 212.914L984.582 214.84ZM983.464 214.115L989.377 235.19L991.303 234.649L985.389 213.575L983.464 214.115ZM989.472 234.423L984.001 243.989L985.738 244.982L991.208 235.416L989.472 234.423ZM983.994 244.002L978.588 253.797L980.339 254.763L985.745 244.968L983.994 244.002ZM978.731 254.961L1009.16 287.688L1010.63 286.326L980.196 253.599L978.731 254.961ZM1009.63 286.044L988.667 291.925L989.208 293.851L1010.17 287.97L1009.63 286.044ZM989.668 292.205L970.256 271.459L968.795 272.825L988.207 293.571L989.668 292.205ZM957.736 255.669L968.713 235.786L966.962 234.82L955.985 254.703L957.736 255.669ZM968.8 235.033L967.708 231.139L965.782 231.679L966.875 235.573L968.8 235.033ZM966.475 230.446L951.127 234.752L951.667 236.678L967.015 232.372L966.475 230.446ZM950.434 235.985L955.898 255.456L957.823 254.916L952.36 235.445L950.434 235.985Z" fill="#B3FF52" mask="url(#path-29-outside-15_801_941)"/>
<mask id="path-31-outside-16_801_941" maskUnits="userSpaceOnUse" x="993.098" y="188.361" width="80.4333" height="98.9765" fill="black">
<rect fill="white" x="993.098" y="188.361" width="80.4333" height="98.9765"/>
<path d="M1056.32 209.134L1030.63 215.239C1037.04 217.872 1042.17 219.875 1046 221.247C1049.91 222.601 1052.87 223.568 1054.88 224.149C1057.24 224.812 1058.9 225.11 1059.86 225.044L1063.74 241.363L1027.17 250.053L1029.83 261.28L1066.41 252.589L1070.94 271.686L1015.04 284.968L1007.67 253.951C1007.16 251.791 1007.22 249.657 1007.86 247.548C1008.56 245.344 1009.63 243.337 1011.08 241.527C1012.6 239.698 1014.35 238.141 1016.33 236.856C1018.36 235.476 1020.46 234.529 1022.62 234.015L1030.26 232.2L999.73 222.582L995.302 203.948L1051.67 190.555L1056.32 209.134Z"/>
</mask>
<path d="M1056.32 209.134L1056.56 210.107L1057.54 209.873L1057.29 208.89L1056.32 209.134ZM1030.63 215.239L1030.4 214.266L1027.38 214.984L1030.25 216.164L1030.63 215.239ZM1046 221.247L1045.66 222.188L1045.67 222.192L1046 221.247ZM1054.88 224.149L1054.6 225.11L1054.61 225.112L1054.88 224.149ZM1059.86 225.044L1060.83 224.813L1060.64 223.989L1059.79 224.047L1059.86 225.044ZM1063.74 241.363L1063.97 242.336L1064.94 242.105L1064.71 241.132L1063.74 241.363ZM1027.17 250.053L1026.93 249.08L1025.96 249.312L1026.19 250.284L1027.17 250.053ZM1029.83 261.28L1028.86 261.511L1029.09 262.484L1030.06 262.252L1029.83 261.28ZM1066.41 252.589L1067.38 252.358L1067.15 251.385L1066.17 251.616L1066.41 252.589ZM1070.94 271.686L1071.17 272.658L1072.15 272.427L1071.92 271.454L1070.94 271.686ZM1015.04 284.968L1014.07 285.2L1014.3 286.173L1015.27 285.941L1015.04 284.968ZM1007.86 247.548L1006.91 247.246L1006.91 247.258L1007.86 247.548ZM1011.08 241.527L1010.31 240.887L1010.3 240.895L1010.3 240.903L1011.08 241.527ZM1016.33 236.856L1016.87 237.694L1016.88 237.689L1016.89 237.684L1016.33 236.856ZM1030.26 232.2L1030.49 233.173L1034.02 232.335L1030.56 231.247L1030.26 232.2ZM999.73 222.582L998.757 222.813L998.888 223.365L999.43 223.535L999.73 222.582ZM995.302 203.948L995.071 202.975L994.098 203.207L994.33 204.179L995.302 203.948ZM1051.67 190.555L1052.64 190.312L1052.4 189.354L1051.43 189.582L1051.67 190.555ZM1056.09 208.161L1030.4 214.266L1030.86 216.212L1056.56 210.107L1056.09 208.161ZM1030.25 216.164C1036.67 218.8 1041.81 220.809 1045.66 222.188L1046.33 220.305C1042.52 218.941 1037.42 216.945 1031.01 214.314L1030.25 216.164ZM1045.67 222.192C1049.58 223.547 1052.56 224.521 1054.6 225.11L1055.16 223.189C1053.17 222.615 1050.23 221.654 1046.32 220.302L1045.67 222.192ZM1054.61 225.112C1056.96 225.772 1058.77 226.121 1059.93 226.042L1059.79 224.047C1059.02 224.099 1057.52 223.851 1055.15 223.187L1054.61 225.112ZM1058.89 225.276L1062.77 241.594L1064.71 241.132L1060.83 224.813L1058.89 225.276ZM1063.51 240.39L1026.93 249.08L1027.4 251.026L1063.97 242.336L1063.51 240.39ZM1026.19 250.284L1028.86 261.511L1030.81 261.048L1028.14 249.822L1026.19 250.284ZM1030.06 262.252L1066.64 253.562L1066.17 251.616L1029.6 260.307L1030.06 262.252ZM1065.43 252.82L1069.97 271.917L1071.92 271.454L1067.38 252.358L1065.43 252.82ZM1070.71 270.713L1014.81 283.996L1015.27 285.941L1071.17 272.658L1070.71 270.713ZM1016.02 284.737L1008.65 253.72L1006.7 254.183L1014.07 285.2L1016.02 284.737ZM1008.65 253.72C1008.17 251.731 1008.23 249.776 1008.82 247.839L1006.91 247.258C1006.21 249.537 1006.15 251.851 1006.7 254.183L1008.65 253.72ZM1008.82 247.851C1009.48 245.764 1010.49 243.865 1011.86 242.15L1010.3 240.903C1008.78 242.809 1007.65 244.925 1006.91 247.246L1008.82 247.851ZM1011.85 242.166C1013.31 240.414 1014.98 238.924 1016.87 237.694L1015.78 236.018C1013.72 237.358 1011.9 238.982 1010.31 240.887L1011.85 242.166ZM1016.89 237.684C1018.83 236.364 1020.82 235.471 1022.85 234.988L1022.39 233.042C1020.1 233.587 1017.89 234.587 1015.77 236.028L1016.89 237.684ZM1022.85 234.988L1030.49 233.173L1030.03 231.227L1022.39 233.042L1022.85 234.988ZM1030.56 231.247L1000.03 221.628L999.43 223.535L1029.96 233.154L1030.56 231.247ZM1000.7 222.35L996.275 203.717L994.33 204.179L998.757 222.813L1000.7 222.35ZM995.534 204.921L1051.9 191.528L1051.43 189.582L995.071 202.975L995.534 204.921ZM1050.7 190.799L1055.35 209.377L1057.29 208.89L1052.64 190.312L1050.7 190.799Z" fill="#B3FF52" mask="url(#path-31-outside-16_801_941)"/>
<mask id="path-33-outside-17_801_941" maskUnits="userSpaceOnUse" x="1061.23" y="172.512" width="91.5117" height="98.7017" fill="black">
<rect fill="white" x="1061.23" y="172.512" width="91.5117" height="98.7017"/>
<path d="M1092.9 182.512L1150.2 256.501L1130.79 260.135L1112.58 236.556L1094.96 252.321L1097.59 266.352L1078.18 269.986L1062.85 188.138L1092.9 182.512ZM1100 220.396L1085.46 201.575L1090.67 229.403C1092.26 227.976 1093.87 226.464 1095.51 224.867C1097.21 223.177 1098.74 221.679 1100.11 220.374L1100 220.396Z"/>
</mask>
<path d="M1092.9 182.512L1093.69 181.9L1093.32 181.416L1092.72 181.529L1092.9 182.512ZM1150.2 256.501L1150.39 257.483L1152 257.182L1150.99 255.888L1150.2 256.501ZM1130.79 260.135L1130 260.746L1130.38 261.23L1130.98 261.118L1130.79 260.135ZM1112.58 236.556L1113.37 235.945L1112.72 235.094L1111.92 235.811L1112.58 236.556ZM1094.96 252.321L1094.29 251.576L1093.87 251.951L1093.98 252.505L1094.96 252.321ZM1097.59 266.352L1097.77 267.335L1098.75 267.151L1098.57 266.168L1097.59 266.352ZM1078.18 269.986L1077.19 270.17L1077.38 271.153L1078.36 270.969L1078.18 269.986ZM1062.85 188.138L1062.67 187.155L1061.69 187.339L1061.87 188.322L1062.85 188.138ZM1100 220.396L1099.2 221.007L1099.58 221.491L1100.18 221.379L1100 220.396ZM1085.46 201.575L1086.25 200.964L1084.48 201.759L1085.46 201.575ZM1090.67 229.403L1089.69 229.587L1090.01 231.336L1091.34 230.147L1090.67 229.403ZM1095.51 224.867L1096.21 225.583L1096.21 225.576L1095.51 224.867ZM1100.11 220.374L1100.8 221.098L1103.24 218.77L1099.93 219.391L1100.11 220.374ZM1092.11 183.124L1149.41 257.113L1150.99 255.888L1093.69 181.9L1092.11 183.124ZM1150.02 255.518L1130.61 259.152L1130.98 261.118L1150.39 257.483L1150.02 255.518ZM1131.59 259.523L1113.37 235.945L1111.79 237.167L1130 260.746L1131.59 259.523ZM1111.92 235.811L1094.29 251.576L1095.63 253.066L1113.25 237.301L1111.92 235.811ZM1093.98 252.505L1096.6 266.536L1098.57 266.168L1095.94 252.137L1093.98 252.505ZM1097.4 265.369L1077.99 269.003L1078.36 270.969L1097.77 267.335L1097.4 265.369ZM1079.16 269.802L1063.84 187.954L1061.87 188.322L1077.19 270.17L1079.16 269.802ZM1063.04 189.121L1093.09 183.495L1092.72 181.529L1062.67 187.155L1063.04 189.121ZM1100.79 219.784L1086.25 200.964L1084.67 202.186L1099.2 221.007L1100.79 219.784ZM1084.48 201.759L1089.69 229.587L1091.65 229.219L1086.44 201.391L1084.48 201.759ZM1091.34 230.147C1092.94 228.711 1094.56 227.189 1096.21 225.583L1094.81 224.151C1093.18 225.74 1091.58 227.242 1090 228.66L1091.34 230.147ZM1096.21 225.576C1097.91 223.89 1099.44 222.397 1100.8 221.098L1099.42 219.65C1098.05 220.961 1096.51 222.464 1094.8 224.157L1096.21 225.576ZM1099.93 219.391L1099.81 219.413L1100.18 221.379L1100.3 221.357L1099.93 219.391Z" fill="#B3FF52" mask="url(#path-33-outside-17_801_941)"/>
<mask id="path-35-outside-18_801_941" maskUnits="userSpaceOnUse" x="1130.75" y="165.135" width="78.3721" height="93.9401" fill="black">
<rect fill="white" x="1130.75" y="165.135" width="78.3721" height="93.9401"/>
<path d="M1198.96 185.73L1177.13 188.525L1185.32 252.478L1165.74 254.986L1157.55 191.033L1135.13 193.904L1132.74 175.26L1196.58 167.087L1198.96 185.73Z"/>
</mask>
<path d="M1198.96 185.73L1199.09 186.722L1200.08 186.595L1199.96 185.603L1198.96 185.73ZM1177.13 188.525L1177.01 187.533L1176.02 187.66L1176.14 188.652L1177.13 188.525ZM1185.32 252.478L1185.45 253.47L1186.44 253.343L1186.32 252.351L1185.32 252.478ZM1165.74 254.986L1164.74 255.113L1164.87 256.105L1165.86 255.978L1165.74 254.986ZM1157.55 191.033L1158.54 190.906L1158.41 189.914L1157.42 190.041L1157.55 191.033ZM1135.13 193.904L1134.14 194.031L1134.26 195.022L1135.26 194.895L1135.13 193.904ZM1132.74 175.26L1132.61 174.269L1131.62 174.396L1131.75 175.387L1132.74 175.26ZM1196.58 167.087L1197.57 166.96L1197.44 165.968L1196.45 166.095L1196.58 167.087ZM1198.84 184.738L1177.01 187.533L1177.26 189.517L1199.09 186.722L1198.84 184.738ZM1176.14 188.652L1184.33 252.605L1186.32 252.351L1178.13 188.398L1176.14 188.652ZM1185.2 251.486L1165.61 253.994L1165.86 255.978L1185.45 253.47L1185.2 251.486ZM1166.73 254.859L1158.54 190.906L1156.56 191.16L1164.74 255.113L1166.73 254.859ZM1157.42 190.041L1135 192.912L1135.26 194.895L1157.67 192.025L1157.42 190.041ZM1136.12 193.777L1133.73 175.133L1131.75 175.387L1134.14 194.031L1136.12 193.777ZM1132.87 176.252L1196.7 168.079L1196.45 166.095L1132.61 174.269L1132.87 176.252ZM1195.58 167.214L1197.97 185.857L1199.96 185.603L1197.57 166.96L1195.58 167.214Z" fill="#B3FF52" mask="url(#path-35-outside-18_801_941)"/>
<mask id="path-37-outside-19_801_941" maskUnits="userSpaceOnUse" x="1206.22" y="160.514" width="67.4568" height="90.8005" fill="black">
<rect fill="white" x="1206.22" y="160.514" width="67.4568" height="90.8005"/>
<path d="M1267.46 181.48L1241.11 183.175C1246.98 186.85 1251.7 189.686 1255.24 191.683C1258.87 193.675 1261.62 195.126 1263.51 196.038C1265.72 197.088 1267.31 197.661 1268.27 197.759L1269.35 214.497L1231.83 216.91L1232.57 228.425L1270.09 226.012L1271.35 245.6L1214.01 249.288L1211.96 217.473C1211.82 215.257 1212.24 213.164 1213.23 211.193C1214.29 209.138 1215.68 207.34 1217.41 205.798C1219.22 204.251 1221.2 203.011 1223.37 202.077C1225.61 201.059 1227.84 200.479 1230.05 200.336L1237.89 199.832L1209.41 185.214L1208.18 166.101L1265.99 162.382L1267.46 181.48Z"/>
</mask>
<path d="M1267.46 181.48L1267.52 182.478L1268.53 182.413L1268.46 181.403L1267.46 181.48ZM1241.11 183.175L1241.04 182.177L1237.94 182.376L1240.58 184.023L1241.11 183.175ZM1255.24 191.683L1254.75 192.554L1254.76 192.559L1255.24 191.683ZM1263.51 196.038L1263.07 196.939L1263.08 196.942L1263.51 196.038ZM1268.27 197.759L1269.27 197.694L1269.21 196.849L1268.37 196.764L1268.27 197.759ZM1269.35 214.497L1269.41 215.495L1270.41 215.431L1270.34 214.433L1269.35 214.497ZM1231.83 216.91L1231.77 215.912L1230.77 215.976L1230.83 216.974L1231.83 216.91ZM1232.57 228.425L1231.58 228.489L1231.64 229.487L1232.64 229.423L1232.57 228.425ZM1270.09 226.012L1271.08 225.948L1271.02 224.95L1270.02 225.014L1270.09 226.012ZM1271.35 245.6L1271.41 246.597L1272.41 246.533L1272.34 245.535L1271.35 245.6ZM1214.01 249.288L1213.01 249.352L1213.07 250.35L1214.07 250.286L1214.01 249.288ZM1213.23 211.193L1212.34 210.735L1212.33 210.746L1213.23 211.193ZM1217.41 205.798L1216.76 205.038L1216.75 205.045L1216.74 205.052L1217.41 205.798ZM1223.37 202.077L1223.76 202.995L1223.77 202.992L1223.78 202.987L1223.37 202.077ZM1237.89 199.832L1237.95 200.83L1241.57 200.597L1238.34 198.942L1237.89 199.832ZM1209.41 185.214L1208.41 185.278L1208.45 185.844L1208.95 186.103L1209.41 185.214ZM1208.18 166.101L1208.12 165.103L1207.12 165.167L1207.18 166.165L1208.18 166.101ZM1265.99 162.382L1266.99 162.306L1266.91 161.321L1265.93 161.384L1265.99 162.382ZM1267.4 180.482L1241.04 182.177L1241.17 184.173L1267.52 182.478L1267.4 180.482ZM1240.58 184.023C1246.46 187.701 1251.19 190.546 1254.75 192.554L1255.73 190.811C1252.21 188.825 1247.51 185.998 1241.64 182.327L1240.58 184.023ZM1254.76 192.559C1258.39 194.553 1261.16 196.015 1263.07 196.939L1263.94 195.138C1262.08 194.238 1259.35 192.796 1255.72 190.806L1254.76 192.559ZM1263.08 196.942C1265.29 197.988 1267.02 198.637 1268.17 198.753L1268.37 196.764C1267.6 196.686 1266.16 196.188 1263.94 195.135L1263.08 196.942ZM1267.27 197.823L1268.35 214.561L1270.34 214.433L1269.27 197.694L1267.27 197.823ZM1269.28 213.499L1231.77 215.912L1231.9 217.908L1269.41 215.495L1269.28 213.499ZM1230.83 216.974L1231.58 228.489L1233.57 228.361L1232.83 216.846L1230.83 216.974ZM1232.64 229.423L1270.15 227.01L1270.02 225.014L1232.51 227.427L1232.64 229.423ZM1269.09 226.076L1270.35 245.664L1272.34 245.535L1271.08 225.948L1269.09 226.076ZM1271.28 244.602L1213.94 248.29L1214.07 250.286L1271.41 246.597L1271.28 244.602ZM1215.01 249.224L1212.96 217.409L1210.96 217.537L1213.01 249.352L1215.01 249.224ZM1212.96 217.409C1212.83 215.368 1213.21 213.451 1214.12 211.64L1212.33 210.746C1211.27 212.876 1210.81 215.146 1210.96 217.537L1212.96 217.409ZM1214.12 211.651C1215.12 209.706 1216.44 208.005 1218.07 206.545L1216.74 205.052C1214.92 206.675 1213.45 208.571 1212.34 210.735L1214.12 211.651ZM1218.06 206.558C1219.79 205.076 1221.69 203.889 1223.76 202.995L1222.97 201.159C1220.71 202.133 1218.64 203.427 1216.76 205.038L1218.06 206.558ZM1223.78 202.987C1225.92 202.014 1228.03 201.468 1230.12 201.334L1229.99 199.338C1227.64 199.489 1225.29 200.104 1222.95 201.167L1223.78 202.987ZM1230.12 201.334L1237.95 200.83L1237.82 198.834L1229.99 199.338L1230.12 201.334ZM1238.34 198.942L1209.87 184.324L1208.95 186.103L1237.43 200.722L1238.34 198.942ZM1210.41 185.15L1209.18 166.037L1207.18 166.165L1208.41 185.278L1210.41 185.15ZM1208.24 167.099L1266.06 163.38L1265.93 161.384L1208.12 165.103L1208.24 167.099ZM1265 162.459L1266.46 181.556L1268.46 181.403L1266.99 162.306L1265 162.459Z" fill="#B3FF52" mask="url(#path-37-outside-19_801_941)"/>
<mask id="path-39-outside-20_801_941" maskUnits="userSpaceOnUse" x="1319.74" y="152.988" width="61.2314" height="59.3129" fill="black">
<rect fill="white" x="1319.74" y="152.988" width="61.2314" height="59.3129"/>
<path d="M1357.23 155.99L1353.94 178.717L1377.02 173.211L1378.24 184.213L1356.3 185.121L1369.69 204.467L1359.25 209.645L1349.98 188.44L1339.99 208.875L1329.64 202.865L1344.3 184.641L1322.73 181.993L1324.84 171.124L1347.16 178.446L1345.58 155.524L1357.23 155.99Z"/>
</mask>
<path d="M1357.23 155.99L1358.22 156.134L1358.38 155.036L1357.27 154.991L1357.23 155.99ZM1353.94 178.717L1352.95 178.574L1352.74 180.031L1354.17 179.69L1353.94 178.717ZM1377.02 173.211L1378.01 173.101L1377.89 171.976L1376.78 172.239L1377.02 173.211ZM1378.24 184.213L1378.28 185.212L1379.36 185.168L1379.24 184.102L1378.24 184.213ZM1356.3 185.121L1356.26 184.122L1354.45 184.197L1355.48 185.69L1356.3 185.121ZM1369.69 204.467L1370.14 205.363L1371.18 204.849L1370.52 203.898L1369.69 204.467ZM1359.25 209.645L1358.33 210.045L1358.75 211.007L1359.69 210.541L1359.25 209.645ZM1349.98 188.44L1350.89 188.039L1350.03 186.059L1349.08 188.001L1349.98 188.44ZM1339.99 208.875L1339.49 209.739L1340.42 210.279L1340.89 209.314L1339.99 208.875ZM1329.64 202.865L1328.86 202.238L1328.13 203.145L1329.14 203.73L1329.64 202.865ZM1344.3 184.641L1345.08 185.268L1346.2 183.867L1344.42 183.648L1344.3 184.641ZM1322.73 181.993L1321.75 181.803L1321.55 182.854L1322.61 182.985L1322.73 181.993ZM1324.84 171.124L1325.15 170.174L1324.07 169.82L1323.85 170.934L1324.84 171.124ZM1347.16 178.446L1346.85 179.396L1348.26 179.859L1348.16 178.377L1347.16 178.446ZM1345.58 155.524L1345.62 154.525L1344.51 154.481L1344.58 155.593L1345.58 155.524ZM1356.24 155.847L1352.95 178.574L1354.93 178.86L1358.22 156.134L1356.24 155.847ZM1354.17 179.69L1377.25 174.184L1376.78 172.239L1353.71 177.744L1354.17 179.69ZM1376.02 173.322L1377.25 184.324L1379.24 184.102L1378.01 173.101L1376.02 173.322ZM1378.2 183.214L1356.26 184.122L1356.34 186.12L1378.28 185.212L1378.2 183.214ZM1355.48 185.69L1368.87 205.037L1370.52 203.898L1357.12 184.552L1355.48 185.69ZM1369.25 203.571L1358.81 208.749L1359.69 210.541L1370.14 205.363L1369.25 203.571ZM1360.17 209.244L1350.89 188.039L1349.06 188.84L1358.33 210.045L1360.17 209.244ZM1349.08 188.001L1339.09 208.436L1340.89 209.314L1350.88 188.879L1349.08 188.001ZM1340.5 208.01L1330.14 202L1329.14 203.73L1339.49 209.739L1340.5 208.01ZM1330.42 203.492L1345.08 185.268L1343.52 184.014L1328.86 202.238L1330.42 203.492ZM1344.42 183.648L1322.86 181L1322.61 182.985L1344.17 185.633L1344.42 183.648ZM1323.72 182.182L1325.82 171.314L1323.85 170.934L1321.75 181.803L1323.72 182.182ZM1324.52 172.074L1346.85 179.396L1347.48 177.496L1325.15 170.174L1324.52 172.074ZM1348.16 178.377L1346.58 155.455L1344.58 155.593L1346.17 178.515L1348.16 178.377ZM1345.54 156.524L1357.19 156.99L1357.27 154.991L1345.62 154.525L1345.54 156.524Z" fill="#B3FF52" mask="url(#path-39-outside-20_801_941)"/>
<mask id="path-41-outside-21_801_941" maskUnits="userSpaceOnUse" x="1415.84" y="166.874" width="71.8804" height="93.8185" fill="black">
<rect fill="white" x="1415.84" y="166.874" width="71.8804" height="93.8185"/>
<path d="M1478.06 233.289L1474.25 259.181L1417.87 250.886L1429.93 168.974L1486.3 177.269L1481.64 208.927L1462.11 206.053L1463.91 193.813L1446.61 191.267L1440.29 234.224L1457.59 236.77L1458.54 230.297L1478.06 233.289Z"/>
</mask>
<path d="M1478.06 233.289L1479.05 233.435L1479.19 232.451L1478.21 232.301L1478.06 233.289ZM1474.25 259.181L1474.1 260.17L1475.09 260.316L1475.24 259.327L1474.25 259.181ZM1417.87 250.886L1416.88 250.74L1416.74 251.73L1417.73 251.875L1417.87 250.886ZM1429.93 168.974L1430.07 167.984L1429.08 167.839L1428.94 168.828L1429.93 168.974ZM1486.3 177.269L1487.29 177.414L1487.44 176.425L1486.45 176.279L1486.3 177.269ZM1481.64 208.927L1481.5 209.917L1482.49 210.062L1482.63 209.073L1481.64 208.927ZM1462.11 206.053L1461.12 205.907L1460.97 206.896L1461.96 207.042L1462.11 206.053ZM1463.91 193.813L1464.9 193.958L1465.04 192.969L1464.05 192.823L1463.91 193.813ZM1446.61 191.267L1446.75 190.278L1445.76 190.132L1445.62 191.122L1446.61 191.267ZM1440.29 234.224L1439.3 234.078L1439.15 235.068L1440.14 235.213L1440.29 234.224ZM1457.59 236.77L1457.44 237.759L1458.43 237.905L1458.58 236.915L1457.59 236.77ZM1458.54 230.297L1458.69 229.308L1457.7 229.156L1457.55 230.151L1458.54 230.297ZM1477.07 233.144L1473.26 259.035L1475.24 259.327L1479.05 233.435L1477.07 233.144ZM1474.39 258.192L1418.02 249.897L1417.73 251.875L1474.1 260.17L1474.39 258.192ZM1418.86 251.031L1430.92 169.119L1428.94 168.828L1416.88 250.74L1418.86 251.031ZM1429.78 169.963L1486.16 178.258L1486.45 176.279L1430.07 167.984L1429.78 169.963ZM1485.31 177.123L1480.65 208.782L1482.63 209.073L1487.29 177.414L1485.31 177.123ZM1481.79 207.938L1462.25 205.063L1461.96 207.042L1481.5 209.917L1481.79 207.938ZM1463.1 206.198L1464.9 193.958L1462.92 193.667L1461.12 205.907L1463.1 206.198ZM1464.05 192.823L1446.75 190.278L1446.46 192.256L1463.76 194.802L1464.05 192.823ZM1445.62 191.122L1439.3 234.078L1441.27 234.37L1447.6 191.413L1445.62 191.122ZM1440.14 235.213L1457.44 237.759L1457.73 235.78L1440.43 233.235L1440.14 235.213ZM1458.58 236.915L1459.53 230.442L1457.55 230.151L1456.6 236.624L1458.58 236.915ZM1458.39 231.285L1477.91 234.278L1478.21 232.301L1458.69 229.308L1458.39 231.285Z" fill="#B3FF52" mask="url(#path-41-outside-21_801_941)"/>
<mask id="path-43-outside-22_801_941" maskUnits="userSpaceOnUse" x="1479.58" y="177.424" width="76.7878" height="96.7196" fill="black">
<rect fill="white" x="1479.58" y="177.424" width="76.7878" height="96.7196"/>
<path d="M1531.3 206.52L1514.21 202.832L1505.05 245.275L1522.15 248.963L1531.3 206.52ZM1499.07 179.364L1554.77 191.382L1537.31 272.314L1481.61 260.297L1499.07 179.364Z"/>
</mask>
<path d="M1531.3 206.52L1532.28 206.731L1532.49 205.753L1531.51 205.542L1531.3 206.52ZM1514.21 202.832L1514.42 201.854L1513.44 201.643L1513.23 202.621L1514.21 202.832ZM1505.05 245.275L1504.07 245.064L1503.86 246.041L1504.84 246.252L1505.05 245.275ZM1522.15 248.963L1521.93 249.94L1522.91 250.151L1523.12 249.173L1522.15 248.963ZM1499.07 179.364L1499.28 178.387L1498.3 178.176L1498.09 179.153L1499.07 179.364ZM1554.77 191.382L1555.75 191.592L1555.96 190.615L1554.98 190.404L1554.77 191.382ZM1537.31 272.314L1537.1 273.291L1538.08 273.502L1538.29 272.525L1537.31 272.314ZM1481.61 260.297L1480.63 260.086L1480.42 261.063L1481.4 261.274L1481.61 260.297ZM1531.51 205.542L1514.42 201.854L1514 203.809L1531.09 207.497L1531.51 205.542ZM1513.23 202.621L1504.07 245.064L1506.03 245.486L1515.19 203.043L1513.23 202.621ZM1504.84 246.252L1521.93 249.94L1522.36 247.985L1505.26 244.297L1504.84 246.252ZM1523.12 249.173L1532.28 206.731L1530.33 206.309L1521.17 248.752L1523.12 249.173ZM1498.86 180.342L1554.56 192.359L1554.98 190.404L1499.28 178.387L1498.86 180.342ZM1553.79 191.171L1536.33 272.103L1538.29 272.525L1555.75 191.592L1553.79 191.171ZM1537.52 271.336L1481.82 259.319L1481.4 261.274L1537.1 273.291L1537.52 271.336ZM1482.59 260.507L1500.05 179.575L1498.09 179.153L1480.63 260.086L1482.59 260.507Z" fill="#B3FF52" mask="url(#path-43-outside-22_801_941)"/>
</svg>
