<svg width="348" height="357" viewBox="0 0 348 357" fill="none" xmlns="http://www.w3.org/2000/svg">
<path d="M223.651 201.988C219.45 197.772 213.817 196.448 208.735 197.612C204.189 198.653 199.428 198.118 195.553 195.519L186.776 189.623C181.845 186.313 178.885 180.764 178.885 174.82V169.422C178.885 164.534 180.871 159.841 184.444 156.512C188.28 152.939 190.344 147.491 189.171 141.626C187.959 135.555 183.081 130.624 177.026 129.358C166.749 127.212 157.7 135 157.7 144.902C157.7 149.517 159.671 153.664 162.816 156.565C166.516 159.978 168.312 164.992 168.312 170.02V174.82C168.312 180.764 165.352 186.313 160.421 189.623L151.644 195.514C147.769 198.118 143.004 198.649 138.457 197.607C133.37 196.443 127.738 197.767 123.537 201.993C119.17 206.384 117.793 213.179 120.119 218.914C124.067 228.645 135.58 231.819 143.797 226.299C147.628 223.728 149.979 219.775 150.632 215.55C151.401 210.575 154.56 206.291 158.742 203.482L163.668 200.177C169.68 196.142 177.532 196.142 183.544 200.177L188.47 203.482C192.647 206.286 195.806 210.575 196.58 215.55C197.232 219.775 199.584 223.728 203.415 226.299C211.637 231.819 223.154 228.64 227.097 218.904C229.419 213.165 228.037 206.369 223.665 201.983L223.651 201.988Z" fill="white"/>
<path d="M166.927 292.685L167.872 280.338C167.903 279.939 167.814 279.627 167.607 279.403C167.4 279.178 167.088 279.05 166.674 279.018L160.906 278.577L160.95 275.812C162.092 275.771 163.286 275.79 164.532 275.869C165.763 275.932 166.992 276.01 168.221 276.104C169.417 276.195 170.302 276.584 170.875 277.27C171.432 277.97 171.671 278.823 171.594 279.828L170.588 292.966L166.927 292.685Z" fill="white"/>
<path d="M146.907 289.658C146.041 289.428 145.169 289.188 144.291 288.939C143.41 288.705 142.548 288.46 141.706 288.203C140.863 287.946 140.081 287.681 139.359 287.407L140.205 284.875L146.352 286.506C146.739 286.609 147.059 286.586 147.314 286.438C147.553 286.286 147.723 286.017 147.826 285.631L149.993 277.465C150.095 277.079 150.08 276.76 149.948 276.51C149.8 276.255 149.533 276.077 149.147 275.974L142.999 274.343L143.52 271.725C144.279 271.86 145.09 272.018 145.952 272.197C146.811 272.392 147.681 272.606 148.563 272.84C149.448 273.058 150.324 273.282 151.19 273.512C152.211 273.783 152.96 274.296 153.439 275.052C153.897 275.819 153.999 276.682 153.745 277.641L151.172 287.338C150.914 288.312 150.397 289.011 149.623 289.435C148.833 289.854 147.927 289.928 146.907 289.658ZM151.622 283.956L142.042 281.414L142.707 278.909L152.287 281.451L151.622 283.956Z" fill="white"/>
<path d="M122.432 280.456C122.16 280.322 121.962 280.127 121.838 279.87C121.701 279.606 121.659 279.327 121.715 279.034L124.292 262.917L127.652 264.569L125.318 276.981C125.256 277.254 125.193 277.526 125.131 277.798C125.061 278.085 124.991 278.354 124.921 278.605L125.503 278.891C125.659 278.682 125.829 278.463 126.014 278.233C126.177 278.01 126.354 277.794 126.546 277.585L134.953 268.16L138.334 269.823L127.12 281.692C126.921 281.915 126.683 282.057 126.404 282.116C126.111 282.168 125.828 282.127 125.555 281.992L122.432 280.456ZM124.312 270.87L125.53 268.393L133.24 272.185L132.022 274.662L124.312 270.87Z" fill="white"/>
<path d="M103.537 268.67C102.391 267.772 101.559 266.927 101.042 266.135C100.501 265.346 100.29 264.539 100.406 263.716C100.501 262.895 100.938 261.988 101.717 260.993C102.191 260.388 102.692 259.917 103.221 259.58C103.728 259.245 104.272 259.082 104.854 259.091C105.437 259.1 106.072 259.314 106.761 259.732L106.835 259.637C106.638 259.422 106.474 259.151 106.344 258.825C106.2 258.489 106.13 258.099 106.133 257.654C106.126 257.222 106.25 256.739 106.505 256.207L108.554 251.257L111.596 253.641L109.488 258.392C109.266 258.909 109.204 259.339 109.302 259.68C109.388 260.011 109.626 260.33 110.016 260.636C110.873 261.307 111.597 261.875 112.189 262.339C112.758 262.805 113.239 263.203 113.632 263.531C114.013 263.85 114.356 264.139 114.661 264.398L112.961 266.45L108.257 262.764C107.753 262.369 107.317 262.109 106.949 261.982C106.558 261.859 106.197 261.891 105.866 262.08C105.523 262.258 105.159 262.593 104.774 263.084C104.38 263.587 104.142 264.021 104.06 264.384C103.956 264.75 104.016 265.102 104.239 265.439C104.44 265.78 104.793 266.147 105.296 266.542C106.48 267.47 107.486 268.248 108.315 268.877C109.143 269.506 109.718 269.926 110.04 270.138L108.71 272.419C108.132 272.067 107.6 271.722 107.114 271.382C106.628 271.042 106.108 270.655 105.554 270.22C104.99 269.799 104.318 269.282 103.537 268.67ZM105.857 270.184L116.073 257.15L118.925 259.385L108.71 272.419L105.857 270.184Z" fill="white"/>
<path d="M81.678 246.031L93.3981 236.289C94.0748 235.726 94.6944 235.784 95.2569 236.46L96.5456 238.011C96.8013 238.318 96.9279 238.608 96.9255 238.881C96.9108 239.163 96.8182 239.49 96.6477 239.861L92.8965 248.939C92.7363 249.322 92.5452 249.731 92.3234 250.165C92.0914 250.586 91.8563 250.979 91.6183 251.344L91.787 251.547C92.0885 251.234 92.4013 250.922 92.7254 250.611C93.0372 250.31 93.3592 250.022 93.6914 249.745L101.148 243.548L103.372 246.224L91.6524 255.965C90.9756 256.528 90.3509 256.465 89.7781 255.776L88.5048 254.244C88.2594 253.948 88.1491 253.666 88.174 253.395C88.1764 253.123 88.2577 252.795 88.418 252.412L92.0582 243.613C92.2185 243.23 92.4044 242.816 92.616 242.369C92.8276 241.923 93.0566 241.472 93.303 241.018L93.1189 240.796C92.7804 241.14 92.4492 241.468 92.1251 241.779C91.7785 242.087 91.4329 242.385 91.0884 242.671L83.8872 248.688L81.678 246.031Z" fill="white"/>
<path d="M67.2588 219.022L82.6554 212.925L84.0074 216.339L68.6108 222.436L67.2588 219.022ZM65.4208 214.381L68.0984 213.321L73.1177 225.995L70.44 227.055L65.4208 214.381Z" fill="white"/>
<path d="M61.0936 197.734C60.8852 196.438 60.8507 195.317 60.9902 194.371C61.1138 193.428 61.4563 192.635 62.0175 191.994C62.5604 191.339 63.3644 190.797 64.4295 190.366C65.4788 189.938 66.8249 189.592 68.4678 189.327C70.1107 189.063 71.5053 188.968 72.6518 189.043C73.7824 189.12 74.7161 189.383 75.4527 189.832C76.171 190.267 76.7448 190.913 77.174 191.767C77.5874 192.624 77.8983 193.701 78.1068 194.996C78.3152 196.291 78.3576 197.411 78.2339 198.354C78.0945 199.301 77.7533 200.101 77.2104 200.756C76.6517 201.413 75.8477 201.955 74.7984 202.383C73.7332 202.814 72.3793 203.162 70.7364 203.426C69.0935 203.69 67.7068 203.784 66.5761 203.706C65.4297 203.632 64.496 203.369 63.7752 202.917C63.0386 202.469 62.4635 201.816 62.0501 200.959C61.6209 200.104 61.302 199.029 61.0936 197.734ZM63.9607 197.272C64.0954 198.109 64.3668 198.738 64.7748 199.159C65.1802 199.564 65.8102 199.803 66.6647 199.876C67.5008 199.936 68.6534 199.847 70.1225 199.611C71.5758 199.377 72.698 199.099 73.4889 198.778C74.2773 198.44 74.8005 198.016 75.0585 197.504C75.314 196.977 75.3744 196.295 75.2397 195.457C75.1075 194.636 74.8387 194.023 74.4332 193.618C74.0252 193.198 73.3953 192.959 72.5433 192.901C71.6889 192.828 70.535 192.908 69.0817 193.142C67.6126 193.379 66.4917 193.664 65.7191 193.999C64.9282 194.321 64.405 194.746 64.1495 195.273C63.8915 195.784 63.8286 196.451 63.9607 197.272Z" fill="white"/>
<path d="M59.7033 170.364C59.7557 169.646 59.8273 168.994 59.9183 168.407C60.0092 167.82 60.1138 167.266 60.232 166.745C60.3514 166.208 60.5095 165.691 60.7063 165.192L63.3423 165.673C63.2696 166.229 63.2061 166.77 63.1517 167.295C63.0974 167.82 63.051 168.346 63.0126 168.873C62.9582 169.399 62.91 169.948 62.8681 170.523C62.8181 171.209 62.848 171.789 62.9578 172.262C63.0689 172.719 63.314 173.098 63.6931 173.399C64.0563 173.698 64.6003 173.938 65.325 174.119C66.0349 174.283 66.9564 174.407 68.0894 174.489C69.4618 174.589 70.5453 174.58 71.34 174.462C72.1348 174.343 72.7148 174.089 73.0802 173.698C73.4296 173.307 73.6299 172.76 73.6811 172.058C73.7161 171.579 73.7002 171.137 73.6336 170.731C73.5669 170.325 73.466 169.948 73.3309 169.602C73.1798 169.254 73.0349 168.93 72.8963 168.632L74.6477 168.374C74.9653 168.638 75.2982 169.023 75.6462 169.53C75.9955 170.021 76.2813 170.611 76.5037 171.301C76.7261 171.991 76.8058 172.767 76.743 173.629C76.6522 174.873 76.2824 175.873 75.6338 176.628C74.9863 177.367 74.0189 177.874 72.7315 178.149C71.4281 178.423 69.7631 178.486 67.7365 178.338C65.5822 178.181 63.8996 177.825 62.6887 177.272C61.4789 176.702 60.6497 175.864 60.2011 174.756C59.7377 173.631 59.5718 172.167 59.7033 170.364ZM67.4504 165.106L76.9771 165.801L76.7798 168.506L74.2298 168.825L73.5351 169.111L67.192 168.649L67.4504 165.106Z" fill="white"/>
<path d="M63.6474 148.324C63.8954 147.463 64.1533 146.596 64.4211 145.724C64.6736 144.848 64.937 143.991 65.2113 143.154C65.4856 142.318 65.7675 141.541 66.057 140.826L68.5704 141.724L66.81 147.836C66.6992 148.22 66.715 148.541 66.8573 148.799C67.0041 149.041 67.2696 149.217 67.654 149.328L75.7719 151.666C76.1563 151.777 76.475 151.769 76.728 151.642C76.9854 151.5 77.1695 151.236 77.2802 150.852L79.0407 144.74L81.6471 145.316C81.496 146.072 81.3217 146.879 81.1243 147.738C80.9114 148.593 80.6788 149.458 80.4264 150.335C80.1893 151.215 79.9468 152.086 79.6988 152.947C79.4065 153.962 78.8774 154.7 78.1116 155.162C77.3348 155.605 76.4698 155.689 75.5166 155.414L65.8765 152.637C64.9079 152.358 64.2201 151.827 63.813 151.044C63.4103 150.245 63.3551 149.338 63.6474 148.324ZM69.2479 153.159L71.9915 143.634L74.4822 144.351L71.7386 153.876L69.2479 153.159Z" fill="white"/>
<path d="M73.0837 124.575L87.8235 132.123L86.1498 135.391L71.4101 127.843L73.0837 124.575ZM75.3591 120.131L77.9225 121.444L71.7091 133.578L69.1456 132.265L75.3591 120.131Z" fill="white"/>
<path d="M83.3959 108.413L96.2114 118.901L93.8858 121.743L81.0703 111.255L83.3959 108.413ZM92.209 107.686L94.3449 109.434L90.3321 114.337L88.1962 112.589L92.209 107.686ZM89.4455 101.021L102.261 111.509L99.9354 114.35L87.1199 103.862L89.4455 101.021Z" fill="white"/>
<path d="M101.034 90.009C101.732 89.4475 102.442 88.8872 103.163 88.3281C103.873 87.7565 104.582 87.2075 105.287 86.6809C105.993 86.1544 106.67 85.6816 107.319 85.2627L108.858 87.4439L103.901 91.4297C103.59 91.6804 103.418 91.9519 103.386 92.2444C103.367 92.5268 103.483 92.8238 103.733 93.1355L109.028 99.7188C109.278 100.03 109.544 100.207 109.824 100.249C110.116 100.281 110.418 100.171 110.73 99.9206L115.686 95.9348L117.486 97.9055C116.928 98.4366 116.321 98.9967 115.665 99.5856C115 100.162 114.312 100.736 113.601 101.308C112.9 101.892 112.201 102.464 111.502 103.026C110.68 103.688 109.822 103.987 108.93 103.924C108.04 103.839 107.284 103.41 106.663 102.637L100.376 94.8196C99.7439 94.0341 99.4869 93.2039 99.6046 92.329C99.7348 91.4441 100.211 90.6708 101.034 90.009ZM102.833 97.1859L110.557 90.9741L112.181 92.9939L104.457 99.2057L102.833 97.1859Z" fill="white"/>
<path d="M121.474 76.2405C122.765 75.5687 123.879 75.161 124.814 75.0173C125.756 74.852 126.578 74.9928 127.279 75.4397C127.987 75.865 128.633 76.6383 129.216 77.7597C129.57 78.4411 129.792 79.0924 129.88 79.7136C129.976 80.3132 129.899 80.8762 129.65 81.4026C129.4 81.9289 128.943 82.4193 128.277 82.8735L128.333 82.98C128.61 82.8897 128.925 82.8525 129.276 82.8684C129.641 82.8769 130.025 82.9746 130.429 83.1614C130.825 83.334 131.213 83.6462 131.592 84.0982L135.251 88.0118L131.823 89.7946L128.369 85.9099C127.99 85.4937 127.625 85.2598 127.273 85.2082C126.936 85.1491 126.547 85.234 126.107 85.4629C125.142 85.9648 124.326 86.3893 123.659 86.7363C122.998 87.0616 122.437 87.3354 121.976 87.5574C121.528 87.772 121.123 87.9645 120.761 88.1349L119.596 85.7382L124.898 82.981C125.466 82.6857 125.883 82.3964 126.151 82.113C126.425 81.8081 126.545 81.4663 126.51 81.0875C126.49 80.7014 126.335 80.2315 126.047 79.6779C125.752 79.1101 125.456 78.7141 125.159 78.4898C124.869 78.2439 124.524 78.1528 124.124 78.2164C123.731 78.2584 123.251 78.4271 122.683 78.7224C121.349 79.4163 120.224 80.0103 119.309 80.5043C118.393 80.9983 117.773 81.3481 117.447 81.5537L115.92 79.3989C116.48 79.0178 117.015 78.6766 117.525 78.375C118.036 78.0735 118.603 77.7603 119.228 77.4355C119.845 77.0965 120.593 76.6982 121.474 76.2405ZM119.136 77.7268L126.776 92.4189L123.561 94.0909L115.92 79.3989L119.136 77.7268Z" fill="white"/>
<path d="M157.776 74.1321L158.197 76.3484L151.171 77.6841L150.75 75.4678L157.776 74.1321Z" fill="white"/>
<path d="M183.446 63.8798L182.345 76.2148C182.309 76.6132 182.394 76.926 182.599 77.1531C182.803 77.3801 183.113 77.5122 183.527 77.5491L189.288 78.0632L189.21 80.8272C188.067 80.8537 186.874 80.8195 185.629 80.7245C184.399 80.6469 183.171 80.5533 181.944 80.4439C180.748 80.3372 179.868 79.9374 179.304 79.2445C178.756 78.5371 178.528 77.6813 178.617 76.6773L179.788 63.5535L183.446 63.8798Z" fill="white"/>
<path d="M203.426 67.159C204.289 67.3996 205.158 67.6501 206.032 67.9105C206.911 68.1554 207.769 68.4115 208.608 68.6786C209.448 68.9458 210.226 69.2211 210.945 69.5044L210.067 72.0254L203.941 70.3173C203.556 70.2098 203.235 70.2284 202.979 70.3729C202.738 70.5217 202.564 70.7887 202.456 71.174L200.187 79.3116C200.08 79.6969 200.091 80.0156 200.22 80.2675C200.364 80.5237 200.629 80.7055 201.015 80.8129L207.141 82.5211L206.587 85.1323C205.83 84.9877 205.021 84.8203 204.161 84.6302C203.305 84.4247 202.437 84.1995 201.559 83.9545C200.676 83.725 199.803 83.4899 198.94 83.2493C197.923 82.9657 197.18 82.443 196.711 81.6811C196.262 80.9081 196.171 80.0439 196.438 79.0883L199.132 69.4249C199.403 68.454 199.928 67.7616 200.708 67.3478C201.503 66.9383 202.409 66.8754 203.426 67.159ZM198.639 72.8006L208.187 75.4627L207.491 77.9595L197.943 75.2974L198.639 72.8006Z" fill="white"/>
<path d="M227.783 76.667C228.054 76.8046 228.25 77.0025 228.37 77.2608C228.504 77.5264 228.542 77.8057 228.483 78.0987L225.703 94.182L222.364 92.4875L224.853 80.1055C224.919 79.834 224.985 79.5625 225.052 79.2909C225.125 79.0052 225.198 78.7373 225.271 78.4873L224.693 78.194C224.535 78.4005 224.361 78.6177 224.174 78.8456C224.008 79.0664 223.828 79.28 223.634 79.4863L215.109 88.8053L211.749 87.0999L223.111 75.3723C223.313 75.1517 223.553 75.0136 223.833 74.9581C224.126 74.9098 224.409 74.9544 224.68 75.092L227.783 76.667ZM225.783 86.2291L224.533 88.6902L216.872 84.8016L218.121 82.3404L225.783 86.2291Z" fill="white"/>
<path d="M246.529 88.6899C247.663 89.6023 248.484 90.4578 248.992 91.2562C249.522 92.0522 249.724 92.861 249.597 93.6828C249.492 94.5021 249.044 95.4043 248.252 96.3893C247.77 96.9878 247.263 97.4525 246.73 97.7835C246.22 98.112 245.673 98.268 245.091 98.2515C244.509 98.2351 243.876 98.0135 243.192 97.587L243.117 97.6805C243.312 97.8984 243.472 98.1712 243.599 98.4988C243.738 98.8365 243.803 99.2278 243.794 99.6725C243.796 100.105 243.666 100.586 243.405 101.115L241.293 106.038L238.282 103.616L240.449 98.8918C240.678 98.3777 240.745 97.9493 240.651 97.6067C240.569 97.2742 240.335 96.9525 239.949 96.6416C239.101 95.9598 238.384 95.3832 237.798 94.912C237.235 94.4382 236.758 94.0347 236.369 93.7014C235.993 93.3781 235.654 93.0848 235.352 92.8217L237.078 90.7909L241.735 94.536C242.233 94.9371 242.666 95.203 243.033 95.3339C243.423 95.4624 243.784 95.4346 244.117 95.2505C244.462 95.0765 244.83 94.7463 245.221 94.2601C245.622 93.7613 245.866 93.3309 245.952 92.9688C246.06 92.6043 246.005 92.2518 245.786 91.9114C245.589 91.5686 245.242 91.1966 244.743 90.7955C243.571 89.853 242.575 89.062 241.754 88.4227C240.934 87.7835 240.364 87.356 240.044 87.1402L241.403 84.8761C241.977 85.2349 242.505 85.5873 242.986 85.9334C243.468 86.2794 243.983 86.6731 244.531 87.1143C245.09 87.543 245.756 88.0682 246.529 88.6899ZM244.227 87.1472L233.849 100.052L231.025 97.7807L241.403 84.8761L244.227 87.1472Z" fill="white"/>
<path d="M268.101 111.602L256.26 121.196C255.576 121.75 254.957 121.685 254.403 121.001L253.134 119.435C252.883 119.124 252.76 118.832 252.765 118.56C252.784 118.277 252.88 117.952 253.055 117.583L256.92 108.553C257.085 108.172 257.282 107.766 257.509 107.334C257.746 106.916 257.986 106.526 258.229 106.164L258.063 105.959C257.757 106.268 257.44 106.576 257.113 106.883C256.797 107.18 256.471 107.465 256.136 107.736L248.602 113.84L246.411 111.136L258.253 101.543C258.937 100.989 259.56 101.06 260.124 101.756L261.378 103.304C261.62 103.602 261.727 103.886 261.699 104.156C261.693 104.429 261.607 104.755 261.442 105.136L257.692 113.889C257.527 114.27 257.336 114.682 257.118 115.126C256.901 115.569 256.667 116.017 256.414 116.468L256.596 116.692C256.939 116.352 257.274 116.029 257.602 115.722C257.952 115.418 258.302 115.125 258.65 114.843L265.926 108.917L268.101 111.602Z" fill="white"/>
<path d="M282.18 138.789L266.708 144.693L265.399 141.262L280.871 135.359L282.18 138.789ZM283.96 143.453L281.269 144.48L276.409 131.744L279.1 130.717L283.96 143.453Z" fill="white"/>
<path d="M288.077 160.154C288.27 161.452 288.29 162.573 288.139 163.517C288.003 164.459 287.651 165.247 287.081 165.882C286.53 166.529 285.72 167.062 284.649 167.479C283.595 167.894 282.244 168.223 280.598 168.467C278.952 168.711 277.556 168.788 276.411 168.699C275.281 168.607 274.351 168.332 273.62 167.874C272.907 167.43 272.342 166.778 271.923 165.918C271.521 165.056 271.223 163.975 271.031 162.678C270.839 161.38 270.811 160.26 270.946 159.318C271.098 158.373 271.449 157.577 272 156.93C272.567 156.28 273.378 155.747 274.432 155.332C275.503 154.915 276.861 154.585 278.507 154.341C280.153 154.097 281.541 154.021 282.67 154.113C283.816 154.202 284.746 154.477 285.461 154.937C286.192 155.395 286.759 156.055 287.162 156.917C287.58 157.777 287.885 158.856 288.077 160.154ZM285.205 160.579C285.081 159.74 284.817 159.108 284.414 158.683C284.014 158.273 283.387 158.026 282.534 157.942C281.698 157.872 280.545 157.945 279.073 158.163C277.617 158.379 276.491 158.642 275.696 158.954C274.904 159.282 274.375 159.7 274.111 160.208C273.849 160.732 273.78 161.413 273.904 162.252C274.026 163.075 274.287 163.692 274.687 164.102C275.09 164.527 275.717 164.774 276.568 164.842C277.421 164.926 278.576 164.86 280.032 164.645C281.504 164.427 282.629 164.155 283.405 163.83C284.2 163.518 284.729 163.1 284.991 162.576C285.255 162.068 285.327 161.402 285.205 160.579Z" fill="white"/>
<path d="M289.124 187.539C289.062 188.256 288.982 188.907 288.884 189.493C288.786 190.079 288.674 190.631 288.55 191.151C288.423 191.686 288.259 192.202 288.056 192.698L285.426 192.184C285.506 191.629 285.576 191.089 285.637 190.564C285.698 190.04 285.751 189.514 285.796 188.988C285.857 188.463 285.912 187.914 285.961 187.34C286.02 186.655 285.997 186.075 285.893 185.6C285.788 185.141 285.548 184.759 285.172 184.454C284.813 184.151 284.272 183.904 283.55 183.713C282.842 183.54 281.922 183.405 280.79 183.308C279.419 183.191 278.336 183.187 277.539 183.295C276.743 183.404 276.16 183.651 275.79 184.037C275.435 184.424 275.228 184.968 275.168 185.67C275.127 186.148 275.138 186.59 275.199 186.997C275.261 187.404 275.357 187.781 275.488 188.13C275.634 188.48 275.775 188.805 275.91 189.105L274.156 189.341C273.841 189.073 273.513 188.683 273.172 188.172C272.829 187.677 272.55 187.083 272.336 186.391C272.123 185.698 272.053 184.921 272.126 184.06C272.233 182.817 272.615 181.822 273.273 181.075C273.93 180.345 274.904 179.85 276.194 179.591C277.501 179.333 279.167 179.291 281.191 179.465C283.344 179.649 285.022 180.025 286.225 180.594C287.428 181.179 288.247 182.028 288.681 183.141C289.13 184.271 289.278 185.737 289.124 187.539ZM281.311 192.699L271.794 191.884L272.025 189.182L274.579 188.895L275.277 188.618L281.614 189.16L281.311 192.699Z" fill="white"/>
<path d="M284.903 209.528C284.644 210.386 284.375 211.249 284.097 212.117C283.833 212.991 283.559 213.844 283.274 214.677C282.989 215.51 282.698 216.283 282.399 216.995L279.898 216.065L281.735 209.976C281.85 209.593 281.838 209.272 281.699 209.013C281.556 208.769 281.292 208.589 280.909 208.474L272.821 206.033C272.439 205.918 272.12 205.922 271.865 206.046C271.606 206.185 271.419 206.446 271.303 206.829L269.466 212.918L266.867 212.309C267.028 211.555 267.212 210.75 267.42 209.894C267.644 209.042 267.887 208.18 268.151 207.306C268.399 206.429 268.652 205.561 268.911 204.703C269.216 203.692 269.754 202.96 270.526 202.508C271.308 202.076 272.174 202.003 273.124 202.289L282.728 205.187C283.693 205.478 284.374 206.018 284.772 206.806C285.164 207.61 285.208 208.517 284.903 209.528ZM279.364 204.623L276.501 214.112L274.019 213.364L276.882 203.874L279.364 204.623Z" fill="white"/>
<path d="M275.169 233.157L260.525 225.424L262.24 222.177L276.884 229.909L275.169 233.157ZM272.838 237.571L270.291 236.226L276.657 224.172L279.204 225.516L272.838 237.571Z" fill="white"/>
<path d="M264.655 249.187L251.972 238.539L254.333 235.727L267.016 246.375L264.655 249.187ZM255.833 249.803L253.719 248.029L257.793 243.176L259.907 244.951L255.833 249.803ZM258.513 256.503L245.83 245.855L248.191 243.042L260.874 253.691L258.513 256.503Z" fill="white"/>
<path d="M246.787 267.368C246.081 267.921 245.365 268.472 244.637 269.022C243.919 269.585 243.204 270.125 242.492 270.642C241.78 271.16 241.096 271.624 240.443 272.035L238.932 269.835L243.937 265.912C244.252 265.665 244.427 265.395 244.463 265.103C244.486 264.821 244.374 264.523 244.127 264.208L238.916 257.559C238.669 257.244 238.406 257.064 238.126 257.019C237.834 256.983 237.531 257.089 237.216 257.336L232.21 261.259L230.435 259.266C231 258.741 231.614 258.189 232.277 257.608C232.95 257.04 233.645 256.475 234.363 255.913C235.071 255.337 235.777 254.773 236.483 254.221C237.314 253.569 238.175 253.281 239.066 253.355C239.955 253.451 240.705 253.889 241.317 254.67L247.506 262.566C248.127 263.36 248.374 264.193 248.245 265.066C248.104 265.949 247.618 266.717 246.787 267.368ZM245.078 260.169L237.277 266.283L235.678 264.243L243.479 258.129L245.078 260.169Z" fill="white"/>
<path d="M226.176 280.879C224.876 281.534 223.757 281.928 222.82 282.06C221.876 282.213 221.056 282.062 220.361 281.607C219.658 281.172 219.022 280.391 218.453 279.262C218.107 278.577 217.894 277.923 217.813 277.3C217.726 276.7 217.809 276.138 218.065 275.614C218.321 275.091 218.785 274.607 219.456 274.161L219.402 274.054C219.123 274.14 218.808 274.174 218.458 274.153C218.093 274.14 217.709 274.038 217.308 273.846C216.914 273.668 216.53 273.351 216.156 272.894L212.548 268.935L215.998 267.196L219.403 271.123C219.776 271.544 220.138 271.783 220.489 271.839C220.826 271.902 221.215 271.822 221.658 271.599C222.63 271.109 223.451 270.695 224.123 270.356C224.787 270.039 225.352 269.773 225.816 269.556C226.266 269.347 226.673 269.16 227.038 268.994L228.173 271.405L222.837 274.096C222.265 274.384 221.844 274.668 221.573 274.948C221.295 275.249 221.171 275.59 221.201 275.969C221.216 276.355 221.364 276.827 221.645 277.384C221.934 277.956 222.225 278.355 222.519 278.583C222.806 278.833 223.15 278.928 223.55 278.87C223.944 278.833 224.426 278.67 224.997 278.382C226.34 277.705 227.473 277.125 228.394 276.642C229.316 276.16 229.941 275.818 230.269 275.617L231.768 277.79C231.204 278.164 230.665 278.499 230.151 278.794C229.637 279.089 229.065 279.395 228.437 279.712C227.815 280.043 227.062 280.432 226.176 280.879ZM228.532 279.422L221.077 264.635L224.313 263.003L231.768 277.79L228.532 279.422Z" fill="white"/>
<path d="M189.85 282.531L189.456 280.309L196.499 279.062L196.892 281.284L189.85 282.531Z" fill="white"/>
</svg>
