<svg width="219" height="219" viewBox="0 0 219 219" fill="none" xmlns="http://www.w3.org/2000/svg">
<g clip-path="url(#clip0_501_944)">
<mask id="path-1-inside-1_501_944" fill="white">
<path d="M92.2671 19.0284C93.954 16.214 97.8044 15.6673 100.208 17.901L104.19 21.6011C106.215 23.4835 109.365 23.4351 111.332 21.4912L115.198 17.6705C117.531 15.364 121.397 15.792 123.17 18.5533L126.106 23.1273C127.6 25.4544 130.662 26.1908 133.051 24.7971L137.745 22.0578C140.58 20.4042 144.217 21.7801 145.247 24.8954L146.954 30.056C147.822 32.6815 150.605 34.1563 153.265 33.4004L158.494 31.9147C161.65 31.0178 164.831 33.2551 165.054 36.5288L165.424 41.9517C165.612 44.7106 167.941 46.8313 170.705 46.7607L176.139 46.6219C179.419 46.5381 181.944 49.4962 181.346 52.7226L180.355 58.067C179.851 60.786 181.58 63.4192 184.275 64.0383L189.572 65.2552C192.77 65.9898 194.48 69.4829 193.099 72.4591L190.81 77.3892C189.646 79.8975 190.665 82.8778 193.121 84.1477L197.95 86.6438C200.865 88.1507 201.652 91.9592 199.574 94.4984L196.131 98.7044C194.379 100.844 194.625 103.984 196.689 105.825L200.745 109.444C203.193 111.628 203.009 115.513 200.364 117.455L195.984 120.673C193.755 122.31 193.213 125.413 194.753 127.709L197.782 132.223C199.61 134.947 198.466 138.664 195.421 139.888L190.378 141.915C187.812 142.947 186.515 145.817 187.436 148.424L189.247 153.549C190.341 156.643 188.308 159.958 185.054 160.386L179.665 161.096C176.924 161.457 174.954 163.914 175.198 166.669L175.677 172.083C175.967 175.351 173.173 178.057 169.916 177.663L164.52 177.01C161.774 176.677 159.255 178.568 158.806 181.296L157.924 186.66C157.392 189.898 154.013 191.823 150.956 190.631L145.892 188.657C143.315 187.652 140.405 188.857 139.292 191.388L137.104 196.364C135.783 199.367 132.031 200.392 129.367 198.478L124.953 195.306C122.707 193.692 119.589 194.135 117.881 196.31L114.524 200.585C112.498 203.166 108.609 203.226 106.505 200.708L103.018 196.538C101.244 194.417 98.1137 194.07 95.9187 195.752L91.6043 199.058C88.9998 201.054 85.2185 200.145 83.8059 197.183L81.466 192.277C80.2755 189.781 77.3295 188.667 74.7851 189.75L69.7841 191.879C66.7651 193.165 63.3287 191.344 62.697 188.124L61.6507 182.79C61.1183 180.077 58.542 178.265 55.8081 178.681L50.4347 179.5C47.1909 179.994 44.3153 177.376 44.5042 174.1L44.8172 168.673C44.9765 165.913 42.9316 163.517 40.1801 163.24L34.7719 162.697C31.5071 162.369 29.373 159.118 30.3707 155.992L32.0233 150.814C32.8641 148.179 31.4794 145.35 28.883 144.398L23.7799 142.527C20.6992 141.397 19.4407 137.718 21.1844 134.938L24.0729 130.334C25.5424 127.991 24.9047 124.906 22.6267 123.339L18.1492 120.257C15.4462 118.397 15.1424 114.52 17.5226 112.261L21.4654 108.52C23.4714 106.616 23.6208 103.47 21.8043 101.385L18.2338 97.2865C16.0784 94.8125 16.7483 90.9815 19.6154 89.3858L24.3648 86.7424C26.7811 85.3976 27.7083 82.3874 26.4674 79.9161L24.0283 75.0586C22.5558 72.1263 24.1574 68.5823 27.3313 67.7497L32.5888 66.3705C35.2637 65.6688 36.9103 62.9838 36.323 60.2815L35.1685 54.9701C34.4716 51.7637 36.9042 48.7293 40.1855 48.7122L45.6208 48.6839C48.3861 48.6695 50.6488 46.4782 50.7519 43.7148L50.9546 38.2832C51.077 35.0041 54.1878 32.6701 57.3702 33.4695L62.6418 34.7938C65.3239 35.4675 68.0604 33.9079 68.8475 31.2569L70.3946 26.0463C71.3286 22.9007 74.9221 21.4137 77.8058 22.9794L82.5825 25.5731C85.0127 26.8926 88.0511 26.0625 89.4727 23.6906L92.2671 19.0284Z"/>
</mask>
<path d="M92.2671 19.0284C93.954 16.214 97.8044 15.6673 100.208 17.901L104.19 21.6011C106.215 23.4835 109.365 23.4351 111.332 21.4912L115.198 17.6705C117.531 15.364 121.397 15.792 123.17 18.5533L126.106 23.1273C127.6 25.4544 130.662 26.1908 133.051 24.7971L137.745 22.0578C140.58 20.4042 144.217 21.7801 145.247 24.8954L146.954 30.056C147.822 32.6815 150.605 34.1563 153.265 33.4004L158.494 31.9147C161.65 31.0178 164.831 33.2551 165.054 36.5288L165.424 41.9517C165.612 44.7106 167.941 46.8313 170.705 46.7607L176.139 46.6219C179.419 46.5381 181.944 49.4962 181.346 52.7226L180.355 58.067C179.851 60.786 181.58 63.4192 184.275 64.0383L189.572 65.2552C192.77 65.9898 194.48 69.4829 193.099 72.4591L190.81 77.3892C189.646 79.8975 190.665 82.8778 193.121 84.1477L197.95 86.6438C200.865 88.1507 201.652 91.9592 199.574 94.4984L196.131 98.7044C194.379 100.844 194.625 103.984 196.689 105.825L200.745 109.444C203.193 111.628 203.009 115.513 200.364 117.455L195.984 120.673C193.755 122.31 193.213 125.413 194.753 127.709L197.782 132.223C199.61 134.947 198.466 138.664 195.421 139.888L190.378 141.915C187.812 142.947 186.515 145.817 187.436 148.424L189.247 153.549C190.341 156.643 188.308 159.958 185.054 160.386L179.665 161.096C176.924 161.457 174.954 163.914 175.198 166.669L175.677 172.083C175.967 175.351 173.173 178.057 169.916 177.663L164.52 177.01C161.774 176.677 159.255 178.568 158.806 181.296L157.924 186.66C157.392 189.898 154.013 191.823 150.956 190.631L145.892 188.657C143.315 187.652 140.405 188.857 139.292 191.388L137.104 196.364C135.783 199.367 132.031 200.392 129.367 198.478L124.953 195.306C122.707 193.692 119.589 194.135 117.881 196.31L114.524 200.585C112.498 203.166 108.609 203.226 106.505 200.708L103.018 196.538C101.244 194.417 98.1137 194.07 95.9187 195.752L91.6043 199.058C88.9998 201.054 85.2185 200.145 83.8059 197.183L81.466 192.277C80.2755 189.781 77.3295 188.667 74.7851 189.75L69.7841 191.879C66.7651 193.165 63.3287 191.344 62.697 188.124L61.6507 182.79C61.1183 180.077 58.542 178.265 55.8081 178.681L50.4347 179.5C47.1909 179.994 44.3153 177.376 44.5042 174.1L44.8172 168.673C44.9765 165.913 42.9316 163.517 40.1801 163.24L34.7719 162.697C31.5071 162.369 29.373 159.118 30.3707 155.992L32.0233 150.814C32.8641 148.179 31.4794 145.35 28.883 144.398L23.7799 142.527C20.6992 141.397 19.4407 137.718 21.1844 134.938L24.0729 130.334C25.5424 127.991 24.9047 124.906 22.6267 123.339L18.1492 120.257C15.4462 118.397 15.1424 114.52 17.5226 112.261L21.4654 108.52C23.4714 106.616 23.6208 103.47 21.8043 101.385L18.2338 97.2865C16.0784 94.8125 16.7483 90.9815 19.6154 89.3858L24.3648 86.7424C26.7811 85.3976 27.7083 82.3874 26.4674 79.9161L24.0283 75.0586C22.5558 72.1263 24.1574 68.5823 27.3313 67.7497L32.5888 66.3705C35.2637 65.6688 36.9103 62.9838 36.323 60.2815L35.1685 54.9701C34.4716 51.7637 36.9042 48.7293 40.1855 48.7122L45.6208 48.6839C48.3861 48.6695 50.6488 46.4782 50.7519 43.7148L50.9546 38.2832C51.077 35.0041 54.1878 32.6701 57.3702 33.4695L62.6418 34.7938C65.3239 35.4675 68.0604 33.9079 68.8475 31.2569L70.3946 26.0463C71.3286 22.9007 74.9221 21.4137 77.8058 22.9794L82.5825 25.5731C85.0127 26.8926 88.0511 26.0625 89.4727 23.6906L92.2671 19.0284Z" fill="white" stroke="#030403" stroke-width="2" mask="url(#path-1-inside-1_501_944)"/>
<mask id="path-2-inside-2_501_944" fill="white">
<path d="M93.4865 27.619C95.1735 24.8045 99.0239 24.2579 101.428 26.4916L104.306 29.1663C106.331 31.0487 109.481 31.0003 111.448 29.0565L114.242 26.2945C116.576 23.988 120.442 24.416 122.214 27.1773L124.337 30.4838C125.831 32.8109 128.893 33.5472 131.282 32.1536L134.676 30.1734C137.51 28.5197 141.147 29.8956 142.177 33.011L143.411 36.7415C144.279 39.367 147.063 40.8418 149.723 40.0859L153.502 39.0119C156.658 38.115 159.84 40.3523 160.063 43.626L160.33 47.5461C160.518 50.3051 162.847 52.4257 165.611 52.3551L169.539 52.2548C172.819 52.171 175.344 55.1291 174.746 58.3554L174.03 62.2188C173.526 64.9378 175.254 67.571 177.95 68.1901L181.779 69.0698C184.977 69.8044 186.687 73.2975 185.305 76.2737L183.651 79.8376C182.486 82.3459 183.506 85.3262 185.962 86.5961L189.453 88.4005C192.367 89.9073 193.155 93.7159 191.076 96.255L188.588 99.2955C186.836 101.435 187.082 104.576 189.146 106.417L192.078 109.032C194.526 111.217 194.342 115.101 191.697 117.044L188.531 119.37C186.302 121.007 185.759 124.11 187.3 126.406L189.489 129.669C191.318 132.393 190.173 136.11 187.129 137.334L183.483 138.799C180.917 139.831 179.62 142.701 180.541 145.308L181.851 149.013C182.944 152.107 180.911 155.422 177.657 155.85L173.762 156.363C171.02 156.724 169.05 159.181 169.294 161.936L169.641 165.85C169.93 169.118 167.137 171.824 163.879 171.43L159.978 170.958C157.233 170.625 154.714 172.516 154.265 175.244L153.627 179.121C153.095 182.359 149.716 184.285 146.659 183.093L142.998 181.666C140.422 180.661 137.512 181.865 136.398 184.397L134.817 187.994C133.496 190.997 129.744 192.022 127.08 190.107L123.889 187.815C121.643 186.201 118.525 186.644 116.817 188.819L114.391 191.909C112.364 194.49 108.476 194.55 106.371 192.032L103.851 189.018C102.077 186.897 98.9462 186.55 96.7512 188.232L93.6325 190.622C91.0279 192.618 87.2466 191.708 85.8341 188.747L84.1426 185.2C82.9521 182.704 80.006 181.59 77.4617 182.673L73.8466 184.212C70.8275 185.498 67.3911 183.677 66.7595 180.457L66.0031 176.601C65.4708 173.888 62.8944 172.076 60.1606 172.492L56.2762 173.084C53.0324 173.578 50.1568 170.96 50.3457 167.684L50.572 163.761C50.7312 161.001 48.6864 158.605 45.9349 158.328L42.0254 157.936C38.7606 157.608 36.6265 154.356 37.6241 151.231L38.8188 147.487C39.6596 144.853 38.2749 142.024 35.6785 141.072L31.9896 139.719C28.9089 138.59 27.6503 134.91 29.3941 132.13L31.4821 128.802C32.9517 126.459 32.3139 123.375 30.036 121.807L26.7993 119.579C24.0963 117.719 23.7924 113.842 26.1727 111.583L29.0228 108.878C31.0288 106.975 31.1782 103.829 29.3617 101.744L26.7807 98.7811C24.6252 96.3071 25.2951 92.4761 28.1623 90.8804L31.5955 88.9696C34.0118 87.6247 34.939 84.6145 33.6981 82.1432L31.9349 78.6319C30.4624 75.6995 32.064 72.1555 35.2379 71.3229L39.0385 70.3259C41.7134 69.6243 43.36 66.9392 42.7727 64.2369L41.9381 60.3974C41.2412 57.191 43.6738 54.1567 46.9551 54.1395L50.8841 54.119C53.6495 54.1046 55.9121 51.9134 56.0153 49.15L56.1618 45.2235C56.2842 41.9445 59.3949 39.6105 62.5774 40.4099L66.3881 41.3672C69.0702 42.0409 71.8067 40.4813 72.5938 37.8303L73.7122 34.0637C74.6462 30.9181 78.2397 29.431 81.1233 30.9968L84.5763 32.8717C87.0065 34.1912 90.0449 33.3611 91.4666 30.9892L93.4865 27.619Z"/>
</mask>
<path d="M93.4865 27.619C95.1735 24.8045 99.0239 24.2579 101.428 26.4916L104.306 29.1663C106.331 31.0487 109.481 31.0003 111.448 29.0565L114.242 26.2945C116.576 23.988 120.442 24.416 122.214 27.1773L124.337 30.4838C125.831 32.8109 128.893 33.5472 131.282 32.1536L134.676 30.1734C137.51 28.5197 141.147 29.8956 142.177 33.011L143.411 36.7415C144.279 39.367 147.063 40.8418 149.723 40.0859L153.502 39.0119C156.658 38.115 159.84 40.3523 160.063 43.626L160.33 47.5461C160.518 50.3051 162.847 52.4257 165.611 52.3551L169.539 52.2548C172.819 52.171 175.344 55.1291 174.746 58.3554L174.03 62.2188C173.526 64.9378 175.254 67.571 177.95 68.1901L181.779 69.0698C184.977 69.8044 186.687 73.2975 185.305 76.2737L183.651 79.8376C182.486 82.3459 183.506 85.3262 185.962 86.5961L189.453 88.4005C192.367 89.9073 193.155 93.7159 191.076 96.255L188.588 99.2955C186.836 101.435 187.082 104.576 189.146 106.417L192.078 109.032C194.526 111.217 194.342 115.101 191.697 117.044L188.531 119.37C186.302 121.007 185.759 124.11 187.3 126.406L189.489 129.669C191.318 132.393 190.173 136.11 187.129 137.334L183.483 138.799C180.917 139.831 179.62 142.701 180.541 145.308L181.851 149.013C182.944 152.107 180.911 155.422 177.657 155.85L173.762 156.363C171.02 156.724 169.05 159.181 169.294 161.936L169.641 165.85C169.93 169.118 167.137 171.824 163.879 171.43L159.978 170.958C157.233 170.625 154.714 172.516 154.265 175.244L153.627 179.121C153.095 182.359 149.716 184.285 146.659 183.093L142.998 181.666C140.422 180.661 137.512 181.865 136.398 184.397L134.817 187.994C133.496 190.997 129.744 192.022 127.08 190.107L123.889 187.815C121.643 186.201 118.525 186.644 116.817 188.819L114.391 191.909C112.364 194.49 108.476 194.55 106.371 192.032L103.851 189.018C102.077 186.897 98.9462 186.55 96.7512 188.232L93.6325 190.622C91.0279 192.618 87.2466 191.708 85.8341 188.747L84.1426 185.2C82.9521 182.704 80.006 181.59 77.4617 182.673L73.8466 184.212C70.8275 185.498 67.3911 183.677 66.7595 180.457L66.0031 176.601C65.4708 173.888 62.8944 172.076 60.1606 172.492L56.2762 173.084C53.0324 173.578 50.1568 170.96 50.3457 167.684L50.572 163.761C50.7312 161.001 48.6864 158.605 45.9349 158.328L42.0254 157.936C38.7606 157.608 36.6265 154.356 37.6241 151.231L38.8188 147.487C39.6596 144.853 38.2749 142.024 35.6785 141.072L31.9896 139.719C28.9089 138.59 27.6503 134.91 29.3941 132.13L31.4821 128.802C32.9517 126.459 32.3139 123.375 30.036 121.807L26.7993 119.579C24.0963 117.719 23.7924 113.842 26.1727 111.583L29.0228 108.878C31.0288 106.975 31.1782 103.829 29.3617 101.744L26.7807 98.7811C24.6252 96.3071 25.2951 92.4761 28.1623 90.8804L31.5955 88.9696C34.0118 87.6247 34.939 84.6145 33.6981 82.1432L31.9349 78.6319C30.4624 75.6995 32.064 72.1555 35.2379 71.3229L39.0385 70.3259C41.7134 69.6243 43.36 66.9392 42.7727 64.2369L41.9381 60.3974C41.2412 57.191 43.6738 54.1567 46.9551 54.1395L50.8841 54.119C53.6495 54.1046 55.9121 51.9134 56.0153 49.15L56.1618 45.2235C56.2842 41.9445 59.3949 39.6105 62.5774 40.4099L66.3881 41.3672C69.0702 42.0409 71.8067 40.4813 72.5938 37.8303L73.7122 34.0637C74.6462 30.9181 78.2397 29.431 81.1233 30.9968L84.5763 32.8717C87.0065 34.1912 90.0449 33.3611 91.4666 30.9892L93.4865 27.619Z" fill="#B3FF52" stroke="#030403" stroke-width="1.7898" mask="url(#path-2-inside-2_501_944)"/>
<circle cx="109.107" cy="109.107" r="70.9177" transform="rotate(-8.08087 109.107 109.107)" fill="#EF65FF" stroke="#030403" stroke-width="0.894899"/>
<g clip-path="url(#clip1_501_944)">
<circle cx="109.107" cy="109.107" r="45.1095" transform="rotate(-8.08087 109.107 109.107)" fill="#FFEA01" stroke="#030403" stroke-width="0.894899"/>
<path d="M143.344 106.487C143.998 115.025 141.437 123.499 136.165 130.247C130.893 136.995 123.29 141.529 114.847 142.961C106.405 144.392 97.732 142.618 90.5302 137.985C83.3285 133.352 78.1176 126.196 75.9198 117.92" stroke="#030403" stroke-width="0.894899"/>
<ellipse cx="142.812" cy="105.477" rx="7.00618" ry="5.54712" transform="rotate(-8.08087 142.812 105.477)" fill="#FFEA01"/>
<path fill-rule="evenodd" clip-rule="evenodd" d="M136.063 106.33C137.03 109.246 140.217 111.124 143.669 110.634C147.12 110.144 149.659 107.453 149.775 104.383L150.38 104.297C150.301 107.669 147.528 110.639 143.746 111.176C139.964 111.713 136.473 109.632 135.458 106.415L136.063 106.33Z" fill="#030403"/>
<path fill-rule="evenodd" clip-rule="evenodd" d="M96.8116 116.563C100.89 115.984 103.335 109.454 102.274 101.978C101.212 94.501 97.0456 88.9095 92.9675 89.4885C89.8821 89.9266 87.7312 93.7712 87.3267 98.8549L91.9504 104.756L87.7211 105.356C89.0503 112.179 92.9702 117.109 96.8116 116.563Z" fill="#030403"/>
<path fill-rule="evenodd" clip-rule="evenodd" d="M123.101 112.831C127.179 112.252 129.624 105.722 128.563 98.2451C127.501 90.7686 123.335 85.1771 119.257 85.7561C116.171 86.1941 114.02 90.0388 113.616 95.1224L118.24 101.023L114.01 101.624C115.339 108.447 119.259 113.376 123.101 112.831Z" fill="#030403"/>
</g>
<g clip-path="url(#clip2_501_944)">
<path d="M58.6531 110.473L59.5095 105.092L55.7572 104.495L54.2354 101.97L60.5627 98.4743L61.6027 91.9387L51.7128 97.7636L46.8344 89.6308L45.7582 96.3932L50.1559 103.562L50.1494 103.603L44.7477 102.743L43.8914 108.124L58.6531 110.473Z" fill="white"/>
<path d="M61.827 92.4396L69.477 78.4205L66.5083 76.8005L61.3883 86.1832L58.951 84.8532L63.571 76.3868L61.0237 74.9968L56.4037 83.4632L54.2047 82.2632L59.2247 73.0638L56.2559 71.4437L48.7059 85.2795L61.827 92.4396Z" fill="white"/>
<path d="M70.5983 76.6416L82.4933 65.9849L80.2366 63.466L72.2755 70.5983L70.4228 68.5303L77.6064 62.0945L75.6701 59.9332L68.4864 66.369L66.8148 64.5031L74.6204 57.5101L72.3637 54.9911L60.6242 65.5085L70.5983 76.6416Z" fill="white"/>
<path d="M84.4416 65.4052L89.4427 63.2422L87.6278 59.0459L93.6444 56.4438C97.5533 54.7532 98.9975 52.1497 97.7073 49.114C96.3648 46.0099 93.4538 45.2218 89.564 46.9041L78.5081 51.6858L84.4416 65.4052ZM86.4096 56.2292L84.7273 52.3395L89.1152 50.4418C90.8589 49.6876 92.1153 49.9631 92.654 51.2086C93.2009 52.4732 92.5412 53.5774 90.7975 54.3315L86.4096 56.2292Z" fill="white"/>
<path d="M111.948 60.3696C117.431 60.6455 121.082 58.7181 121.216 55.6312C121.353 52.9207 119.253 51.4355 114.234 50.6603L111.476 50.2288C109.567 49.9446 108.751 49.5482 108.779 48.9852C108.84 48.194 110.429 47.7723 112.556 47.8585C114.851 47.953 117.277 48.7649 118.848 49.931L120.528 46.8801C118.753 45.5993 115.83 44.6997 112.682 44.5412C107.365 44.2736 103.646 45.905 103.484 49.1159C103.351 51.7639 105.307 53.1792 109.994 53.9168L112.73 54.368C114.991 54.7326 115.93 55.177 115.897 55.8234C115.858 56.5948 114.499 57.0281 112.393 56.9221C109.536 56.7783 106.355 55.6149 104.694 54.1517L102.655 57.289C104.579 58.9327 108.361 60.1891 111.948 60.3696Z" fill="#B3FF52"/>
<path d="M120.811 59.7118L125.381 62.0545L129.657 53.7132L129.695 53.7322L129.728 64.283L133.871 66.4068L142.309 60.1986L142.346 60.2177L138.07 68.5591L142.64 70.9018L149.459 57.6002L143.105 54.3432L133.925 61.0387L133.888 61.0197L133.909 49.6291L127.63 46.4102L120.811 59.7118Z" fill="#B3FF52"/>
<path d="M142.222 72.4392L146.05 76.2579L156.607 65.6756L152.779 61.8569L142.222 72.4392Z" fill="#B3FF52"/>
<path d="M147.22 77.4735L155.077 89.6961L158.431 87.5399L153.521 79.9008L162.74 73.9743L159.794 69.3909L147.22 77.4735Z" fill="#B3FF52"/>
<path d="M155.72 90.8306L159.495 106.349L162.781 105.549L160.255 95.1633L162.953 94.507L165.232 103.879L168.052 103.193L165.772 93.8212L168.206 93.2291L170.683 103.412L173.969 102.613L170.244 87.2976L155.72 90.8306Z" fill="#B3FF52"/>
<path d="M159.306 109.562L156.857 125.343L160.199 125.862L161.838 115.3L164.582 115.725L163.102 125.256L165.97 125.701L167.449 116.171L169.925 116.555L168.317 126.911L171.659 127.429L174.077 111.854L159.306 109.562Z" fill="white"/>
<path d="M154.049 130.762L151.08 136.11L160.55 149.846L163.296 144.899L156.564 135.693L156.585 135.656L167.968 136.485L170.705 131.558L154.049 130.762Z" fill="white"/>
<path d="M147.395 141.965L135.324 152.422L137.538 154.978L145.617 147.979L147.435 150.078L140.145 156.393L142.045 158.587L149.335 152.271L150.976 154.165L143.054 161.027L145.269 163.583L157.182 153.263L147.395 141.965Z" fill="white"/>
<path d="M120.102 157.937C118.812 158.422 117.464 159.464 116.952 160.415L118.583 162.143C118.714 161.782 119.117 161.43 119.45 161.305C119.997 161.099 120.417 161.209 120.803 161.465L122.365 162.595C122.888 162.979 123.458 163.188 123.993 163.188L124 163.208C121.624 164.658 120.689 166.682 121.475 168.773C122.533 171.587 125.292 172.401 129.044 170.991L140.808 166.571L135.551 152.578L130.45 154.495L132.198 159.146L129.208 160.27C128.289 160.615 127.283 160.547 126.388 159.946L124.958 158.811C123.723 157.959 122.213 157.144 120.102 157.937ZM133.277 162.019L134.577 165.478L129.437 167.409C127.972 167.96 126.869 167.638 126.458 166.544C126.054 165.469 126.672 164.501 128.138 163.95L133.277 162.019Z" fill="white"/>
<path d="M110.888 159.166L105.44 159.061L105.341 164.153L97.9905 173.866L103.793 173.979L107.965 167.754L107.986 167.755L112.121 174.141L117.861 174.252L110.789 164.259L110.888 159.166Z" fill="white"/>
<path d="M98.7936 159.036L89.0043 154.902C83.6577 152.645 79.6373 153.848 77.7696 158.272C75.9019 162.695 77.8435 166.415 83.1902 168.673L92.9795 172.806L98.7936 159.036ZM92.4713 160.377L89.5236 167.359L85.3117 165.58C82.6576 164.46 81.6934 162.557 82.6354 160.326C83.5773 158.095 85.6053 157.478 88.2594 158.599L92.4713 160.377Z" fill="white"/>
<path d="M81.4493 152.087L77.4733 148.092L74.8137 149.119L69.5565 143.836L70.5815 141.166L66.5907 137.156L61.135 152.864L65.597 157.348L81.4493 152.087ZM71.8874 150.529L65.8147 152.802L65.7853 152.772L68.1175 146.74L71.8874 150.529Z" fill="white"/>
<path d="M64.512 131.538L62.3678 126.529L57.6849 128.534L45.8084 125.828L48.0923 131.164L55.4821 132.406L55.4903 132.425L51.3702 138.821L53.6295 144.099L59.8291 133.543L64.512 131.538Z" fill="white"/>
<path d="M60.3424 117.627C60.087 116.062 58.9337 115.086 57.5944 115.305C56.2346 115.527 55.4716 116.814 55.727 118.38C55.9825 119.946 57.1117 120.904 58.4716 120.682C59.8109 120.464 60.5978 119.193 60.3424 117.627Z" fill="white"/>
</g>
</g>
<defs>
<clipPath id="clip0_501_944">
<rect width="193" height="193" fill="white" transform="translate(0 27.1299) rotate(-8.08087)"/>
</clipPath>
<clipPath id="clip1_501_944">
<rect width="91.114" height="91.114" fill="white" transform="translate(57.5983 70.406) rotate(-8.08087)"/>
</clipPath>
<clipPath id="clip2_501_944">
<rect width="130.172" height="131.803" fill="white" transform="translate(35.4439 52.8291) rotate(-8.08087)"/>
</clipPath>
</defs>
</svg>
