<svg width="53" height="53" viewBox="0 0 53 53" fill="none" xmlns="http://www.w3.org/2000/svg">
<path d="M51.0184 23.6419L34.1726 24.8199C33.9435 24.8359 33.7314 24.8038 33.532 24.7485C33.6721 24.5961 33.8378 24.4602 34.0402 24.3544L49.0334 16.5828C49.6999 16.2367 49.9604 15.4178 49.6143 14.7514C49.2703 14.0848 48.4493 13.8244 47.7829 14.1704L32.7917 21.9419C32.6816 21.9985 32.5692 22.0226 32.4574 22.0549C32.5156 21.9551 32.5653 21.8498 32.6463 21.7565L43.7245 9.01255C44.2166 8.44639 44.1565 7.58678 43.5905 7.09665C43.0244 6.6045 42.1647 6.66461 41.6726 7.23076L30.5945 19.9747C30.4436 20.1482 30.2733 20.2763 30.0908 20.3767C30.0824 20.1694 30.1023 19.9582 30.1724 19.7373L35.2791 3.64189C35.5062 2.92721 35.1104 2.16237 34.3958 1.93527C33.6811 1.70817 32.9162 2.10393 32.6893 2.82064L27.5827 18.9181C27.5462 19.0368 27.4815 19.1309 27.4256 19.2347C27.3952 19.1207 27.3571 19.0133 27.3485 18.8897L26.1705 2.04388C26.1181 1.29374 25.4695 0.729944 24.7193 0.782399C23.9692 0.834854 23.4054 1.48343 23.4578 2.23357L24.6358 19.0794C24.6518 19.3085 24.6198 19.5205 24.5645 19.72C24.4141 19.5797 24.2762 19.4142 24.1704 19.2117L16.3988 4.21852C16.0527 3.55207 15.2338 3.29152 14.5673 3.63761C13.9009 3.9837 13.6405 4.80457 13.9864 5.469L21.7579 20.4602C21.8146 20.5723 21.8386 20.6827 21.8709 20.7946C21.7711 20.7364 21.6657 20.6867 21.5725 20.6056L8.82852 9.52745C8.26237 9.03529 7.40273 9.09541 6.9126 9.66142C6.42045 10.2276 6.48042 11.0852 7.04658 11.5773L19.7905 22.6555C19.9641 22.8063 20.0921 22.9767 20.1925 23.1591C19.9852 23.1675 19.772 23.1477 19.5532 23.0775L3.45772 17.9708C2.74304 17.7437 1.97818 18.1394 1.75122 18.8562C1.52412 19.5708 1.91988 20.3357 2.63659 20.5627L18.7319 25.6673C18.8507 25.7058 18.9468 25.7684 19.0483 25.8224C18.9343 25.8528 18.8271 25.8929 18.7034 25.9016L1.85769 27.0795C1.10957 27.1318 0.543725 27.7806 0.59618 28.5307C0.648635 29.2808 1.29723 29.8446 2.04738 29.7922L18.8931 28.6142C19.1222 28.5982 19.3342 28.6282 19.5317 28.6857C19.3916 28.8381 19.2259 28.974 19.0235 29.0798L4.03231 36.8513C3.36585 37.1974 3.1053 38.0163 3.45139 38.6827C3.79748 39.3492 4.61637 39.6097 5.28283 39.2636L20.276 31.492C20.3862 31.4354 20.4987 31.4133 20.6104 31.379C20.5503 31.481 20.5025 31.5842 20.4215 31.6795L9.3434 44.4234C8.85125 44.9896 8.91121 45.8472 9.47751 46.3413C10.0437 46.8335 10.9013 46.7735 11.3934 46.2074L22.4716 33.4634C22.6224 33.2899 22.7948 33.1617 22.9752 33.0615C22.9834 33.2667 22.9637 33.4799 22.8935 33.6988L17.7869 49.7962C17.5598 50.5109 17.9556 51.2758 18.6723 51.5027C19.387 51.7298 20.1518 51.3341 20.3788 50.6173L25.4834 34.5221C25.522 34.4032 25.5845 34.3072 25.6404 34.2034C25.6708 34.3174 25.7089 34.4248 25.7175 34.5485L26.8955 51.3943C26.9478 52.1424 27.5965 52.7082 28.3467 52.6557C29.0968 52.6033 29.6605 51.9527 29.6082 51.2046L28.4302 34.3588C28.4142 34.1297 28.4442 33.9178 28.5015 33.7182C28.6519 33.8584 28.7898 34.024 28.8956 34.2264L36.6671 49.2176C37.0132 49.884 37.8321 50.1446 38.4985 49.7985C39.165 49.4524 39.4254 48.6315 39.0794 47.9671L31.308 32.9759C31.2512 32.8638 31.2272 32.7534 31.195 32.6415C31.297 32.7016 31.4001 32.7494 31.4934 32.8305L44.2374 43.9087C44.8035 44.4008 45.6611 44.3408 46.1553 43.7745C46.6495 43.2082 46.5873 42.3488 46.0212 41.8566L33.2772 30.7785C33.1037 30.6276 32.9756 30.4573 32.8753 30.2748C33.0825 30.2664 33.2938 30.2863 33.5146 30.3564L49.61 35.4631C50.3247 35.6902 51.0896 35.2945 51.3165 34.5778C51.5436 33.8631 51.1479 33.0982 50.4312 32.8713L34.3337 27.7648C34.2149 27.7262 34.1188 27.6636 34.0172 27.6096C34.1313 27.5792 34.2386 27.5412 34.3623 27.5325L51.2081 26.3545C51.9562 26.3022 52.522 25.6535 52.4695 24.9034C52.4171 24.1532 51.7685 23.5894 51.0184 23.6419Z" fill="#030403"/>
</svg>
